<svg xmlns="http://www.w3.org/2000/svg" viewBox="0 0 599.88 660.14"><defs><style>.cls-1{fill:#ce0f25;stroke:#640000;}.cls-1,.cls-10{stroke-width:2.72px;}.cls-2{fill:#fff;stroke:#969696;stroke-linecap:round;stroke-linejoin:round;}.cls-2,.cls-9{stroke-width:2.2px;}.cls-3{fill:#0036b6;}.cls-4{fill:#ffe24b;}.cls-4,.cls-5,.cls-8{fill-rule:evenodd;}.cls-5{fill:#ddad00;}.cls-10,.cls-6,.cls-7,.cls-9{fill:none;}.cls-6,.cls-9{stroke:#806600;}.cls-6,.cls-7{stroke-width:2.2px;}.cls-7{stroke:#a80;}.cls-8{fill:#fff2ac;}.cls-10{stroke:#036;}</style></defs><title>Blason_fr_ville_Amiens</title><g id="Calque_2" data-name="Calque 2"><g id="Calque_1-2" data-name="Calque 1"><path class="cls-1" d="M300,658.69s298.5-112.32,298.5-397.78V2.36H1.52V260.91C1.52,546.36,300,658.69,300,658.69Z"/><path class="cls-2" d="M301.41,614.17c28.75-6.26,10-34.9,9.82-35,17.67,19.82,26.83,9.55,5.62-8.41-4.46-7.26-.42-19.36,0-29.41,3.39,25.19,24.92,20.73,47.29,49.25,1.55-18,26-25.06,34.11-32.44,6.89-12.47,23.43-18.21,35.9-20.32,23.85-5.11,27-15.76,32.87-24.49-15.54,10-26.94,22-48,19.61-1.24-8.82-5.4-8.86-6.7-12.6-4.68,3.82-9.35,5-14,15.4-7,2.27-14-8.15-21.05-15.4-7.29-10.45-15.88-5.83-23.86-10.72,2.23,14.28,20.14,17.52,29.47,33.12,17.87,7.81-8.71,20.49-21.05,22.57-10.46-2.31-21.52-3.49-32.28-15.56,20.85,3.48,13.38-17.62,18.25-28-19.43,26.4-45.16,2.48-13.59-16.81,11.85-5.14,23.21-2.3,32.9-5.75,12.39-4.41,24,4,35.87,7.16,68,3.06,79.47-26.91,75.79-40.62-1.8-17.4-13.18-36-33.69-26.61,8.59,3.16,27.26-3.48,23.86,36.41-4.47,23.08-42.77,26.4-74.38,19.61-5.64-3.63-14.16-12.08-24.65-7-12.26,6-26.29,4.54-38.07,3.13,11.25-18.18,21.38-36.67,43.2-53.89,29.82-20.53,43.19-28,62.32-28.31,18.8,2.32,14.87-8.64,3.52-10.6,11.68-7.75,27.56-22.85,49.12-4.2,1.18-19-29.18-7.93-26.67-21,6.85-8.27,4.84-22.07,4.21-35,7.28-1.66,13.29-3.47,28.07-4.2-5.67-5.75-15.88-3.55-25.26-2.8-4.58,5.08-11.54-19.84-19.65-21,2,20.3,22,37.85,1.4,61.62-7.83,17.83-32.09,29.89-56.14,42,1.61-10-3.35-14.83-10.15-3.51-9.06,19-17.63,23.41-33.36,35.72,8.07-12.8,2.67-31.64,12.12-35.1,13.58-10.27,12-23.71-.89-16.72-9.2-23.68,4-12.57,5.61-30.81,5.62-7.7,13.59-7.17,21-8.41-9.33.19-14-13.28-36.49,15.41-23.7-41.2,8.77-94.63,18.25-99.43,15.74-4.86,31.09-9.24,39.15-4.53l15.36,2.85c21.53-3.42,25-7.41,29.82-13.6l16.84-10.91c-13.43,2.09-24,7.79-34.79,11.38-.26.08,1.29.12-.57-.27-18.23-3.75-99.9-17.05-8.27,1.76,1.74.35-3.8,2-5.65,1.78-15.78-2.1-36.83-8.41-58.71,2.28-16.92,19.2-43.28,54.78-26.86,89.09-7.53-3.18-20,7.15-4.62,11.82,9.69,8.66,27.35,23.2,15.85,62.4-8.33,38.9-19.24,52.82-41.15,93.83-2.44-23.89-5.07-39.42-.42-48.78,2.42-12.08-9.74-21.66-6.15-47.25.67-20.35,7.53-45.44,1.21-57.95a11,11,0,0,1-8-14.7c-1.53-10.38,18.07-13.15,16.6-33,.13-19.13-8.55-52.17-11.35-56.29,1.28,13.59,12.09,70.81-6.89,71.69-9-15.85-16.05-.94-6.59,10.3,1.69,10.72-8.14,22,6.59,27.52,12.76-1.73-5.89,50.7,1.4,78.42,2.51,10.34,6.84,21.4,0,28-15.31-15-15,1.37-8.89,6.42,3.92,10.33,16.76,19.91,7.74,34.4-9.61-24-27.44-49.29-42.35-60.43-13.53-10.56-20.54-27-16.85-53.21.6-19.4,19.31-35.18,33.69-51.82,11.69-20.47,10.74-39-9.82-54.62,6,16.31,17.27,31.34,0,53.22-11.19-28.24-39.32-16.64-54.8-10.13,19.92.86,46.35-8.66,46.38,17.13-1.82,8.73-8.91,13.24-15.44,18.2-13.07-13.12-16.33,8.94-7,12.61-4.28,17.74-1.49,30.71,2.25,48.45-34.85-46.83-58.22-43.36-69.61-47.48-28.67,0-9.36-38-14-57-11.36-21-21.63-11.57-32.28-12.6C154.29,327,134.48,351,138.51,367c-47.5-23.07-34.19-51-31.72-80.51,2.82-22.49,20.4-50.07,59.5-15.89-9.75-13.39-1.64-13.95,7.86-13.52-18.74-8.15-41.61-16.37-58.94-7-21.74,16.34-14,32.68-18.25,49-6.81,48.68,11.77,52.95,21.05,63-27.77,4.67-18.71,20.54-28.07,30.81,10.47-9.18,17.57-25.92,33.69-22.41,16.63,4.75,12.1,35.66,32.28,27.46,28.21,2.17,54.76,27.85,80,55.17,11.46,11.28,25.47,24,34.68,39-16.24-7.73-38.3-11.28-59.95-8.23-2.44-8.51.23-16,1.41-23.81C207,463.61,204,472.34,202.81,486c-25.74,3.28-48.54,9.61-72.52-13.19-10.52-9-8.58-30.07,17.23-47.8-13.25-5.9-24.31,7.48-32.31,33.74-3.71-3.06-7.42-3.17-11.13,0,18.1,18.28,38.26,39.3,61.66,39.18,25.1.78,37.4-11.2,67.36-5.57,14.61,4.55,51.76,3,47.27,37.78-12.4-3.87-22.22-2.82-25.26,11.21,1.24,14.82,15.56,8.76,28.07,5.6-20.58,11.68-39,32-71.58-4.21,0-13.21,12.4-13,21.05-16.8,28.74-10.34,13.81-17,18.25-25.21-11.5,15.41-25.54,18.94-39.3,23.81-6.09-12.13-15.92-16.77-26.67-19.61,5.61,4.22,9.36,12.14,12.63,21-17.84-10-10.51-2-33.68,0-6.89-2.94-8.55-11.08-8.43-21-4.48,8.48-5,25.84,8.62,27,19.68-1.21,33.32-.6,39.1,13.61,7.5,15.24,22.69,27.51,43.24,30.82,12.23-.5,27.4-6,38.16-23.81,2.16,13,1,25.77-12.4,38l19.42-5.76c-9.34,8.9-9.68,30.15,9.82,29.4Z"/><path class="cls-2" d="M297.11,240.83c-19.45-18.68-30.28-10.8-30.28-10.8-2.37,3.36-1.29,6.71,2.2,10.07,6.36,7.18-15.65,14.62-17.06,26,12.9,7.68,16.93,2.84,24.59,3.11-.62,16.74,9.16,28,18.53,39.55,10.44-10.74,21.08-21.38,20.55-37.35,8.75,1.55,17.49,3.51,26.24-3.48,4.28-13.13-22.91-21.43-19.45-27.46,3-2.23,7.15-3.66,7.89-7.69,1.06-5.44-13.1-14.72-32.48,7.69l19.27,14.28L298.39,243l-.91,44.86-.55-45.23-26.06,16.66Z"/><path class="cls-2" d="M174.15,257.06c-5.84,23.54,5.19,28.41,5.19,28.41,3.69.33,5.82-2,6.87-6.24,2.75-8.18,18.47,5.59,28,1.57.2-13.48-5.4-14.44-8.63-20.52,13.35-7.06,17.78-19.74,22.55-32.21-13.08-3.29-26.18-6.77-38.42.82-2.73-7.5-5.13-15.19-14.53-18.84-12.18,2.58-6.43,27.46-12.7,27.49-3.08-1.31-6.07-3.92-9.55-2.68-4.73,1.62-5.61,16.81,20.62,21.8L176,235.25l-.73,19.83,35.46-19.47-35.08,20.78,24.74,12.77Z"/><path class="cls-2" d="M164.7,271.55c-9.62-19.59-20-16.59-20-16.59-2.74,1.9-2.84,4.75-1.12,8.27,2.85,7.22-16,6.8-20.21,15.07,7.69,9.42,12.1,6.84,17.86,9.17-5.12,12.57-.81,23.87,3.12,35.22,10.93-5.28,22-10.44,26-22.74,6.23,3.59,12.35,7.5,20.94,4.6,6.9-8.81-11.49-22.65-7.18-26.28,2.88-.88,6.46-.81,8.14-3.68,2.32-3.84-5.88-14.82-26.86-3.12l10.7,16.2-11-14.1-13.15,33.9,12.14-34.58-24.46,5.48Z"/><path class="cls-2" d="M108,258.64c19.64,1.33,22-8.13,22-8.13-.25-3-2.43-4.35-6-4.59-6.93-1,1.87-15.48-2.68-22.5-10.81,1.74-10.79,6.33-15.2,9.76-7.51-9.63-18.28-11.37-28.92-13.42-.79,10.87-1.73,21.79,6.06,30.47-5.61,3.23-11.42,6.22-13,14.21,3.78,9.33,22.87,1.26,23.76,6.24-.61,2.64-2.27,5.39-.79,8,2,3.53,14.22,2.09,14.52-19.48l-17.46,1,16-2.21L85.71,232.53l21.54,25L114,236Z"/><path class="cls-2" d="M113.8,320.09c11-16.3,3.94-23.06,3.94-23.06-2.71-1.28-5-.08-7,2.85-4.36,5.46-12.5-9.36-20.87-8.93-3.9,10.21.1,12.49.87,18-12.11,1.67-19,10.11-26.11,18.28,9,6.12,18.06,12.4,29.48,10,0,6.47-.31,13,5.83,18.36,10,1.4,12.52-19.13,17.29-17.41,2,1.85,3.54,4.66,6.54,4.68,4,.07,8.93-11.25-9.65-22.29l-7.83,15.61,6.06-14.89-32.39,5,32.47-6.12L97.18,303.63Z"/><path class="cls-2" d="M93.93,386.8c-14.18-13.61-22.07-7.87-22.07-7.87-1.73,2.44-.94,4.89,1.61,7.34,4.63,5.23-11.41,10.65-12.44,19,9.4,5.6,12.34,2.07,17.92,2.27-.45,12.2,6.68,20.44,13.51,28.83,7.61-7.83,15.37-15.59,15-27.23,6.38,1.13,12.76,2.56,19.13-2.54,3.12-9.57-16.7-15.63-14.18-20,2.17-1.62,5.22-2.67,5.76-5.61.77-4-9.55-10.72-23.68,5.61l14,10.41L94.87,388.4l-.67,32.7-.4-33-19,12.15Z"/><path class="cls-2" d="M147.52,425c-19.1-4.72-23.06,4.19-23.06,4.19-.27,3,1.64,4.71,5.07,5.55,6.63,2.22-4.54,14.92-1.28,22.62,10.95.16,11.73-4.36,16.66-7,5.73,10.79,16,14.36,26.15,18.22,2.67-10.57,5.5-21.16-.67-31.05,6.09-2.21,12.33-4.15,15.3-11.74-2.1-9.85-22.3-5.2-22.31-10.27,1.06-2.49,3.17-4.91,2.17-7.72-1.32-3.82-13.65-4.53-17.7,16.67l17.38,2-16.09-.58,15.8,28.65-16.87-28.35-10.36,20Z"/><path class="cls-2" d="M210.79,459.89c5.45,18.86,15.16,17.83,15.16,17.83,2.73-1.26,3.27-3.77,2.29-7.16-1.39-6.84,15.22-3.54,20.27-10.21-5.33-9.54-9.65-8-14.39-10.91,6.51-10.34,4.46-21,2.75-31.71-10.51,3-21.11,5.83-26.62,16.11-4.95-4.16-9.76-8.58-17.84-7.35-7.49,6.74,6.64,21.87,2.25,24.41-2.69.33-5.85-.29-7.79,2-2.66,3,2.89,14.05,23.31,7l-6.94-16L210.77,458l17-28-16.17,28.75,22.53-1Z"/><path class="cls-2" d="M249.16,287.66C246.84,266,236,265.23,236,265.23c-3.22.85-4.3,3.49-3.89,7.39.2,7.76-17.33.94-24.15,7.27,4,11.46,9,10.55,13.63,14.7-9.11,10.07-8.94,22.16-9.13,34.17,12.08-1.24,24.23-2.31,32.24-12.5,4.62,5.5,9,11.27,18.09,11.47,9.51-5.92-3-25.2,2.27-27.14,3,.16,6.34,1.44,8.91-.68,3.49-2.82-.45-15.93-24.17-12.1l4.5,18.87-5.5-17-24,27.35,23.25-28.35-24.86-3.19Z"/><path class="cls-2" d="M203.44,342.19c1.65-24.19-10.05-27.08-10.05-27.08-3.69.31-5.39,3-5.68,7.34-1.29,8.53-19.16-2.3-27.84,3.31,2.15,13.31,7.83,13.29,12.07,18.71C160,353.73,157.87,367,155.34,380.1c13.46,1,27,2.13,37.7-7.47,4,6.91,7.69,14.07,17.58,16,11.55-4.65,1.56-28.17,7.72-29.27,3.26.76,6.67,2.8,9.88,1,4.37-2.41,2.59-17.52-24.1-17.89L205.4,364l-2.73-19.65-31.53,25.32,30.93-26.54-26.59-8.29Z"/><path class="cls-2" d="M295.71,393.93c-17.5-16.8-27.24-9.72-27.24-9.72-2.14,3-1.17,6,2,9.06,5.72,6.46-14.09,13.16-15.36,23.4,11.61,6.92,15.24,2.55,22.13,2.8-.56,15.06,8.24,25.23,16.68,35.6,9.39-9.67,19-19.24,18.49-33.62,7.87,1.39,15.74,3.16,23.62-3.13,3.85-11.82-20.62-19.29-17.5-24.72,2.67-2,6.43-3.29,7.1-6.92.95-4.89-11.79-13.24-29.24,6.92l17.35,12.86-16.85-10.55-.82,40.37-.5-40.7-23.45,15Z"/><path class="cls-2" d="M446.27,439.31c-2.58-24.11-14.61-24.93-14.61-24.93-3.58.95-4.78,3.88-4.32,8.21.23,8.62-19.26,1.05-26.84,8.08,4.44,12.74,10,11.73,15.15,16.34-10.12,11.18-9.94,24.62-10.15,38,13.42-1.38,26.93-2.57,35.82-13.89,5.14,6.12,10,12.52,20.11,12.75,10.56-6.58-3.37-28,2.51-30.16,3.35.18,7.05,1.61,9.9-.75,3.88-3.13-.5-17.7-26.85-13.45l5,21-6.11-18.88L419.25,472l25.83-31.5-27.62-3.55Z"/><path class="cls-2" d="M453.54,319.66c24.24,1.65,27.14-10,27.14-10-.31-3.68-3-5.37-7.36-5.67-8.55-1.28,2.32-19.11-3.31-27.78-13.34,2.15-13.32,7.82-18.75,12.05-9.28-11.89-22.57-14-35.71-16.57-1,13.43-2.14,26.91,7.49,37.62-6.93,4-14.1,7.68-16.08,17.54,4.67,11.53,28.23,1.56,29.34,7.71-.76,3.25-2.81,6.65-1,9.86,2.42,4.36,17.56,2.58,17.93-24.05l-21.56,1.27,19.7-2.72L426,287.43l26.6,30.86,8.3-26.53Z"/><path class="cls-2" d="M350,296.81c-20.17-13.52-28.53-4.85-28.53-4.85-1.58,3.34-.09,6.15,3.53,8.58,6.76,5.37-11.58,15.4-11.05,25.7,12.63,4.8,15.45-.12,22.28-1.07,2.07,14.93,12.51,23.42,22.62,32.16,7.57-11.15,15.34-22.24,12.37-36.31,8,0,16.05.38,22.71-7.17,1.73-12.31-23.67-15.43-21.54-21.32,2.28-2.44,5.76-4.35,5.79-8,.09-5-13.92-11-27.59,11.88L370,306l-18.42-7.47,6.21,39.91-7.58-40-20.48,18.83Z"/><path class="cls-2" d="M469.85,247.31c-9.84,22.16.16,28.87.16,28.87,3.58,1,6.09-1,7.86-4.95,4.13-7.58,17.21,8.7,27.29,6.39,2.54-13.25-2.81-15.16-4.93-21.7,14.37-4.64,20.94-16.36,27.81-27.82-12.31-5.5-24.61-11.2-38-5.84-1.38-7.86-2.41-15.85-11-21.08-12.44.44-11.11,25.94-17.29,24.87-2.8-1.82-5.3-4.91-8.94-4.29-4.94.78-8.44,15.58,16.51,25l6.18-20.65-4.17,19.4,38.3-13L471.46,246.9l22.14,16.86Z"/><path class="cls-2" d="M408.26,252.48c17.67-8.63,15-18,15-18-1.72-2.46-4.29-2.56-7.46-1-6.52,2.55-6.14-14.34-13.6-18.15-8.49,6.9-6.17,10.86-8.27,16-11.33-4.59-21.53-.73-31.77,2.81,4.77,9.81,9.43,19.74,20.52,23.36-3.24,5.59-6.77,11.08-4.15,18.8,7.94,6.2,20.43-10.32,23.7-6.45.79,2.59.73,5.8,3.31,7.31,3.47,2.08,13.37-5.28,2.82-24.12l-14.61,9.61,12.72-9.87L375.86,241,407,251.9l-4.94-22Z"/><path class="cls-2" d="M490.4,333.8c-15.9,11.57-11.6,20.32-11.6,20.32,2.11,2.12,4.67,1.77,7.52-.3,6-3.65,8.54,13.06,16.55,15.51,7.16-8.26,4.18-11.77,5.35-17.22,12,2.56,21.33-3,30.8-8.27-6.4-8.83-12.71-17.81-24.27-19.45,2.22-6.07,4.74-12.09.82-19.24-8.91-4.73-18.33,13.7-22.22,10.46-1.23-2.42-1.73-5.59-4.54-6.63-3.77-1.45-12.24,7.52,1.43,24.24l12.71-12-10.8,11.93,32.15,6.33-32.6-5.33,8.69,20.78Z"/><path class="cls-2" d="M387,357.63c-17.68,8.63-15,18-15,18,1.72,2.46,4.29,2.56,7.47,1,6.51-2.55,6.13,14.34,13.59,18.15,8.49-6.9,6.17-10.86,8.27-16,11.33,4.59,21.53.73,31.77-2.81-4.77-9.81-9.42-19.74-20.52-23.36,3.24-5.59,6.77-11.08,4.16-18.8-7.95-6.2-20.43,10.32-23.71,6.45-.79-2.59-.72-5.8-3.31-7.31-3.47-2.08-13.37,5.28-2.82,24.12l14.61-9.61-12.71,9.87,30.57,11.81-31.19-10.9,4.94,22Z"/><path class="cls-2" d="M489.59,393c-18-8-23.44.13-23.44.13-.78,2.89.8,4.92,4,6.35,6.15,3.34-7.07,13.91-5.2,22.06,10.76,2.05,12.31-2.27,17.63-4,3.76,11.62,13.28,16.93,22.57,22.49,4.47-10,9.1-19.9,4.75-30.7,6.38-1.12,12.86-2,17.11-8.91-.36-10.07-21.06-9-20.19-14,1.48-2.26,4-4.28,3.48-7.23-.63-4-12.65-6.82-20.33,13.35l16.77,5L491,394.2l10.58,30.95-11.67-30.84-13.69,17.9Z"/><path class="cls-2" d="M360.68,438.82c-2.1-19.52-11.84-20.19-11.84-20.19-2.9.77-3.88,3.15-3.5,6.66.18,7-15.6.84-21.74,6.54,3.6,10.32,8.13,9.5,12.27,13.23-8.2,9.06-8.05,19.94-8.22,30.76,10.87-1.12,21.81-2.09,29-11.25,4.17,4.95,8.12,10.14,16.29,10.32,8.56-5.33-2.73-22.68,2-24.43,2.7.15,5.71,1.3,8-.6,3.15-2.54-.4-14.34-21.75-10.89l4.06,17-4.95-15.29-21.58,24.62,20.93-25.51-22.37-2.88Z"/><path id="rect2230" class="cls-3" d="M1.36,1.54H598.2V181.61H1.36Z"/><g id="g18799"><g id="g18845"><g id="g18847"><g id="g18849"><g id="g18851"><path id="path18853" class="cls-4" d="M211,18.08c.62-5.88,1.82-11.94-1.26-17H196c.28,2.49,3.07,8.17,3.07,8.17s-10.42-2.1-13.95-4.81-3.18.91-4.3-3.36h39.38c1.15,6.2.28-.52.78,5.76.35,4.32,1.31,8.19.4,12.42-.49,2.28-1.1,7.51-2.42,11a15.75,15.75,0,0,1-5.15,6.67c-3.61,3.13-15.14,4.81-15.14,4.81s6.34-8,8-11.62c1.93-4.25,3.89-7.37,4.38-12Z"/></g><path id="path19161" class="cls-4" d="M239.45,18.08c-.62-5.88-1.82-11.94,1.26-17h13.76c-.28,2.49-3.06,8.17-3.06,8.17s10.42-2.1,13.94-4.81,3.18.91,4.3-3.36H230.27c-1.15,6.2-.27-.52-.78,5.76-.35,4.32-1.31,8.19-.4,12.42.49,2.28,1.1,7.51,2.42,11a15.75,15.75,0,0,0,5.15,6.67c3.61,3.13,15.14,4.81,15.14,4.81s-6.33-8-8-11.62c-1.93-4.25-3.89-7.37-4.38-12Z"/><path id="path18857" class="cls-5" d="M250,41.06l-3-.05-9.73-3.08L225.53,27.59l-8.63,8.25-5.84,2.79-6.67,2.24-4.43.3s7.84-5.31,10.55-8.29a38.15,38.15,0,0,0,5.18-8.11c2.19-4.46,5.57-15.62,5.69-15.7l2.48-.37,4.8.38s3.38,11.16,5.57,15.63a38.34,38.34,0,0,0,5.18,8.1c2.7,3,10.57,8.25,10.57,8.25Z"/><path id="path18861" class="cls-5" d="M198.75,9s-5.47-3-7.69-4.53-2-.54-2.57-3.35H214.3c.51,2.1.94,2.79.89,4.95,0,1.92-.26,8-.26,8l-4,6.66-.1-.3.3-11V4.73L208.94,1.1h-9.89c-4.58-.22-.31,5.18-.3,7.88Z"/><path id="path18865" class="cls-6" d="M211,18.08c.62-5.88,2.2-11.94-.88-17H195.87c.28,2.49,3.19,8.17,3.19,8.17s-10.14-2.53-13.95-4.81S181,3,179.92,1.1H220c2.24,0,.79,3.34.95,5.76.35,4.32,1.31,8.19.4,12.42-.49,2.28-1.1,7.51-2.42,11a15.75,15.75,0,0,1-5.15,6.67c-3.61,3.13-15.14,4.81-15.14,4.81s6.34-8,8-11.62c1.93-4.25,3.89-7.37,4.38-12Z"/><path id="path19168" class="cls-5" d="M251.84,9s5.46-3,7.69-4.53c2.07-1.39,2-.54,2.56-3.35H236.28c-.5,2.1-.93,2.79-.89,4.95,0,1.92.27,8,.27,8l4,6.66.1-.3-.29-11V4.73l2.2-3.63h9.9c4.58-.22.31,5.18.3,7.88Z"/><path id="path19163" class="cls-6" d="M239.45,18.08c-.62-5.88-2.2-11.94.88-17h14.26c-.28,2.49-3.18,8.17-3.18,8.17s10.13-2.53,13.94-4.81S269.44,3,270.54,1.1h-40.1c-2.24,0-.79,3.34-.95,5.76-.35,4.32-1.31,8.19-.4,12.42.49,2.28,1.1,7.51,2.42,11a15.75,15.75,0,0,0,5.15,6.67c3.61,3.13,15.14,4.81,15.14,4.81s-6.33-8-8-11.62c-1.93-4.25-3.89-7.37-4.38-12Z"/></g><g id="g18873"><g id="g18875"><path id="path18877" class="cls-4" d="M225.06,61.8s9.31-7.67,10.85-16.36c1.39-7.81-4.78-17-5.25-20.64-1.87-14.72,2.09-22.1,2.45-23.7h-16c.36,1.6,4.32,9,2.45,23.7-.46,3.68-6.78,12.83-5.4,20.64C215.75,54.13,225.06,61.8,225.06,61.8Z"/><path id="path18879" class="cls-7" d="M225.06,61.8V1.1"/></g><path id="path18881" class="cls-5" d="M225.35,61.52,232.94,53l2.92-5.58-.59-7.63-2-7.93-3.21-7V13.39L231.19,1.1h-2.92c-.36,5.37-1.3,15.73-.88,21.09.27,3.41,1.74,8.19,2.34,11.15.41,2,1.48,4.68,1.75,6.75a29.3,29.3,0,0,1,0,6.75,33.35,33.35,0,0,1-2,7.34,74.11,74.11,0,0,1-4.08,7.34Z"/><path id="path18883" class="cls-5" d="M215.13,48.6a58.25,58.25,0,0,1,.58-6.45,69.45,69.45,0,0,1,2.92-8.51c.9-2.41,2.68-5.42,3.21-7.93,1.17-5.51.91-13.15.59-18.78-.24-4.18-.19-1.69-.77-5.83h-3.85l1.34,3.2.67,10.78v10.1l-2.45,5.16-2.91,7.86-.89,6.51,1.56,3.89Z"/><path id="path18885" class="cls-6" d="M225.06,61.8s9.31-7.67,10.85-16.36c1.39-7.81-4.78-17-5.25-20.64-1.87-14.72,2.09-22.1,2.45-23.7h-16c.36,1.6,4.32,9,2.45,23.7-.46,3.68-6.78,12.83-5.4,20.64C215.75,54.13,225.06,61.8,225.06,61.8Z"/><path id="path18891" class="cls-8" d="M222.55,50.44c-.33-3.47-.25-11.63-.25-11.63s-3,4.39-3.45,6.37a12.18,12.18,0,0,0-.25,4.37c.62,2.4,4.65,7.33,4.65,7.33s-.54-4.84-.7-6.44Z"/></g><g id="g18893"><g id="g18895"><g id="g18897"><path id="path18899" class="cls-4" d="M246,14.59,241.5,8.36H208.79l-4.5,6.23,4.5,6.21H241.5Z"/><g id="g18901"><g id="g18903"><g id="g18905"><path id="path18907" class="cls-8" d="M206.74,12l37.11.2-2.74-3.89-32.43-.07L206.74,12Z"/><path id="path18909" class="cls-5" d="M243.69,17.26l-37.1-.2,2.74,3.9,32.42.06,1.94-3.76Z"/><path id="path18911" class="cls-6" d="M246,14.59,241.5,8.36H208.79l-4.5,6.23,4.5,6.21H241.5Z"/></g></g></g></g></g></g></g></g></g><g id="g11875"><g id="g25099"><g id="g5518-6-9-7-5-7"><g id="g5465-5-1-6-0-0"><g id="g4533-9-5-0-2-4"><path id="path4516-5-5-0-1-1" class="cls-4" d="M285.56,119.43c.62-5.89.29-17-2.79-22-1-1.71-3.59-3.69-5.58-3.61s-4.65.67-5.58,2.41a15.22,15.22,0,0,0-1.19,6.81c.28,2.49,3.19,7.61,3.19,7.61s-10.42-2.1-13.95-4.81-7.26-7.75-8.37-12a19.85,19.85,0,0,1,0-11.88A27.2,27.2,0,0,1,258.22,72c6.64-5.74,19.52-4.07,22.16-2.64,3.49,1.89,7.73,5.9,9.17,9.61a131,131,0,0,1,4,14.42,113.93,113.93,0,0,1,2,14.82c.35,4.32,1.31,8.19.4,12.42-.49,2.28-1.1,7.51-2.42,11a15.59,15.59,0,0,1-5.15,6.67c-3.61,3.13-15.14,4.81-15.14,4.81s6.34-8,8-11.62c1.93-4.25,3.89-7.37,4.38-12Z"/><path id="path4518-4-5-9-8-0" class="cls-4" d="M313.82,119.43c-.63-5.89-.3-17,2.79-22,1-1.71,3.59-3.69,5.57-3.61s4.66.67,5.58,2.41A15.09,15.09,0,0,1,329,103c-.28,2.49-3.19,7.61-3.19,7.61s10.42-2.1,14-4.81,7.25-7.75,8.37-12a19.85,19.85,0,0,0,0-11.88A27.32,27.32,0,0,0,341.16,72c-6.64-5.74-19.53-4.07-22.16-2.64-3.49,1.89-7.74,5.9-9.17,9.61a131,131,0,0,0-4,14.42,114,114,0,0,0-2,14.82c-.34,4.32-1.3,8.19-.39,12.42.48,2.28,1.09,7.51,2.42,11a15.59,15.59,0,0,0,5.15,6.67c3.6,3.13,15.14,4.81,15.14,4.81s-6.34-8-8-11.62c-1.94-4.25-3.89-7.37-4.38-12Z"/></g><path id="path5446-9-8-5-7-8" class="cls-5" d="M324.53,142.41l-3,0-9.73-3.08-11.68-10.34-8.63,8.24-5.84,2.8-6.67,2.24-4.43.3s7.84-5.31,10.55-8.3a38.09,38.09,0,0,0,5.18-8.1c2.19-4.46,5.57-15.62,5.69-15.7l2.48-.38,4.8.39s3.38,11.16,5.57,15.63a38.34,38.34,0,0,0,5.18,8.1c2.71,3,10.57,8.25,10.57,8.25Z"/><path id="path5457-1-2-6-1-1" class="cls-5" d="M326.09,110.34s5.93-2.51,7.69-4.53,3.15-6,3.72-8.8c.42-2.11-.62-6.61-1.59-8.53a10.1,10.1,0,0,0-6.37-5.6,12.79,12.79,0,0,0-7.43,0,17.49,17.49,0,0,0-6.63,4.53,24,24,0,0,0-4.24,9.34,68.92,68.92,0,0,0-1.59,10.66c0,1.92.26,8,.26,8l4,6.67.1-.31-.3-11v-4.63l2.08-7.17,3.42-4.63,4-.6,3.87,1.94,1.63,4.18-.3,5.08-2.31,5.45Z"/><path id="path5459-7-9-2-5-4" class="cls-5" d="M273.3,110.33s-5.93-2.51-7.69-4.53-3.15-6-3.72-8.8c-.42-2.12.62-6.61,1.6-8.53a10.06,10.06,0,0,1,6.36-5.6,12.79,12.79,0,0,1,7.43,0,17.3,17.3,0,0,1,6.63,4.53,24,24,0,0,1,4.24,9.33,69,69,0,0,1,1.59,10.67c0,1.92-.26,8-.26,8l-4,6.66-.1-.3.3-11.05v-4.64l-2.08-7.17-3.42-4.63-4-.59-3.86,1.94-1.64,4.18.3,5.08,2.31,5.45Z"/><g id="g5451-5-8-8-5-8"><path id="path5453-5-2-5-8-8" class="cls-6" d="M285.56,119.43c.62-5.89.29-17-2.79-22-1-1.71-3.59-3.69-5.58-3.61s-4.65.67-5.58,2.41a15.22,15.22,0,0,0-1.19,6.81c.28,2.49,3.19,7.61,3.19,7.61s-10.42-2.1-13.95-4.81-7.26-7.75-8.37-12a19.85,19.85,0,0,1,0-11.88A27.2,27.2,0,0,1,258.22,72c6.64-5.74,19.52-4.07,22.16-2.64,3.49,1.89,7.73,5.9,9.17,9.61a131,131,0,0,1,4,14.42,113.93,113.93,0,0,1,2,14.82c.35,4.32,1.31,8.19.4,12.42-.49,2.28-1.1,7.51-2.42,11a15.59,15.59,0,0,1-5.15,6.67c-3.61,3.13-15.14,4.81-15.14,4.81s6.34-8,8-11.62c1.93-4.25,3.89-7.37,4.38-12Z"/><path id="path5455-4-0-9-5-4" class="cls-6" d="M313.82,119.43c-.63-5.89-.3-17,2.79-22,1-1.71,3.59-3.69,5.57-3.61s4.66.67,5.58,2.41A15.09,15.09,0,0,1,329,103c-.28,2.49-3.19,7.61-3.19,7.61s10.42-2.1,14-4.81,7.25-7.75,8.37-12a19.85,19.85,0,0,0,0-11.88A27.32,27.32,0,0,0,341.16,72c-6.64-5.74-19.53-4.07-22.16-2.64-3.49,1.89-7.74,5.9-9.17,9.61a131,131,0,0,0-4,14.42,114,114,0,0,0-2,14.82c-.34,4.32-1.3,8.19-.39,12.42.48,2.28,1.09,7.51,2.42,11a15.59,15.59,0,0,0,5.15,6.67c3.6,3.13,15.14,4.81,15.14,4.81s-6.34-8-8-11.62c-1.94-4.25-3.89-7.37-4.38-12Z"/></g><path id="path5461-1-7-4-6-5" class="cls-8" d="M257.34,95.11s.51-4.11,1-6.11c.56-2.46,1.79-5.86,3.64-7.57a15.74,15.74,0,0,1,7.53-3.66,21.15,21.15,0,0,1,7.77.24,22.56,22.56,0,0,1,5.35,2.69c1.16.71,3.64,2.69,3.64,2.69s-4.52-7.21-7.53-9-7.74-2.53-11.17-2.44a14.74,14.74,0,0,0-7.29,2.69,17.5,17.5,0,0,0-6.07,7.81,13.1,13.1,0,0,0,0,7.08,25.45,25.45,0,0,0,3.16,5.62Z"/><path id="path5463-8-4-3-7-7" class="cls-8" d="M320.49,77.53s6.18-1,8.75-.49A21.71,21.71,0,0,1,339,81.92c2,2,4.38,8.3,4.38,8.3s.19-6.64-.73-9.28a12.23,12.23,0,0,0-3.16-4.64c-2-1.67-5.2-3.62-7.77-3.66-1.35,0-4.45-.09-6.28.76a12.82,12.82,0,0,0-4.9,4.13Z"/></g><g id="g5507-8-8-9-9-9"><g id="g4565-3-5-0-4-8"><path id="path4520-5-8-5-1-4" class="cls-4" d="M299.62,163.15s9.31-7.68,10.85-16.36c1.38-7.81-4.79-17-5.26-20.64-1.87-14.72,2.1-34.32,2.45-35.92a42.2,42.2,0,0,1,4.16-11.18,71.41,71.41,0,0,1,4.59-7.37c1.13-1.66,3.63-4.76,4.9-7.9a23.35,23.35,0,0,0,1.46-8.53A25,25,0,0,0,321.41,47a17.54,17.54,0,0,0-7-8.53c-3.94-2.42-7.12-4.37-8.33-5.14-4-2.54-6.47-10.91-6.51-10.91s-2.52,8.37-6.52,10.91c-1.21.77-4.25,2.72-8.19,5.14A17.57,17.57,0,0,0,278,47a24.72,24.72,0,0,0-1.36,8.22,23.35,23.35,0,0,0,1.46,8.53c1.27,3.15,3.77,6.24,4.89,7.9a71.88,71.88,0,0,1,4.6,7.37,42.31,42.31,0,0,1,4.15,11.18c.36,1.6,4.32,21.2,2.45,35.92-.46,3.68-6.78,12.83-5.39,20.64C290.31,155.47,299.62,163.15,299.62,163.15Z"/><path id="path4544-2-3-6-6-5" class="cls-7" d="M299.62,163.15l0-139.56"/></g><path id="path5377-2-0-3-1-8" class="cls-5" d="M299.9,162.87l7.59-8.51,2.92-5.58-.59-7.63-2-7.93-3.21-7V114.73l1.17-11.44,1.46-12.62,3.21-10,5.25-7.34L320,65.72l1.75-4.11.88-7.33-1.17-7.05-3.69-5.95-7.11-4.91a80,80,0,0,1,7,9.24,12.4,12.4,0,0,1,1.5,6,18.33,18.33,0,0,1-.88,7,27.9,27.9,0,0,1-3.79,7.63c-1.71,2.47-4.76,5.24-6.14,7.92-2,3.84-3.29,9.55-4.08,13.8-1,5.21-1.11,12.32-1.46,17.61s-1.3,12.54-.88,17.9c.27,3.41,1.74,8.19,2.34,11.15.41,2.05,1.48,4.68,1.75,6.75a28.76,28.76,0,0,1,0,6.75,33.88,33.88,0,0,1-2,7.34,75.72,75.72,0,0,1-4.09,7.34Z"/><path id="path5379-6-6-6-2-8" class="cls-5" d="M289.68,150a58.25,58.25,0,0,1,.58-6.45,69.45,69.45,0,0,1,2.92-8.51c.9-2.41,2.68-5.42,3.21-7.93,1.17-5.51.92-13.15.59-18.78-.24-4.18-1.46-9.65-2-13.8A79.19,79.19,0,0,0,292.6,83a55.61,55.61,0,0,0-4.67-10.59,60.46,60.46,0,0,0-5.55-7.32,75.06,75.06,0,0,0-5.55-5.28l.57.22.67,3.14,2.68,4.49,2.68,4.94,4.47,7L290.8,87l1.56,7.86,1.34,10.78.67,10.77v10.11l-2.45,5.16L289,139.55l-.89,6.51,1.56,3.89Z"/><path id="path5375-6-2-3-0-9" class="cls-6" d="M299.62,163.15s9.31-7.68,10.85-16.36c1.38-7.81-4.79-17-5.26-20.64-1.87-14.72,2.1-34.32,2.45-35.92a42.2,42.2,0,0,1,4.16-11.18,71.41,71.41,0,0,1,4.59-7.37c1.13-1.66,3.63-4.76,4.9-7.9a23.35,23.35,0,0,0,1.46-8.53A25,25,0,0,0,321.41,47a17.54,17.54,0,0,0-7-8.53c-3.94-2.42-7.12-4.37-8.33-5.14-4-2.54-6.47-10.91-6.51-10.91s-2.52,8.37-6.52,10.91c-1.21.77-4.25,2.72-8.19,5.14A17.57,17.57,0,0,0,278,47a24.72,24.72,0,0,0-1.36,8.22,23.35,23.35,0,0,0,1.46,8.53c1.27,3.14,3.77,6.24,4.89,7.9a71.88,71.88,0,0,1,4.6,7.37,42.31,42.31,0,0,1,4.15,11.18c.36,1.6,4.32,21.2,2.45,35.92-.46,3.68-6.78,12.83-5.39,20.64,1.54,8.68,10.85,16.36,10.85,16.36Z"/><path id="path5381-7-2-0-4-4" class="cls-8" d="M294.45,74l.8-36.1-6.38,4.82c-1.44,1.08-3.89,2-4.79,3.6-2,3.58-2.94,7.51-1.2,11.24,1,2.2,4.74,5,6.39,6.81,2.22,2.42,5.18,9.63,5.18,9.63Z"/><path id="path5383-8-5-8-4-7" class="cls-8" d="M303.63,68.37V42.29A17.89,17.89,0,0,0,306,45.9c.81.72,2.4.89,3.2,1.61A9.37,9.37,0,0,1,312,51.92a11.55,11.55,0,0,1-1.2,6.82c-.86,1.57-3.31,2.58-4.39,4a36.24,36.24,0,0,0-2.79,5.62Z"/><path id="path5385-4-2-4-5-0" class="cls-8" d="M297.11,151.79c-.34-3.47-.26-11.63-.26-11.63s-3,4.39-3.45,6.37a12.18,12.18,0,0,0-.25,4.37c.62,2.4,4.65,7.32,4.65,7.32s-.54-4.83-.69-6.43Z"/></g><g id="g5496-1-2-0-9-4"><g id="g5416-7-7-4-7-0"><g id="g5407-1-1-6-5-6"><path id="path4522-8-5-4-3-5" class="cls-4" d="M320.53,115.94l-4.48-6.23H283.34l-4.49,6.23,4.49,6.21h32.71Z"/><g id="g5393-7-2-6-9-3"><g id="g5387-8-1-4-0-8"><g id="g5370-7-1-3-5-5"><path id="path5364-7-0-8-5-1" class="cls-8" d="M281.3,113.36l37.1.2-2.74-3.89-32.43-.07-1.93,3.76Z"/><path id="path5366-4-1-4-6-2" class="cls-5" d="M318.24,118.61l-37.1-.2,2.74,3.9,32.42.06,1.94-3.76Z"/><path id="path5368-4-8-0-3-4" class="cls-6" d="M320.53,115.94l-4.48-6.23H283.34l-4.49,6.23,4.49,6.21h32.71Z"/></g></g></g></g></g></g></g></g></g><g id="g11955"><g id="g12001"><g id="g12003"><g id="g12005"><g id="g12007"><path id="path12009" class="cls-4" d="M136.18,119.43c.63-5.89.29-17-2.79-22-1-1.71-3.59-3.69-5.58-3.61s-4.65.67-5.57,2.41A15.09,15.09,0,0,0,121,103c.28,2.49,3.19,7.61,3.19,7.61s-10.42-2.1-14-4.81-7.25-7.75-8.37-12a19.85,19.85,0,0,1,0-11.88A27.2,27.2,0,0,1,108.84,72c6.64-5.74,19.53-4.07,22.16-2.64,3.49,1.89,7.74,5.9,9.17,9.61a131,131,0,0,1,4,14.42,113.93,113.93,0,0,1,2,14.82c.35,4.32,1.31,8.19.4,12.42-.49,2.28-1.1,7.51-2.42,11a15.59,15.59,0,0,1-5.15,6.67c-3.6,3.13-15.14,4.81-15.14,4.81s6.34-8,8-11.62c1.94-4.25,3.89-7.37,4.38-12Z"/><path id="path12011" class="cls-4" d="M164.44,119.43c-.63-5.89-.29-17,2.79-22,1-1.71,3.59-3.69,5.58-3.61s4.65.67,5.57,2.41a15.09,15.09,0,0,1,1.2,6.81c-.28,2.49-3.19,7.61-3.19,7.61s10.42-2.1,14-4.81,7.25-7.75,8.37-12a19.85,19.85,0,0,0,0-11.88A27.2,27.2,0,0,0,191.78,72c-6.64-5.74-19.53-4.07-22.16-2.64-3.49,1.89-7.74,5.9-9.17,9.61a131,131,0,0,0-4,14.42,113.93,113.93,0,0,0-2,14.82c-.35,4.32-1.31,8.19-.4,12.42.49,2.28,1.1,7.51,2.42,11a15.59,15.59,0,0,0,5.15,6.67c3.6,3.13,15.14,4.81,15.14,4.81s-6.34-8-8-11.62c-1.94-4.25-3.89-7.37-4.38-12Z"/></g><path id="path12013" class="cls-5" d="M175.15,142.41l-3,0-9.74-3.08L150.7,128.94l-8.62,8.24-5.84,2.8-6.68,2.24-4.43.3s7.85-5.31,10.55-8.3a38.13,38.13,0,0,0,5.19-8.1c2.18-4.46,5.56-15.62,5.68-15.7L149,110l4.79.39s3.38,11.16,5.57,15.63a38.34,38.34,0,0,0,5.18,8.1c2.71,3,10.57,8.25,10.57,8.25Z"/><path id="path12015" class="cls-5" d="M176.71,110.34s5.93-2.51,7.7-4.53,3.14-6,3.71-8.8c.43-2.11-.62-6.61-1.59-8.53a10.1,10.1,0,0,0-6.37-5.6,12.76,12.76,0,0,0-7.42,0,17.44,17.44,0,0,0-6.64,4.53,24,24,0,0,0-4.24,9.34,70.14,70.14,0,0,0-1.59,10.66c0,1.92.26,8,.26,8l4,6.67.1-.31-.3-11v-4.63l2.09-7.17,3.41-4.63,4-.6,3.87,1.94,1.63,4.18-.29,5.08-2.32,5.45Z"/><path id="path12017" class="cls-5" d="M123.92,110.33s-5.92-2.51-7.69-4.53-3.14-6-3.71-8.8c-.43-2.12.61-6.61,1.59-8.53a10.08,10.08,0,0,1,6.36-5.6,12.79,12.79,0,0,1,7.43,0,17.3,17.3,0,0,1,6.63,4.53,23.72,23.72,0,0,1,4.24,9.33,70.29,70.29,0,0,1,1.6,10.67c0,1.92-.27,8-.27,8l-4,6.66-.1-.3.3-11.05v-4.64l-2.08-7.17-3.42-4.63-4-.59L123,95.62l-1.64,4.18.3,5.08,2.31,5.45Z"/><g id="g12019"><path id="path12021" class="cls-6" d="M136.18,119.43c.63-5.89.29-17-2.79-22-1-1.71-3.59-3.69-5.58-3.61s-4.65.67-5.57,2.41A15.09,15.09,0,0,0,121,103c.28,2.49,3.19,7.61,3.19,7.61s-10.42-2.1-14-4.81-7.25-7.75-8.37-12a19.85,19.85,0,0,1,0-11.88A27.2,27.2,0,0,1,108.84,72c6.64-5.74,19.53-4.07,22.16-2.64,3.49,1.89,7.74,5.9,9.17,9.61a131,131,0,0,1,4,14.42,113.93,113.93,0,0,1,2,14.82c.35,4.32,1.31,8.19.4,12.42-.49,2.28-1.1,7.51-2.42,11a15.59,15.59,0,0,1-5.15,6.67c-3.6,3.13-15.14,4.81-15.14,4.81s6.34-8,8-11.62c1.94-4.25,3.89-7.37,4.38-12Z"/><path id="path12023" class="cls-6" d="M164.44,119.43c-.63-5.89-.29-17,2.79-22,1-1.71,3.59-3.69,5.58-3.61s4.65.67,5.57,2.41a15.09,15.09,0,0,1,1.2,6.81c-.28,2.49-3.19,7.61-3.19,7.61s10.42-2.1,14-4.81,7.25-7.75,8.37-12a19.85,19.85,0,0,0,0-11.88A27.2,27.2,0,0,0,191.78,72c-6.64-5.74-19.53-4.07-22.16-2.64-3.49,1.89-7.74,5.9-9.17,9.61a131,131,0,0,0-4,14.42,113.93,113.93,0,0,0-2,14.82c-.35,4.32-1.31,8.19-.4,12.42.49,2.28,1.1,7.51,2.42,11a15.59,15.59,0,0,0,5.15,6.67c3.6,3.13,15.14,4.81,15.14,4.81s-6.34-8-8-11.62c-1.94-4.25-3.89-7.37-4.38-12Z"/></g><path id="path12025" class="cls-8" d="M108,95.11s.51-4.11,1-6.11c.56-2.46,1.79-5.86,3.64-7.57a15.78,15.78,0,0,1,7.53-3.66,21.21,21.21,0,0,1,7.78.24,22.69,22.69,0,0,1,5.34,2.69c1.16.71,3.64,2.69,3.64,2.69s-4.52-7.21-7.53-9-7.74-2.53-11.17-2.44a14.74,14.74,0,0,0-7.29,2.69,17.5,17.5,0,0,0-6.07,7.81,13.19,13.19,0,0,0,0,7.08A25.88,25.88,0,0,0,108,95.11Z"/><path id="path12027" class="cls-8" d="M171.12,77.53s6.17-1,8.74-.49a21.75,21.75,0,0,1,9.72,4.88c2,2,4.37,8.3,4.37,8.3s.2-6.64-.73-9.28a12.23,12.23,0,0,0-3.16-4.64c-2-1.67-5.2-3.62-7.77-3.66-1.35,0-4.45-.09-6.28.76a12.84,12.84,0,0,0-4.89,4.13Z"/></g><g id="g12029"><g id="g12031"><path id="path12033" class="cls-4" d="M150.24,163.15s9.31-7.68,10.85-16.36c1.38-7.81-4.79-17-5.26-20.64-1.87-14.72,2.1-34.32,2.45-35.92a42.2,42.2,0,0,1,4.16-11.18,71.88,71.88,0,0,1,4.6-7.37c1.12-1.66,3.62-4.76,4.89-7.9a23.35,23.35,0,0,0,1.46-8.53A24.72,24.72,0,0,0,172,47a17.54,17.54,0,0,0-6.95-8.53c-3.93-2.42-7.12-4.37-8.33-5.14-4-2.54-6.47-10.91-6.51-10.91s-2.51,8.37-6.52,10.91c-1.21.77-4.25,2.72-8.18,5.14A17.54,17.54,0,0,0,128.59,47a24.72,24.72,0,0,0-1.36,8.22,23.35,23.35,0,0,0,1.46,8.53c1.27,3.15,3.77,6.24,4.89,7.9a71.88,71.88,0,0,1,4.6,7.37,41.94,41.94,0,0,1,4.15,11.18c.36,1.6,4.33,21.2,2.46,35.92-.47,3.68-6.79,12.83-5.4,20.64C140.93,155.47,150.24,163.15,150.24,163.15Z"/><path id="path12035" class="cls-7" d="M150.24,163.15V23.59"/></g><path id="path12037" class="cls-5" d="M150.52,162.87l7.59-8.51,2.92-5.58-.58-7.63-2-7.93-3.21-7V114.73l1.17-11.44,1.46-12.62,3.21-10,5.26-7.34,4.37-7.63,1.76-4.11.87-7.33-1.17-7.05-3.69-5.95-7.11-4.91a80,80,0,0,1,7,9.24,12.29,12.29,0,0,1,1.5,6,18.33,18.33,0,0,1-.88,7,27.9,27.9,0,0,1-3.79,7.63c-1.71,2.47-4.76,5.24-6.13,7.92-2,3.84-3.3,9.55-4.09,13.8-1,5.21-1.11,12.32-1.46,17.61s-1.3,12.54-.88,17.9c.27,3.41,1.74,8.19,2.34,11.15.41,2.05,1.49,4.68,1.75,6.75a28.23,28.23,0,0,1,0,6.75,33.33,33.33,0,0,1-2,7.34,75.72,75.72,0,0,1-4.09,7.34Z"/><path id="path12039" class="cls-5" d="M140.3,150a56.53,56.53,0,0,1,.59-6.45,66.24,66.24,0,0,1,2.92-8.51c.89-2.41,2.68-5.42,3.21-7.93,1.16-5.51.91-13.15.58-18.78-.24-4.18-1.46-9.65-2-13.8A79.19,79.19,0,0,0,143.22,83a55.61,55.61,0,0,0-4.67-10.59A60.46,60.46,0,0,0,133,65.13a75.54,75.54,0,0,0-5.54-5.28l.56.22.67,3.14,2.68,4.49,2.68,4.94,4.47,7,2.9,7.41L143,94.87l1.34,10.78.67,10.77v10.11l-2.46,5.16-2.9,7.86-.9,6.51L140.3,150Z"/><path id="path12041" class="cls-6" d="M150.24,163.15s9.31-7.68,10.85-16.36c1.38-7.81-4.79-17-5.26-20.64-1.87-14.72,2.1-34.32,2.45-35.92a42.2,42.2,0,0,1,4.16-11.18,71.88,71.88,0,0,1,4.6-7.37c1.12-1.66,3.62-4.76,4.89-7.9a23.35,23.35,0,0,0,1.46-8.53A24.72,24.72,0,0,0,172,47a17.54,17.54,0,0,0-6.95-8.53c-3.93-2.42-7.12-4.37-8.33-5.14-4-2.54-6.47-10.91-6.51-10.91s-2.51,8.37-6.52,10.91c-1.21.77-4.25,2.72-8.18,5.14A17.54,17.54,0,0,0,128.59,47a24.72,24.72,0,0,0-1.36,8.22,23.35,23.35,0,0,0,1.46,8.53c1.27,3.14,3.77,6.24,4.89,7.9a71.88,71.88,0,0,1,4.6,7.37,41.94,41.94,0,0,1,4.15,11.18c.36,1.6,4.33,21.2,2.46,35.92-.47,3.68-6.79,12.83-5.4,20.64,1.54,8.68,10.85,16.36,10.85,16.36Z"/><path id="path12043" class="cls-8" d="M145.08,74l.79-36.1-6.38,4.82c-1.44,1.08-3.89,2-4.79,3.6-2,3.58-2.94,7.51-1.19,11.24,1,2.2,4.73,5,6.38,6.81,2.22,2.42,5.19,9.63,5.19,9.63Z"/><path id="path12045" class="cls-8" d="M154.25,68.37V42.29a18.07,18.07,0,0,0,2.4,3.61c.8.72,2.39.89,3.19,1.61a9.37,9.37,0,0,1,2.79,4.41,11.55,11.55,0,0,1-1.2,6.82c-.85,1.57-3.31,2.58-4.38,4a35.64,35.64,0,0,0-2.8,5.62Z"/><path id="path12047" class="cls-8" d="M147.73,151.79c-.34-3.47-.26-11.63-.26-11.63s-2.95,4.39-3.44,6.37a12,12,0,0,0-.26,4.37c.62,2.4,4.65,7.32,4.65,7.32s-.54-4.83-.69-6.43Z"/></g><g id="g12049"><g id="g12051"><g id="g12053"><path id="path12055" class="cls-4" d="M171.15,115.94l-4.48-6.23H134l-4.49,6.23,4.49,6.21h32.71Z"/><g id="g12057"><g id="g12059"><g id="g12061"><path id="path12063" class="cls-8" d="M131.92,113.36l37.1.2-2.74-3.89-32.42-.07-1.94,3.76Z"/><path id="path12065" class="cls-5" d="M168.87,118.61l-37.11-.2,2.74,3.9,32.43.06,1.94-3.76Z"/><path id="path12067" class="cls-6" d="M171.15,115.94l-4.48-6.23H134l-4.49,6.23,4.49,6.21h32.71Z"/></g></g></g></g></g></g></g></g></g><g id="g18439"><g id="g18485"><g id="g18487"><g id="g18489"><g id="g18491"><path id="path18495" class="cls-4" d="M17,120.23c-.62-5.88-.29-17,2.79-22,1-1.7,3.59-3.69,5.58-3.61S30,95.26,30.94,97a15.09,15.09,0,0,1,1.2,6.81c-.28,2.49-3.19,7.61-3.19,7.61s10.42-2.1,14-4.81,7.25-7.75,8.36-12a19.69,19.69,0,0,0,0-11.88,27.18,27.18,0,0,0-6.91-9.91c-6.64-5.74-19.53-4.07-22.17-2.64-3.48,1.89-7.73,5.9-9.16,9.61A133.25,133.25,0,0,0,9,94.19,115.6,115.6,0,0,0,7,109c-.35,4.31-1.3,8.18-.4,12.41.49,2.28,1.1,7.51,2.43,11a15.66,15.66,0,0,0,5.14,6.67c3.61,3.13,15.15,4.81,15.15,4.81s-6.34-8-8-11.62c-1.94-4.25-3.89-7.37-4.39-12Z"/></g><path id="path18497" class="cls-5" d="M27.71,143.21l-3-.05-9.73-3.08L3.26,129.74,1.59,110.85l4.8.38S9.77,122.39,12,126.86a37.7,37.7,0,0,0,5.18,8.1c2.7,3,10.57,8.25,10.57,8.25Z"/><path id="path18499" class="cls-5" d="M29.27,111.15s5.93-2.52,7.69-4.54,3.15-6,3.72-8.8c.42-2.11-.62-6.6-1.6-8.53a10.06,10.06,0,0,0-6.36-5.6,12.79,12.79,0,0,0-7.43,0,17.32,17.32,0,0,0-6.63,4.54,23.87,23.87,0,0,0-4.24,9.33,68.92,68.92,0,0,0-1.59,10.66c0,1.92.26,8,.26,8l4,6.67.1-.31-.3-11v-4.63L19,99.72l3.42-4.63,4-.6,3.87,1.94,1.63,4.19-.3,5.07-2.31,5.46Z"/><g id="g18503"><path id="path18507" class="cls-6" d="M17,120.23c-.62-5.88-.29-17,2.79-22,1-1.7,3.59-3.69,5.58-3.61S30,95.26,30.94,97a15.09,15.09,0,0,1,1.2,6.81c-.28,2.49-3.19,7.61-3.19,7.61s10.42-2.1,14-4.81,7.25-7.75,8.36-12a19.69,19.69,0,0,0,0-11.88,27.18,27.18,0,0,0-6.91-9.91c-6.64-5.74-19.53-4.07-22.17-2.64-3.48,1.89-7.73,5.9-9.16,9.61A133.25,133.25,0,0,0,9,94.19,115.6,115.6,0,0,0,7,109c-.35,4.31-1.3,8.18-.4,12.41.49,2.28,1.1,7.51,2.43,11a15.66,15.66,0,0,0,5.14,6.67c3.61,3.13,15.15,4.81,15.15,4.81s-6.34-8-8-11.62c-1.94-4.25-3.89-7.37-4.39-12Z"/></g><path id="path18511" class="cls-8" d="M23.67,78.33s6.17-1,8.75-.49a21.71,21.71,0,0,1,9.71,4.88c2,2,4.38,8.31,4.38,8.31s.19-6.65-.73-9.28a12.15,12.15,0,0,0-3.16-4.64c-2-1.68-5.2-3.63-7.77-3.67-1.36,0-4.45-.08-6.29.76a12.93,12.93,0,0,0-4.89,4.13Z"/></g><g id="g18513"><g id="g18515"><path id="path18517" class="cls-4" d="M2.79,164s9.31-7.67,10.85-16.36c1.39-7.81-4.78-17-5.25-20.64C6.52,112.23,10.48,92.63,10.84,91A42.2,42.2,0,0,1,15,79.85a71.41,71.41,0,0,1,4.59-7.37c1.13-1.66,3.62-4.75,4.9-7.9A23.35,23.35,0,0,0,26,56.05a25.18,25.18,0,0,0-1.36-8.21,17.57,17.57,0,0,0-6.95-8.54c-3.94-2.42-7.12-4.37-8.33-5.14-4-2.54-6.47-10.91-6.52-10.91C6.24,58.06,1.13,140.36,2.79,164Z"/><path id="path18519" class="cls-7" d="M2.79,164V24.39"/></g><path id="path18521" class="cls-5" d="M3.08,163.67l7.59-8.51,2.92-5.58L13,142,11,134l-3.21-7V115.54l1.17-11.45,1.46-12.62,3.21-10,5.25-7.34,4.38-7.63L25,62.41l.88-7.33-1.17-7-3.7-6-7.1-4.91a80,80,0,0,1,7,9.24,12.53,12.53,0,0,1,1.5,6,18.31,18.31,0,0,1-.88,7,27.52,27.52,0,0,1-3.8,7.63C16,69.58,12.91,72.36,11.54,75c-2,3.84-3.29,9.56-4.08,13.8C6.48,94,6.34,101.15,6,106.44S4.7,119,5.12,124.34c.27,3.41,1.74,8.19,2.34,11.15.41,2,1.48,4.68,1.75,6.75a29.3,29.3,0,0,1,0,6.75,33.35,33.35,0,0,1-2.05,7.34,74.11,74.11,0,0,1-4.08,7.34Z"/><path id="path18525" class="cls-6" d="M13.64,147.59c1.39-7.81-4.78-17-5.25-20.64C6.52,112.23,10.48,92.63,10.84,91A42.2,42.2,0,0,1,15,79.85a71.41,71.41,0,0,1,4.59-7.37c1.13-1.66,3.62-4.75,4.9-7.9A23.35,23.35,0,0,0,26,56.05a25.18,25.18,0,0,0-1.36-8.21,17.57,17.57,0,0,0-6.95-8.54c-3.94-2.42-7.12-4.37-8.33-5.14-4-2.54-6.47-10.91-6.52-10.91,0,66.11-.38,94.87-.38,139.66,3.5-.12,7.5-4.37,11.23-15.32Z"/><path id="path18529" class="cls-8" d="M6.81,69.17V43.1A18.18,18.18,0,0,0,9.2,46.71c.81.71,2.4.88,3.2,1.6a9.52,9.52,0,0,1,2.79,4.41A11.55,11.55,0,0,1,14,59.54c-.86,1.57-3.31,2.59-4.39,4a36.24,36.24,0,0,0-2.79,5.62Z"/></g><path id="path18539" class="cls-4" d="M23.71,116.74l-4.48-6.23H2.73L2.87,123H19.23l4.48-6.21Z"/><g id="g18541"><g id="g18543"><g id="g18545"><path id="path18547" class="cls-8" d="M2.82,114.16l18.76.21-2.74-3.9L2.63,110.4Z"/><path id="path18549" class="cls-5" d="M21.42,119.41l-18.76-.2.22,3.9,16.6.07,1.94-3.77Z"/><path id="path18551" class="cls-6" d="M23.71,116.75l-4.48-6.24H2.47L2.73,123h16.5l4.48-6.2Z"/></g></g></g></g></g></g><g id="g18589"><g id="g18635"><g id="g18637"><g id="g18639"><g id="g18641"><path id="path18643" class="cls-4" d="M463.73,119.43c-.62-5.89-.29-17,2.79-22,1-1.71,3.59-3.69,5.58-3.61s4.66.67,5.58,2.41a15.09,15.09,0,0,1,1.2,6.81c-.28,2.49-3.19,7.61-3.19,7.61s10.42-2.1,13.95-4.81,7.25-7.75,8.36-12a19.77,19.77,0,0,0,0-11.88A27.18,27.18,0,0,0,491.08,72c-6.64-5.74-19.53-4.07-22.17-2.64-3.48,1.89-7.73,5.9-9.16,9.61a133.25,133.25,0,0,0-4,14.42,115.68,115.68,0,0,0-2,14.82c-.35,4.32-1.3,8.19-.4,12.42.49,2.28,1.1,7.51,2.43,11a15.66,15.66,0,0,0,5.14,6.67c3.61,3.13,15.15,4.81,15.15,4.81s-6.34-8-8-11.62c-1.94-4.25-3.89-7.37-4.39-12Z"/><path id="path18645" class="cls-4" d="M435.48,119.43c.62-5.89.29-17-2.79-22-1-1.71-3.59-3.69-5.58-3.61s-4.65.67-5.58,2.41a15,15,0,0,0-1.19,6.81c.28,2.49,3.18,7.61,3.18,7.61s-10.42-2.1-13.94-4.81-7.26-7.75-8.37-12a19.85,19.85,0,0,1,0-11.88A27.2,27.2,0,0,1,408.14,72c6.63-5.74,19.52-4.07,22.16-2.64,3.48,1.89,7.73,5.9,9.16,9.61a133.25,133.25,0,0,1,4,14.42,115.68,115.68,0,0,1,2,14.82c.35,4.32,1.31,8.19.4,12.42-.49,2.28-1.1,7.51-2.42,11a15.75,15.75,0,0,1-5.15,6.67c-3.61,3.13-15.14,4.81-15.14,4.81s6.33-8,8-11.62c1.93-4.25,3.89-7.37,4.38-12Z"/></g><path id="path18647" class="cls-5" d="M424.76,142.41l3,0,9.74-3.08,11.68-10.34,8.62,8.24,5.84,2.8,6.68,2.24,4.43.3s-7.85-5.31-10.56-8.3a38.48,38.48,0,0,1-5.18-8.1c-2.19-4.46-5.56-15.62-5.68-15.7l-2.49-.38-4.8.39s-3.37,11.16-5.56,15.63a38.74,38.74,0,0,1-5.18,8.1c-2.71,3-10.58,8.25-10.58,8.25Z"/><path id="path18649" class="cls-5" d="M423.2,110.34s-5.92-2.51-7.69-4.53-3.14-6-3.71-8.8c-.43-2.11.61-6.61,1.59-8.53a10.08,10.08,0,0,1,6.36-5.6,12.79,12.79,0,0,1,7.43,0,17.41,17.41,0,0,1,6.63,4.53,23.85,23.85,0,0,1,4.25,9.34,71.42,71.42,0,0,1,1.59,10.66c0,1.92-.27,8-.27,8l-4,6.67-.1-.31.3-11v-4.63l-2.08-7.17-3.42-4.63-4-.6-3.86,1.94-1.64,4.18.3,5.08,2.31,5.45Z"/><path id="path18651" class="cls-5" d="M476,110.33s5.93-2.51,7.7-4.53,3.14-6,3.71-8.8c.43-2.12-.62-6.61-1.59-8.53a10.07,10.07,0,0,0-6.37-5.6,12.76,12.76,0,0,0-7.42,0,17.22,17.22,0,0,0-6.63,4.53,23.88,23.88,0,0,0-4.25,9.33,71.55,71.55,0,0,0-1.59,10.67c0,1.92.27,8,.27,8l4,6.66.1-.3-.29-11.05v-4.64l2.08-7.17,3.41-4.63,4-.59L477,95.62l1.63,4.18-.29,5.08L476,110.33Z"/><g id="g18653"><path id="path18655" class="cls-6" d="M463.73,119.43c-.62-5.89-.29-17,2.79-22,1-1.71,3.59-3.69,5.58-3.61s4.66.67,5.58,2.41a15.09,15.09,0,0,1,1.2,6.81c-.28,2.49-3.19,7.61-3.19,7.61s10.42-2.1,13.95-4.81,7.25-7.75,8.36-12a19.77,19.77,0,0,0,0-11.88A27.18,27.18,0,0,0,491.08,72c-6.64-5.74-19.53-4.07-22.17-2.64-3.48,1.89-7.73,5.9-9.16,9.61a133.25,133.25,0,0,0-4,14.42,115.68,115.68,0,0,0-2,14.82c-.35,4.32-1.3,8.19-.4,12.42.49,2.28,1.1,7.51,2.43,11a15.66,15.66,0,0,0,5.14,6.67c3.61,3.13,15.15,4.81,15.15,4.81s-6.34-8-8-11.62c-1.94-4.25-3.89-7.37-4.39-12Z"/><path id="path18657" class="cls-6" d="M435.48,119.43c.62-5.89.29-17-2.79-22-1-1.71-3.59-3.69-5.58-3.61s-4.65.67-5.58,2.41a15,15,0,0,0-1.19,6.81c.28,2.49,3.18,7.61,3.18,7.61s-10.42-2.1-13.94-4.81-7.26-7.75-8.37-12a19.85,19.85,0,0,1,0-11.88A27.2,27.2,0,0,1,408.14,72c6.63-5.74,19.52-4.07,22.16-2.64,3.48,1.89,7.73,5.9,9.16,9.61a133.25,133.25,0,0,1,4,14.42,115.68,115.68,0,0,1,2,14.82c.35,4.32,1.31,8.19.4,12.42-.49,2.28-1.1,7.51-2.42,11a15.75,15.75,0,0,1-5.15,6.67c-3.61,3.13-15.14,4.81-15.14,4.81s6.33-8,8-11.62c1.93-4.25,3.89-7.37,4.38-12Z"/></g><path id="path18659" class="cls-8" d="M492,95.11S491.44,91,491,89c-.56-2.46-1.8-5.86-3.65-7.57a15.7,15.7,0,0,0-7.53-3.66A21.15,21.15,0,0,0,472,78a22.5,22.5,0,0,0-5.34,2.69c-1.16.71-3.65,2.69-3.65,2.69s4.52-7.21,7.53-9,7.75-2.53,11.18-2.44A14.67,14.67,0,0,1,489,74.6a17.52,17.52,0,0,1,6.08,7.81,13.19,13.19,0,0,1,0,7.08A25.88,25.88,0,0,1,492,95.11Z"/><path id="path18661" class="cls-8" d="M428.8,77.53s-6.17-1-8.74-.49a21.69,21.69,0,0,0-9.72,4.88c-2,2-4.37,8.3-4.37,8.3s-.2-6.64.73-9.28a12.2,12.2,0,0,1,3.15-4.64c2-1.67,5.2-3.62,7.78-3.66,1.35,0,4.45-.09,6.28.76a12.84,12.84,0,0,1,4.89,4.13Z"/></g><g id="g18663"><g id="g18665"><path id="path18667" class="cls-4" d="M449.68,163.15s-9.31-7.68-10.85-16.36c-1.39-7.81,4.78-17,5.25-20.64,1.87-14.72-2.09-34.32-2.45-35.92a42.31,42.31,0,0,0-4.15-11.18,71.88,71.88,0,0,0-4.6-7.37c-1.12-1.66-3.62-4.76-4.89-7.9a23.4,23.4,0,0,1-1.47-8.53A25.24,25.24,0,0,1,427.88,47a17.65,17.65,0,0,1,6.95-8.53c3.94-2.42,7.12-4.37,8.34-5.14,4-2.54,6.46-10.91,6.51-10.91s2.51,8.37,6.51,10.91c1.21.77,4.25,2.72,8.19,5.14A17.6,17.6,0,0,1,471.33,47a25.24,25.24,0,0,1,1.36,8.22,23.35,23.35,0,0,1-1.46,8.53c-1.28,3.15-3.77,6.24-4.9,7.9a71.41,71.41,0,0,0-4.59,7.37,42.2,42.2,0,0,0-4.16,11.18c-.36,1.6-4.32,21.2-2.45,35.92.47,3.68,6.78,12.83,5.4,20.64C459,155.47,449.68,163.15,449.68,163.15Z"/><path id="path18669" class="cls-7" d="M449.68,163.15V23.59"/></g><path id="path18671" class="cls-5" d="M449.4,162.87l-7.59-8.51-2.92-5.58.58-7.63,2-7.93,3.22-7V114.73l-1.17-11.44L442.1,90.67l-3.21-10-5.26-7.34-4.38-7.63-1.75-4.11-.88-7.33,1.17-7.05,3.7-5.95,7.1-4.91a80,80,0,0,0-7,9.24,12.36,12.36,0,0,0-1.49,6,18.52,18.52,0,0,0,.87,7,27.93,27.93,0,0,0,3.8,7.63c1.71,2.47,4.76,5.24,6.13,7.92,2,3.84,3.29,9.55,4.09,13.8,1,5.21,1.11,12.32,1.46,17.61s1.3,12.54.87,17.9c-.27,3.41-1.73,8.19-2.33,11.15-.42,2.05-1.49,4.68-1.75,6.75a28.23,28.23,0,0,0,0,6.75,32.79,32.79,0,0,0,2,7.34,75.72,75.72,0,0,0,4.09,7.34Z"/><path id="path18673" class="cls-5" d="M459.61,150a55.81,55.81,0,0,0-.58-6.45,66.24,66.24,0,0,0-2.92-8.51c-.9-2.41-2.68-5.42-3.21-7.93-1.16-5.51-.91-13.15-.58-18.78.24-4.18,1.45-9.65,2-13.8A79.19,79.19,0,0,1,456.7,83a55,55,0,0,1,4.67-10.59,60.38,60.38,0,0,1,5.54-7.32c1.49-1.75,5.55-5.28,5.55-5.28l-.56.22-.67,3.14-2.68,4.49-2.68,4.94-4.47,7L458.49,87l-1.56,7.86-1.34,10.78-.67,10.77v10.11l2.46,5.16,2.9,7.86.89,6.51L459.61,150Z"/><path id="path18675" class="cls-6" d="M449.68,163.15s-9.31-7.68-10.85-16.36c-1.39-7.81,4.78-17,5.25-20.64,1.87-14.72-2.09-34.32-2.45-35.92a42.31,42.31,0,0,0-4.15-11.18,71.88,71.88,0,0,0-4.6-7.37c-1.12-1.66-3.62-4.76-4.89-7.9a23.4,23.4,0,0,1-1.47-8.53A25.24,25.24,0,0,1,427.88,47a17.65,17.65,0,0,1,6.95-8.53c3.94-2.42,7.12-4.37,8.34-5.14,4-2.54,6.46-10.91,6.51-10.91s2.51,8.37,6.51,10.91c1.21.77,4.25,2.72,8.19,5.14A17.6,17.6,0,0,1,471.33,47a25.24,25.24,0,0,1,1.36,8.22,23.35,23.35,0,0,1-1.46,8.53c-1.28,3.14-3.77,6.24-4.9,7.9a71.41,71.41,0,0,0-4.59,7.37,42.2,42.2,0,0,0-4.16,11.18c-.36,1.6-4.32,21.2-2.45,35.92.47,3.68,6.78,12.83,5.4,20.64-1.54,8.68-10.85,16.36-10.85,16.36Z"/><path id="path18677" class="cls-8" d="M454.84,74l-.8-36.1,6.39,4.82c1.43,1.08,3.89,2,4.78,3.6,2.05,3.58,3,7.51,1.2,11.24-1,2.2-4.74,5-6.38,6.81-2.22,2.42-5.19,9.63-5.19,9.63Z"/><path id="path18679" class="cls-8" d="M445.66,68.37V42.29a17.89,17.89,0,0,1-2.39,3.61c-.8.72-2.4.89-3.19,1.61a9.37,9.37,0,0,0-2.79,4.41,11.46,11.46,0,0,0,1.19,6.82c.86,1.57,3.32,2.58,4.39,4a36.24,36.24,0,0,1,2.79,5.62Z"/><path id="path18681" class="cls-8" d="M452.19,151.79c.33-3.47.26-11.63.26-11.63s2.95,4.39,3.44,6.37a12.18,12.18,0,0,1,.25,4.37c-.61,2.4-4.64,7.32-4.64,7.32s.54-4.83.69-6.43Z"/></g><g id="g18683"><g id="g18685"><g id="g18687"><path id="path18689" class="cls-4" d="M428.76,115.94l4.48-6.23H466l4.5,6.23-4.5,6.21H433.24Z"/><g id="g18691"><g id="g18693"><g id="g18695"><path id="path18697" class="cls-8" d="M468,113.36l-37.1.2,2.74-3.89,32.42-.07,1.94,3.76Z"/><path id="path18699" class="cls-5" d="M431.05,118.61l37.1-.2-2.74,3.9-32.42.06-1.94-3.76Z"/><path id="path18701" class="cls-6" d="M428.76,115.94l4.48-6.23H466l4.5,6.23-4.5,6.21H433.24Z"/></g></g></g></g></g></g></g></g></g><g id="g18703"><g id="g18749"><g id="g18751"><g id="g18753"><g id="g18755"><path id="path18757" class="cls-4" d="M582.92,120.23c.62-5.88.29-17-2.79-22-1-1.7-3.59-3.69-5.58-3.61S569.9,95.26,569,97a15.09,15.09,0,0,0-1.2,6.81c.28,2.49,3.19,7.61,3.19,7.61s-10.42-2.1-14-4.81-7.26-7.75-8.37-12a19.85,19.85,0,0,1,0-11.88,27.2,27.2,0,0,1,6.92-9.91c6.64-5.74,19.53-4.07,22.16-2.64,3.49,1.89,7.74,5.9,9.17,9.61a131,131,0,0,1,4,14.42,113.85,113.85,0,0,1,2,14.83c.35,4.31,1.31,8.18.4,12.41-.49,2.28-1.1,7.51-2.42,11a15.59,15.59,0,0,1-5.15,6.67c-3.6,3.13-15.14,4.81-15.14,4.81s6.34-8,8-11.62c1.94-4.25,3.89-7.37,4.38-12Z"/></g><path id="path18759" class="cls-5" d="M572.21,143.21l3-.05,9.74-3.08,11.68-10.34,1.66-18.89-4.79.38s-3.38,11.16-5.57,15.63a38.09,38.09,0,0,1-5.18,8.1c-2.71,3-10.57,8.25-10.57,8.25Z"/><path id="path18761" class="cls-5" d="M570.65,111.15s-5.93-2.52-7.7-4.54-3.14-6-3.71-8.8c-.43-2.11.62-6.6,1.59-8.53a10.1,10.1,0,0,1,6.37-5.6,12.76,12.76,0,0,1,7.42,0,17.36,17.36,0,0,1,6.64,4.54,23.87,23.87,0,0,1,4.24,9.33,70.14,70.14,0,0,1,1.59,10.66c0,1.92-.26,8-.26,8l-4,6.67-.1-.31.29-11v-4.63L581,99.72l-3.41-4.63-4-.6-3.86,1.94L568,100.62l.29,5.07,2.32,5.46Z"/><g id="g18763"><path id="path18765" class="cls-6" d="M582.92,120.23c.62-5.88.29-17-2.79-22-1-1.7-3.59-3.69-5.58-3.61S569.9,95.26,569,97a15.09,15.09,0,0,0-1.2,6.81c.28,2.49,3.19,7.61,3.19,7.61s-10.42-2.1-14-4.81-7.26-7.75-8.37-12a19.85,19.85,0,0,1,0-11.88,27.2,27.2,0,0,1,6.92-9.91c6.64-5.74,19.53-4.07,22.16-2.64,3.49,1.89,7.74,5.9,9.17,9.61a131,131,0,0,1,4,14.42,113.85,113.85,0,0,1,2,14.83c.35,4.31,1.31,8.18.4,12.41-.49,2.28-1.1,7.51-2.42,11a15.59,15.59,0,0,1-5.15,6.67c-3.6,3.13-15.14,4.81-15.14,4.81s6.34-8,8-11.62c1.94-4.25,3.89-7.37,4.38-12Z"/></g><path id="path18767" class="cls-8" d="M576.24,78.33s-6.17-1-8.74-.49a21.75,21.75,0,0,0-9.72,4.88c-2,2-4.37,8.31-4.37,8.31s-.2-6.65.73-9.28a12.15,12.15,0,0,1,3.16-4.64c2-1.68,5.2-3.63,7.77-3.67,1.35,0,4.45-.08,6.28.76a12.93,12.93,0,0,1,4.89,4.13Z"/></g><g id="g18769"><g id="g18771"><path id="path18773" class="cls-4" d="M597.12,164s-9.31-7.67-10.85-16.36c-1.38-7.81,4.79-17,5.26-20.64,1.87-14.72-2.1-34.32-2.46-35.92a41.94,41.94,0,0,0-4.15-11.18,71.88,71.88,0,0,0-4.6-7.37c-1.12-1.66-3.62-4.75-4.89-7.9A23.35,23.35,0,0,1,574,56.05a24.66,24.66,0,0,1,1.36-8.21,17.54,17.54,0,0,1,6.94-8.54c3.94-2.42,7.13-4.37,8.34-5.14,4-2.54,6.47-10.91,6.51-10.91C593.67,58.06,598.78,140.36,597.12,164Z"/><path id="path18775" class="cls-7" d="M597.12,164V24.39"/></g><path id="path18777" class="cls-5" d="M596.84,163.67l-7.59-8.51-2.92-5.58.58-7.63L589,134l3.21-7V115.54L591,104.09l-1.46-12.62-3.21-10-5.26-7.34-4.37-7.63-1.76-4.11-.87-7.33,1.17-7,3.69-6L586,37.17a80,80,0,0,0-7,9.24,12.3,12.3,0,0,0-1.5,6,18.31,18.31,0,0,0,.88,7,27.76,27.76,0,0,0,3.79,7.63C584,69.58,587,72.36,588.37,75c2,3.84,3.29,9.56,4.09,13.8,1,5.21,1.11,12.32,1.46,17.61s1.3,12.54.88,17.9c-.27,3.41-1.74,8.19-2.34,11.15-.41,2-1.49,4.68-1.75,6.75a28.23,28.23,0,0,0,0,6.75,33.33,33.33,0,0,0,2,7.34,75.72,75.72,0,0,0,4.09,7.34Z"/><path id="path18779" class="cls-6" d="M586.27,147.59c-1.38-7.81,4.79-17,5.26-20.64,1.87-14.72-2.1-34.32-2.46-35.92a41.94,41.94,0,0,0-4.15-11.18,71.88,71.88,0,0,0-4.6-7.37c-1.12-1.66-3.62-4.75-4.89-7.9A23.35,23.35,0,0,1,574,56.05a24.66,24.66,0,0,1,1.36-8.21,17.54,17.54,0,0,1,6.94-8.54c3.94-2.42,7.13-4.37,8.34-5.14,4-2.54,6.47-10.91,6.51-10.91,0,66.11.39,94.87.39,139.66-3.5-.12-7.5-4.37-11.24-15.32Z"/><path id="path18781" class="cls-8" d="M593.11,69.17V43.1a18.36,18.36,0,0,1-2.4,3.61c-.8.71-2.39.88-3.19,1.6a9.37,9.37,0,0,0-2.79,4.41,11.55,11.55,0,0,0,1.2,6.82c.85,1.57,3.31,2.59,4.38,4a35.64,35.64,0,0,1,2.8,5.62Z"/></g><path id="path18783" class="cls-4" d="M576.21,116.74l4.48-6.23h16.49L597.05,123H580.69l-4.48-6.21Z"/><g id="g18785"><g id="g18787"><g id="g18789"><path id="path18791" class="cls-8" d="M597.1,114.16l-18.76.21,2.74-3.9,16.21-.07Z"/><path id="path18793" class="cls-5" d="M578.49,119.41l18.77-.2-.22,3.9-16.61.07-1.94-3.77Z"/><path id="path18795" class="cls-6" d="M576.21,116.75l4.47-6.24h16.77L597.18,123h-16.5l-4.47-6.2Z"/></g></g></g></g></g></g><g id="g18913"><g id="g18959"><g id="g18961"><g id="g18963"><g id="g18965"><path id="path18967" class="cls-4" d="M176.76,181.43c-.38-1.47-1.87,1,0-4.68a27.12,27.12,0,0,1,6.92-9.91c6.64-5.75,19.52-4.08,22.16-2.65,3.49,1.89,7.73,5.9,9.16,9.62,1.12,2.88-.39,7.62,3.48,7.62Z"/></g><path id="path18975" class="cls-5" d="M189,181.43c1.47-2.91,3.27-2.72,6.36-3.73a12.79,12.79,0,0,1,7.43,0c2.17.81,5.2,1.9,6.63,3.73Z"/><path id="path18983" class="cls-8" d="M183.78,181.43c.56-2.46,1.79-3.46,3.64-5.16A15.71,15.71,0,0,1,195,172.6a20.93,20.93,0,0,1,7.77.25,22.53,22.53,0,0,1,5.35,2.68c1.15.71,3.64,2.69,3.64,2.69s-4.52-7.21-7.53-9-7.74-2.54-11.17-2.45a14.77,14.77,0,0,0-7.29,2.69,17.56,17.56,0,0,0-6.07,7.81c-.69,2-.61,2.15,0,4.19Z"/><g id="g18977"><path id="path18979" class="cls-6" d="M175.14,181.43c1-2.3-.25,1,1.63-4.68a27.12,27.12,0,0,1,6.92-9.91c6.64-5.75,19.52-4.08,22.16-2.65,3.49,1.89,11.36,13.53,12.79,17.24Z"/></g></g><g id="g19029"><g id="g19031"><path id="path19033" class="cls-4" d="M274.31,181.43c.38-1.47,1.87,1,0-4.68a27.12,27.12,0,0,0-6.92-9.91c-6.64-5.75-19.53-4.08-22.16-2.65-3.49,1.89-7.74,5.9-9.17,9.62-1.11,2.88.4,7.62-3.47,7.62Z"/></g><path id="path19035" class="cls-5" d="M262.11,181.43c-1.47-2.91-3.28-2.72-6.36-3.73a12.79,12.79,0,0,0-7.43,0c-2.17.81-5.2,1.9-6.63,3.73Z"/><path id="path19037" class="cls-8" d="M267.29,181.43c-.56-2.46-1.79-3.46-3.64-5.16a15.8,15.8,0,0,0-7.53-3.67,21,21,0,0,0-7.78.25,22.65,22.65,0,0,0-5.34,2.68c-1.16.71-3.64,2.69-3.64,2.69s4.52-7.21,7.53-9,7.74-2.54,11.17-2.45a14.84,14.84,0,0,1,7.29,2.69,17.56,17.56,0,0,1,6.07,7.81c.69,2,.61,2.15,0,4.19Z"/><g id="g19039"><path id="path19041" class="cls-6" d="M275.93,181.43c-1-2.3.25,1-1.63-4.68a27.12,27.12,0,0,0-6.92-9.91c-6.64-5.75-19.53-4.08-22.16-2.65-3.49,1.89-11.36,13.53-12.79,17.24Z"/></g></g><g id="g18987"><g id="g18989"><path id="path18991" class="cls-4" d="M233.13,181.43c1.42-6.37,3.21-5.46,4.16-7.54a71.32,71.32,0,0,1,4.59-7.38c1.13-1.66,3.63-4.75,4.9-7.89a23.43,23.43,0,0,0,1.46-8.54,25.18,25.18,0,0,0-1.36-8.21,17.56,17.56,0,0,0-6.95-8.54c-3.94-2.42-7.12-4.36-8.33-5.13-4-2.55-6.47-10.92-6.52-10.92s-2.51,8.37-6.51,10.92c-1.21.77-4.25,2.71-8.19,5.13a17.67,17.67,0,0,0-6.95,8.54,25.18,25.18,0,0,0-1.36,8.21,23.48,23.48,0,0,0,1.47,8.54c1.27,3.14,3.77,6.23,4.89,7.89a71.79,71.79,0,0,1,4.6,7.38c.95,2.08,2.73,1.17,4.15,7.54Z"/><path id="path18993" class="cls-7" d="M225.08,181.43v-63"/></g><path id="path18995" class="cls-5" d="M232.67,181.43l3.21-5.91,5.25-7.33,4.38-7.63,1.75-4.11.88-7.34-1.17-7-3.69-6-7.11-4.9a79.45,79.45,0,0,1,7,9.23,12.41,12.41,0,0,1,1.5,6,18.28,18.28,0,0,1-.88,7,27.52,27.52,0,0,1-3.8,7.63c-1.7,2.48-4.76,5.25-6.13,7.93a45.79,45.79,0,0,0-4.08,12.36Z"/><path id="path18997" class="cls-5" d="M218.07,177.87a55.52,55.52,0,0,0-4.67-10.58,59.69,59.69,0,0,0-5.55-7.32,72.91,72.91,0,0,0-5.55-5.28l.57.21.67,3.14,2.68,4.49,2.68,4.94,4.47,7,2.9,7.41,3-.41C219,181.49,219.21,181.21,218.07,177.87Z"/><path id="path18999" class="cls-6" d="M234,181.43c2.06-5.09,2.32-5.46,3.27-7.54a71.32,71.32,0,0,1,4.59-7.38c1.13-1.66,3.63-4.75,4.9-7.89a23.43,23.43,0,0,0,1.46-8.54,25.18,25.18,0,0,0-1.36-8.21,17.56,17.56,0,0,0-6.95-8.54c-3.94-2.42-7.12-4.36-8.33-5.13-4-2.55-6.47-10.92-6.52-10.92s-2.51,8.37-6.51,10.92c-1.21.77-4.25,2.71-8.19,5.13a17.67,17.67,0,0,0-6.95,8.54,25.18,25.18,0,0,0-1.36,8.21,23.48,23.48,0,0,0,1.47,8.54c1.27,3.14,3.77,6.23,4.89,7.89a71.79,71.79,0,0,1,4.6,7.38c.95,2.08,2.35,3.86,4.15,7.54Z"/><path id="path19001" class="cls-8" d="M219.92,168.81l.8-36.09-6.38,4.81c-1.44,1.08-3.9,2-4.79,3.61-2,3.57-2.94,7.5-1.2,11.23,1,2.2,4.74,5,6.39,6.82,2.21,2.41,5.18,9.62,5.18,9.62Z"/><path id="path19003" class="cls-8" d="M229.1,163.2V137.13a17.89,17.89,0,0,0,2.39,3.61c.81.71,2.4.88,3.2,1.6a9.57,9.57,0,0,1,2.79,4.41,11.55,11.55,0,0,1-1.2,6.82c-.86,1.57-3.31,2.59-4.39,4a36.69,36.69,0,0,0-2.79,5.62Z"/></g></g></g></g><g id="g19170"><g id="g19216"><g id="g19218"><g id="g19220"><g id="g19222"><path id="path19224" class="cls-4" d="M62.77,18.08c.62-5.88,1.82-11.94-1.26-17H47.76c.28,2.49,3.06,8.17,3.06,8.17s-10.42-2.1-14-4.81-3.18.91-4.29-3.36H72c1.15,6.2.28-.52.78,5.76.35,4.32,1.31,8.19.4,12.42-.49,2.28-1.1,7.51-2.42,11a15.59,15.59,0,0,1-5.15,6.67C62,40,50.42,41.72,50.42,41.72s6.34-8,8-11.62c1.94-4.25,3.89-7.37,4.38-12Z"/></g><path id="path19226" class="cls-4" d="M91.21,18.08c-.62-5.88-1.82-11.94,1.27-17h13.75c-.28,2.49-3.06,8.17-3.06,8.17s10.42-2.1,14-4.81,3.18.91,4.29-3.36H82c-1.15,6.2-.27-.52-.78,5.76-.35,4.32-1.3,8.19-.4,12.42.49,2.28,1.1,7.51,2.43,11a15.66,15.66,0,0,0,5.14,6.67C92,40,103.57,41.72,103.57,41.72s-6.34-8-8-11.62c-1.94-4.25-3.89-7.37-4.39-12Z"/><path id="path19228" class="cls-5" d="M101.74,41.06l-3-.05L89,37.93,77.29,27.59l-8.62,8.25-5.84,2.79-6.68,2.24-4.43.3s7.85-5.31,10.55-8.29a38.2,38.2,0,0,0,5.19-8.11C69.64,20.31,73,9.15,73.14,9.07l2.49-.37,4.79.38S83.8,20.24,86,24.71a38.34,38.34,0,0,0,5.18,8.1c2.71,3,10.57,8.25,10.57,8.25Z"/><path id="path19230" class="cls-5" d="M50.51,9s-5.46-3-7.69-4.53c-2.07-1.39-2-.54-2.57-3.35H66.06c.51,2.1.94,2.79.9,4.95,0,1.92-.27,8-.27,8l-4,6.66-.1-.3.3-11V4.73L60.7,1.1H50.81C46.23.88,50.5,6.28,50.51,9Z"/><path id="path19232" class="cls-6" d="M62.77,18.08c.62-5.88,2.2-11.94-.88-17H47.63c.28,2.49,3.19,8.17,3.19,8.17s-10.14-2.53-14-4.81S32.78,3,31.69,1.1H71.78c2.24,0,.8,3.34,1,5.76.35,4.32,1.31,8.19.4,12.42-.49,2.28-1.1,7.51-2.42,11a15.59,15.59,0,0,1-5.15,6.67C62,40,50.42,41.72,50.42,41.72s6.34-8,8-11.62c1.94-4.25,3.89-7.37,4.38-12Z"/><path id="path19234" class="cls-5" d="M103.6,9s5.46-3,7.69-4.53c2.07-1.39,2-.54,2.57-3.35H88c-.5,2.1-.93,2.79-.89,4.95,0,1.92.27,8,.27,8l4,6.66.1-.3-.3-11V4.73L93.41,1.1h9.89c4.58-.22.31,5.18.3,7.88Z"/><path id="path19236" class="cls-6" d="M91.21,18.08c-.62-5.88-2.2-11.94.88-17h14.27c-.28,2.49-3.19,8.17-3.19,8.17s10.13-2.53,14-4.81S121.2,3,122.3,1.1H82.21c-2.25,0-.8,3.34-1,5.76-.35,4.32-1.3,8.19-.4,12.42.49,2.28,1.1,7.51,2.43,11a15.66,15.66,0,0,0,5.14,6.67C92,40,103.57,41.72,103.57,41.72s-6.34-8-8-11.62c-1.94-4.25-3.89-7.37-4.39-12Z"/></g><g id="g19238"><g id="g19240"><path id="path19242" class="cls-4" d="M76.83,61.8s9.31-7.67,10.85-16.36c1.38-7.81-4.79-17-5.26-20.64-1.87-14.72,2.1-22.1,2.45-23.7h-16c.36,1.6,4.33,9,2.46,23.7-.47,3.68-6.79,12.83-5.4,20.64C67.52,54.13,76.83,61.8,76.83,61.8Z"/><path id="path19244" class="cls-7" d="M76.83,61.8V1.1"/></g><path id="path19246" class="cls-5" d="M77.11,61.52,84.7,53l2.92-5.58L87,39.8,85,31.87l-3.21-7V13.39L83,1.1H80c-.35,5.37-1.3,15.73-.88,21.09.27,3.41,1.74,8.19,2.34,11.15.41,2,1.49,4.68,1.75,6.75a28.76,28.76,0,0,1,0,6.75,33.33,33.33,0,0,1-2,7.34,75.72,75.72,0,0,1-4.09,7.34Z"/><path id="path19248" class="cls-5" d="M66.89,48.6a56.53,56.53,0,0,1,.59-6.45,67.75,67.75,0,0,1,2.91-8.51c.9-2.41,2.69-5.42,3.22-7.93,1.16-5.51.91-13.15.58-18.78C74,2.75,74,5.24,73.42,1.1H69.58l1.34,3.2.67,10.78v10.1l-2.46,5.16L66.22,38.2l-.89,6.51,1.56,3.89Z"/><path id="path19250" class="cls-6" d="M76.83,61.8s9.31-7.67,10.85-16.36c1.38-7.81-4.79-17-5.26-20.64-1.87-14.72,2.1-22.1,2.45-23.7h-16c.36,1.6,4.33,9,2.46,23.7-.47,3.68-6.79,12.83-5.4,20.64C67.52,54.13,76.83,61.8,76.83,61.8Z"/><path id="path19252" class="cls-8" d="M74.32,50.44C74,47,74.06,38.81,74.06,38.81s-3,4.39-3.44,6.37a12,12,0,0,0-.26,4.37C71,52,75,56.88,75,56.88s-.54-4.84-.69-6.44Z"/></g><g id="g19254"><g id="g19256"><g id="g19258"><path id="path19260" class="cls-4" d="M97.74,14.59,93.26,8.36H60.55l-4.49,6.23,4.49,6.21H93.26Z"/><g id="g19262"><g id="g19264"><g id="g19266"><path id="path19268" class="cls-8" d="M58.51,12l37.1.2L92.87,8.32,60.45,8.25,58.51,12Z"/><path id="path19270" class="cls-5" d="M95.46,17.26l-37.11-.2L61.09,21,93.52,21l1.94-3.76Z"/><path id="path19272" class="cls-6" d="M97.74,14.59,93.26,8.36H60.55l-4.49,6.23,4.49,6.21H93.26Z"/></g></g></g></g></g></g></g></g></g><g id="g19274"><g id="g19320"><g id="g19322"><g id="g19324"><g id="g19326"><path id="path19328" class="cls-4" d="M28.4,181.43c-.38-1.47-1.87,1,0-4.68a27.12,27.12,0,0,1,6.92-9.91c6.63-5.75,19.52-4.08,22.16-2.65,3.48,1.89,7.73,5.9,9.16,9.62,1.11,2.88-.4,7.62,3.48,7.62Z"/></g><path id="path19330" class="cls-5" d="M40.59,181.43c1.48-2.91,3.28-2.72,6.37-3.73a12.79,12.79,0,0,1,7.43,0c2.16.81,5.2,1.9,6.63,3.73Z"/><path id="path19332" class="cls-8" d="M35.41,181.43c.57-2.46,1.8-3.46,3.65-5.16a15.71,15.71,0,0,1,7.53-3.67,20.93,20.93,0,0,1,7.77.25,22.53,22.53,0,0,1,5.35,2.68c1.15.71,3.64,2.69,3.64,2.69s-4.52-7.21-7.53-9-7.75-2.54-11.17-2.45a14.77,14.77,0,0,0-7.29,2.69,17.49,17.49,0,0,0-6.07,7.81c-.69,2-.61,2.15,0,4.19Z"/><g id="g19334"><path id="path19336" class="cls-6" d="M26.78,181.43c.95-2.3-.25,1,1.63-4.68a27.12,27.12,0,0,1,6.92-9.91c6.63-5.75,19.52-4.08,22.16-2.65,3.48,1.89,11.36,13.53,12.79,17.24Z"/></g></g><g id="g19338"><g id="g19340"><path id="path19342" class="cls-4" d="M126,181.43c.38-1.47,1.87,1,0-4.68a27.12,27.12,0,0,0-6.92-9.91c-6.64-5.75-19.53-4.08-22.16-2.65-3.49,1.89-7.74,5.9-9.17,9.62-1.11,2.88.4,7.62-3.47,7.62Z"/></g><path id="path19344" class="cls-5" d="M113.75,181.43c-1.47-2.91-3.28-2.72-6.36-3.73a12.79,12.79,0,0,0-7.43,0c-2.17.81-5.2,1.9-6.63,3.73Z"/><path id="path19346" class="cls-8" d="M118.93,181.43c-.56-2.46-1.79-3.46-3.64-5.16a15.8,15.8,0,0,0-7.53-3.67,21,21,0,0,0-7.78.25,22.65,22.65,0,0,0-5.34,2.68c-1.16.71-3.64,2.69-3.64,2.69s4.52-7.21,7.53-9,7.74-2.54,11.17-2.45a14.84,14.84,0,0,1,7.29,2.69,17.56,17.56,0,0,1,6.07,7.81c.69,2,.6,2.15,0,4.19Z"/><g id="g19348"><path id="path19350" class="cls-6" d="M127.57,181.43c-1-2.3.25,1-1.63-4.68a27.12,27.12,0,0,0-6.92-9.91c-6.64-5.75-19.53-4.08-22.16-2.65-3.49,1.89-11.36,13.53-12.8,17.24Z"/></g></g><g id="g19352"><g id="g19354"><path id="path19356" class="cls-4" d="M84.77,181.43c1.42-6.37,3.21-5.46,4.16-7.54a71.32,71.32,0,0,1,4.59-7.38c1.12-1.66,3.62-4.75,4.9-7.89a23.43,23.43,0,0,0,1.46-8.54,25.18,25.18,0,0,0-1.36-8.21,17.61,17.61,0,0,0-7-8.54c-3.94-2.42-7.12-4.36-8.33-5.13-4-2.55-6.47-10.92-6.52-10.92s-2.51,8.37-6.51,10.92C69,129,66,130.91,62,133.33a17.67,17.67,0,0,0-7,8.54,25.18,25.18,0,0,0-1.36,8.21,23.48,23.48,0,0,0,1.47,8.54c1.27,3.14,3.77,6.23,4.89,7.89a71.79,71.79,0,0,1,4.6,7.38c1,2.08,2.73,1.17,4.15,7.54Z"/><path id="path19358" class="cls-7" d="M76.72,181.43v-63"/></g><path id="path19360" class="cls-5" d="M84.3,181.43l3.22-5.91,5.25-7.33,4.38-7.63,1.75-4.11.88-7.34-1.17-7-3.7-6-7.1-4.9a79.45,79.45,0,0,1,7,9.23,12.37,12.37,0,0,1,1.49,6,18.09,18.09,0,0,1-.87,7,27.52,27.52,0,0,1-3.8,7.63c-1.7,2.48-4.76,5.25-6.13,7.93a45.79,45.79,0,0,0-4.08,12.36Z"/><path id="path19362" class="cls-5" d="M69.71,177.87A56.16,56.16,0,0,0,65,167.29,59.69,59.69,0,0,0,59.49,160a74.91,74.91,0,0,0-5.55-5.28l.57.21.67,3.14,2.68,4.49,2.68,4.94,4.46,7,2.91,7.41,3-.41C70.68,181.49,70.85,181.21,69.71,177.87Z"/><path id="path19364" class="cls-6" d="M85.66,181.43c2.06-5.09,2.32-5.46,3.27-7.54a71.32,71.32,0,0,1,4.59-7.38c1.12-1.66,3.62-4.75,4.9-7.89a23.43,23.43,0,0,0,1.46-8.54,25.18,25.18,0,0,0-1.36-8.21,17.61,17.61,0,0,0-7-8.54c-3.94-2.42-7.12-4.36-8.33-5.13-4-2.55-6.47-10.92-6.52-10.92s-2.51,8.37-6.51,10.92C69,129,66,130.91,62,133.33a17.67,17.67,0,0,0-7,8.54,25.18,25.18,0,0,0-1.36,8.21,23.48,23.48,0,0,0,1.47,8.54c1.27,3.14,3.77,6.23,4.89,7.89a71.79,71.79,0,0,1,4.6,7.38c1,2.08,2.35,3.86,4.15,7.54Z"/><path id="path19366" class="cls-8" d="M71.56,168.81l.8-36.09L66,137.53c-1.44,1.08-3.9,2-4.79,3.61-2,3.57-2.94,7.5-1.2,11.23,1,2.2,4.74,5,6.39,6.82,2.21,2.41,5.18,9.62,5.18,9.62Z"/><path id="path19368" class="cls-8" d="M80.74,163.2V137.13a17.89,17.89,0,0,0,2.39,3.61c.81.71,2.4.88,3.19,1.6a9.51,9.51,0,0,1,2.8,4.41,11.55,11.55,0,0,1-1.2,6.82c-.86,1.57-3.31,2.59-4.39,4a36.69,36.69,0,0,0-2.79,5.62Z"/></g></g></g></g><g id="g19376"><g id="g19422"><g id="g19424"><g id="g19426"><g id="g19428"><path id="path19430" class="cls-4" d="M388.91,18.08c-.63-5.88-1.82-11.94,1.26-17h13.75c-.28,2.49-3.06,8.17-3.06,8.17s10.42-2.1,13.95-4.81,3.18.91,4.29-3.36H379.73c-1.15,6.2-.28-.52-.79,5.76-.34,4.32-1.3,8.19-.39,12.42.48,2.28,1.09,7.51,2.42,11a15.59,15.59,0,0,0,5.15,6.67c3.6,3.13,15.14,4.81,15.14,4.81s-6.34-8-8-11.62c-1.94-4.25-3.89-7.37-4.38-12Z"/></g><path id="path19432" class="cls-4" d="M360.47,18.08c.62-5.88,1.81-11.94-1.27-17H345.45c.28,2.49,3.06,8.17,3.06,8.17s-10.42-2.1-13.95-4.81-3.18.91-4.29-3.36h39.37c1.16,6.2.28-.52.79,5.76.34,4.32,1.3,8.19.4,12.42-.49,2.28-1.1,7.51-2.43,11a15.59,15.59,0,0,1-5.15,6.67c-3.6,3.13-15.14,4.81-15.14,4.81s6.34-8,8-11.62c1.94-4.25,3.89-7.37,4.39-12Z"/><path id="path19434" class="cls-5" d="M349.93,41.06l3-.05,9.74-3.08,11.68-10.34L383,35.84l5.84,2.79,6.68,2.24,4.43.3s-7.85-5.31-10.55-8.29a38.2,38.2,0,0,1-5.19-8.11c-2.18-4.46-5.56-15.62-5.68-15.7l-2.49-.37-4.79.38s-3.38,11.16-5.57,15.63a38.34,38.34,0,0,1-5.18,8.1c-2.71,3-10.58,8.25-10.58,8.25Z"/><path id="path19436" class="cls-5" d="M401.17,9s5.46-3,7.69-4.53c2.07-1.39,2-.54,2.57-3.35H385.61c-.5,2.1-.93,2.79-.89,4.95,0,1.92.27,8,.27,8l4,6.66.1-.3-.3-11V4.73L391,1.1h9.89c4.58-.22.31,5.18.3,7.88Z"/><path id="path19438" class="cls-6" d="M388.91,18.08c-.63-5.88-2.2-11.94.88-17h14.26c-.28,2.49-3.19,8.17-3.19,8.17S411,6.74,414.81,4.46,418.9,3,420,1.1H379.9c-2.25,0-.8,3.34-1,5.76-.34,4.32-1.3,8.19-.39,12.42.48,2.28,1.09,7.51,2.42,11a15.59,15.59,0,0,0,5.15,6.67c3.6,3.13,15.14,4.81,15.14,4.81s-6.34-8-8-11.62c-1.94-4.25-3.89-7.37-4.38-12Z"/><path id="path19440" class="cls-5" d="M348.08,9s-5.46-3-7.69-4.53c-2.07-1.39-2-.54-2.57-3.35h25.81c.51,2.1.94,2.79.9,4.95,0,1.92-.27,8-.27,8l-4,6.66-.1-.3.3-11V4.73L358.27,1.1h-9.89c-4.58-.22-.31,5.18-.3,7.88Z"/><path id="path19442" class="cls-6" d="M360.47,18.08c.62-5.88,2.2-11.94-.88-17H345.32c.28,2.49,3.19,8.17,3.19,8.17s-10.13-2.53-13.95-4.81S330.48,3,329.38,1.1h40.09c2.25,0,.8,3.34,1,5.76.34,4.32,1.3,8.19.4,12.42-.49,2.28-1.1,7.51-2.43,11a15.59,15.59,0,0,1-5.15,6.67c-3.6,3.13-15.14,4.81-15.14,4.81s6.34-8,8-11.62c1.94-4.25,3.89-7.37,4.39-12Z"/></g><g id="g19444"><g id="g19446"><path id="path19448" class="cls-4" d="M374.85,61.8S365.54,54.13,364,45.44c-1.38-7.81,4.79-17,5.25-20.64,1.87-14.72-2.09-22.1-2.45-23.7h15.95c-.35,1.6-4.32,9-2.45,23.7.47,3.68,6.79,12.83,5.4,20.64C384.16,54.13,374.85,61.8,374.85,61.8Z"/><path id="path19450" class="cls-7" d="M374.85,61.8V1.1"/></g><path id="path19452" class="cls-5" d="M374.57,61.52,367,53l-2.92-5.58.58-7.63,2.05-7.93,3.21-7V13.39L368.73,1.1h2.92c.35,5.37,1.3,15.73.88,21.09-.27,3.41-1.74,8.19-2.34,11.15-.41,2-1.49,4.68-1.75,6.75a28.23,28.23,0,0,0,0,6.75,33.33,33.33,0,0,0,2,7.34,75.72,75.72,0,0,0,4.09,7.34Z"/><path id="path19454" class="cls-5" d="M384.79,48.6a56.53,56.53,0,0,0-.59-6.45,66.24,66.24,0,0,0-2.92-8.51c-.89-2.41-2.68-5.42-3.21-7.93-1.16-5.51-.91-13.15-.58-18.78.24-4.18.18-1.69.77-5.83h3.84l-1.34,3.2-.67,10.78v10.1l2.46,5.16,2.9,7.86.9,6.51-1.56,3.89Z"/><path id="path19456" class="cls-6" d="M374.85,61.8S365.54,54.13,364,45.44c-1.38-7.81,4.79-17,5.25-20.64,1.87-14.72-2.09-22.1-2.45-23.7h15.95c-.35,1.6-4.32,9-2.45,23.7.47,3.68,6.79,12.83,5.4,20.64C384.16,54.13,374.85,61.8,374.85,61.8Z"/><path id="path19458" class="cls-8" d="M377.36,50.44c.34-3.47.26-11.63.26-11.63s2.95,4.39,3.44,6.37a12,12,0,0,1,.26,4.37c-.62,2.4-4.65,7.33-4.65,7.33s.54-4.84.69-6.44Z"/></g><g id="g19460"><g id="g19462"><g id="g19464"><path id="path19466" class="cls-4" d="M353.94,14.59l4.47-6.23h32.72l4.49,6.23-4.49,6.21H358.41Z"/><g id="g19468"><g id="g19470"><g id="g19472"><path id="path19474" class="cls-8" d="M393.17,12l-37.1.2,2.74-3.89,32.42-.07L393.17,12Z"/><path id="path19476" class="cls-5" d="M356.22,17.26l37.11-.2L390.59,21,358.16,21l-1.94-3.76Z"/><path id="path19478" class="cls-6" d="M353.94,14.59l4.47-6.23h32.72l4.49,6.23-4.49,6.21H358.41Z"/></g></g></g></g></g></g></g></g></g><g id="g19480"><g id="g19526"><g id="g19528"><g id="g19530"><g id="g19532"><path id="path19534" class="cls-4" d="M423.16,181.43c.38-1.47,1.87,1,0-4.68a27.24,27.24,0,0,0-6.92-9.91c-6.64-5.75-19.53-4.08-22.16-2.65-3.49,1.89-7.74,5.9-9.17,9.62-1.11,2.88.4,7.62-3.47,7.62Z"/></g><path id="path19536" class="cls-5" d="M411,181.43c-1.47-2.91-3.28-2.72-6.36-3.73a12.79,12.79,0,0,0-7.43,0c-2.17.81-5.2,1.9-6.63,3.73Z"/><path id="path19538" class="cls-8" d="M416.14,181.43c-.56-2.46-1.79-3.46-3.64-5.16A15.8,15.8,0,0,0,405,172.6a21,21,0,0,0-7.78.25,22.65,22.65,0,0,0-5.34,2.68c-1.16.71-3.64,2.69-3.64,2.69s4.52-7.21,7.53-9,7.74-2.54,11.17-2.45a14.84,14.84,0,0,1,7.29,2.69,17.56,17.56,0,0,1,6.07,7.81c.69,2,.6,2.15,0,4.19Z"/><g id="g19540"><path id="path19542" class="cls-6" d="M424.78,181.43c-1-2.3.25,1-1.63-4.68a27.24,27.24,0,0,0-6.92-9.91c-6.64-5.75-19.53-4.08-22.16-2.65-3.49,1.89-11.37,13.53-12.8,17.24Z"/></g></g><g id="g19544"><g id="g19546"><path id="path19548" class="cls-4" d="M325.61,181.43c-.38-1.47-1.87,1,0-4.68a27,27,0,0,1,6.92-9.91c6.63-5.75,19.52-4.08,22.16-2.65,3.48,1.89,7.73,5.9,9.16,9.62,1.11,2.88-.4,7.62,3.48,7.62Z"/></g><path id="path19550" class="cls-5" d="M337.8,181.43c1.48-2.91,3.28-2.72,6.37-3.73a12.79,12.79,0,0,1,7.43,0c2.16.81,5.2,1.9,6.63,3.73Z"/><path id="path19552" class="cls-8" d="M332.62,181.43c.56-2.46,1.8-3.46,3.65-5.16a15.71,15.71,0,0,1,7.53-3.67,20.93,20.93,0,0,1,7.77.25,22.53,22.53,0,0,1,5.35,2.68c1.15.71,3.64,2.69,3.64,2.69s-4.52-7.21-7.53-9-7.75-2.54-11.17-2.45a14.77,14.77,0,0,0-7.29,2.69,17.58,17.58,0,0,0-6.08,7.81c-.68,2-.6,2.15,0,4.19Z"/><g id="g19554"><path id="path19556" class="cls-6" d="M324,181.43c.95-2.3-.25,1,1.63-4.68a27,27,0,0,1,6.92-9.91c6.63-5.75,19.52-4.08,22.16-2.65,3.48,1.89,11.36,13.53,12.79,17.24Z"/></g></g><g id="g19558"><g id="g19560"><path id="path19562" class="cls-4" d="M366.78,181.43c-1.42-6.37-3.2-5.46-4.15-7.54a71.79,71.79,0,0,0-4.6-7.38c-1.12-1.66-3.62-4.75-4.89-7.89a23.43,23.43,0,0,1-1.46-8.54,24.66,24.66,0,0,1,1.36-8.21,17.59,17.59,0,0,1,6.94-8.54c3.94-2.42,7.13-4.36,8.34-5.13,4-2.55,6.46-10.92,6.51-10.92s2.51,8.37,6.52,10.92c1.21.77,4.25,2.71,8.18,5.13a17.56,17.56,0,0,1,7,8.54,24.66,24.66,0,0,1,1.36,8.21,23.43,23.43,0,0,1-1.46,8.54c-1.27,3.14-3.77,6.23-4.89,7.89a70,70,0,0,0-4.6,7.38c-.95,2.08-2.74,1.17-4.16,7.54Z"/><path id="path19564" class="cls-7" d="M374.83,181.43v-63"/></g><path id="path19566" class="cls-5" d="M367.25,181.43,364,175.52l-5.26-7.33-4.38-7.63-1.75-4.11-.87-7.34,1.16-7,3.7-6,7.11-4.9a79.45,79.45,0,0,0-7,9.23,12.3,12.3,0,0,0-1.5,6,18.28,18.28,0,0,0,.88,7,27.49,27.49,0,0,0,3.79,7.63c1.71,2.48,4.76,5.25,6.13,7.93a45.81,45.81,0,0,1,4.09,12.36Z"/><path id="path19568" class="cls-5" d="M381.85,177.87a55.52,55.52,0,0,1,4.67-10.58,59.69,59.69,0,0,1,5.55-7.32,73.36,73.36,0,0,1,5.54-5.28l-.56.21-.67,3.14-2.68,4.49L391,167.47l-4.47,7-2.9,7.41-3-.41C380.88,181.49,380.7,181.21,381.85,177.87Z"/><path id="path19570" class="cls-6" d="M365.89,181.43c-2.05-5.09-2.31-5.46-3.26-7.54a71.79,71.79,0,0,0-4.6-7.38c-1.12-1.66-3.62-4.75-4.89-7.89a23.43,23.43,0,0,1-1.46-8.54,24.66,24.66,0,0,1,1.36-8.21,17.59,17.59,0,0,1,6.94-8.54c3.94-2.42,7.13-4.36,8.34-5.13,4-2.55,6.46-10.92,6.51-10.92s2.51,8.37,6.52,10.92c1.21.77,4.25,2.71,8.18,5.13a17.56,17.56,0,0,1,7,8.54,24.66,24.66,0,0,1,1.36,8.21,23.43,23.43,0,0,1-1.46,8.54c-1.27,3.14-3.77,6.23-4.89,7.89a70,70,0,0,0-4.6,7.38c-.95,2.08-2.35,3.86-4.16,7.54Z"/><path id="path19572" class="cls-8" d="M380,168.81l-.79-36.09,6.38,4.81c1.44,1.08,3.89,2,4.79,3.61,2,3.57,2.94,7.5,1.19,11.23-1,2.2-4.73,5-6.38,6.82-2.22,2.41-5.19,9.62-5.19,9.62Z"/><path id="path19574" class="cls-8" d="M370.82,163.2V137.13a18.07,18.07,0,0,1-2.4,3.61c-.8.71-2.39.88-3.19,1.6a9.41,9.41,0,0,0-2.79,4.41,11.62,11.62,0,0,0,1.19,6.82c.86,1.57,3.32,2.59,4.39,4a36.07,36.07,0,0,1,2.8,5.62Z"/></g></g></g></g><g id="g19576"><g id="g19622"><g id="g19624"><g id="g19626"><g id="g19628"><path id="path19630" class="cls-4" d="M537.14,18.08c-.62-5.88-1.81-11.94,1.27-17h13.75c-.28,2.49-3.06,8.17-3.06,8.17s10.42-2.1,13.95-4.81,3.18.91,4.29-3.36H528c-1.16,6.2-.28-.52-.79,5.76-.35,4.32-1.3,8.19-.4,12.42.49,2.28,1.1,7.51,2.43,11a15.59,15.59,0,0,0,5.15,6.67C538,40,549.5,41.72,549.5,41.72s-6.34-8-8-11.62c-1.94-4.25-3.89-7.37-4.39-12Z"/></g><path id="path19632" class="cls-4" d="M508.7,18.08c.63-5.88,1.82-11.94-1.26-17H493.69c.28,2.49,3.06,8.17,3.06,8.17s-10.42-2.1-13.95-4.81-3.18.91-4.29-3.36h39.37c1.15,6.2.28-.52.78,5.76.35,4.32,1.31,8.19.4,12.42-.49,2.28-1.1,7.51-2.42,11a15.59,15.59,0,0,1-5.15,6.67c-3.6,3.13-15.14,4.81-15.14,4.81s6.34-8,8-11.62c1.94-4.25,3.89-7.37,4.38-12Z"/><path id="path19634" class="cls-5" d="M498.17,41.06l3-.05L511,37.93l11.68-10.34,8.62,8.25,5.84,2.79,6.68,2.24,4.43.3s-7.85-5.31-10.56-8.29a38.55,38.55,0,0,1-5.18-8.11c-2.19-4.46-5.56-15.62-5.68-15.7l-2.49-.37-4.8.38s-3.37,11.16-5.56,15.63a38.74,38.74,0,0,1-5.18,8.1c-2.71,3-10.58,8.25-10.58,8.25Z"/><path id="path19636" class="cls-5" d="M549.41,9s5.46-3,7.69-4.53c2.07-1.39,2-.54,2.56-3.35H533.85c-.5,2.1-.93,2.79-.89,4.95,0,1.92.27,8,.27,8l4,6.66.1-.3-.29-11V4.73l2.2-3.63h9.9c4.57-.22.31,5.18.3,7.88Z"/><path id="path19638" class="cls-6" d="M537.14,18.08c-.62-5.88-2.2-11.94.88-17h14.27c-.28,2.49-3.19,8.17-3.19,8.17s10.13-2.53,13.95-4.81S567.13,3,568.23,1.1H528.14c-2.25,0-.8,3.34-1,5.76-.35,4.32-1.3,8.19-.4,12.42.49,2.28,1.1,7.51,2.43,11a15.59,15.59,0,0,0,5.15,6.67C538,40,549.5,41.72,549.5,41.72s-6.34-8-8-11.62c-1.94-4.25-3.89-7.37-4.39-12Z"/><path id="path19640" class="cls-5" d="M496.32,9s-5.47-3-7.69-4.53-2-.54-2.57-3.35h25.81c.51,2.1.94,2.79.89,4.95,0,1.92-.26,8-.26,8l-4,6.66-.1-.3.3-11V4.73L506.51,1.1h-9.89c-4.58-.22-.31,5.18-.3,7.88Z"/><path id="path19642" class="cls-6" d="M508.7,18.08c.63-5.88,2.2-11.94-.88-17H493.56c.28,2.49,3.19,8.17,3.19,8.17S486.61,6.74,482.8,4.46,478.71,3,477.62,1.1h40.09c2.25,0,.8,3.34.95,5.76.35,4.32,1.31,8.19.4,12.42-.49,2.28-1.1,7.51-2.42,11a15.59,15.59,0,0,1-5.15,6.67c-3.6,3.13-15.14,4.81-15.14,4.81s6.34-8,8-11.62c1.94-4.25,3.89-7.37,4.38-12Z"/></g><g id="g19644"><g id="g19646"><path id="path19648" class="cls-4" d="M523.09,61.8s-9.31-7.67-10.85-16.36c-1.39-7.81,4.78-17,5.25-20.64C519.36,10.08,515.4,2.7,515,1.1h16c-.36,1.6-4.32,9-2.45,23.7.47,3.68,6.78,12.83,5.4,20.64C532.4,54.13,523.09,61.8,523.09,61.8Z"/><path id="path19650" class="cls-7" d="M523.09,61.8V1.1"/></g><path id="path19652" class="cls-5" d="M522.81,61.52,515.22,53l-2.92-5.58.58-7.63,2-7.93,3.22-7V13.39L517,1.1h2.92c.35,5.37,1.3,15.73.87,21.09-.27,3.41-1.73,8.19-2.33,11.15-.42,2-1.49,4.68-1.75,6.75a28.23,28.23,0,0,0,0,6.75,33.33,33.33,0,0,0,2,7.34,75.72,75.72,0,0,0,4.09,7.34Z"/><path id="path19654" class="cls-5" d="M533,48.6a56.53,56.53,0,0,0-.59-6.45,66.24,66.24,0,0,0-2.92-8.51c-.9-2.41-2.68-5.42-3.21-7.93-1.16-5.51-.91-13.15-.58-18.78.24-4.18.18-1.69.77-5.83h3.84L529,4.3l-.67,10.78v10.1l2.46,5.16,2.9,7.86.9,6.51L533,48.6Z"/><path id="path19656" class="cls-6" d="M523.09,61.8s-9.31-7.67-10.85-16.36c-1.39-7.81,4.78-17,5.25-20.64C519.36,10.08,515.4,2.7,515,1.1h16c-.36,1.6-4.32,9-2.45,23.7.47,3.68,6.78,12.83,5.4,20.64C532.4,54.13,523.09,61.8,523.09,61.8Z"/><path id="path19658" class="cls-8" d="M525.6,50.44c.33-3.47.26-11.63.26-11.63s2.95,4.39,3.44,6.37a12.18,12.18,0,0,1,.25,4.37c-.61,2.4-4.64,7.33-4.64,7.33s.54-4.84.69-6.44Z"/></g><g id="g19660"><g id="g19662"><g id="g19664"><path id="path19666" class="cls-4" d="M502.17,14.59l4.48-6.23h32.71l4.5,6.23-4.5,6.21H506.65Z"/><g id="g19668"><g id="g19670"><g id="g19672"><path id="path19674" class="cls-8" d="M541.41,12l-37.1.2,2.74-3.89,32.42-.07L541.41,12Z"/><path id="path19676" class="cls-5" d="M504.46,17.26l37.1-.2L538.82,21,506.4,21l-1.94-3.76Z"/><path id="path19678" class="cls-6" d="M502.17,14.59l4.48-6.23h32.71l4.5,6.23-4.5,6.21H506.65Z"/></g></g></g></g></g></g></g></g></g><g id="g19728"><g id="g19730"><g id="g19732"><path id="path19734" class="cls-4" d="M571.52,181.43c.38-1.47,1.87,1,0-4.68a27.12,27.12,0,0,0-6.92-9.91c-6.64-5.75-19.53-4.08-22.16-2.65-3.49,1.89-7.74,5.9-9.17,9.62-1.11,2.88.4,7.62-3.47,7.62Z"/></g><path id="path19736" class="cls-5" d="M559.32,181.43c-1.47-2.91-3.28-2.72-6.36-3.73a12.79,12.79,0,0,0-7.43,0c-2.17.81-5.2,1.9-6.63,3.73Z"/><path id="path19738" class="cls-8" d="M564.5,181.43c-.56-2.46-1.79-3.46-3.64-5.16a15.8,15.8,0,0,0-7.53-3.67,21,21,0,0,0-7.78.25,22.65,22.65,0,0,0-5.34,2.68c-1.16.71-3.64,2.69-3.64,2.69s4.52-7.21,7.53-9,7.74-2.54,11.17-2.45a14.84,14.84,0,0,1,7.29,2.69,17.56,17.56,0,0,1,6.07,7.81c.69,2,.6,2.15,0,4.19Z"/><g id="g19740"><path id="path19742" class="cls-6" d="M573.14,181.43c-1-2.3.25,1-1.63-4.68a27.12,27.12,0,0,0-6.92-9.91c-6.64-5.75-19.53-4.08-22.16-2.65-3.49,1.89-11.36,13.53-12.8,17.24Z"/></g></g><g id="g19744"><g id="g19746"><path id="path19748" class="cls-4" d="M474,181.43c-.38-1.47-1.87,1,0-4.68a27.12,27.12,0,0,1,6.92-9.91c6.63-5.75,19.52-4.08,22.16-2.65,3.48,1.89,7.73,5.9,9.16,9.62,1.11,2.88-.39,7.62,3.48,7.62Z"/></g><path id="path19750" class="cls-5" d="M486.16,181.43c1.48-2.91,3.28-2.72,6.37-3.73a12.79,12.79,0,0,1,7.43,0c2.16.81,5.2,1.9,6.63,3.73Z"/><path id="path19752" class="cls-8" d="M481,181.43c.56-2.46,1.79-3.46,3.64-5.16a15.71,15.71,0,0,1,7.53-3.67,20.93,20.93,0,0,1,7.77.25,22.53,22.53,0,0,1,5.35,2.68c1.15.71,3.64,2.69,3.64,2.69s-4.52-7.21-7.53-9-7.74-2.54-11.17-2.45a14.77,14.77,0,0,0-7.29,2.69,17.49,17.49,0,0,0-6.07,7.81c-.69,2-.61,2.15,0,4.19Z"/><g id="g19754"><path id="path19756" class="cls-6" d="M472.35,181.43c.95-2.3-.25,1,1.63-4.68a27.12,27.12,0,0,1,6.92-9.91c6.63-5.75,19.52-4.08,22.16-2.65,3.48,1.89,11.36,13.53,12.79,17.24Z"/></g></g><g id="g19758"><g id="g19760"><path id="path19762" class="cls-4" d="M515.15,181.43c-1.42-6.37-3.21-5.46-4.16-7.54a71.79,71.79,0,0,0-4.6-7.38c-1.12-1.66-3.62-4.75-4.89-7.89a23.43,23.43,0,0,1-1.46-8.54,24.66,24.66,0,0,1,1.36-8.21,17.56,17.56,0,0,1,7-8.54c3.93-2.42,7.12-4.36,8.33-5.13,4-2.55,6.47-10.92,6.51-10.92s2.51,8.37,6.52,10.92c1.21.77,4.25,2.71,8.19,5.13a17.59,17.59,0,0,1,6.94,8.54,24.66,24.66,0,0,1,1.36,8.21,23.43,23.43,0,0,1-1.46,8.54c-1.27,3.14-3.77,6.23-4.89,7.89a71.79,71.79,0,0,0-4.6,7.38c-1,2.08-2.74,1.17-4.15,7.54Z"/><path id="path19764" class="cls-7" d="M523.19,181.43v-63"/></g><path id="path19766" class="cls-5" d="M515.61,181.43l-3.21-5.91-5.25-7.33-4.38-7.63L501,156.45l-.87-7.34,1.17-7,3.69-6,7.11-4.9a79.45,79.45,0,0,0-7,9.23,12.3,12.3,0,0,0-1.5,6,18.28,18.28,0,0,0,.88,7,27.76,27.76,0,0,0,3.79,7.63c1.71,2.48,4.76,5.25,6.13,7.93a45.47,45.47,0,0,1,4.09,12.36Z"/><path id="path19768" class="cls-5" d="M530.21,177.87a55.52,55.52,0,0,1,4.67-10.58,59.69,59.69,0,0,1,5.55-7.32,73.36,73.36,0,0,1,5.54-5.28l-.56.21-.67,3.14-2.68,4.49-2.68,4.94-4.47,7-2.9,7.41-3-.41C529.24,181.49,529.06,181.21,530.21,177.87Z"/><path id="path19770" class="cls-9" d="M514.25,181.43c-2-5.09-2.31-5.46-3.26-7.54a71.79,71.79,0,0,0-4.6-7.38c-1.12-1.66-3.62-4.75-4.89-7.89a23.43,23.43,0,0,1-1.46-8.54,24.66,24.66,0,0,1,1.36-8.21,17.56,17.56,0,0,1,7-8.54c3.93-2.42,7.12-4.36,8.33-5.13,4-2.55,6.47-10.92,6.51-10.92s2.51,8.37,6.52,10.92c1.21.77,4.25,2.71,8.19,5.13a17.59,17.59,0,0,1,6.94,8.54,24.66,24.66,0,0,1,1.36,8.21,23.43,23.43,0,0,1-1.46,8.54c-1.27,3.14-3.77,6.23-4.89,7.89a71.79,71.79,0,0,0-4.6,7.38c-1,2.08-2.35,3.86-4.15,7.54Z"/><path id="path19772" class="cls-8" d="M528.35,168.81l-.79-36.09,6.38,4.81c1.44,1.08,3.89,2,4.79,3.61,2,3.57,2.94,7.5,1.2,11.23-1,2.2-4.74,5-6.39,6.82-2.22,2.41-5.19,9.62-5.19,9.62Z"/><path id="path19774" class="cls-8" d="M519.18,163.2V137.13a18.07,18.07,0,0,1-2.4,3.61c-.8.71-2.39.88-3.19,1.6a9.41,9.41,0,0,0-2.79,4.41,11.55,11.55,0,0,0,1.2,6.82c.86,1.57,3.31,2.59,4.38,4a36.07,36.07,0,0,1,2.8,5.62Z"/></g></g><path id="rect20447" class="cls-10" d="M1.36,1.54H598.2V181.61H1.36Z"/></g></g></svg>