<?xml version="1.0" encoding="UTF-8" standalone="no"?>
<!-- Created with Inkscape (http://www.inkscape.org/) -->
<svg
   xmlns:dc="http://purl.org/dc/elements/1.1/"
   xmlns:cc="http://web.resource.org/cc/"
   xmlns:rdf="http://www.w3.org/1999/02/22-rdf-syntax-ns#"
   xmlns:svg="http://www.w3.org/2000/svg"
   xmlns="http://www.w3.org/2000/svg"
   xmlns:xlink="http://www.w3.org/1999/xlink"
   xmlns:sodipodi="http://sodipodi.sourceforge.net/DTD/sodipodi-0.dtd"
   xmlns:inkscape="http://www.inkscape.org/namespaces/inkscape"
   version="1.0"
   width="600"
   height="660"
   id="svg2"
   sodipodi:version="0.32"
   inkscape:version="0.44.1"
   sodipodi:docname="Blason ville fr Argenteuil (Val-d'Oise).svg"
   sodipodi:docbase="C:\Documents and Settings\Standard\Mes documents\aaaOuiqui\Blasons\Blasons Val-d'Oise">
  <metadata
     id="metadata2075">
    <rdf:RDF>
      <cc:Work
         rdf:about="">
        <dc:format>image/svg+xml</dc:format>
        <dc:type
           rdf:resource="http://purl.org/dc/dcmitype/StillImage" />
      </cc:Work>
    </rdf:RDF>
  </metadata>
  <sodipodi:namedview
     inkscape:window-height="721"
     inkscape:window-width="1024"
     inkscape:pageshadow="2"
     inkscape:pageopacity="0.0"
     guidetolerance="10.0"
     gridtolerance="10.0"
     objecttolerance="10.0"
     borderopacity="1.0"
     bordercolor="#666666"
     pagecolor="#ffffff"
     id="base"
     inkscape:zoom="0.79484748"
     inkscape:cx="611.6811"
     inkscape:cy="263.52627"
     inkscape:window-x="-4"
     inkscape:window-y="-4"
     inkscape:current-layer="layer6"
     showguides="true"
     inkscape:guide-bbox="true" />
  <desc
     id="desc4">Flag of Canton of Valais (Wallis)</desc>
  <defs
     id="defs6">
    <linearGradient
       id="linearGradient2893">
      <stop
         style="stop-color:white;stop-opacity:0.3137255"
         offset="0"
         id="stop2895" />
      <stop
         style="stop-color:white;stop-opacity:0.25098041"
         offset="0.19"
         id="stop2897" />
      <stop
         style="stop-color:#6b6b6b;stop-opacity:0.1254902"
         offset="0.60000002"
         id="stop2901" />
      <stop
         style="stop-color:black;stop-opacity:0.1254902"
         offset="1"
         id="stop2899" />
    </linearGradient>
    <radialGradient
       inkscape:collect="always"
       xlink:href="#linearGradient2893"
       id="radialGradient2146"
       gradientUnits="userSpaceOnUse"
       gradientTransform="matrix(1.353218,0,0,1.348928,-77.62935,-85.74693)"
       cx="221.44487"
       cy="226.33101"
       fx="221.44487"
       fy="226.33101"
       r="300" />
  </defs>
  <path
     id="path1411"
     style="fill:none;fill-opacity:1;fill-rule:evenodd;stroke:black;stroke-width:3.00000048;stroke-linecap:butt;stroke-linejoin:miter;stroke-miterlimit:4;stroke-dasharray:none;stroke-opacity:1"
     d="M 300.14747,658.47595 C 300.14747,658.47595 1.6474799,546.15559 1.6474799,260.70395 C 1.6474799,-24.747667 1.6474799,2.1521643 1.6474799,2.1521643 L 598.64747,2.1521643 L 598.64747,260.70395 C 598.64747,546.15559 300.14747,658.47595 300.14747,658.47595 z " />
  <g
     inkscape:groupmode="layer"
     id="layer6"
     inkscape:label="Fond d'écu">
    <path
       id="path2855"
       style="opacity:1;fill:#e20909;fill-opacity:1;fill-rule:evenodd;stroke:none;stroke-width:1px;stroke-linecap:butt;stroke-linejoin:miter;stroke-opacity:1;display:inline"
       d="M 300.14747,656.97569 C 300.14747,656.97569 598.64748,544.65538 598.64748,259.20386 C 598.64748,-26.247663 598.64748,0.65216417 598.64748,0.65216417 L 1.64747,0.65216417 L 1.64747,259.20386 C 1.64747,544.65538 300.14747,656.97569 300.14747,656.97569 z " />
    <rect
       id="rect11373"
       style="opacity:1;fill:#2b5df2;fill-opacity:1;fill-rule:evenodd;stroke:black;stroke-width:3;stroke-linecap:round;stroke-linejoin:round;stroke-miterlimit:4;stroke-dasharray:none;stroke-dashoffset:0;stroke-opacity:1;display:inline"
       y="1.4756674"
       x="1.3828571"
       height="187.1225"
       width="597.52924" />
    <g
       transform="matrix(0.322568,0,0,0.322568,1636.382,106.8048)"
       id="g9407"
       style="fill:white;fill-opacity:1;stroke:black;stroke-width:9.30036449;stroke-miterlimit:4;stroke-dasharray:none;stroke-opacity:1;display:inline" />
    <g
       id="g18016"
       style="stroke:black;stroke-opacity:1;stroke-width:2;stroke-miterlimit:4;stroke-dasharray:none">
      <g
         transform="matrix(0.566881,0,0,0.574543,-243.7434,230.0299)"
         id="g6396"
         style="stroke:black;stroke-opacity:1;stroke-width:3.50447347;stroke-miterlimit:4;stroke-dasharray:none">
        <path
           d="M 786.95951,375.41701 C 773.59843,385.84733 778.39919,360.91683 762.64077,367.16039 C 746.88236,373.40396 767.45519,388.28131 750.57609,389.83232 C 733.69698,391.38331 751.21407,373.00593 734.58173,369.7387 C 717.94938,366.47148 727.21305,390.10962 712.1749,382.28887 C 697.13676,374.46811 721.80865,368.47854 709.58302,356.73784 C 697.35739,344.99715 692.37073,369.89113 683.94807,355.18166 C 675.52539,340.4722 699.51891,348.77208 695.58156,332.2855 C 691.6442,315.79893 673.99046,334.04509 674.85739,317.11706 C 675.72433,300.18903 691.42172,320.1432 697.02272,304.14512 C 702.62371,288.14703 677.90782,293.95235 687.78911,280.18029 C 697.67042,266.40821 700.08786,291.68138 713.44894,281.25107 C 726.81001,270.82076 702.87908,262.34207 718.6375,256.09851 C 734.39592,249.85494 722.7659,272.42305 739.645,270.87206 C 756.52411,269.32106 740.97606,249.2503 757.60841,252.51753 C 774.24075,255.78475 752.25572,268.48259 767.29385,276.30334 C 782.33198,284.12408 780.10319,258.83359 792.32883,270.57428 C 804.55446,282.31497 779.1945,281.11106 787.61717,295.82052 C 796.03984,310.52998 807.83794,288.04929 811.7753,304.53586 C 815.71266,321.02244 795.02938,306.29902 794.16245,323.22704 C 793.29551,340.15508 815.37469,327.62164 809.77369,343.61973 C 804.17271,359.61781 794.7329,336.04945 784.85162,349.82152 C 774.97031,363.59358 800.32059,364.9867 786.95951,375.41701 z M 765.79732,326.41799 C 762.30207,338.61117 750.11923,345.82797 738.60344,342.52689 C 727.08767,339.22583 720.57826,326.65078 724.07351,314.4576 C 727.56875,302.26443 739.75161,295.04765 751.26739,298.34871 C 762.78316,301.64978 769.29257,314.22482 765.79732,326.41799 z "
           style="fill:#fcef3c;fill-opacity:1;fill-rule:evenodd;stroke:black;stroke-width:3.50447347;stroke-linecap:round;stroke-linejoin:round;stroke-miterlimit:4;stroke-dasharray:none;stroke-dashoffset:0;stroke-opacity:1"
           id="path5616" />
        <path
           id="path5618"
           style="fill:#fcef3c;fill-opacity:1;fill-rule:evenodd;stroke:black;stroke-width:3.50447347;stroke-linecap:round;stroke-linejoin:round;stroke-miterlimit:4;stroke-dasharray:none;stroke-dashoffset:0;stroke-opacity:1"
           d="M 1230.8548,361.66739 C 1220.8851,375.37564 1218.6302,350.08745 1205.2024,360.43165 C 1191.7745,370.77585 1215.6504,379.40821 1199.8522,385.55034 C 1184.054,391.69246 1195.8288,369.19959 1178.9401,370.64203 C 1162.0514,372.08448 1177.4701,392.25478 1160.8591,388.88069 C 1144.2481,385.5066 1166.3143,372.95038 1151.3267,365.0331 C 1136.3392,357.11583 1138.4053,382.42014 1126.2554,370.60109 C 1114.1055,358.78204 1139.4572,360.14898 1131.1293,345.38566 C 1122.8014,330.62235 1110.859,353.02673 1107.0277,336.51518 C 1103.1964,320.00364 1123.7846,334.85974 1124.7604,317.93763 C 1125.7361,301.01552 1103.5768,313.40674 1109.2805,297.445 C 1114.9843,281.48325 1124.2724,305.11181 1134.242,291.40356 C 1144.2116,277.69531 1118.8708,276.13924 1132.2987,265.79504 C 1145.7266,255.45084 1140.7656,280.34996 1156.5639,274.20784 C 1172.3621,268.06572 1151.8853,253.0564 1168.7741,251.61396 C 1185.6628,250.17151 1168.0279,268.4359 1184.6389,271.80998 C 1201.2499,275.18407 1192.1384,251.48686 1207.126,259.40414 C 1222.1135,267.32141 1197.4036,273.15225 1209.5535,284.9713 C 1221.7034,296.79034 1226.85,271.92894 1235.1779,286.69225 C 1243.5059,301.45557 1219.5662,293.00161 1223.3975,309.51315 C 1227.2288,326.0247 1244.9994,307.89241 1244.0237,324.81452 C 1243.0479,341.73663 1227.4792,321.68194 1221.7754,337.64368 C 1216.0717,353.60543 1240.8244,347.95914 1230.8548,361.66739 z M 1197.0098,320.3968 C 1197.0098,333.08106 1187.2873,343.37553 1175.3077,343.37553 C 1163.3281,343.37553 1153.6056,333.08106 1153.6056,320.3968 C 1153.6056,307.71255 1163.3281,297.41808 1175.3077,297.41808 C 1187.2873,297.41808 1197.0098,307.71255 1197.0098,320.3968 z " />
        <path
           sodipodi:type="arc"
           style="fill:#fcef3c;fill-opacity:1;fill-rule:evenodd;stroke:black;stroke-width:3.72208913;stroke-linecap:round;stroke-linejoin:round;stroke-miterlimit:4;stroke-dasharray:none;stroke-dashoffset:0;stroke-opacity:1"
           id="path7860"
           sodipodi:cx="368.93616"
           sodipodi:cy="297.44681"
           sodipodi:rx="140.42554"
           sodipodi:ry="140.42554"
           d="M 509.36169 297.44681 A 140.42554 140.42554 0 1 1  228.51062,297.44681 A 140.42554 140.42554 0 1 1  509.36169 297.44681 z"
           transform="matrix(0.941534,0,0,0.941534,609.5254,34.34052)" />
        <g
           id="g6391"
           transform="translate(250.3625,-353.9855)"
           style="stroke:black;stroke-opacity:1;stroke-width:3.50447347;stroke-miterlimit:4;stroke-dasharray:none">
          <path
             sodipodi:type="arc"
             style="fill:white;fill-opacity:1;fill-rule:evenodd;stroke:black;stroke-width:3.72208913;stroke-linecap:round;stroke-linejoin:round;stroke-miterlimit:4;stroke-dasharray:none;stroke-dashoffset:0;stroke-opacity:1"
             id="path3691"
             sodipodi:cx="368.93616"
             sodipodi:cy="297.44681"
             sodipodi:rx="140.42554"
             sodipodi:ry="140.42554"
             d="M 509.36169 297.44681 A 140.42554 140.42554 0 1 1  228.51062,297.44681 A 140.42554 140.42554 0 1 1  509.36169 297.44681 z"
             transform="matrix(0.941534,0,0,0.941534,361.7161,392.8999)" />
          <g
             transform="matrix(1,0,0,0.899355,0,80.86395)"
             id="g6369"
             style="stroke:black;stroke-opacity:1;stroke-width:3.69536379;stroke-miterlimit:4;stroke-dasharray:none">
            <path
               sodipodi:nodetypes="csssssccssssscccsssssccssssscccsssccssssscc"
               d="M 589.37805,609.06711 C 597.45074,613.14108 610.80028,618.62739 624.14982,618.62739 C 645.38285,618.62739 645.38285,604.74794 666.61588,604.74794 C 687.84891,604.74794 687.84891,618.62739 709.08194,618.62739 C 730.31497,618.62739 730.31498,604.74794 751.54801,604.74794 C 772.78104,604.74794 772.78104,618.62739 794.01407,618.62739 C 807.39094,618.62739 820.76782,613.11859 828.83536,609.0421 L 811.72009,568.03141 C 806.14833,569.65024 800.0812,570.78346 794.01407,570.78346 C 772.78104,570.78346 772.78104,556.90401 751.54801,556.90401 C 730.31498,556.90401 730.31497,570.78346 709.08194,570.78346 C 687.84891,570.78346 687.84891,556.90401 666.61588,556.90401 C 645.38285,556.90401 645.38285,570.78346 624.14982,570.78346 C 618.89934,570.78346 613.64886,569.93478 608.71942,568.65713 L 589.37805,609.06711 z M 581.05479,699.38855 C 581.05479,699.38855 602.28783,713.268 623.52087,713.268 C 644.7539,713.268 644.7539,699.38855 665.98693,699.38855 C 687.21996,699.38855 687.21996,713.268 708.45299,713.268 C 729.68602,713.268 729.68603,699.38855 750.91906,699.38855 C 772.15209,699.38855 772.15209,713.268 793.38512,713.268 C 814.61815,713.268 835.85119,699.38855 835.85119,699.38855 L 835.85119,651.54461 C 835.85119,651.54461 814.61815,665.42406 793.38512,665.42406 C 772.15209,665.42406 772.15209,651.54461 750.91906,651.54461 C 729.68603,651.54461 729.68602,665.42406 708.45299,665.42406 C 687.21996,665.42406 687.21996,651.54461 665.98693,651.54461 C 644.7539,651.54461 644.7539,665.42406 623.52087,665.42406 C 602.28783,665.42406 581.05479,651.54461 581.05479,651.54461 L 581.05479,699.38855 z M 647.20614,800.44961 C 651.8083,797.57858 656.99262,795.08809 665.98693,795.08809 C 687.21996,795.08809 687.21996,808.96754 708.45299,808.96754 C 729.68602,808.96754 729.68603,795.08809 750.91906,795.08809 C 758.97732,795.08809 763.97735,797.08717 768.24043,799.56797 L 812.88236,757.82965 C 806.83278,759.73179 800.10895,761.12361 793.38512,761.12361 C 772.15209,761.12361 772.15209,747.24415 750.91906,747.24415 C 729.68603,747.24415 729.68602,761.12361 708.45299,761.12361 C 687.21996,761.12361 687.21996,747.24415 665.98693,747.24415 C 644.7539,747.24415 644.7539,761.12361 623.52087,761.12361 C 615.24266,761.12361 606.96445,759.01391 599.94454,756.43954 L 647.20614,800.44961 z "
               style="fill:#2b5df2;fill-opacity:1;stroke:black;stroke-width:3.69536379;stroke-miterlimit:4;stroke-opacity:1;stroke-dasharray:none"
               id="path6353" />
          </g>
        </g>
        <path
           id="path3830"
           style="fill:#fcef3c;fill-opacity:1;fill-rule:evenodd;stroke:black;stroke-width:3.50447347;stroke-linecap:round;stroke-linejoin:round;stroke-miterlimit:4;stroke-dasharray:none;stroke-dashoffset:0;stroke-opacity:1;display:inline"
           d="M 1081.5982,424.09025 C 1070.3044,437.39459 1067.972,412.0928 1055.157,423.93883 C 1042.3419,435.78486 1067.3827,440.09542 1053.2332,450.31039 C 1039.0836,460.52536 1042.8741,435.40063 1027.5965,443.83559 C 1012.3189,452.27054 1035.6004,462.4485 1019.4175,468.98044 C 1003.2345,475.51238 1012.9276,452.02485 996.07532,456.55852 C 979.22302,461.09222 999.39227,476.54604 982.11639,479.01534 C 964.84048,481.48463 979.87284,460.99932 962.42525,461.36824 C 944.97767,461.73716 960.86251,481.56875 943.49769,479.8319 C 926.13284,478.09507 945.63085,461.80249 928.60197,457.9852 C 911.57311,454.16793 922.25033,477.22474 905.80574,471.38268 C 889.36117,465.54065 912.19166,454.38768 896.57114,446.60605 C 880.95064,438.8244 885.79975,463.76646 871.23111,454.15873 C 856.66245,444.55098 881.49861,439.1858 868.19428,427.89206 C 854.88993,416.59831 853.62913,441.97606 841.7831,429.161 C 829.93707,416.34593 855.33552,417.08033 845.12055,402.93082 C 834.90557,388.78132 827.60812,413.11991 819.17316,397.84229 C 810.7382,382.56467 835.22286,389.35598 828.69091,373.17303 C 822.15897,356.99008 809.24895,378.87503 804.71528,362.02275 C 800.1816,345.17044 822.3295,357.62397 819.8602,340.34806 C 817.39089,323.07217 799.61862,341.23162 799.24969,323.78404 C 798.88077,306.33645 817.40476,323.72844 819.14162,306.36361 C 820.87847,288.99877 799.27676,302.37735 803.09404,285.34848 C 806.91132,268.31961 820.73487,289.63931 826.57693,273.19472 C 832.41899,256.75011 808.24328,264.57033 816.02492,248.94981 C 823.80655,233.32931 832.12629,257.33768 841.73401,242.76901 C 851.34176,228.20037 825.99707,230.00772 837.29081,216.70338 C 848.58456,203.39904 850.91696,228.70082 863.73202,216.8548 C 876.54708,205.00876 851.50634,200.6982 865.65584,190.48324 C 879.80535,180.26826 876.01486,205.39298 891.29248,196.95803 C 906.57008,188.52309 883.28857,178.34512 899.47153,171.81319 C 915.65447,165.28125 905.96138,188.76878 922.81369,184.2351 C 939.66598,179.70141 919.49672,164.24758 936.77261,161.77828 C 954.04851,159.30899 939.01616,179.79429 956.46375,179.42538 C 973.91132,179.05646 958.02648,159.22487 975.39132,160.96171 C 992.75616,162.69856 973.25815,178.99113 990.28702,182.80841 C 1007.3159,186.6257 996.63866,163.56888 1013.0833,169.41094 C 1029.5278,175.25298 1006.6973,186.40595 1022.3179,194.18757 C 1037.9384,201.96922 1033.0892,177.02715 1047.6579,186.6349 C 1062.2265,196.24265 1037.3904,201.60781 1050.6947,212.90156 C 1063.9991,224.19532 1065.2598,198.81757 1077.1059,211.63262 C 1088.9519,224.4477 1063.5535,223.71328 1073.7685,237.86279 C 1083.9834,252.01229 1091.2809,227.67372 1099.7158,242.95133 C 1108.1508,258.22895 1083.6661,251.43765 1090.1981,267.62059 C 1096.73,283.80355 1109.6401,261.91858 1114.1737,278.77087 C 1118.7074,295.62319 1096.5595,283.16966 1099.0288,300.44556 C 1101.4981,317.72146 1119.2704,299.56199 1119.6393,317.00958 C 1120.0082,334.45716 1101.4842,317.06517 1099.7474,334.43002 C 1098.0105,351.79485 1119.6122,338.41627 1115.795,355.44515 C 1111.9777,372.47401 1098.1541,351.15432 1092.3121,367.59891 C 1086.47,384.0435 1110.6457,376.2233 1102.8641,391.84381 C 1095.0824,407.46432 1086.7627,383.45594 1077.155,398.0246 C 1067.5472,412.59325 1092.8919,410.78591 1081.5982,424.09025 z M 1081.7165,323.34525 C 1080.089,390.83941 1023.9902,444.29638 956.49606,442.66885 C 889.0019,441.04131 835.54493,384.94253 837.17246,317.44837 C 838.8,249.9542 894.89878,196.49724 962.39294,198.12477 C 1029.8871,199.75231 1083.3441,255.85108 1081.7165,323.34525 z " />
        <path
           id="path2761"
           style="fill:#fcef3c;fill-opacity:1;fill-rule:evenodd;stroke:black;stroke-width:3.50447347;stroke-linecap:round;stroke-linejoin:round;stroke-miterlimit:4;stroke-dasharray:none;stroke-dashoffset:0;stroke-opacity:1"
           d="M 896.14178,134.3663 C 889.11401,118.94162 912.23818,129.42257 909.84072,112.64275 C 907.44325,95.862941 888.17938,112.4002 890.60645,95.62464 C 893.03353,78.849076 906.82039,100.16808 913.87538,84.755841 C 920.93035,69.343588 895.78383,72.840785 906.89517,60.040452 C 918.00652,47.240131 918.07883,72.628566 932.34636,63.477174 C 946.61387,54.325773 923.56856,43.672561 939.83638,38.911487 C 956.10421,34.150406 942.43902,55.547614 959.38924,55.562572 C 976.33947,55.577538 962.71207,34.156237 978.97147,38.946021 C 995.23087,43.735801 972.16679,54.34833 986.41813,63.52489 C 1000.6695,72.701455 1000.7866,47.31319 1011.8753,60.1331 C 1022.9641,72.953034 997.82376,69.411456 1004.8515,84.836133 C 1011.8793,100.26082 1025.7038,78.966172 1028.1012,95.745971 C 1030.4987,112.5258 1011.264,95.954567 1008.837,112.73013 C 1006.4099,129.5057 1029.5525,119.06557 1022.4975,134.47782 C 1015.4426,149.89007 1008.2204,125.55041 997.10905,138.35073 C 985.99775,151.15105 1011.111,154.88012 996.84341,164.03153 C 982.57588,173.18292 989.65923,148.80252 973.39141,153.5636 C 957.12358,158.32467 976.23405,175.03896 959.28382,175.02401 C 942.3336,175.00905 961.47353,158.3285 945.21414,153.53872 C 928.95474,148.74894 935.99506,173.1418 921.7437,163.96524 C 907.49237,154.78868 932.6121,151.10394 921.52336,138.28404 C 910.43464,125.46411 903.16954,149.79098 896.14178,134.3663 z M 948.7244,125.21132 C 937.68215,118.96958 933.50464,105.43989 939.39963,95.011106 C 945.29459,84.582314 959.04075,81.184135 970.08301,87.425878 C 981.12524,93.667613 985.30273,107.19731 979.40776,117.6261 C 973.51279,128.05489 959.76664,131.45306 948.7244,125.21132 z " />
        <path
           d="M 906.07105,580.26114 C 895.24223,567.22093 920.30628,571.26708 913.58995,555.70428 C 906.87362,540.14146 892.62395,561.15395 890.56422,544.32933 C 888.5045,527.50471 907.40221,544.45919 910.16597,527.7358 C 912.92972,511.01241 889.58192,520.98529 896.94526,505.71794 C 904.30858,490.4506 911.04005,514.93049 922.40643,502.35608 C 933.77279,489.78167 908.73963,485.54861 923.1882,476.68583 C 937.63678,467.82304 930.06482,492.05614 946.42506,487.62299 C 962.7853,483.18984 944.01463,466.09482 960.96113,466.45046 C 977.90762,466.8061 958.43629,483.09858 974.59613,488.21419 C 990.75599,493.3298 984.20736,468.80037 998.27139,478.26151 C 1012.3354,487.72266 987.14671,490.90177 997.97553,503.94197 C 1008.8043,516.98216 1016.5569,492.80624 1023.2732,508.36904 C 1029.9896,523.93185 1007.0808,512.98826 1009.1404,529.81286 C 1011.2002,546.63749 1030.7925,530.49075 1028.0288,547.21416 C 1025.265,563.93754 1011.9094,542.34574 1004.5461,557.61306 C 997.18279,572.8804 1022.3945,569.88934 1011.0281,582.46374 C 999.66181,595.03818 1000.0997,569.65342 985.65117,578.5162 C 971.20261,587.37898 994.02912,598.49321 977.66893,602.92637 C 961.30868,607.35953 975.40117,586.24128 958.45468,585.88565 C 941.50817,585.53002 954.70228,607.22088 938.54243,602.10527 C 922.38258,596.98966 945.65532,586.84284 931.59129,577.3817 C 917.52726,567.92055 916.89988,593.30134 906.07105,580.26114 z M 954.40909,557.62974 C 942.11597,554.50408 934.53476,542.54457 937.48677,530.9344 C 940.43878,519.32423 952.81164,512.43825 965.10476,515.56392 C 977.39788,518.68957 984.97908,530.64907 982.02707,542.25924 C 979.07506,553.86941 966.7022,560.75539 954.40909,557.62974 z "
           style="fill:#fcef3c;fill-opacity:1;fill-rule:evenodd;stroke:black;stroke-width:3.50447347;stroke-linecap:round;stroke-linejoin:round;stroke-miterlimit:4;stroke-dasharray:none;stroke-dashoffset:0;stroke-opacity:1"
           id="path2763" />
        <path
           id="path2800"
           d="M 959.35151,70.724474 C 939.53334,70.724474 923.45378,86.804032 923.45379,106.6222 C 923.45379,126.44037 939.53334,142.51992 959.35151,142.51992 C 979.16968,142.51992 995.24922,126.44037 995.24923,106.6222 C 995.24923,86.804031 979.16967,70.724473 959.35151,70.724474 z M 959.35151,86.097079 C 970.67617,86.097079 979.87663,95.29753 979.87663,106.6222 C 979.87666,117.94687 970.67618,127.11901 959.35151,127.11901 C 948.02683,127.11901 938.82639,117.94687 938.82639,106.6222 C 938.8264,95.297529 948.02685,86.097079 959.35151,86.097079 z "
           style="fill:#fcef3c;fill-opacity:1;fill-rule:evenodd;stroke:black;stroke-width:3.50447347;stroke-linecap:butt;stroke-linejoin:miter;stroke-miterlimit:4;stroke-dasharray:none;stroke-opacity:1" />
        <path
           id="path2802"
           d="M 1174.4877,284.60831 C 1154.6695,284.60831 1138.59,300.68786 1138.59,320.50603 C 1138.59,340.32419 1154.6695,356.40375 1174.4877,356.40375 C 1194.3059,356.40375 1210.3854,340.3242 1210.3854,320.50603 C 1210.3854,300.68786 1194.3058,284.6083 1174.4877,284.60831 z M 1174.4877,299.98091 C 1185.8123,299.98091 1195.0128,309.18136 1195.0128,320.50603 C 1195.0128,331.83069 1185.8124,341.00284 1174.4877,341.00284 C 1163.163,341.00284 1153.9626,331.8307 1153.9626,320.50603 C 1153.9626,309.18136 1163.163,299.98091 1174.4877,299.98091 z "
           style="fill:#fcef3c;fill-opacity:1;fill-rule:evenodd;stroke:black;stroke-width:3.50447347;stroke-linecap:butt;stroke-linejoin:miter;stroke-miterlimit:4;stroke-dasharray:none;stroke-opacity:1" />
        <path
           id="path2804"
           d="M 743.54984,285.14408 C 723.73167,285.14408 707.65211,301.22364 707.65212,321.04181 C 707.65212,340.85997 723.73167,356.93953 743.54984,356.93953 C 763.36801,356.93953 779.44755,340.85997 779.44756,321.04181 C 779.44756,301.22364 763.368,285.14408 743.54984,285.14408 z M 743.54984,300.51669 C 754.8745,300.51669 764.07496,309.71714 764.07496,321.04181 C 764.07499,332.36647 754.87451,341.53861 743.54984,341.53861 C 732.22516,341.53861 723.02472,332.36647 723.02472,321.04181 C 723.02473,309.71714 732.22518,300.51669 743.54984,300.51669 z "
           style="fill:#fcef3c;fill-opacity:1;fill-rule:evenodd;stroke:black;stroke-width:3.50447347;stroke-linecap:butt;stroke-linejoin:miter;stroke-miterlimit:4;stroke-dasharray:none;stroke-opacity:1" />
        <path
           style="fill:#fcef3c;fill-opacity:1;fill-rule:evenodd;stroke:black;stroke-width:3.50447347;stroke-linecap:butt;stroke-linejoin:miter;stroke-miterlimit:4;stroke-dasharray:none;stroke-opacity:1"
           d="M 960.61017,499.74392 C 940.792,499.74392 924.71244,515.82348 924.71245,535.64164 C 924.71245,555.45981 940.792,571.53936 960.61017,571.53937 C 980.42834,571.53937 996.50788,555.45981 996.50789,535.64164 C 996.50789,515.82348 980.42833,499.74392 960.61017,499.74392 z M 960.61017,515.11652 C 971.93483,515.11652 981.13529,524.31698 981.13529,535.64164 C 981.13532,546.96631 971.93484,556.13845 960.61017,556.13845 C 949.28549,556.13845 940.08505,546.96631 940.08505,535.64164 C 940.08506,524.31697 949.28551,515.11652 960.61017,515.11652 z "
           id="path2798" />
      </g>
      <g
         transform="matrix(1,0,0,1.013516,0,-6.532286)"
         id="g8197"
         style="stroke:black;stroke-opacity:1;stroke-width:1.98661949;stroke-miterlimit:4;stroke-dasharray:none">
        <path
           id="path6412"
           style="fill:white;fill-opacity:1;fill-rule:evenodd;stroke:black;stroke-width:1.98661949;stroke-linecap:butt;stroke-linejoin:miter;stroke-miterlimit:4;stroke-dasharray:none;stroke-opacity:1"
           d="M 426.72194,298.61038 L 423.73852,353.49646 L 413.88578,341.45619 L 407.97878,384.86496 L 410.9622,329.97887 L 420.81495,342.01915 L 426.72194,298.61038 z "
           sodipodi:nodetypes="ccccccc" />
        <path
           sodipodi:nodetypes="ccccccc"
           d="M 424.20574,527.60686 L 421.22232,472.72078 L 411.36958,484.76105 L 405.46258,441.35228 L 408.446,496.23837 L 418.29875,484.19809 L 424.20574,527.60686 z "
           style="fill:white;fill-opacity:1;fill-rule:evenodd;stroke:black;stroke-width:1.98661949;stroke-linecap:butt;stroke-linejoin:miter;stroke-miterlimit:4;stroke-dasharray:none;stroke-opacity:1"
           id="path8189" />
        <path
           sodipodi:nodetypes="ccccccc"
           d="M 526.16072,359.057 L 479.19952,387.62322 L 483.56157,372.68946 L 444.41512,392.35592 L 491.37633,363.78969 L 487.01427,378.72347 L 526.16072,359.057 z "
           style="fill:white;fill-opacity:1;fill-rule:evenodd;stroke:black;stroke-width:1.98661949;stroke-linecap:butt;stroke-linejoin:miter;stroke-miterlimit:4;stroke-dasharray:none;stroke-opacity:1"
           id="path8191" />
        <path
           id="path8195"
           style="fill:white;fill-opacity:1;fill-rule:evenodd;stroke:black;stroke-width:1.98661949;stroke-linecap:butt;stroke-linejoin:miter;stroke-miterlimit:4;stroke-dasharray:none;stroke-opacity:1"
           d="M 523.64452,474.06542 L 476.68332,445.4992 L 481.04537,460.43296 L 441.89892,440.7665 L 488.86013,469.33273 L 484.49807,454.39895 L 523.64452,474.06542 z "
           sodipodi:nodetypes="ccccccc" />
      </g>
      <g
         transform="matrix(1,0,0,1.013516,0,-6.532286)"
         id="g8217"
         style="stroke:black;stroke-opacity:1;stroke-width:1.98661949;stroke-miterlimit:4;stroke-dasharray:none">
        <path
           sodipodi:nodetypes="ccccccc"
           d="M 174.83656,297.35228 L 177.81998,352.23836 L 187.67272,340.19809 L 193.57972,383.60686 L 190.5963,328.72077 L 180.74355,340.76105 L 174.83656,297.35228 z "
           style="fill:white;fill-opacity:1;fill-rule:evenodd;stroke:black;stroke-width:1.98661949;stroke-linecap:butt;stroke-linejoin:miter;stroke-miterlimit:4;stroke-dasharray:none;stroke-opacity:1"
           id="path8205" />
        <path
           id="path8207"
           style="fill:white;fill-opacity:1;fill-rule:evenodd;stroke:black;stroke-width:1.98661949;stroke-linecap:butt;stroke-linejoin:miter;stroke-miterlimit:4;stroke-dasharray:none;stroke-opacity:1"
           d="M 173.57846,527.60686 L 176.56188,472.72078 L 186.41462,484.76105 L 192.32162,441.35228 L 189.3382,496.23837 L 179.48545,484.19809 L 173.57846,527.60686 z "
           sodipodi:nodetypes="ccccccc" />
        <path
           id="path8209"
           style="fill:white;fill-opacity:1;fill-rule:evenodd;stroke:black;stroke-width:1.98661949;stroke-linecap:butt;stroke-linejoin:miter;stroke-miterlimit:4;stroke-dasharray:none;stroke-opacity:1"
           d="M 75.397786,356.5408 L 122.35898,385.10702 L 117.99693,370.17326 L 157.14338,389.83972 L 110.18217,361.27349 L 114.54423,376.20727 L 75.397786,356.5408 z "
           sodipodi:nodetypes="ccccccc" />
        <path
           sodipodi:nodetypes="ccccccc"
           d="M 75.39778,472.80732 L 122.35898,444.2411 L 117.99693,459.17486 L 157.14338,439.5084 L 110.18217,468.07463 L 114.54423,453.14085 L 75.39778,472.80732 z "
           style="fill:white;fill-opacity:1;fill-rule:evenodd;stroke:black;stroke-width:1.98661949;stroke-linecap:butt;stroke-linejoin:miter;stroke-miterlimit:4;stroke-dasharray:none;stroke-opacity:1"
           id="path8211" />
      </g>
      <g
         style="fill:white;fill-opacity:1;stroke:black;stroke-opacity:1;stroke-width:2.06630646;stroke-miterlimit:4;stroke-dasharray:none"
         transform="matrix(1,0,0,0.936851,3.230875,18.54358)"
         id="g10728">
        <g
           style="stroke:black;stroke-width:5.81964577;stroke-miterlimit:4;stroke-dasharray:none;stroke-opacity:1;fill:white;fill-opacity:1"
           transform="matrix(0.406684,0,0,0.309984,104.5853,197.9553)"
           id="g14055">
          <g
             id="g15731"
             style="fill:white;fill-opacity:1;stroke:black;stroke-width:5.81964577;stroke-miterlimit:4;stroke-dasharray:none;stroke-opacity:1">
            <path
               d="M -7.1836313,-9.8027007 C 73.447535,32.505796 179.00414,63.980699 261.09435,100.40283 C 290.73887,118.67193 302.16283,138.99281 311.05077,159.82604 C 319.60968,179.88802 325.5045,194.37031 330.86682,218.8949 C 324.85906,371.63293 368.74344,374.01233 374.19132,413.48378 C 368.923,415.0151 336.48762,407.25509 321.74903,394.2255 C 314.77981,381.65066 311.73073,371.16221 306.71001,351.70021 C 300.34764,352.01144 296.4838,338.1836 299.70515,333.36456 C 291.90911,331.27218 287.72957,316.51523 295.00036,313.33076 C 281.44736,313.9949 284.11569,298.95362 283.77015,293.96182 C 274.30039,303.43242 265.7989,296.01328 265.34948,288.20662 C 248.77319,295.90619 238.5031,286.15963 242.85881,270.8198 C 225.16962,282.48351 212.06422,265.50669 221.26812,253.3782 C 200.56389,257.02223 194.77116,240.83804 195.96227,233.34337 C 178.75528,230.39953 174.93169,219.83034 182.10124,207.41283 C 150.25124,207.0228 145.20624,194.44301 153.09004,184.68551 C 110.82083,179.46927 122.0596,158.47785 133.47298,166.35905 C 82.078538,153.02852 87.889992,139.12738 101.43605,138.70516 C 49.055459,111.80449 65.415462,108.70394 73.68137,108.47245 C 34.194258,84.828763 46.215369,76.657965 53.751719,77.255912 C 20.155544,56.186265 27.62481,44.553649 36.358598,48.371671 C 4.3507402,29.380133 7.7216707,16.461697 17.529693,18.427802 C -0.38656046,8.7526655 -15.500301,-2.8068401 -7.1836313,-9.8027007 z "
               style="fill:white;fill-opacity:1;fill-rule:evenodd;stroke:black;stroke-width:5.81964577;stroke-linecap:butt;stroke-linejoin:miter;stroke-miterlimit:4;stroke-dasharray:none;stroke-opacity:1"
               id="path10141"
               sodipodi:nodetypes="ccscccccccccccccccccccc" />
            <path
               d="M 312.60773,164.65919 C 327.79378,211.21267 252.89865,156.39247 232.24452,134.18166 C 209.34006,109.55091 240.5522,108.10969 114.3455,54.033094"
               style="fill:white;fill-opacity:1;fill-rule:evenodd;stroke:black;stroke-width:5.81964577;stroke-linecap:butt;stroke-linejoin:miter;stroke-miterlimit:4;stroke-dasharray:none;stroke-opacity:1"
               id="path11049"
               sodipodi:nodetypes="csc" />
            <path
               d="M 181.99233,207.2169 C 198.84858,205.32657 240.50917,196.97376 236.96972,197.22121"
               style="fill:white;fill-opacity:1;fill-rule:evenodd;stroke:black;stroke-width:5.81964577;stroke-linecap:butt;stroke-linejoin:miter;stroke-miterlimit:4;stroke-dasharray:none;stroke-opacity:1"
               id="path11051"
               sodipodi:nodetypes="cc" />
            <path
               d="M 195.8779,233.3502 C 212.45393,224.40084 242.44353,211.97235 241.79279,205.00088"
               style="fill:white;fill-opacity:1;fill-rule:evenodd;stroke:black;stroke-width:5.81964577;stroke-linecap:butt;stroke-linejoin:miter;stroke-miterlimit:4;stroke-dasharray:none;stroke-opacity:1"
               id="path11053"
               sodipodi:nodetypes="cc" />
            <path
               d="M 217.15845,255.08343 C 229.66394,247.74789 259.78766,220.82165 252.95126,219.28402"
               style="fill:white;fill-opacity:1;fill-rule:evenodd;stroke:black;stroke-width:5.81964577;stroke-linecap:butt;stroke-linejoin:miter;stroke-miterlimit:4;stroke-dasharray:none;stroke-opacity:1"
               id="path11055"
               sodipodi:nodetypes="cc" />
            <path
               d="M 238.34031,274.27482 C 253.049,264.17014 266.7371,240.67908 272.20856,228.95284"
               style="fill:white;fill-opacity:1;fill-rule:evenodd;stroke:black;stroke-width:5.81964577;stroke-linecap:butt;stroke-linejoin:miter;stroke-miterlimit:4;stroke-dasharray:none;stroke-opacity:1"
               id="path11057"
               sodipodi:nodetypes="cc" />
            <path
               d="M 266.17418,288.2285 C 269.66898,279.5031 281.06093,258.30327 282.02376,239.91596"
               style="fill:white;fill-opacity:1;fill-rule:evenodd;stroke:black;stroke-width:5.81964577;stroke-linecap:butt;stroke-linejoin:miter;stroke-miterlimit:4;stroke-dasharray:none;stroke-opacity:1"
               id="path11059"
               sodipodi:nodetypes="cc" />
            <path
               d="M 132.33601,165.58765 C 159.43705,174.33876 222.17302,176.93886 215.76622,175.81219"
               style="fill:white;fill-opacity:1;fill-rule:evenodd;stroke:black;stroke-width:5.81964577;stroke-linecap:butt;stroke-linejoin:miter;stroke-miterlimit:4;stroke-dasharray:none;stroke-opacity:1"
               id="path11061"
               sodipodi:nodetypes="cc" />
            <path
               d="M 72.826692,106.967 C 104.47469,124.04269 155.88753,143.30539 198.63282,151.3747"
               style="fill:white;fill-opacity:1;fill-rule:evenodd;stroke:black;stroke-width:5.81964577;stroke-linecap:butt;stroke-linejoin:miter;stroke-miterlimit:4;stroke-dasharray:none;stroke-opacity:1"
               id="path11063"
               sodipodi:nodetypes="cc" />
            <path
               d="M 34.754354,48.122621 C 68.884628,67.626924 118.06784,91.246751 180.69421,115.09451"
               style="fill:white;fill-opacity:1;fill-rule:evenodd;stroke:black;stroke-width:5.81964577;stroke-linecap:butt;stroke-linejoin:miter;stroke-miterlimit:4;stroke-dasharray:none;stroke-opacity:1"
               id="path11065"
               sodipodi:nodetypes="cc" />
            <path
               d="M 18.246651,18.408432 C 58.075749,43.130995 170.83199,91.362909 170.83199,91.362909"
               style="fill:white;fill-opacity:1;fill-rule:evenodd;stroke:black;stroke-width:5.81964577;stroke-linecap:butt;stroke-linejoin:miter;stroke-miterlimit:4;stroke-dasharray:none;stroke-opacity:1"
               id="path11067"
               sodipodi:nodetypes="cc" />
            <path
               d="M 238.3475,158.38731 C 182.99186,147.73118 168.20492,121.39258 226.74989,143.00014"
               style="fill:white;fill-opacity:1;fill-rule:evenodd;stroke:black;stroke-width:5.81964577;stroke-linecap:butt;stroke-linejoin:miter;stroke-miterlimit:4;stroke-dasharray:none;stroke-opacity:1"
               id="path11075"
               sodipodi:nodetypes="cc" />
            <path
               sodipodi:nodetypes="ccccccccccc"
               id="path11069"
               style="fill-rule:evenodd;stroke:black;stroke-width:5.81964577;stroke-linecap:butt;stroke-linejoin:miter;stroke-miterlimit:4;stroke-dasharray:none;stroke-opacity:1;fill:white;fill-opacity:1"
               d="M 247.63946,169.20618 C 206.46861,157.62687 199.6464,180.4582 251.33544,181.67817 C 231.62309,177.04033 219.54647,201.78044 257.11575,194.40145 C 230.09175,195.39439 231.29964,220.9312 266.70719,204.70326 C 236.60966,222.60919 262.60379,231.75922 280.20041,218.39253 C 267.56763,227.89639 268.62111,249.63902 291.34178,232.1314 C 275.10046,254.59399 295.11726,265.31514 301.69,239.24651 C 298.66474,263.57658 321.56652,286.35794 313.81228,237.69479 M 226.27776,141.99284 C 170.18536,127.27459 154.74986,95.896071 217.61469,127.14793 C 157.3635,95.13911 145.25259,70.946476 211.43227,105.55697" />
            <path
               sodipodi:nodetypes="cc"
               id="path13153"
               style="fill:white;fill-opacity:1;fill-rule:evenodd;stroke:black;stroke-width:5.81964577;stroke-linecap:butt;stroke-linejoin:miter;stroke-miterlimit:4;stroke-dasharray:none;stroke-opacity:1"
               d="M 101.39812,137.91938 C 139.64357,154.92904 183.58048,160.728 209.74393,164.07311" />
            <path
               sodipodi:nodetypes="cc"
               id="path14051"
               style="fill:white;fill-opacity:1;fill-rule:evenodd;stroke:black;stroke-width:5.81964577;stroke-linecap:butt;stroke-linejoin:miter;stroke-miterlimit:4;stroke-dasharray:none;stroke-opacity:1"
               d="M 153.76458,184.63527 C 169.73581,187.82147 237.75022,188.69572 231.63923,187.71695" />
            <path
               sodipodi:nodetypes="cc"
               id="path14053"
               style="fill:white;fill-opacity:1;fill-rule:evenodd;stroke:black;stroke-width:5.81964577;stroke-linecap:butt;stroke-linejoin:miter;stroke-miterlimit:4;stroke-dasharray:none;stroke-opacity:1"
               d="M 284.42815,292.99039 C 292.35249,285.21586 294.80256,266.8995 299.48408,251.02707" />
          </g>
          <path
             style="fill:white;fill-opacity:1;fill-rule:evenodd;stroke:black;stroke-width:5.81964577;stroke-linecap:butt;stroke-linejoin:miter;stroke-miterlimit:4;stroke-dasharray:none;stroke-opacity:1"
             d="M 53.174603,76.984127 C 101.9984,104.96553 143.67732,120.2384 190.4762,138.09524"
             id="path13150"
             sodipodi:nodetypes="cc" />
          <path
             style="fill:white;fill-opacity:1;fill-rule:evenodd;stroke:black;stroke-width:5.81964577;stroke-linecap:butt;stroke-linejoin:miter;stroke-miterlimit:4;stroke-dasharray:none;stroke-opacity:1"
             d="M 234.92063,157.93651 C 173.96086,138.76759 203.95523,169.52873 243.82685,169.04762 L 244.38804,169.04762"
             id="path13155"
             sodipodi:nodetypes="ccc" />
        </g>
        <g
           style="stroke:black;stroke-width:5.81964577;stroke-miterlimit:4;stroke-dasharray:none;stroke-opacity:1;fill:white;fill-opacity:1"
           id="g14164"
           transform="matrix(-0.406684,0,0,0.309984,489.2479,197.9553)">
          <g
             style="fill:white;fill-opacity:1;stroke:black;stroke-width:5.81964577;stroke-miterlimit:4;stroke-dasharray:none;stroke-opacity:1"
             id="g14166">
            <path
               sodipodi:nodetypes="ccscccccccccccccccccccc"
               id="path14168"
               style="fill:white;fill-opacity:1;fill-rule:evenodd;stroke:black;stroke-width:5.81964577;stroke-linecap:butt;stroke-linejoin:miter;stroke-miterlimit:4;stroke-dasharray:none;stroke-opacity:1"
               d="M -7.1836313,-9.8027007 C 73.447535,32.505796 179.00414,63.980699 261.09435,100.40283 C 290.73887,118.67193 302.16283,138.99281 311.05077,159.82604 C 319.60968,179.88802 325.5045,194.37031 330.86682,218.8949 C 324.85906,371.63293 368.74344,374.01233 374.19132,413.48378 C 368.923,415.0151 336.48762,407.25509 321.74903,394.2255 C 314.77981,381.65066 311.73073,371.16221 306.71001,351.70021 C 300.34764,352.01144 296.4838,338.1836 299.70515,333.36456 C 291.90911,331.27218 287.72957,316.51523 295.00036,313.33076 C 281.44736,313.9949 284.11569,298.95362 283.77015,293.96182 C 274.30039,303.43242 265.7989,296.01328 265.34948,288.20662 C 248.77319,295.90619 238.5031,286.15963 242.85881,270.8198 C 225.16962,282.48351 212.06422,265.50669 221.26812,253.3782 C 200.56389,257.02223 194.77116,240.83804 195.96227,233.34337 C 178.75528,230.39953 174.93169,219.83034 182.10124,207.41283 C 150.25124,207.0228 145.20624,194.44301 153.09004,184.68551 C 110.82083,179.46927 122.0596,158.47785 133.47298,166.35905 C 82.078538,153.02852 87.889992,139.12738 101.43605,138.70516 C 49.055459,111.80449 65.415462,108.70394 73.68137,108.47245 C 34.194258,84.828763 46.215369,76.657965 53.751719,77.255912 C 20.155544,56.186265 27.62481,44.553649 36.358598,48.371671 C 4.3507402,29.380133 7.7216707,16.461697 17.529693,18.427802 C -0.38656046,8.7526655 -15.500301,-2.8068401 -7.1836313,-9.8027007 z " />
            <path
               sodipodi:nodetypes="csc"
               id="path14170"
               style="fill:white;fill-opacity:1;fill-rule:evenodd;stroke:black;stroke-width:5.81964577;stroke-linecap:butt;stroke-linejoin:miter;stroke-miterlimit:4;stroke-dasharray:none;stroke-opacity:1"
               d="M 312.60773,164.65919 C 327.79378,211.21267 252.89865,156.39247 232.24452,134.18166 C 209.34006,109.55091 240.5522,108.10969 114.3455,54.033094" />
            <path
               sodipodi:nodetypes="cc"
               id="path14172"
               style="fill:white;fill-opacity:1;fill-rule:evenodd;stroke:black;stroke-width:5.81964577;stroke-linecap:butt;stroke-linejoin:miter;stroke-miterlimit:4;stroke-dasharray:none;stroke-opacity:1"
               d="M 181.99233,207.2169 C 198.84858,205.32657 240.50917,196.97376 236.96972,197.22121" />
            <path
               sodipodi:nodetypes="cc"
               id="path14174"
               style="fill:white;fill-opacity:1;fill-rule:evenodd;stroke:black;stroke-width:5.81964577;stroke-linecap:butt;stroke-linejoin:miter;stroke-miterlimit:4;stroke-dasharray:none;stroke-opacity:1"
               d="M 195.8779,233.3502 C 212.45393,224.40084 242.44353,211.97235 241.79279,205.00088" />
            <path
               sodipodi:nodetypes="cc"
               id="path14176"
               style="fill:white;fill-opacity:1;fill-rule:evenodd;stroke:black;stroke-width:5.81964577;stroke-linecap:butt;stroke-linejoin:miter;stroke-miterlimit:4;stroke-dasharray:none;stroke-opacity:1"
               d="M 217.15845,255.08343 C 229.66394,247.74789 259.78766,220.82165 252.95126,219.28402" />
            <path
               sodipodi:nodetypes="cc"
               id="path14178"
               style="fill:white;fill-opacity:1;fill-rule:evenodd;stroke:black;stroke-width:5.81964577;stroke-linecap:butt;stroke-linejoin:miter;stroke-miterlimit:4;stroke-dasharray:none;stroke-opacity:1"
               d="M 238.34031,274.27482 C 253.049,264.17014 266.7371,240.67908 272.20856,228.95284" />
            <path
               sodipodi:nodetypes="cc"
               id="path14180"
               style="fill:white;fill-opacity:1;fill-rule:evenodd;stroke:black;stroke-width:5.81964577;stroke-linecap:butt;stroke-linejoin:miter;stroke-miterlimit:4;stroke-dasharray:none;stroke-opacity:1"
               d="M 266.17418,288.2285 C 269.66898,279.5031 281.06093,258.30327 282.02376,239.91596" />
            <path
               sodipodi:nodetypes="cc"
               id="path14182"
               style="fill:white;fill-opacity:1;fill-rule:evenodd;stroke:black;stroke-width:5.81964577;stroke-linecap:butt;stroke-linejoin:miter;stroke-miterlimit:4;stroke-dasharray:none;stroke-opacity:1"
               d="M 132.33601,165.58765 C 159.43705,174.33876 222.17302,176.93886 215.76622,175.81219" />
            <path
               sodipodi:nodetypes="cc"
               id="path14184"
               style="fill:white;fill-opacity:1;fill-rule:evenodd;stroke:black;stroke-width:5.81964577;stroke-linecap:butt;stroke-linejoin:miter;stroke-miterlimit:4;stroke-dasharray:none;stroke-opacity:1"
               d="M 72.826692,106.967 C 104.47469,124.04269 155.88753,143.30539 198.63282,151.3747" />
            <path
               sodipodi:nodetypes="cc"
               id="path14186"
               style="fill:white;fill-opacity:1;fill-rule:evenodd;stroke:black;stroke-width:5.81964577;stroke-linecap:butt;stroke-linejoin:miter;stroke-miterlimit:4;stroke-dasharray:none;stroke-opacity:1"
               d="M 34.754354,48.122621 C 68.884628,67.626924 118.06784,91.246751 180.69421,115.09451" />
            <path
               sodipodi:nodetypes="cc"
               id="path14188"
               style="fill:white;fill-opacity:1;fill-rule:evenodd;stroke:black;stroke-width:5.81964577;stroke-linecap:butt;stroke-linejoin:miter;stroke-miterlimit:4;stroke-dasharray:none;stroke-opacity:1"
               d="M 18.246651,18.408432 C 58.075749,43.130995 170.83199,91.362909 170.83199,91.362909" />
            <path
               sodipodi:nodetypes="cc"
               id="path14190"
               style="fill:white;fill-opacity:1;fill-rule:evenodd;stroke:black;stroke-width:5.81964577;stroke-linecap:butt;stroke-linejoin:miter;stroke-miterlimit:4;stroke-dasharray:none;stroke-opacity:1"
               d="M 238.3475,158.38731 C 182.99186,147.73118 168.20492,121.39258 226.74989,143.00014" />
            <path
               d="M 247.63946,169.20618 C 206.46861,157.62687 199.6464,180.4582 251.33544,181.67817 C 231.62309,177.04033 219.54647,201.78044 257.11575,194.40145 C 230.09175,195.39439 231.29964,220.9312 266.70719,204.70326 C 236.60966,222.60919 262.60379,231.75922 280.20041,218.39253 C 267.56763,227.89639 268.62111,249.63902 291.34178,232.1314 C 275.10046,254.59399 295.11726,265.31514 301.69,239.24651 C 298.66474,263.57658 321.56652,286.35794 313.81228,237.69479 M 226.27776,141.99284 C 170.18536,127.27459 154.74986,95.896071 217.61469,127.14793 C 157.3635,95.13911 145.25259,70.946476 211.43227,105.55697"
               style="fill-rule:evenodd;stroke:black;stroke-width:5.81964577;stroke-linecap:butt;stroke-linejoin:miter;stroke-miterlimit:4;stroke-dasharray:none;stroke-opacity:1;fill:white;fill-opacity:1"
               id="path14192"
               sodipodi:nodetypes="ccccccccccc" />
            <path
               d="M 101.39812,137.91938 C 139.64357,154.92904 183.58048,160.728 209.74393,164.07311"
               style="fill:white;fill-opacity:1;fill-rule:evenodd;stroke:black;stroke-width:5.81964577;stroke-linecap:butt;stroke-linejoin:miter;stroke-miterlimit:4;stroke-dasharray:none;stroke-opacity:1"
               id="path14194"
               sodipodi:nodetypes="cc" />
            <path
               d="M 153.76458,184.63527 C 169.73581,187.82147 237.75022,188.69572 231.63923,187.71695"
               style="fill:white;fill-opacity:1;fill-rule:evenodd;stroke:black;stroke-width:5.81964577;stroke-linecap:butt;stroke-linejoin:miter;stroke-miterlimit:4;stroke-dasharray:none;stroke-opacity:1"
               id="path14196"
               sodipodi:nodetypes="cc" />
            <path
               d="M 284.42815,292.99039 C 292.35249,285.21586 294.80256,266.8995 299.48408,251.02707"
               style="fill:white;fill-opacity:1;fill-rule:evenodd;stroke:black;stroke-width:5.81964577;stroke-linecap:butt;stroke-linejoin:miter;stroke-miterlimit:4;stroke-dasharray:none;stroke-opacity:1"
               id="path14198"
               sodipodi:nodetypes="cc" />
          </g>
          <path
             sodipodi:nodetypes="cc"
             id="path14200"
             d="M 53.174603,76.984127 C 101.9984,104.96553 143.67732,120.2384 190.4762,138.09524"
             style="fill:white;fill-opacity:1;fill-rule:evenodd;stroke:black;stroke-width:5.81964577;stroke-linecap:butt;stroke-linejoin:miter;stroke-miterlimit:4;stroke-dasharray:none;stroke-opacity:1" />
          <path
             sodipodi:nodetypes="ccc"
             id="path14202"
             d="M 234.92063,157.93651 C 173.96086,138.76759 203.95523,169.52873 243.82685,169.04762 L 244.38804,169.04762"
             style="fill:white;fill-opacity:1;fill-rule:evenodd;stroke:black;stroke-width:5.81964577;stroke-linecap:butt;stroke-linejoin:miter;stroke-miterlimit:4;stroke-dasharray:none;stroke-opacity:1" />
        </g>
      </g>
    </g>
    <g
       id="g15288"
       transform="matrix(0.384459,0,0,0.463888,-46.04796,-13.53799)"
       style="stroke:black;stroke-opacity:1;stroke-width:7.10378272;stroke-miterlimit:4;stroke-dasharray:none">
      <path
         sodipodi:nodetypes="cssssssccccscscscsccccssssssc"
         d="M 900.47426,72.465896 C 953.14264,72.465896 961.20909,65.59066 988.214,92.595545 C 1002.7594,107.14093 1027.7902,119.76147 1043.5705,131.59674 C 1054.5602,139.83899 1067.0551,145.85524 1078.7974,152.98449 C 1087.4913,158.2629 1084.3388,165.25214 1085.0879,175.63034 C 1086.701,197.97763 1085.1594,212.8125 1077.5393,232.24498 C 1066.4854,260.43446 1065.4725,251.18768 1051.1191,241.0517 C 1031.8939,227.47535 1006.9486,211.97842 991.9883,197.01809 C 979.2748,184.3703 971.24973,169.17728 964.31002,152.98449 C 956.07345,135.48178 963.05192,166.88088 963.05192,179.40465 C 968.57967,217.46536 987.6137,247.96758 990.7302,286.34341 C 999.2861,323.96523 987.9266,315.97771 991.0022,331.82664 C 993.9175,346.84968 1002.4008,364.32827 1004.5693,379.44303 C 1004.5693,394.45389 992.1631,387.577 979.4073,390.76596 C 958.89519,395.89397 925.66678,400.83078 900.47426,400.83078 C 875.28174,400.83078 842.05333,395.89397 821.54126,390.76596 C 808.78542,387.577 796.3792,394.45389 796.3792,379.44303 C 798.54776,364.32827 807.03103,346.84968 809.94637,331.82664 C 813.02197,315.97771 801.66243,323.96523 810.21834,286.34341 C 813.33485,247.96758 832.36885,217.46536 837.8966,179.40465 C 837.8966,166.88088 844.87507,135.48178 836.6385,152.98449 C 829.69879,169.17728 821.6737,184.3703 808.96023,197.01809 C 793.99991,211.97842 769.0546,227.47535 749.82939,241.0517 C 735.47601,251.18768 734.46316,260.43446 723.40923,232.24498 C 715.78917,212.8125 714.24755,197.97763 715.86061,175.63034 C 716.60972,165.25214 713.45727,158.2629 722.15113,152.98449 C 733.89342,145.85524 746.38834,139.83899 757.37801,131.59674 C 773.15837,119.76147 798.18915,107.14093 812.73454,92.595545 C 839.73943,65.59066 847.80588,72.465896 900.47426,72.465896 z "
         style="fill:white;fill-opacity:1;fill-rule:evenodd;stroke:black;stroke-width:7.10378272;stroke-linecap:butt;stroke-linejoin:miter;stroke-miterlimit:4;stroke-dasharray:none;stroke-opacity:1"
         id="path10838" />
      <path
         sodipodi:nodetypes="cscsc"
         id="path11730"
         d="M 719.63492,154.87164 C 730.13522,146.69397 732.54033,160.43954 733.48092,167.36379 C 734.32953,173.61084 737.87742,181.59096 737.87742,186.95327 C 740.69693,209.47023 739.11793,205.67183 738.50646,222.98688 C 738.41412,225.60169 748.22761,244.82601 734.73215,250.48747"
         style="fill:none;fill-rule:evenodd;stroke:black;stroke-width:7.10378272;stroke-linecap:butt;stroke-linejoin:miter;stroke-miterlimit:4;stroke-dasharray:none;stroke-opacity:1" />
      <path
         style="fill:none;fill-rule:evenodd;stroke:black;stroke-width:7.10378272;stroke-linecap:butt;stroke-linejoin:miter;stroke-miterlimit:4;stroke-dasharray:none;stroke-opacity:1"
         d="M 1081.8661,154.87164 C 1071.3659,146.69397 1068.9607,160.43954 1068.0201,167.36379 C 1067.1715,173.61084 1063.6237,181.59096 1063.6237,186.95327 C 1060.8041,209.47023 1062.3831,205.67183 1062.9946,222.98688 C 1063.087,225.60169 1053.2735,244.82601 1066.7689,250.48747"
         id="path12617"
         sodipodi:nodetypes="cscsc" />
      <path
         sodipodi:nodetypes="cccsssccssscc"
         id="path14401"
         d="M 901.78125,66.308448 C 890.33552,66.383877 873.84454,67.55022 862.4375,68.6875 C 848.3912,69.215175 861.50579,94.337088 868.09375,102.03125 C 876.42869,114.76954 890.12095,121.52603 890.12095,128.4456 C 890.12095,133.457 890.31928,176.60828 890.55794,228.23372 C 890.74382,268.44111 891.58321,313.02558 891.74337,346.78382 C 891.89383,378.49724 892,400.65625 892,400.65625 C 900.9042,401.97199 907.35278,402.38959 911.5625,400.65625 C 911.56249,400.65625 912.53639,328.6833 912.86383,258.52054 C 913.1598,195.10102 914.0706,133.16046 914.0706,127.1875 C 914.07057,120.26793 926.32465,114.16129 935.46875,102.03125 C 942.37269,92.872882 958.78709,71.317556 941.125,68.6875 C 926.18918,67.51053 916.49719,66.211468 901.78125,66.308448 z "
         style="fill:white;fill-opacity:1;fill-rule:evenodd;stroke:black;stroke-width:7.10378272;stroke-linecap:butt;stroke-linejoin:miter;stroke-miterlimit:4;stroke-dasharray:none;stroke-opacity:1" />
      <path
         sodipodi:nodetypes="cccsccc"
         id="path12619"
         d="M 901.78125,74.9375 C 910.96008,74.84052 913.04392,75.51053 927.97974,76.6875 C 948.42483,74.976524 929.55887,93.914126 923.71181,99.869788 C 914.73364,108.41571 901.69566,121.01631 901.78125,121.1875 C 902.01293,121.65085 887.47815,109.36308 877.74884,99.311338 C 873.25108,91.331524 858.54795,76.976098 872.4375,76.6875 C 883.84454,75.55022 894.64216,75.012929 901.78125,74.9375 z "
         style="fill:white;fill-opacity:1;fill-rule:evenodd;stroke:black;stroke-width:7.10378272;stroke-linecap:butt;stroke-linejoin:miter;stroke-miterlimit:4;stroke-dasharray:none;stroke-opacity:1" />
    </g>
  </g>
  <g
     inkscape:groupmode="layer"
     id="layer5"
     inkscape:label="Meubles"
     style="display:inline">
    <path
       id="path5044"
       style="opacity:1;fill:none;fill-opacity:0.75;fill-rule:evenodd;stroke:black;stroke-width:1px;stroke-linecap:butt;stroke-linejoin:miter;stroke-opacity:1;display:inline"
       d="M -399.89145,367.5286 L -399.89145,367.5286 z " />
    <g
       id="g3209"
       transform="translate(2.302982,0)">
      <g
         id="g2655"
         style="opacity:1;stroke:black;stroke-width:7.02474117;stroke-miterlimit:4;stroke-dasharray:none;stroke-opacity:1;display:inline"
         transform="matrix(0.427062,0,0,0.427062,501.3178,324.9511)">
        <path
           id="path2657"
           style="fill:#fcef3c;fill-opacity:1;fill-rule:evenodd;stroke:black;stroke-width:7.02474117;stroke-linecap:butt;stroke-linejoin:miter;stroke-miterlimit:4;stroke-dasharray:none;stroke-opacity:1"
           d="M -48.09683,-730.04688 C -18.63463,-698.20088 -1.311324,-680.63851 1.71567,-631.22551 C 4.516922,-585.49753 -25.91305,-547.26746 -32.47183,-503.03801 C -33.71586,-494.64886 -34.78343,-477.52504 -33.65933,-470.58029 C -32.82682,-465.43703 -30.2673,-449.72452 -27.47183,-469.16609 C -26.89689,-473.16463 -26.48464,-493.22641 -24.72183,-503.41301 C -21.50976,-521.97423 -11.22367,-554.61188 6.62192,-572.69426 C 24.45989,-590.7689 52.7264,-602.49289 77.93442,-593.03801 C 100.77409,-582.49963 102.93306,-552.73834 96.43442,-530.97551 C 88.29557,-503.71988 57.19325,-484.85525 29.30942,-483.00676 C 34.83452,-493.933 48.05897,-525.11969 33.71567,-523.88176 C 17.11291,-522.44882 -2.746744,-494.20056 -7.917294,-474.82293 C -9.864494,-467.52547 -9.07753,-456.19513 -19.50308,-456.66301 C -12.62837,-433.43496 6.77717,-418.06468 23.77817,-401.85051 C 6.05563,-400.37739 -11.47738,-408.7178 -26.94058,-416.66301 C -26.286749,-400.73784 -29.378446,-367.09562 -48.09683,-348.72551 C -65.471545,-367.64157 -67.052581,-390.71209 -67.37808,-416.66301 C -82.84128,-408.7178 -100.37429,-400.37739 -118.09683,-401.85051 C -101.09583,-418.06468 -81.690291,-433.43496 -74.81558,-456.66301 C -85.24113,-456.19513 -85.868385,-466.81836 -87.81558,-474.11582 C -92.98613,-493.49343 -111.43157,-522.44884 -128.03433,-523.88176 C -142.37763,-525.11969 -129.15318,-493.933 -123.62808,-483.00676 C -151.51191,-484.85525 -182.61422,-503.71988 -190.75308,-530.97551 C -197.25172,-552.73834 -195.09274,-582.49964 -172.25308,-593.03801 C -147.04505,-602.49289 -118.77855,-590.76891 -100.94058,-572.69426 C -83.094993,-554.61188 -72.808901,-521.97423 -69.59683,-503.41301 C -67.83402,-493.22641 -68.128878,-474.57884 -67.553937,-470.58029 C -64.758467,-451.13871 -61.491841,-465.43705 -60.65933,-470.58029 C -59.53523,-477.52504 -60.602801,-494.64887 -61.84683,-503.03801 C -68.40561,-547.26744 -95.955806,-587.0527 -96.03433,-631.22551 C -96.103977,-671.11179 -76.05061,-701.46041 -48.09683,-730.04688 z " />
        <rect
           id="rect2659"
           style="fill:#fcef3c;fill-opacity:1;fill-rule:evenodd;stroke:black;stroke-width:7.02474117;stroke-linejoin:round;stroke-miterlimit:4;stroke-dasharray:none;stroke-opacity:1"
           transform="scale(-1,1)"
           y="-474.15433"
           x="-20.840672"
           ry="8.1955442"
           rx="8.1955442"
           height="22"
           width="136" />
      </g>
      <g
         transform="matrix(0.427062,0,0,0.427062,134.6511,324.9511)"
         style="opacity:1;stroke:black;stroke-width:7.02474117;stroke-miterlimit:4;stroke-dasharray:none;stroke-opacity:1;display:inline"
         id="g3203">
        <path
           d="M -48.09683,-730.04688 C -18.63463,-698.20088 -1.311324,-680.63851 1.71567,-631.22551 C 4.516922,-585.49753 -25.91305,-547.26746 -32.47183,-503.03801 C -33.71586,-494.64886 -34.78343,-477.52504 -33.65933,-470.58029 C -32.82682,-465.43703 -30.2673,-449.72452 -27.47183,-469.16609 C -26.89689,-473.16463 -26.48464,-493.22641 -24.72183,-503.41301 C -21.50976,-521.97423 -11.22367,-554.61188 6.62192,-572.69426 C 24.45989,-590.7689 52.7264,-602.49289 77.93442,-593.03801 C 100.77409,-582.49963 102.93306,-552.73834 96.43442,-530.97551 C 88.29557,-503.71988 57.19325,-484.85525 29.30942,-483.00676 C 34.83452,-493.933 48.05897,-525.11969 33.71567,-523.88176 C 17.11291,-522.44882 -2.746744,-494.20056 -7.917294,-474.82293 C -9.864494,-467.52547 -9.07753,-456.19513 -19.50308,-456.66301 C -12.62837,-433.43496 6.77717,-418.06468 23.77817,-401.85051 C 6.05563,-400.37739 -11.47738,-408.7178 -26.94058,-416.66301 C -26.286749,-400.73784 -29.378446,-367.09562 -48.09683,-348.72551 C -65.471545,-367.64157 -67.052581,-390.71209 -67.37808,-416.66301 C -82.84128,-408.7178 -100.37429,-400.37739 -118.09683,-401.85051 C -101.09583,-418.06468 -81.690291,-433.43496 -74.81558,-456.66301 C -85.24113,-456.19513 -85.868385,-466.81836 -87.81558,-474.11582 C -92.98613,-493.49343 -111.43157,-522.44884 -128.03433,-523.88176 C -142.37763,-525.11969 -129.15318,-493.933 -123.62808,-483.00676 C -151.51191,-484.85525 -182.61422,-503.71988 -190.75308,-530.97551 C -197.25172,-552.73834 -195.09274,-582.49964 -172.25308,-593.03801 C -147.04505,-602.49289 -118.77855,-590.76891 -100.94058,-572.69426 C -83.094993,-554.61188 -72.808901,-521.97423 -69.59683,-503.41301 C -67.83402,-493.22641 -68.128878,-474.57884 -67.553937,-470.58029 C -64.758467,-451.13871 -61.491841,-465.43705 -60.65933,-470.58029 C -59.53523,-477.52504 -60.602801,-494.64887 -61.84683,-503.03801 C -68.40561,-547.26744 -95.955806,-587.0527 -96.03433,-631.22551 C -96.103977,-671.11179 -76.05061,-701.46041 -48.09683,-730.04688 z "
           style="fill:#fcef3c;fill-opacity:1;fill-rule:evenodd;stroke:black;stroke-width:7.02474117;stroke-linecap:butt;stroke-linejoin:miter;stroke-miterlimit:4;stroke-dasharray:none;stroke-opacity:1"
           id="path3205" />
        <rect
           width="136"
           height="22"
           rx="8.1955442"
           ry="8.1955442"
           x="-20.840672"
           y="-474.15433"
           transform="scale(-1,1)"
           style="fill:#fcef3c;fill-opacity:1;fill-rule:evenodd;stroke:black;stroke-width:7.02474117;stroke-linejoin:round;stroke-miterlimit:4;stroke-dasharray:none;stroke-opacity:1"
           id="rect3207" />
      </g>
    </g>
  </g>
  <g
     inkscape:groupmode="layer"
     id="layer1"
     inkscape:label="Reflet final"
     style="opacity:1;display:inline"
     sodipodi:insensitive="true">
    <path
       id="path2875"
       style="fill:url(#radialGradient2146);fill-opacity:1;fill-rule:evenodd;stroke:none;stroke-width:1px;stroke-linecap:butt;stroke-linejoin:miter;stroke-opacity:1"
       d="M 300.00001,658.5 C 300.00001,658.5 598.50001,546.17969 598.50001,260.72817 C 598.50001,-24.723334 598.50001,2.1764865 598.50001,2.1764865 L 1.5,2.1764865 L 1.5,260.72817 C 1.5,546.17969 300.00001,658.5 300.00001,658.5 z " />
  </g>
  <g
     inkscape:groupmode="layer"
     id="layer2"
     inkscape:label="Contour final"
     style="display:inline"
     sodipodi:insensitive="true">
    <path
       d="M 300.00001,658.5 C 300.00001,658.5 598.50001,546.17969 598.50001,260.72817 C 598.50001,-24.723334 598.50001,2.1764865 598.50001,2.1764865 L 1.5,2.1764865 L 1.5,260.72817 C 1.5,546.17969 300.00001,658.5 300.00001,658.5 z "
       style="opacity:1;fill:none;fill-opacity:1;fill-rule:evenodd;stroke:black;stroke-width:3;stroke-linecap:butt;stroke-linejoin:miter;stroke-miterlimit:4;stroke-dasharray:none;stroke-opacity:1;display:inline"
       id="path2315" />
  </g>
</svg>
