<?xml version="1.0" encoding="UTF-8" standalone="no"?><svg height="660" width="600" xmlns="http://www.w3.org/2000/svg" xmlns:xlink="http://www.w3.org/1999/xlink"><defs><radialGradient id="a" cx="-80" cy="-80" gradientUnits="userSpaceOnUse" r="405"><stop offset="0" stop-color="#fff" stop-opacity=".31"/><stop offset=".19" stop-color="#fff" stop-opacity=".25"/><stop offset=".6" stop-color="#6b6b6b" stop-opacity=".125"/><stop offset="1" stop-opacity=".125"/></radialGradient><path id="b" d="m-298.5-298.5h597v258.5c0 286.31-298.5 398.5-298.5 398.5s-298.5-112.19-298.5-398.5z"/></defs><use fill="#fcef3c" height="660" transform="translate(300 300)" width="600" xlink:href="#b"/><path d="m272.6307 351.01234c-6.06231 1.47325-11.0768 5.6116-13.89398 12.34581-2.90686 6.94859-3.54482 16.50886-1.0653 28.70644-6.70579-1.09735-11.93042-4.39052-14.35001-10.80946l-33.06517-11.95593c-5.00763 2.70648-10.86182 4.66402-17.6461 4.73354-13.48512.13818-20.1492-12.60731-11.36042-19.21429-.0493 6.42458 6.1588 8.80355 10.9536 8.81791 10.79713.0322 18.01019-7.38027 23.73313-15.50089 4.87676-6.91989 6.92883-14.78613 11.86751-21.3511 4.68398-6.22641 13.607-12.2354 20.79085-18.47047 4.80778-4.17281 13.32435-9.52815 13.48906-16.24472-1.73633-17.6594-11.06957-35.32887-17.14975-51.70379-119.06223 41.66248-169.362107-70.12749-111.18664-136.32216-6.90192-4.385831-11.32302-12.057727-12.74159-18.881562-2.14092-10.864233 6.27314-19.831799 15.51745-19.585249-7.44918 6.274077-9.88389 13.577339-4.15704 20.885507 4.94974 6.190098 14.60215 11.401553 23.4266 14.758964 9.9305 3.97489 23.70665 10.64969 23.93559 21.62743-.93765 8.03038-8.24448 12.67566-13.48907 17.174-6.67364 5.72406-13.28476 12.40413-13.28473 22.92769 0 18.09491 14.36953 33.32405 35.19192 33.32407 7.72907 0 14.64968-2.9599 21.80693-5.94105 7.15725-2.98118 14.5476-6.38296 23.22414-6.03382 6.21897.25027 12.4208 1.98467 17.24308 6.12655 2.69022-3.18433 5.89616-6.21924 9.53261-9.18887-8.78773 3.05389-20.69614 2.80529-27.28278-3.52792-4.83119-4.64528-4.61531-14.25821.71143-16.80115 1.34439 6.88446 5.95086 10.30426 12.27055 11.04557 6.31967.74132 14.33302-1.29554 22.11155-5.38461 15.48033-8.13784 29.91255-24.46053 28.80217-43.53308 29.5149-38.717926-43.89808-39.118177-43.15903-57.30879-.18527-3.218818 1.51718-6.551249 3.91035-8.690175 2.50916-2.242616 6.05167-3.888731 10.24216-5.013656 18.75702-5.903039 43.9442 2.510948 55.78221-1.669328 4.51281-2.287576 8.56836-4.645319 9.9394-9.932681l-.00032.000087c8.03474 7.243554 5.50887 17.489716-5.88266 20.234432 5.25001 1.289378 8.39219 3.786502 10.54868 6.777616 2.33747 3.242117 3.84141 6.92768 7.0993 9.652569 5.72907 4.791742 12.04966 1.419715 18.45786.929296-2.80548 6.529256-7.76181 9.005669-12.87981 8.910645-4.3769-.08127-8.53041-2.004739-11.66315-4.269841 5.56316 6.191364 7.76146 13.56642 10.14186 18.936056 1.3021 2.93725 2.72774 5.24128 5.07095 6.40478 2.3432 1.16347 5.65625 1.27732 11.10591-.0464-.96451 5.53539-4.84016 8.29855-9.07755 8.9589-3.88997.6062-7.97414-.63357-10.9536-2.87874 1.2895 9.9337.64974 21.75769 2.33301 31.93298 1.90208 11.49795 9.09047 17.38079 18.66219 22.55482-11.56407 2.42299-19.15176-1.34462-23.8353-6.31202-3.90477-4.1415-5.52804-8.60439-6.28759-11.60201-.79455 11.83322-7.97081 23.3313-16.227 32.2093 4.29721-2.34417 11.15881-5.19725 24.13806-5.19725 14.65767 0 23.66652 4.72615 32.96109 9.37435 9.29456 4.64819 18.87415 9.2835 34.99135 9.2835 20.82233 0 35.09161-15.22918 35.09164-33.32407 0-10.52356-6.51361-17.20037-13.18443-22.92769-5.22-4.74833-13.44836-10.18726-13.59125-17.174 1.56066-12.47936 14.46531-17.94946 24.03776-21.62743 8.82443-3.357413 18.47873-8.568868 23.42848-14.758966 6.12555-7.793395 1.37739-14.245632-3.54965-21.534689 11.29396 2.261865 16.95514 9.760839 14.90818 20.234431-1.41815 6.821902-6.40957 14.683667-13.30825 19.069694 9.86489 24.54991 36.82725 31.07319 29.57119 73.67445l-44.45017 73.97084c-33.91018 2.6072-66.49406.85538-95.90126-11.33703-12.93919 22.31687-23.88638 28.79805-23.88638 50.78576 2.17867 7.94429 10.95959 12.57912 16.93844 16.61566 9.12959 6.16373 19.7736 12.39946 24.24021 18.84332 4.74665 6.84786 7.54842 14.83442 11.86562 21.35111 5.48675 8.28212 12.937 15.35104 23.73313 15.50089 7.19406.0998 9.02633-4.00777 11.76532-9.18887 10.35412 11.37865-3.34963 19.50662-12.17213 19.58525-6.87305.0612-12.6973-1.87103-17.74829-4.63134l-33.06326 11.96541c-2.45477 3.74978-8.03988 10.19069-14.24972 10.6746 2.4796-12.17437 1.7413-21.73469-1.16555-28.68327-2.81719-6.73421-7.7314-10.87256-13.86208-12.34587-2.30571 19.52146 10.95184 80.44572 41.85771 68.85682-2.47027 9.25096-11.511 13.9735-20.66029 13.9735-8.50756 0-15.16319-3.66199-20.27804-9.36487 2.25637 10.38527 10.29769 27.50981 35.54222 27.50981 9.50188 0 18.55908 1.84889 23.85612 8.02867 4.46548 5.20977 7.21925 16.7175.0207 24.42099-.50753-7.81336-6.84818-13.24482-22.06805-13.24482-13.17535 0-26.22556-5.57686-34.69636-13.46224 3.68571 8.53642 9.47436 16.95336 15.06349 22.92554 13.0545 13.81884 33.06292 20.14281 39.43979 9.90807 9.3574-1.02647 9.17528 12.82399 2.44087 18.13925-5.77461 4.55774-16.58404 5.33926-22.88168 2.71976 25.59708 17.16201 53.74816 1.89555 53.74816-15.39679 0-7.68274-6.1178-18.43173-15.76154-15.72802 1.88752-4.09936 5.76808-7.30187 11.24689-7.30187 14.6715 0 26.64324 14.5825 26.64324 29.75641 0 18.7741-14.25151 38.29608-48.52964 38.29608-10.50439 0-20.03378-3.1618-28.577-8.37314 16.37839 30.23411-12.29192 52.01898-31.10112 34.80415 17.82596-1.65078 13.61483-20.68752.71145-28.49589-12.76984-7.72762-19.68005-18.00659-23.02357-29.4271 1.41133 25.17218 2.79757 48.76745 15.92425 65.90622 3.93424 5.13675-3.59122 7.98324-12.98196 7.98324-.18667 5.43263-6.86755 10.30365-13.37062 10.30367-6.50306.00003-13.18394-4.87099-13.37061-10.30361-9.39074 0-16.9162-2.84651-12.98198-7.98324 13.1267-17.13878 14.51294-40.73405 15.92426-65.90622-3.34352 11.4205-10.25373 21.69948-23.02356 29.42709-12.90339 7.80838-17.11452 26.84511.71144 28.49589-18.8092 17.21484-47.4795-4.57004-31.10113-34.80414-8.54321 5.21133-18.0726 8.37313-28.577 8.37313-34.27812 0-48.52963-19.52198-48.52963-38.29608 0-15.1739 11.97175-29.75641 26.64324-29.75641 5.47882 0 9.35938 3.20251 11.24689 7.30188-9.64373-2.70372-15.76154 8.04527-15.76154 15.728 0 17.29235 28.15108 32.55881 53.74815 15.3968-6.29762 2.6195-17.10706 1.83798-22.88166-2.71975-6.73443-5.31527-6.91655-19.16572 2.44085-18.13926 6.37688 10.23474 26.3853 3.91078 39.43979-9.90808 5.58914-5.97216 11.37779-14.38911 15.06351-22.92553-8.4708 7.88539-21.52102 13.46224-34.69638 13.46224-15.21986 0-21.5605 5.43146-22.06804 13.24482-7.19853-7.70349-4.44476-19.21122.0208-24.421 5.29702-6.17977 14.35423-8.02865 23.85609-8.02865 25.24453 0 33.28587-17.12454 35.54223-27.50982-5.11484 5.70287-11.77047 9.36488-20.27805 9.36488-9.14928 0-18.19002-4.72254-20.66028-13.97351 30.90586 11.5889 44.16342-49.33536 41.92605-68.85687" stroke="#313131" stroke-linecap="round" stroke-linejoin="round" stroke-width="2.500002"/><g stroke="#313131"><path d="m211.8494 100.74266c4.34042 3.47506 9.46368 6.78465 18.266 6.78465 11.8768 0 29.63475-14.23123 43.76607-14.23123 11.73322 0 20.94041 5.105377 27.0025 9.62328l-1.86414 13.37836c-3.70745-3.9715-12.76584-13.48657-24.68624-13.48657-13.09593 0-28.49818 12.65919-42.22882 12.65919-11.01788 0-19.20643-9.47372-20.25537-14.72768z" stroke="#313131" stroke-linecap="round" stroke-linejoin="round" stroke-width="2.500008"/><path d="m211.89616 100.50941c4.34135 3.47669 9.46573 6.78784 18.26994 6.78784 11.87935 0 29.64113-14.237941 43.77548-14.237941 11.73575 0 20.94492 5.107786 27.00831 9.627821l-1.86454 13.38468c-3.70825-3.97338-12.76858-13.49294-24.69154-13.49294-13.09876 0-28.50433 12.66516-42.23792 12.66516-11.02024 0-19.21056-9.47818-20.25973-14.73462z" stroke="#313131" stroke-linecap="round" stroke-linejoin="round" stroke-width="2.500001"/><path id="c" d="m235.40049 242.96448c.57874 19.30755-1.19316 51.05363-6.0853 61.63565 15.58165-3.91741 16.02791-46.77619 15.61893-64.23473m-127.8913-48.46818c-19.89448 20.8059-57.768098 28.52999-70.185491 30.13148 12.795199 11.63173 64.871681-7.21392 76.154881-21.19138m.62169 24.30481c-12.69627 23.82297-46.017473 41.47518-65.315502 47.52628 31.968351-.7669 62.494052-24.59594 76.877562-40.10031m13.99617 19.30756c-13.92976 21.6435-45.91879 62.24578-77.891769 81.68581 19.66357.76083 68.575069-49.41801 93.307859-80.94321m-55.70547-89.36251c-16.390414 2.42664-55.643319 2.92163-67.653037-8.44345 2.360017 14.73077 29.451305 23.77301 71.270847 17.71467m16.82281-43.04498c-26.12652-3.01986-51.557523-12.69381-62.407204-26.65478-.199672 6.75244 11.936708 27.11684 53.543584 36.09156" stroke="#313131" stroke-linecap="round" stroke-linejoin="round" stroke-width="2.5"/><use height="100%" transform="matrix(-1 0 0 1 599.99954 .000003)" width="100%" xlink:href="#c"/><use height="100%" transform="matrix(-1 0 0 1 600.13147 .000003)" width="100%" xlink:href="#d"/><path id="d" d="m142.72927 106.63504c-25.47201-6.24667-39.61515-18.452689-52.820003-31.455943-20.055368-4.27857-12.112909 45.264763 44.318143 57.117383m-7.77829 5.96007c-28.368799-2.08546-58.44836-7.06934-69.100143-20.69471-8.549401-2.57057-12.153734 6.59545-9.620008 13.80113 5.447148 15.4912 34.54062 37.92836 67.866731 33.21724m0 0c-25.4722 19.46999-62.630316 21.38516-68.738371 11.75458-16.212727 32.15063 40.743007 36.37824 74.707741 21.93638-23.251562 30.69656-63.276593 38.61022-75.250408 36.83657-2.91338 8.84067 11.315535 16.44903 27.483282 16.12626 22.655768-.45229 52.670666-11.27682 63.183216-29.05101-12.33712 22.18104-52.334221 66.2906-83.93668 70.16427-7.030459 6.28891.976846 14.85196 17.038826 14.85196 39.686034 0 86.372354-53.31471 97.704214-75.2556-28.78643 49.31675-51.67732 90.17076-80.137739 111.01159-14.868366 10.88772-24.151653 8.66609-24.151653 14.71818 0 4.92197 8.675617 9.98001 18.182049 9.98001 15.642579 0 34.979813-10.49618 51.787843-24.42301 26.42658-21.89661 57.77864-72.64108 64.00079-98.78072-1.31886 20.29259-10.34337 47.46578-17.44451 60.89306-3.33332 6.30288-10.14283 18.30695-13.12365 23.56861-2.44169 4.30998-10.00047 9.6187-10.00047 11.7048 0 3.95871 2.67578 7.77361 10.95352 7.42599 4.53458 0 12.56328-4.29898 23.58476-12.37514 17.32756-12.69699 38.12026-46.13541 45.23559-97.41246" stroke="#313131" stroke-linecap="round" stroke-linejoin="round" stroke-width="2.500001"/><path d="m298.38069 88.424503c3.96587 3.270779 6.61015 6.944741 6.61015 26.291037 0 7.03503-6.78265 9.27382-17.58539 8.44603-10.81865-.829-24.53164-.53986-34.54087 2.66275 1.77778-14.31149 26.62245-19.51709 43.77549-17.88022 1.98977-12.794807-11.10413-24.706003-34.91186-20.6947-9.53173-7.438709-25.48027.743311-26.41 10.430139-13.01892-14.232591-2.28197-31.952628 18.08905-31.952628 17.36723 15.504224 29.71784 10.1158 44.97343 22.697592z" stroke="#313131" stroke-linecap="round" stroke-linejoin="round" stroke-width="2.500001"/><path d="m253.76702 65.112218c17.49759 1.549789 34.22444-2.157251 50.86783-4.990757-7.27628.720603-21.29687 3.938831-25.77076 8.266288-2.7281 2.638786-7.21256 5.219591-10.40828 3.616518-2.37236-1.190036-4.05925-4.364359-6.17369-5.320462-2.11442-.956134-4.65638.306028-8.5151-1.571587z" fill-rule="evenodd" stroke="#313131" stroke-linecap="round" stroke-linejoin="round" stroke-width="2.500001"/><path id="e" d="m101.92968 101.49953c9.02961 10.22635 25.21582 16.22088 37.84568 20.66651 3.92598 1.08884 2.07722-2.59072 2.07722-2.59072-13.54202-2.67855-28.97782-10.98488-39.9229-18.07579zm-28.195202 37.40838c12.865571 12.59341 32.007662 14.05945 49.148402 14.84361l1.1567-2.86921c-18.06666 1.53345-35.424907-2.99844-50.305102-11.9744zm44.543382 43.47542c-14.05506 8.93234-34.969859 13.50454-51.338619 11.2912 15.381497 5.75332 38.188609-.36557 51.947139-8.59928zm15.05916 26.0921c-11.73413 13.25106-30.08122 25.79971-50.677442 29.84781 19.953032.0259 39.702512-12.59662 54.482692-29.09685-.44346-2.10219-1.50213-.94258-3.80525-.75096zm15.65227 21.21512c-12.60038 22.35615-31.30254 37.63949-50.710782 52.63164 23.359202-11.79888 45.903732-35.09393 53.449172-51.23928.00002 0-2.73839-1.39236-2.73839-1.39236zm65.72119 9.00399c-3.35766 26.03982-8.79354 49.70668-22.71843 70.0827 17.56125-16.78679 21.66414-43.47577 25.55824-69.98987l-2.83981-.0929zm-37.62741 1.67086c-9.03467 34.16114-29.11869 60.27239-57.81029 89.85437 44.32543-36.94233 54.20891-65.41787 61.1572-89.48307z" fill="#313131" stroke="#313131" stroke-width="1.000001"/><use height="100%" transform="matrix(-1 0 0 1 596.59154 .000003)" width="100%" xlink:href="#e"/><g stroke="#313131" stroke-linecap="round" stroke-linejoin="round" stroke-width="2.500001"><path d="m368.40471 223.18758c11.14317 13.81788-1.78667 25.05155-13.20736 17.17791m29.12573-17.17791c11.62345 14.41346-2.26519 26.86209-13.97782 16.88265m34.36469-15.88931c13.60043 16.39275-5.9408 29.7574-16.74442 14.72715m39.58413-16.0516c14.52062 16.39273-6.34272 29.75738-17.87725 14.72713m43.44354-118.01436c9.25347-5.41551 19.00494 9.5338 9.81891 14.7151 11.4884-1.66932 17.96029 14.8138 6.09945 15.08526 21.44805 3.53637 22.70902 20.20202 7.10675 22.78237 16.23683 8.85619 6.93132 26.01425-6.72951 17.35346m3.74051 1.92026c13.62197 13.06317-.61646 26.77653-11.69158 14.62886 11.64509 14.57696-3.85803 22.55167-13.10842 9.18626 14.52063 16.39275-4.96125 29.4284-16.49582 14.39814m-200.12887-6.45137c-11.14316 13.81788 1.78605 25.05145 13.20675 17.17782m-29.12512-17.17782c-11.62344 14.41346 1.73894 26.20408 13.45155 16.22464m-33.83841-15.2313c-13.60044 16.39275 5.94079 29.7574 16.74441 14.72715m-39.58413-16.0516c-14.52062 16.39273 6.34272 29.75738 17.87727 14.72713m-43.44355-118.01436c-9.25346-5.41551-19.00495 9.5338-9.81891 14.7151-11.48841-1.66932-17.96029 14.8138-6.09946 15.08526-20.03663 1.58248-19.14514 17.86874-6.01165 22.04348m12.50687 33.23205c-11.6451 14.57696 4.93664 23.96109 14.18702 10.59568-14.52061 16.39275 9.26785 22.64592 20.80241 7.61566m-45.98113-31.17089c-13.62198 13.06317-1.01473 26.35216 10.06037 14.20449m-11.57557-34.47699c-16.23682 8.8562-8.02639 26.75314 5.63443 18.09235"/><ellipse cx="271.20581" cy="68.682243" fill="#313131" rx="1.747935" ry="1.888621"/><path d="m263.19923 269.88375s5.04173 10.43185 9.17691 14.56817c2.38159 2.38224 4.99966 8.59138 4.95572 15.87836m-25.39043 47.71176s14.69613-23.62227 29.51368-3.62017m75.52481-144.2468c5.8488-3.25866 11.69759-1.64148 17.54639-.66221m-38.53931 110.0958c7.45055 4.37661 15.03976 8.37249 20.62151 17.8802m-14.10945-110.42691c-9.92543-4.00651-24.68645 7.93184-31.65583 18.21134m145.80734-57.77961c-2.83961 27.343-35.85407 39.95051-55.71427 36.09155m-257.48347-36.09155c2.83959 27.343 35.85407 39.95051 55.71425 36.09155m103.53609-40.06492c14.88398-11.37241 23.73138-26.99452 24.4202-40.2305m-27.07169 232.57467v57.92267m0 147.07141v-54.96512m28.29986-91.41559c-13.31735-14.705-16.14258-43.09079-14.0525-57.25516m16.70723 90.50757c-5.75668-5.83419-9.84924-13.47822-11.25044-22.29784m44.08303 97.24314c-27.14618-16.50467-44.23905-53.71536-50.86691-76.54842m-41.32896-31.64929c13.31736-14.705 16.14259-43.09079 14.05251-57.25516m-16.70723 90.50757c5.75668-5.83419 9.84924-13.47822 11.25043-22.29784m-44.08303 97.24314c27.14618-16.50467 44.23905-53.71536 50.86693-76.54842"/></g></g><g id="f" stroke-width="1.003743" transform="matrix(.99624618 0 0 .99629549 -.103979 .63738)"><path d="m210.21082 369.39793c-10.71694 15.45803-69.32117 98.57669-69.32117 98.57669l24.06801 3.17406s36.28191-59.2822 55.19033-80.05039c.669-.6786 2.14338-1.27467 4.05599-1.85562 1.9126-.58095 4.26723-1.19347 6.69238-1.85562 4.60822-1.25819 9.44554-2.89331 12.37078-6.03076-5.36429-12.94932-19.98514-16.13203-33.05632-11.95844z" stroke="#313131" stroke-linecap="round" stroke-linejoin="round" stroke-width="2.509366"/><g stroke-width="1.003743"><path d="m124.03025 469.82401c-3.33206 4.23175-6.71325 8.47837-7.86095 12.77181-.76814 2.87329-1.54754 7.14858-.80101 9.61177l2.59369 4.83916c7.85029 12.44023 20.7555 5.21711 16.19568-7.5429.47083-1.76146-.014-3.5933-.36864-5.40618-.35463-1.81292-.61497-3.60922-.15029-5.34751.28443-1.06402 1.20893-1.97469 2.366-2.9411 1.15706-.96641 2.48742-1.89337 3.30293-3.3817.41179-.75156.83309-1.633 1.15612-2.57382-.0266.37116-.0836.76593-.12406 1.12041-.46179 4.0471-3.71326 11.48297-5.57868 18.46119-.83302 3.11603-.10495 5.94911 1.48249 8.24352 5.12284 7.40454 14.18897 6.81766 17.9121-4.18826.53536-1.58259.30614-3.64859-.18202-5.00993-.48815-1.36135-1.30787-2.44732-2.14811-3.34588-.84029-.89854-1.63674-1.639-2.18874-2.31844-.55204-.67944-.7416-1.16558-.57979-1.77094.52476-1.96328 1.22025-3.47812 1.95591-5.12795.49916-1.1195.96872-2.27433 1.3347-3.67958.36431 1.49845 1.89765 3.15251 1.09315 4.44702-2.20333 3.54533-3.8721 3.79443.53288 11.79577 1.77548 3.22504-1.77574 8.15043.94474 10.21249 4.89512 3.71036 12.07653 4.02037 18.10256-3.36616 1.59364-.58987 1.14763-11.29972 3.46966-12.87548 7.94742-5.39322 21.78545-6.68049 6.93692-17.10557-4.23094-.72054-11.69778 7.66095-12.94516 6.68613-3.80069-1.59719-7.19835-3.2735-8.54331-6.56335z" stroke="#313131" stroke-linecap="round" stroke-linejoin="round" stroke-width="2.509366"/><path d="m121.79578 162.85762h46.16427v252.38675h-46.16427z" fill="#e20909" stroke="#313131" stroke-linecap="round" stroke-linejoin="round" stroke-width="3.011229"/><path d="m121.79578 411.30553-8.01459 16.36737h61.33853l-7.15967-16.36737z" fill="#e20909" stroke="#313131" stroke-linecap="round" stroke-linejoin="round" stroke-width="3.011229"/><path d="m112.21627 444.63889-4.85657 9.05796h74.11419l-4.89582-9.05796z" fill="#e20909" stroke="#313131" stroke-linecap="round" stroke-linejoin="round" stroke-width="3.011229"/><path d="m105.49997 453.69685h77.83366v29.42125h-77.83366z" fill="#e20909" stroke="#313131" stroke-linecap="round" stroke-linejoin="round" stroke-width="3.011229"/><path d="m119.15377 131.19468h51.44832v21.50015h-51.44832z" fill="#e20909" stroke="#313131" stroke-linecap="round" stroke-linejoin="round" stroke-width="3.011229"/><path d="m123.78866 130.0162-10.00747-16.36737h62.19348l-10.10559 16.36737z" fill="#e20909" stroke="#313131" stroke-linecap="round" stroke-linejoin="round" stroke-width="3.011229"/><path d="m120.23503 122.89373c-1.67947 1.27944-2.62999 2.70479-2.62999 4.21437 0 1.50972.95023 2.94266 2.62999 4.22221h49.29335c1.67972-1.27955 2.62241-2.71249 2.62244-4.22221 0-1.50958-.943-2.93493-2.62244-4.21437zm.0362 28.06972c-1.67699 1.86665-2.6261 3.94616-2.6261 6.14858 0 2.20259.94882 4.2932 2.6261 6.15998h49.22087c1.67726-1.86678 2.61858-3.95739 2.61861-6.15998 0-2.20242-.94163-4.28193-2.61861-6.14858zm-8.05498 276.70945c-2.19287 2.57298-3.43394 5.43934-3.43394 8.47512 0 3.03604 1.2407 5.91771 3.43394 8.49087h64.3618c2.19322-2.57316 3.4241-5.45483 3.42413-8.49087 0-3.03578-1.23128-5.90215-3.42413-8.47512z" fill="#e20909" stroke="#313131" stroke-linecap="round" stroke-linejoin="round" stroke-width="3.011229"/><path d="m113.57523 95.609899h62.6054v18.904101h-62.6054z" fill="#e20909" stroke="#313131" stroke-linecap="round" stroke-linejoin="round" stroke-width="3.011229"/><path d="m106.25589 87.458596h77.24408v8.001524h-77.24408z" fill="#e20909" stroke="#313131" stroke-linecap="round" stroke-linejoin="round" stroke-width="3.011229"/><path d="m119.1567 496.42715c-6.50613-4.16415-9.77983-11.09716-8.61657-17.09232 1.10511-5.69562 8.01335-11.27918 16.69323-7.84354-7.48414 3.23055-5.46123 13.40337 3.89385 15.04749 1.18709 6.45661-5.46643 11.98958-11.97051 9.88837zm16.76531-3.9526c-.54019-.52217-1.01399-1.0982-1.47858-1.63857-3.09795-3.60189-4.44746-7.65807-4.02683-11.57994.63935-5.96142 7.97631-11.99795 15.86862-6.9175-6.98905 2.30025-7.16714 11.9048 3.13234 16.09999-1.41383 9.94884-7.67719 9.59214-13.49543 4.03591zm38.05803-10.7787c-.35584-9.56298-10.2433-16.88212-17.7586-6.4106 5.84204-1.50059 9.97102 5.58582 4.86552 13.16228 1.1799 3.09478 6.57762 5.23157 9.61912 3.03079 2.44026-3.10616 3.3926-6.5948 3.27396-9.78247z" stroke="#313131" stroke-linecap="round" stroke-linejoin="round" stroke-width="2.509366"/></g></g><use height="100%" transform="matrix(-1 0 0 1 599.99992 0)" width="100%" xlink:href="#f"/><use fill="url(#a)" height="660" transform="translate(300 300)" width="600" xlink:href="#b"/><use fill="none" height="660" stroke="#000" stroke-width="3.000233" transform="matrix(1 0 0 .99984484 300 299.95343)" width="600" xlink:href="#b"/></svg>