<?xml version="1.0" encoding="UTF-8" standalone="no"?><svg height="660" viewBox="-300 -300 600 660" width="600" xmlns="http://www.w3.org/2000/svg" xmlns:xlink="http://www.w3.org/1999/xlink"><radialGradient id="a" cx="-80" cy="-80" gradientUnits="userSpaceOnUse" r="405"><stop offset="0" stop-color="#fff" stop-opacity=".31"/><stop offset=".19" stop-color="#fff" stop-opacity=".25"/><stop offset=".6" stop-color="#6b6b6b" stop-opacity=".125"/><stop offset="1" stop-opacity=".125"/></radialGradient><path d="m-298.5-298.50003h597v258.543296c0 286.247934-298.5 398.456734-298.5 398.456734s-298.5-112.2088-298.5-398.456734z" fill="#e20909"/><g stroke-linejoin="round"><g fill="#fcef3c" stroke="#000"><path d="m173.50003 218.49999-14.73093-77.52313h-7.97928l-32.40867-153.32045-17.92195-33.467656-33.451499-165.118234h-134.015404l-33.451497 165.118234-17.92195 33.467656-32.40867 153.32045h-7.97928l-14.73093 77.52313z" stroke-linecap="round" stroke-width="3"/><path d="m-150.78982 140.97686h301.57964" stroke-linecap="round" stroke-width="3"/><g stroke-width="2.25"><path d="m25.673929-13.586452.236108 25.663386m-51.584231-25.663393-.236109 25.663386m101.409422-25.663379.694975 25.663386m-151.693216-25.663393-.694973 25.663386m126.205212-.274643.614934 25.663385m-174.169161-25.388748h247.08582m-173.554026-.274644-.614934 25.663385m81.196304-.274645.281489 25.663392m-159.761283-25.388753h257.81961m-159.479861-.274645-.281489 25.663391m139.43637-50.652925 1.33555 24.83234m-218.50532-24.83234-1.33556 24.83234m-24.35594 25.820585h268.55275m-20.52348.000007 1.39968 27.344954m-228.9052-27.344954-1.39968 27.344954m200.155681-.274644.782447 25.663391m-225.842378-25.388753h280.11311m-225.059924-.274645-.782446 25.663388m138.381108-52.733691.64716 26.262713m-105.837474-26.262713-.647161 26.262713m175.609087 26.846728 1.50512 25.01299m-269.29521-25.38874h290.84638m-267.79009.37576-1.50512 25.01299m257.83652 26.471 1.23315 25.66339m-299.04894-25.38875h327.70257m-297.81578-.27464-1.23315 25.66339m235.45586-52.13438 1.23316 25.6634m-201.74958-25.6634-1.23316 25.6634m201.74958 26.19635 1.23316 25.66338m-270.16703-25.38875h337.35132m-268.93387-.27464-1.23316 25.66339"/><path d="m19.962736-202.43026.245316 25.66339m-40.171118-25.66339-.245316 25.66338m-53.720388-.00001h147.857671m-14.883053-25.26417.726214 24.83234m-118.817912-24.83234-.726214 24.83234m-19.300187 25.82058h158.1445m-14.046083.00001.800138 27.34496m-130.852208-27.34496-.800138 27.34496m109.284526-.27464.399871 25.663377m-128.470472-25.388747h169.22397m-128.07047-.27464-.399871 25.66338m63.157161-52.73369.237424 26.26271m-38.834574-26.26271-.237424 26.26271m90.739558 26.846732.875771 25.012996m-161.835092-25.388748h179.511326m-160.959321.375765-.875771 25.012996"/></g></g><g stroke-linecap="round"><g stroke-width="3"><g stroke="#313131"><path d="m70.867974 57.320908-2.466313-49.2598494h18.497352l2.466314 49.2598494zm-141.735951 0 2.466314-49.2598494h-18.497352l-2.466313 49.2598494z"/><path d="m46.502112-176.76689h-13.269623v25.38875h13.269623zm-93.004226 0h13.269622v25.38875h-13.269622z"/><path d="m-21.374981-98.644426h42.74983v47.494056h-42.74983z"/></g><path d="m-.00019838 63.273683c31.17847838 0 56.27890838 24.696261 56.27890838 55.372787v99.85352h-112.557817v-99.85352c0-30.676526 25.100496-55.372787 56.27890862-55.372787z" fill="#fcef3c" stroke="#000"/><path d="m-68.29058 115.5881h35.55602v25.38876h-35.55602zm78.832787-26.782486 4.627725-28.608356h-30.340327l4.627725 28.608356zm57.747911 26.782486h-35.556021v25.38876h35.556021z" fill="#fcef3c" stroke="#000"/><path d="m-.00019838 87.101963c18.13549538 0 32.73561038 14.446797 32.73561038 32.391927v99.0061h-65.471287v-99.0061c0-17.94513 14.600183-32.391927 32.73567662-32.391927z" stroke="#313131"/></g><g fill="#fcef3c" stroke="#000" stroke-width=".457404" transform="matrix(6.5768363 0 0 6.540727 5219.5803 182.20791)"><g stroke-linecap="round" stroke-width=".457404"><path d="m-515.88086 260.82227v7.74609l2.17774.58398 2.05468 1.18555h36.03321l2.05468-1.18555 2.17969-.58398v-7.74609h-6.5v3.5h-3v-3.5h-6.5v3.5h-3v-3.5h-6.5v3.5h-3v-3.5h-6.5v3.5h-3v-3.5z" transform="translate(-300 -300)"/><path d="m-508.21484 233.38477v6.85937h1.33984l2.67383.94922h21.14062l2.67383-.94922h1.33984v-6.85937h-5.41796v3.5h-2.5v-3.5h-5.41602v3.5h-2.5v-3.5h-5.41602v3.5h-2.5v-3.5z" transform="translate(-300 -300)"/><path d="m-815.8809-32.4375h44.50004m-44.5 1.00586h44.5m-35.49414-28.32422h26.48828m-27.82812-1.03768h29.16796"/></g><g stroke-linecap="butt" stroke-width=".343053"><path d="m-781.75586-63.11523v2.32169m-7.91699-2.32169v2.32169m-7.91602-2.32169v2.32169m-7.91699-2.32169v2.32169m2.70898-2.32169h-5.41796m7.91796 0h5.41602m2.5 0h5.41602m2.5 0h5.41796"/><path d="m-774.63086-35.677729v3.240229m-3.25-3.24023h6.5m-12.75.000001v3.240229m-3.25-3.24023h6.5m-12.75.000001v3.240229m-3.25-3.24023h6.5m-12.75.000001v3.240229m-3.25-3.24023h6.5m-12.75.000001v3.240229m-3.25-3.24023h6.5"/></g></g></g></g><path d="m-298.5-298.50003h597v258.543296c0 286.247934-298.5 398.456734-298.5 398.456734s-298.5-112.2088-298.5-398.456734z" fill="url(#a)"/><path d="m-298.5-298.50001h597v258.502973c0 286.203287-298.5 398.394577-298.5 398.394577s-298.5-112.19129-298.5-398.394577z" fill="none" stroke="#000" stroke-width="3"/></svg>