<svg height="660" width="600" xmlns="http://www.w3.org/2000/svg" xmlns:xlink="http://www.w3.org/1999/xlink"><radialGradient id="a" cx="221.44487" cy="226.33101" gradientTransform="matrix(1.353218 0 0 1.348928 -77.62935 -85.74693)" gradientUnits="userSpaceOnUse" r="300"><stop offset="0" stop-color="#fff" stop-opacity=".313726"/><stop offset=".19" stop-color="#fff" stop-opacity=".25098"/><stop offset=".60000002" stop-color="#6b6b6b" stop-opacity=".12549"/><stop offset="1" stop-opacity=".12549"/></radialGradient><path d="m300 658.5s298.50001-112.32031 298.50001-397.77183c0-285.451524 0-258.5516935 0-258.5516935h-597.00001v258.5516935c0 285.45152 298.5 397.77183 298.5 397.77183z" fill="#fcef3c" fill-rule="evenodd"/><g><g id="b" stroke="#000" stroke-linecap="round" stroke-linejoin="round" stroke-width="2.191152" transform="matrix(1.36916 0 0 1.369126 15.837167 60.821437)"><g stroke="#000" stroke-linecap="round" stroke-linejoin="round" stroke-width="10.847071" transform="matrix(.202004 0 0 .202004 3.621935 3.232137)"><path d="m958.88576 534.1952c-40.54073-21.54852-104.77318-67.72747-143.03374-120.5867l-175.12005 5.21515-17.82267 54.3696 161.22812 82.71661c79.36589-16.12051 128.41899-30.4103 174.74834-21.71466z" style="fill:#e20909;fill-rule:evenodd;stroke:#000;stroke-width:10.847071;stroke-linecap:round;stroke-linejoin:round"/><path d="m477.11695 861.46416c8.61879-45.09552 33.77536-120.09852 72.98235-172.25964l-56.68485-165.77411-57.20794-.9762-31.42867 178.46226c38.83377 71.06866 66.96894 113.71625 72.33911 160.54769z" style="fill:#e20909;fill-rule:evenodd;stroke:#000;stroke-width:10.847071;stroke-linecap:round;stroke-linejoin:round"/><path d="m-6.4972249 543.54344c45.7479499-3.87492 124.7574449.10031 185.5660649 23.77056l144.31717-99.3317-14.50356-55.34752-180.32083 17.91477c-57.946786 56.57726-91.415814 95.18075-135.0588449 112.99389z" style="fill:#e20909;fill-rule:evenodd;stroke:#000;stroke-width:10.847071;stroke-linecap:round;stroke-linejoin:round"/><path d="m783.0214-3.3986519c-37.81398 26.0382999-108.40781 61.7428089-172.95415 71.3208449l-76.1178 157.798327 40.02738 40.88411 147.7391-104.92709c22.28993-77.858692 32.22751-127.975057 61.30547-165.0761919z" style="fill:#e20909;fill-rule:evenodd;stroke:#000;stroke-width:10.847071;stroke-linecap:round;stroke-linejoin:round"/><path d="m173.93747 1.1991465c20.86309 40.8976905 47.01726 115.5586635 48.06167 180.8034235l146.47366 96.12334 45.77302-34.32976-84.68008-160.205569c-74.26997-32.292216-122.65375-48.706082-155.62827-82.3914345z" style="fill:#e20909;fill-rule:evenodd;stroke:#000;stroke-width:10.847071;stroke-linecap:round;stroke-linejoin:round"/></g><g stroke="#000" stroke-linecap="round" stroke-linejoin="round" stroke-width="10.847071" transform="matrix(.202004 0 0 .202004 3.621935 3.232137)"><path d="m375.28848 14.554492c-32.68555-.297633-59.35298 14.4826-75.1875 56.3125-6.98854 36.771168-9.94172 71.537708 6.75 96.468748 60.61571 96.8638 92.60378 132.06808 132.34375 183.96875 10.67129-56.29926 23.002-102.66097 27.5-196 4.49799 93.33922 16.8287 139.70069 27.5 196 44.96789-60.90147 90.6839-121.42888 132.375-183.96875 16.69169-24.93104 13.70729-59.69758 6.71875-96.468748-19.48867-51.482954-55.37945-61.9874034-98.71875-53.84375-23.69573 6.379625-40.85136 16.454864-67.28125 15.71875l-.0533.0037h-1.09375l-.009-.0037c-26.42989.736114-43.61673-9.339125-67.3125-15.71875-8.12612-1.526935-15.98843-2.400066-23.53125-2.46875z" style="fill:#e20909;fill-rule:evenodd;stroke:#000;stroke-width:10.847071;stroke-linecap:round;stroke-linejoin:round"/><path d="m466.69473 155.30449c-4.498 93.33903-16.82871 139.70074-27.5 196-.15558-.20319-.31341-.39107-.46875-.59375l.0625 1.1875h54.96875l.125-2.21875c-10.5988-55.56771-22.73313-101.94102-27.1875-194.375z" style="fill:#e20909;fill-rule:evenodd;stroke:#000;stroke-width:10.847071;stroke-linecap:round;stroke-linejoin:round"/><path d="m82.133441 367.21177c-9.933372 31.14103-3.684247 60.98322 31.606999 88.46054 33.06936 17.5322 65.4147 30.61709 94.16217 22.02907 110.44115-29.31944 153.51962-49.48938 214.8388-72.13685-50.63998-26.81565-91.29543-52.28313-179.14687-84.13501 90.5073 23.25686 138.44274 25.16191 195.38326 31.58614-44.9125-60.94239-89.24676-122.48914-136.69197-180.78444-18.89246-23.30763-52.99061-30.71956-90.18611-34.89757-54.94175 3.42201-75.57327 34.61229-80.58661 78.42419-.89984 24.52302 3.66193 43.88837-4.84367 68.92308l-.0122.0521-.32288 1.045-.006.008c-7.09898 25.46933-21.79888 38.91594-34.889352 59.67237-3.857773 7.31321-7.013001 14.56737-9.305317 21.75376z" style="fill:#e20909;fill-rule:evenodd;stroke:#000;stroke-width:10.847071;stroke-linecap:round;stroke-linejoin:round"/><path d="m243.59454 321.42952c87.85144 31.85188 128.50689 57.31936 179.14687 84.13501-.24006.0887-.46616.18399-.70566.27258l1.15302.29084 16.22716-52.51901-2.08296-.77442c-56.22012-6.27752-104.1089-8.3737-193.73843-31.405z" style="fill:#e20909;fill-rule:evenodd;stroke:#000;stroke-width:10.847071;stroke-linecap:round;stroke-linejoin:round"/><path d="m768.51025 631.01874c26.09276-19.68757 38.22395-47.65969 25.27925-90.47213-16.87377-33.41007-35.72463-62.77122-64.15366-72.36074-107.09629-39.84003-153.91351-48.24972-217.05332-65.17023 25.85765 51.13571 44.34236 95.40497 97.67148 172.14087-60.46077-71.25254-98.49558-100.48921-141.27251-138.61557 1.47444 75.68962 2.1278 151.53873 7.19859 226.52981 1.96447 29.93842 25.52232 55.68031 53.47636 80.57064 46.83105 28.93356 81.68632 15.38366 111.0794-17.4897 14.89599-19.50118 22.35468-37.94551 43.75557-53.47233l.04-.0355.86707-.6667.01-.003c20.50349-16.69392 40.26966-19.18307 62.94309-28.56943 7.3727-3.74281 14.13773-7.84312 20.15914-12.3864z" style="fill:#e20909;fill-rule:evenodd;stroke:#000;stroke-width:10.847071;stroke-linecap:round;stroke-linejoin:round"/><path d="m610.254 575.15651c-53.32912-76.7359-71.81383-121.00516-97.67148-172.14087.24719.0662.48683.11898.73352.18497l-.77338-.90329-43.57626 33.50625 1.25335 1.8351c42.27351 37.59057 80.15985 66.95634 140.03425 137.51784z" style="fill:#e20909;fill-rule:evenodd;stroke:#000;stroke-width:10.847071;stroke-linecap:round;stroke-linejoin:round"/><path d="m333.06752 750.21685c26.96168 18.47981 57.33934 21.08854 93.81509-4.79573 26.31205-26.62022 48.15668-53.82771 48.21035-83.83051 3.72434-114.20598-3.18669-161.26784-7.21784-226.51123-40.26182 40.77343-76.35749 72.37343-132.1574 147.332 48.33371-79.9769 63.96125-125.33344 86.5096-178.01232-71.29385 25.46162-142.99995 50.19546-212.48813 78.84475-27.76057 11.38074-44.67725 41.90035-59.38888 76.31733-12.54361 53.60004 11.38466 82.33905 51.89728 99.75584 23.22521 7.92322 43.08391 9.13099 64.60904 24.48517l.0464.0267.90777.61012.006.008c22.34637 14.13228 30.99055 32.08156 47.09839 50.59446 5.89259 5.80024 11.93094 10.91069 18.15286 15.17526z" style="fill:#e20909;fill-rule:evenodd;stroke:#000;stroke-width:10.847071;stroke-linecap:round;stroke-linejoin:round"/><path d="m335.71772 582.41138c55.79991-74.95857 91.89558-106.55857 132.1574-147.332.0158.25543.042.4994.0578.75427l.61054-1.02044-45.62186-30.66289-1.34142 1.77175c-22.20042 52.03124-37.99756 97.28805-85.8625 176.48931z" style="fill:#e20909;fill-rule:evenodd;stroke:#000;stroke-width:10.847071;stroke-linecap:round;stroke-linejoin:round"/><path d="m795.29394 182.52692c-10.18093-31.06091-32.71989-51.59383-77.41745-53.20506-37.07336 5.14995-70.95582 13.48121-89.23184 37.27524-72.36325 88.43299-95.47545 130.00702-131.92402 184.26969 56.75276-7.91208 104.62207-11.07096 194.48945-36.68822-86.98787 34.13994-126.96264 60.66248-176.88351 88.79412 72.09142 23.10663 144.06793 47.04176 216.66261 66.51956 28.96231 7.83275 60.94411-6.12366 93.54329-24.51521 42.53544-34.94328 40.99822-72.30805 19.40983-110.75999-13.62912-20.40669-28.66586-33.43442-36.42889-58.70921l-.0206-.0494-.35012-1.03619.00061-.01c-9.1578-24.80351-5.11436-44.31114-6.65564-68.80221-1.15465-8.18731-2.84425-15.9154-5.1937-23.0833z" style="fill:#e20909;fill-rule:evenodd;stroke:#000;stroke-width:10.847071;stroke-linecap:round;stroke-linejoin:round"/><path d="m469.4375 156.21875c-4.498 93.33903-16.82871 139.70074-27.5 196-.15558-.20319-.31341-.39107-.46875-.59375l.0625 1.1875h54.96875l.125-2.21875c-10.5988-55.56771-22.73313-101.94102-27.1875-194.375z" style="fill:#e20909;fill-rule:evenodd;stroke:#000;stroke-width:10.847081;stroke-linecap:round;stroke-linejoin:round" transform="matrix(.320108 .94738 -.94738 .320108 688.9379 -180.564)"/></g><path d="m614.68782 409.418c.0201 71.25566-59.24528 129.03017-132.35978 129.03017-73.11451 0-132.37989-57.77451-132.35979-129.03017-.0201-71.25566 59.24528-129.03017 132.35979-129.03017 73.1145 0 132.37988 57.77451 132.35978 129.03017z" style="fill:#e20909;fill-rule:evenodd;stroke:#000;stroke-width:11.435835;stroke-linecap:round;stroke-linejoin:round" transform="matrix(.191604 0 0 .191604 5.808093 3.468148)"/></g><use id="c" height="100%" stroke-width="1.003075" transform="translate(295 -.35482)" width="100%" xlink:href="#b"/><use height="100%" stroke-width="1.003075" transform="translate(-147.5 290.35482)" width="100%" xlink:href="#c"/></g><path d="m300.00001 658.5s298.5-112.32031 298.5-397.77183c0-285.451504 0-258.5516835 0-258.5516835h-597.00001v258.5516835c0 285.45152 298.50001 397.77183 298.50001 397.77183z" fill="url(#a)" fill-rule="evenodd"/><path d="m299.99999 658.39715s-298.49999-112.41841-298.49999-398.11925c0-285.700818 0-258.7775027 0-258.7775027h596.99999v258.7775027c0 285.70084-298.5 398.11925-298.5 398.11925z" fill="none" stroke="#000" stroke-width="3"/></svg>