<svg height="660" viewBox="0 0 600 660" width="600" xmlns="http://www.w3.org/2000/svg" xmlns:xlink="http://www.w3.org/1999/xlink"><defs><radialGradient id="a" cx="-80" cy="-80" gradientUnits="userSpaceOnUse" r="405"><stop offset="0" stop-color="#fff" stop-opacity=".31"/><stop offset=".19" stop-color="#fff" stop-opacity=".25"/><stop offset=".6" stop-color="#6b6b6b" stop-opacity=".125"/><stop offset="1" stop-opacity=".125"/></radialGradient><path id="b" d="m-298.5-298.5h597v258.5c0 286.31-298.5 398.5-298.5 398.5s-298.5-112.19-298.5-398.5z"/></defs><g transform="translate(300 300)"><g><use fill="#e20909" height="660" width="600" xlink:href="#b"/><g transform="translate(-300 -300)"><path d="m1.5 1.5h597v180h-597z" fill="#2b5df2" stroke="#000" stroke-width="3"/><g id="c" fill="#fcef3c" stroke="#000" stroke-width="1.317374" transform="matrix(1.8965674 0 0 1.8988638 231.18055 6.293681)"><path d="m29.738807 62.945549c-2.689943 6.351213-6.015432 8.922247-9.243665 12.043068 3.618431.01652 7.225043-.678341 10.962762-3.813951.06366 9.674934 1.458013 12.982212 4.819106 16.232778 3.322963-3.148967 4.858497-6.547149 4.847287-16.232778 3.737718 3.135613 7.334938 3.830472 10.953368 3.813951-3.227999-3.120592-6.544434-5.692883-9.234271-12.043068z" fill="#fcef3c" fill-rule="evenodd" stroke="#000" stroke-width="1.317374"/><path d="m21.706974 58.178268h29.158859v4.771534h-29.158859z" fill="#fcef3c" stroke="#000" stroke-width="1.317374"/><path d="m126.28125 7.9375c-34.941678 37.094566-48.391726 79.825556-20.625 133.34375 6.34161 16.25846 11.33844 33.04455 10.3125 52.25h20.625c-1.02594-19.20545 3.97088-35.99154 10.3125-52.25 27.76673-53.518189 14.31668-96.249184-20.625-133.34375z" fill="#fcef3c" fill-rule="evenodd" stroke="#000" stroke-width="4.382379" transform="matrix(.300607 0 0 .300607 -1.678333 0)"/><path d="m52.25 100c-35.235309.84534-58.7273133 60.01799 15.21875 88.875-24.439711-47.87444 20.895745-30.13204 26.875 4.65625h17.53125c-9.67933-70.66082-37.052039-94.072804-59.625-93.53125z" fill="#fcef3c" fill-rule="evenodd" stroke="#000" stroke-width="4.382379" transform="matrix(.300607 0 0 .300607 -1.678333 0)"/><path d="m198.96875 100c-22.30142.41761-48.7644 24.28444-58.25 93.53125h17.5c5.97956-34.78829 51.34596-52.53069 26.90625-4.65625 74.89409-29.22698 49.82147-89.548704 13.84375-88.875z" fill="#fcef3c" fill-rule="evenodd" stroke="#000" stroke-width="4.382379" transform="matrix(.300607 0 0 .300607 -1.678333 0)"/></g><use height="100%" transform="translate(188)" width="100%" xlink:href="#c"/></g><path d="m-298.5-298.5h214.5v202.5h-214.5z" stroke="#313131" stroke-width="3"/></g><g><g fill="#fcef3c" stroke="#313131" stroke-width="1.002076" transform="matrix(.99792852 0 0 .99792756 -.765565 -.500099)"><g stroke="#313131"><path d="m-154.51092-191.25616c18.64231 17.26906 39.94218.0462 20.369-15.31685-26.83551-21.06341-16.23525-36.45255-8.99078-42.65094 11.63923-9.95864 28.05457-16.64653 26.3402-27.79299-2.13184-13.86024-21.17531-8.04539-18.66348 2.96534 2.47205 10.83605.92972 12.30768-2.40909 16.35844-3.95388 4.79704-10.22287 6.20845-14.19369 5.84443 10.3257-6.23064 5.44738-11.24903 3.4089-19.97366-2.6041-11.146 5.27032-15.8671 11.49517-17.69687 12.05798-2.97674 24.25417-.005 27.55188 11.53402 6.29939 24.03218-35.98597 23.46249-32.10935 48.01965.0273-5.00852.28133-8.00361 4.6698-12.01751 12.51836-11.44974 18.95344-6.73029 25.18037-11.69629 3.04484-2.42823 7.10983-3.6853 4.06599-12.03238 7.11221 1.5602 8.795604 7.41958 3.1556 15.95246-5.92971 8.97119-20.60463 6.05329-27.11426 14.59387-6.37925 8.36944-3.21169 12.63976.0783 15.51942-2.36104-3.88545-2.4996-7.78221 3.92106-11.41559 2.69478-1.52499 5.20687-2.32411 11.95691-3.82936 7.60474-1.69586 10.28997-3.55981 9.81077-9.13786 9.7086 5.89358 1.18078 11.89894-7.28869 15.42364-13.67815 5.69239-12.82459 13.01858-9.47707 21.67229-1.19777-17.35103 18.0924-17.01471 23.215016-5.21835-9.386516-6.85828-19.300426-6.23449-19.166226 4.45842l.19523 15.55689c-3.23866 21.60335-27.5069 17.65889-40.38702 5.71664" fill="#fcef3c" stroke-linejoin="round" stroke-width="1.198125"/><path d="m-220.32936-268.14193c-.0877 4.02316.83413 7.75006 5.39391 10.40947 4.78024 2.2738 9.65438.47568 14.56015-3.50286 5.18515-4.09232 11.42222-3.37431 15.36063-2.35977.64834-1.89222-.14745-2.66121.0293-3.92845-5.8874-2.0881-14.45932 1.15266-20.98479 3.78287-6.53322 3.25761-10.8153.52801-14.3592-4.40126z" fill="#e20909" stroke-width="1.198125"/><g fill="#e20909" stroke-width="2.959966" transform="matrix(.42725232 0 0 .38348301 -615.59605 -325.55611)"><path d="m862.66434 472.57685c-7.18866-9.21086-27.08254-8.29297-31.83211 7.08649 6.81598.67893 19.45606-9.60806 19.00566 3.81993 8.30524-.46813 10.70815-4.69329 12.82645-10.90642z"/><path d="m838.45347 505.98699c-7.47872-8.03123-10.06085-3.88509-13.50446 2.24282-8.18721-14.96079-2.0408-21.17433 16.37068-19.90287 2.19608 4.71347 1.02438 12.246-2.86622 17.66005z"/><path d="m847.45864 514.08359c-13.0908 2.80617-16.48158 10.31318-6.39479 24.35174 2.18675-5.86446 4.3566-11.74956 12.53373-10.30266 1.48337-4.79007-.70655-9.68026-6.13894-14.04908z"/><path d="m887.87366 531.87909c2.56107 5.97301-.0896 9.65566-4.85997 11.23926 9.90155 6.85403 22.75417 1.96535 21.23065-13.11248-7.10938-4.02115-11.07534-2.60727-16.37068 1.87322z"/></g><path d="m-185.82181-194.04845c-9.62566 3.0341-11.32423 9.12149-22.77931 11.38557-5.54186 1.09533-9.57495-.0728-20.50137 10.29379-2.75253.53287-4.06238 2.95824-3.9618 4.6632.87271 7.16944 1.45878 9.52274-8.45785 10.89381 1.20815 3.30775 11.92503 2.7267 12.98557-2.18623.16579-.76785 1.43777-5.78387 1.43777-5.78387l-.86826 6.56371 5.69836 5.50118c1.03607 3.79474.30541 6.41008-4.36606 6.39464-5.84564.15558-7.13543 3.63844-10.06086 5.92674-2.8085.19604-6.37752 1.98335-8.19427-.13212 1.50677-3.27498-.61556-3.65521-2.43608-3.92303-.54241 1.98513-2.65055 3.41891-5.69485 4.52305 2.07782 2.31694 3.65534 5.01065 9.87107 4.21109-3.82186 2.31158-7.05789 1.62469-9.95585-.38885.27551-1.93517-2.78946-3.07651-3.33211-2.73048 1.31305 3.04714.17857 5.64741-1.70845 8.11026 4.53194 1.56102 9.57059-.20875 14.42691-.77982l-11.19985 2.18352c1.92356 1.77457 4.46226 2.8753 4.36606 6.86254-.15346 3.75541 4.0672 2.08868 4.60505-1.69446 1.69373-.40624 4.03444-.96809 5.83548-2.67261 1.15153.47581 2.18462-.28833 2.05642 2.02757-1.58969 1.24773-.93283 4.84303 1.17416 3.54757 3.21112-2.27579 4.83087-1.99465 8.39809-1.05211.18394-.83182.83367-1.95708-.35154-2.7889-2.31235-1.26902-1.77089-2.516-1.97557-4.07362 2.91039 1.58908 9.44653 3.6412 16.13533-7.33044.12806 3.47061.31062 6.35337 2.87044 6.22758 1.78982.57507-2.25557 2.27401 9.11224.9012-3.18357-1.0688-6.20062-5.38094-.59652-7.38256 1.75981-1.3711.10157-2.74219-.89643-4.11329 3.80606-.80634 5.13295-2.29204 3.8774-5.59362 2.50491-.8597 3.07677-1.85681 1.02999-3.54757-16.7872-10.21918 10.19317-23.18818 21.42949-22.52005l9.49137-4.99092-6.07446-17.00038z" fill="#fcef3c" stroke-linejoin="round" stroke-width="1.198125"/><g fill="#e20909" stroke-width="2.959966" transform="matrix(.42725232 0 0 .38348301 -615.59605 -325.55611)"><path d="m799.62557 342.68481c-5.85202-4.6246-12.56606-5.82956-20.46323-2.34151-.0568-14.53801 13.62189-18.22227 27.62544-8.89776-1.41176 4.63949-3.06581 9.05723-7.16221 11.23927z"/><path d="m773.27912 370.78297c-3.41812-12.47424.54837-20.0534 16.88225-19.43456 2.93664 3.87117 7.29199 6.56164 3.06941 16.39059-7.78926-5.23928-14.20295-2.92409-19.95166 3.04397z"/><path d="m798.09087 372.89033c4.94474 6.32209 8.19168 12.64417 4.34851 18.96625-8.0006-5.0306-11.15952.0564-8.44118 7.2587-18.4601-5.81065-12.89389-23.61262 4.09267-26.22495z"/><path d="m834.9249 394.66641c5.49448-3.16352 10.53321-2.98894 15.34743-1.17076-5.9787 20.37639-22.70605 14.73454-27.88128 9.13189 4.34416-3.4717 17.50135-2.21641 12.53385-7.96113z"/></g><g fill="#e20909" stroke-width="2.959966" transform="matrix(.42725232 0 0 .38348301 -615.59605 -325.55611)"><path d="m828.01842 186.74001c-13.82092 6.04312-27.24515.56146-24.5559-15.45399 6.56846 4.73535 12.6864 9.13656 16.62641 3.04397 5.68804.2345 9.04674 3.4542 7.92949 12.41002z"/><path d="m802.95095 127.03143c-3.53771-7.42688-11.43787-1.87509-17.39382-2.10737 8.26329-14.80329 18.25373-17.27536 29.92756-7.727-2.03372 6.02605-3.86281 12.31426-12.53374 9.83437z"/><path d="m808.32248 102.67968c6.403.63602 18.50895-6.185901 16.37068 5.61964 4.84368 5.57617 10.07771 4.72105 15.60327-.93661-6.06124-25.405582-27.66409-14.525118-31.97395-4.68303z"/><path d="m852.57445 110.64083c3.55039-8.06777-.0983-10.07821-4.86009-12.878323l7.92962.468303c13.86742.446746 14.36021 8.54552 12.02217 18.26381-7.02272 3.0637-10.62148-2.49185-15.0917-5.85379z"/></g><g fill="#e20909" stroke-width="2.959966" transform="matrix(.42725232 0 0 .38348301 -615.59605 -325.55611)"><path d="m1060.2773 513.61529c3.6468 6.1165.9989 11.12216-2.8137 15.92228-6.0935-6.43073-11.1894 3.57635-16.8823 3.74643-7.3648-9.43735 4.8442-21.8216 19.696-19.66871z"/><path d="m1063.6025 554.12347c.8974-4.80142 1.2422-9.4662-6.9063-16.15644-11.3292 3.05481-18.2681 10.95486-7.4179 22.94682 3.7642-1.82778 5.6547-12.54879 14.3242-6.79038z"/><path d="m1085.3449 552.25025c7.9487-6.46914 14.5938-1.90236 15.859 3.74643-5.9499 4.14821-6.1708 10.25389-3.0694 18.02965-17.1889-2.61037-15.0615-14.87669-12.7896-21.77608z"/><path d="m1127.2947 539.13778c-1.4368 5.24601-.3485 13.89532.9414 18.51731-11.056 1.95717-17.8772-9.84375-18.3353-15.23919 4.6084-5.1165 8.6944-6.89987 17.3939-3.27812z"/></g><path d="m-263.28733-284.21852c-3.60234.91737-3.14954 4.16028.0187 5.02844-.36709 3.46314 3.76497 5.01193 5.3426 6.87725l-6.70578-4.29586c.64087-2.54848-1.30031-2.97849-2.68896-3.85947-1.09672 1.69256-.77915 4.79274-4.83013 3.51852-2.69925 2.44818-1.11448 4.84006 1.0623 5.07322 1.88453.20184 3.49237-.59363 4.43177-2.08657-.23902.96811-1.51841 2.05729.54777 2.75481 2.87581 2.06948 7.11493 3.30129 4.56456 8.71448-2.69479-.51665-7.20257.0206-5.11233 3.40942 2.10404.63032 6.24012.24783 4.69734 4.96411 2.96087 1.61477 4.57302-2.76457 4.91939-5.41782 1.16103 4.16081 4.50859 9.37418 1.80302 11.48658-4.02097 3.13938-2.20003 5.57753-.94614 8.16897 2.98485 6.16888.36887 8.5943-6.81983 4.95943.561 5.14454 10.34052 6.94229 12.50703-.58561 1.23212-4.28095-.54953-6.88451 1.00648-10.12424-1.68391 4.06272 2.86754 7.0185 5.65559 10.2645 2.59517 3.02142.6878 4.56965-1.21166 6.50516 2.23221.47992 5.05777.71887 4.5646 2.3184 2.50826.99596 7.7862.27803 10.32278.64674l2.01363 11.24813c-3.98098 3.06967-10.61533 6.54508-17.22035 9.73428-2.82509 6.37147-18.44761 13.38958-22.68385 7.9416-1.34221-1.72612-1.98346-2.64561-3.43817-1.55896-.32446 1.40614.26766 2.7358-3.08736 4.4186l.81335 1.65016c2.98135 1.0391 5.38614 1.13239 8.05029 1.65017-3.88628-.37829-11.70252-2.63318-12.28709-.006l-.32776.33319c3.96909 2.2057 1.48213 4.4222 1.21167 6.62791 1.65549.40109 3.30737 1.65597 4.96297-.99556l4.43176-.66824c-4.21457 1.37947-5.25297 2.43464-6.7224 3.53216 3.29998 2.6277 1.90895 4.93759 1.07892 7.28251 2.90672.24842 5.01188-.59923 5.8075-4.109 1.74494-1.71774 4.13289-2.35368 5.87783-2.61437 1.8091.54509 5.701-.12732 1.61008 3.73672-3.18472 1.82783-2.24996 3.03252.26558 3.9822 2.68458-1.53997 5.36564-2.44463 8.05023-.77734 2.37513-1.56903 2.23279-3.33296-.31934-7.17342 4.72225.3366 6.84242-.80895 8.76794-2.19566-.004 1.49883.18648 2.95047-1.19509 4.73227 2.68013-.50641 6.46075.24782 6.19567-9.44825.41168 1.86292.4388 3.72585 2.12019 5.58879l2.44836-1.02201c1.78387-1.87485.76447-2.39456.63896-4.26941.38987 1.73962.29132 3.84776 2.42338 4.39622 2.87387.73927 6.62234-.55382 9.52753.8952-1.36641-1.72679-6.11121-2.66535-3.90029-5.41844 2.07296-2.5813-.37258-4.23263-2.63674-4.40434 1.55723.4134 7.58462.42046 9.37125-1.79123 2.37138 4.35719 4.98591 5.74234 7.35724 6.10439-.66614-2.15477-2.08991-1.8615-1.21152-9.00696-2.45386 9.84311 11.01547 5.3883 10.88841 4.9293-10.02223-2.54438-5.90892-7.35883.69718-10.40555 16.17358 6.40372 26.07155 16.99174 22.4577 32.08945-.14859 2.91132 1.92654 3.78156 4.00022 4.66408-3.69341.7253-7.32957.68572-6.0086 8.5099.77651 4.5994-2.95961 6.62199-8.68102 7.69166 1.99197 1.11338 5.81935 2.73413 9.10069 1.14682 4.97108-2.40471 3.36438-12.14355 5.92091-10.21588 6.12418 10.04112 12.22874.62362 27.64075 19.21549-1.86648 1.93 3.03499 7.82274-3.72231 11.26471-6.06135 3.42293-7.82887-1.6066-13.02985-.3273.69137 2.83859.30738 4.82874-1.52706 7.45981 4.67768.78957 9.3481.8621 14.02574-1.65016-4.59386 2.55856-9.79906 3.64915-14.78923 2.94574 2.77895 1.4047 3.45945 5.68946 4.43177 8.59173 2.14112-.89444 4.49354-1.61873 4.6808-4.11857l8.69757-4.66409c-1.97463 2.01769-4.67152 3.61067-5.01274 6.58699 3.47556-1.83026 5.99526-.83329 8.01706 1.63653 1.61405-2.06333-.83441-4.38275 1.67688-5.70875.60711-1.62647 1.94088-3.68037 3.99986-4.71043-2.36535 1.46377-3.3583 4.01251-3.04326 5.60393-.27319-.76794 3.17918-3.9048 9.30578-1.325l.078-3.46067c1.68688-1.20239 3.91798-.34599 4.39864-6.20515 4.17639 3.26545 5.94651 1.68377 8.73079.64097-4.87252-1.03742-6.35189-2.95079-7.81572-5.41415 2.16401-.2084 4.08412-.14113 5.75555-1.96851-4.19839-1.10262-8.47933-4.71295-6.72038-4.07298 5.7775 2.10206 12.59236.39407 14.04224-1.65016-12.3163 2.93276-9.76826-3.69707-14.37422-6.85975 9.31273 7.47033 14.8038-8.73427 18.37448 2.46842 6.88191-.7151 3.20765-9.48452-1.94202-8.23716-14.98042 3.6286-10.28096-1.95547-14.59828-3.01392 15.2291 2.56083 9.73746-9.26237 14.4078-12.22425-4.47388 2.34057-5.35093 5.38386-10.76451 4.5326-3.66824-.54933-8.05139-1.55204-7.46927 5.31869-.79688-5.93833-4.55457-2.41572-6.68923-3.66853-3.25635-3.26986-7.31948-6.39216-8.89041-9.31942-2.16889-4.04159-3.93888-9.38453-1.00712-14.54013-3.09364-1.79259-11.28305-5.19186-9.82146-13.4804-13.43865-4.1281-10.82518-18.57804-12.4747-30.46657l-51.7282-16.5425c-8.7498-8.58523-16.44705-9.74142-25.11333-21.20699-1.98283-2.6233-3.11532-6.45229-.6615-8.49159 2.01825-1.6773 5.06648-3.02729 2.08878-4.31378-1.92543-.56965-3.85085.80133-5.77628-2.3184l-1.8756-.99555c-1.40346-.002-2.18569.77446-2.1578 2.53661 3.09081 3.55055.20454 3.32988 3.08731 9.92822-1.82752-3.95569-4.66953-3.35333-5.58319-7.39162 1.80366-2.2783 3.14489-4.85352-.72422-5.40051-2.85123 2.55886-4.15642 1.01904-5.62692-.10911z" fill="#fcef3c" stroke-linejoin="round" stroke-width="1.198125"/><path d="m-183.16416-191.10637c.0643 4.72929 2.53184 6.27272 2.65755 10.00315l4.81461.64514c-3.95247-.5525-6.87192-.26455-6.90272 2.4742-.1503 2.58911 2.65884 3.22596 5.50502 2.65143 3.47305-10.28735-3.92071-16.37804-6.07446-15.77392z" fill="#fcef3c" stroke-width="1.198125"/><path d="m-138.64954-157.63023c2.63894.96038 6.63247.302 6.73886 4.28908-2.43742 3.27618-.50305 3.67873-.6644 5.45883" fill="#fcef3c" opacity=".98" stroke-width="1.198125"/><path d="m-197.13782-257.70598-2.00701-3.3998-1.95476.60654.70687 2.16698c1.82905.70942 1.70682.42121 3.2549.62628z" fill="#fcef3c" stroke-width="1.198125"/><path d="m-206.13286-268.02819 3.67647-.60044 1.0806 2.88489-2.1281.87578z" fill="#fcef3c" stroke-width="1.198125"/><path d="m-188.48796-270.70611c-.656-1.9274-6.52202-2.25953-9.53513.12904-1.51283 1.19926-9.53703 4.36287-12.57491.84119-.63551-.73673-1.0335-2.03007-1.19948-3.83219-1.71754-1.36242-2.78492-5.34767-.49329-6.30094 2.71786-1.13058 5.48138-1.58951 8.22207-2.38427-.0219-1.36332-1.06688-3.67058.71583-4.07311 4.50432-1.01707 5.08942-2.16058 8.35261-3.37771 1.54652-.57683 5.36932-1.21683 9.48918-.80542 5.53084.93096 16.50022 1.59899 18.88185 4.54896-2.61443 1.19733-10.82545-.43656-11.06692 3.68524 1.50352-4.52981 9.10712-2.27527 14.66485-3.39291 1.11042.91496-3.25666 3.52963-8.1169 4.12068-1.31494.15991-1.21924.45472-2.97066 2.49841.78416-1.26948 3.09007-2.48192 4.07167-2.32376 5.93445.95618 4.85412 4.54724 5.09841 5.59186.60575 2.59031 3.13984 4.5244 8.04311 1.75622-1.92174 2.34149-.38781 5.85029-8.24388 3.74159 4.30738 1.38149 5.4776 8.03947 5.31049 8.79711-.52285 2.37047 3.10785 5.2739 8.2221 4.86788-3.50116 4.63244-7.6589 2.24498-13.46263-.79437 13.02083 5.56388-2.51245 22.95998 8.40607 27.21578-2.47914.42537-4.51449 1.97728-7.62608-.5075-.56338-.44991-1.16209-2.39748-1.17872-4.8293-1.0472 2.34809.98322 5.22123 1.63962 6.36327.94204 1.63906 1.26557 3.51726-.81506 6.32501-4.7571 7.5273 3.18846 5.55076 6.16651 5.26526-.63325 2.08036-15.71601 8.68559-13.78401-8.64296-1.26117 6.82098 3.38373 13.08635-3.38303 17.38527-5.16577 3.19339-3.84767 5.56114-1.10515 7.45501-17.05491-2.0835-8.327-13.39974-8.0842-19.07831-.91771 5.43125-2.96998 10.45717-9.06845 12.02067-7.97189 3.31875-4.28426 9.14656-1.79439 12.2913-3.27157 1.50626-20.721-7.60436-7.39495-18.74869-9.09683 6.12961-6.42736 15.19178-19.06462 18.121-11.51571 2.66925-21.17261-10.69536-6.68973-11.96165-3.54022 2.89336-2.11829 5.01066.84638 4.86788 4.00632-.19295 6.35298-2.99464 6.343-7.63049-.0239-11.08546 8.47968-10.53286 12.15663-11.34429-17.52515 1.35458-16.44368 15.51698-34.19293 10.11135-7.48348-2.27913-10.62783-7.86329-4.78448-14.79347-.87639 4.59483 5.09626 8.65479 9.71408 5.11109 10.91978-8.37977 16.14697-9.79993 24.78955-9.76733-10.82332.0409-24.03394.36627-22.57922-11.43717 1.9528 1.98337 3.09479 2.6957 5.63336 2.85984 4.06062.26257 2.10735-3.412 17.30858-1.65515-13.42501-.60297-20.19584-11.42461-6.22709-13.87662-8.77282 6.79872 3.25272 9.96947 8.75876 7.63049 5.08302-2.15928 7.65917-.86616 9.81821.0297 7.23309 3.00124 16.77183-8.85232 15.72115-10.38662-9.24379 9.45978-9.43158 7.09643-13.6776 7.09989-2.71588-1.54686-3.15144-2.93166-2.8975-6.29257 3.99893 1.1202 6.47015.0602 9.21636-.3635 2.54002-1.77481 5.37721-3.31443 5.9169-5.43718.60157-2.3663-.669-4.26273-1.49632-6.6935z" fill="#fcef3c" stroke-linejoin="round" stroke-width="1.198125"/><path d="m-202.05229-282.08084c3.02928-1.58864 7.31389-1.89519 8.49842 1.66184l.5846.74478-1.09451-.32932c-.59489.46782-1.44473.48179-2.20959.57954l-.89233.0838c-1.14729-.66682-1.70715-1.79772-1.38033-2.65655.56587-1.48697-2.62668-.10768-3.50626-.0841z" fill="#fcef3c" stroke-width=".973481"/></g><path d="m-199.13183-284.90691c-1.44847.4929-1.66569 1.79195-3.17768 2.10916-.65141.0636-1.24171-.0479-1.24171-.0479l-.25367 1.12648s.74922.14587 1.62889.0599c1.78145.0153 2.18562-1.54508 3.51149-2.18106 1.65154-.44393 3.70051-.55833 4.9668.62316 1.26802 1.51555 1.82268 2.79129 2.69287 3.18567 1.26863.57496 2.7416.087 4.11238-.0385l-1.35776-.17516c-1.49217-.31434-2.45371.64835-4.15674-2.49585-1.2931-2.38735-4.57875-2.70099-6.72487-2.16586z" fill="#313131" stroke="none"/></g><g stroke-width="1.001539" transform="matrix(1.5601069 0 0 1.5600921 -.726654 -40.048489)"><g stroke="#000"><g fill="#fcef3c" stroke-width="1.001539" transform="matrix(.99862954 -.05233595 .05233595 .99862954 -303.341616 -31.588125)"><g stroke-width="4.649212" transform="matrix(.332578 -.05665508 .05567359 .3044697 -41.19916 117.0278)"><path d="m831.48787-144.65208 15.46073 49.84341c31.87652-5.46236 63.37112-5.181429 94.09862 6.624894l26.1943-47.250664-24.0233 8.47263c1.6865 8.52156 1.6316 16.17505-2.8937 20.18894-3.8172 3.38619-15.33456.71232-17.69266-8.8877-4.009 8.73528-13.37449 5.82593-17.36034 2.65267-3.5179-2.12198-4.6485-9.21255-1.6326-12.51841l6.8678-7.52504-11.7532-12.79286-14.18977 9.92641 6.44942 10.25457c2.5288 4.0226-.77453 10.34007-3.58081 12.46432-2.92766 2.21422-11.98178 3.95142-16.52605-6.07866-2.97822 7.44212-15.41207 11.79584-19.27756 9.31651-4.9155-3.15392.25927-21.80203.25927-21.80203z"/><path d="m846.9486-94.80867-2.34007 23.355279c35.96975-8.650999 67.58772-6.189965 95.16243 5.4458l1.27626-22.176185c-34.81829-12.283254-64.68044-10.991178-94.09862-6.624894z"/></g><g stroke-width="5.830362"><ellipse cx="837.28265" cy="40.385532" rx="6.171617" ry="6.092493" transform="matrix(.2427615 -.02551523 .02843128 .2705053 54.627196 38.331789)"/><ellipse cx="837.28265" cy="40.385532" rx="6.171617" ry="6.092493" transform="matrix(.2427615 -.02551523 .02843128 .2705053 37.223048 40.161037)"/></g></g><path d="m-9.9428539 24.970844c-9.8683121 9.595585-13.5771431 14.66744-1.2074391 21.216792-15.29382-1.713506-12.59522-9.834939-11.643333-20.315433-13.50617 11.565561-3.320418 9.788431-11.126388 23.010551-.739129-8.662846-3.659167-6.889198-10.037409-13.95873-.05771 8.358627-5.987506 11.625374-10.4942 15.734866-5.919915-2.438033-2.441115-5.211203-8.011487-6.523507-4.186419 7.508764-15.677328 8.00738-24.475706-10.630042-5.273877 10.708437-20.686664 13.100663-21.214674 17.956811-8.72582-4.21154-10.13748-.629696-16.68033-17.750579-8.82933 7.883225-8.07129 8.706399-6.96248 19.182073-11.47251-8.543294-26.87696-3.13308-31.78935.691285 8.25878.5597 15.09599 12.338429 13.86808 18.319589-.58948 2.871423-14.0319 1.419743-12.56761 13.882768 8.36876-5.248297 20.65044 3.79326 23.64111 3.985708-5.79707 5.243722-7.81999 12.472734-19.00783 8.988867 6.93628 14.443287 33.94788-8.190882 46.13352 10.789157-5.34744 7.25443-26.37777 6.9222-31.6506 5.79053 14.09759 19.88149 36.31667 9.36591 40.94458 12.72244 3.446633 5.8609-2.84483 10.89497-22.34539 3.66632 4.72774 7.5888 9.71306 13.98534 20.82376 12.31299-2.87557 7.47333-15.51221.4709-20.9691 15.58 25.471931-7.47415 22.55194 2.01272 39.353198-4.59981-3.757175 6.65236-5.586949 11.36311-14.343388 14.43648 10.742717 8.8142 22.077777-8.5995 30.642824-13.91372-7.439234 5.64879-1.001528 17.01854-14.397807 23.82529 22.358484 4.57415 19.762137-12.6614 31.337373-25.82429-4.837883 23.45534 10.932426 12.6753 8.93184 31.38235 14.200944-9.64876 3.53575-16.87949 9.004064-24.68086 18.129233 7.55332 6.041605 17.69355 28.8328958 27.87226-.6416936-15.08084 4.45500321-18.57514 12.8074669-5.26047-5.0296252-9.75662 15.2561203-11.04177-1.9678915-26.02941 7.9694518 4.52793 15.2906938 6.26955 16.9316558 19.74082 1.034317 8.49102 7.800817 9.28949 10.501993 11.53842-9.220834-11.9247 3.020265-16.60829-3.66833-29.01119 11.283784 5.05092.874622 22.31011 25.280235 21.47325-11.799168-7.14065-8.111398-15.49229-11.112177-20.07833 15.67115 10.6385 25.080873 24.98553 44.818206 17.36797-12.575426-.25027-24.186052-24.49208-1.428902-15.24471 4.768869 1.93782 5.71698 10.3349 18.644214 7.07833-6.332691-11.5154 2.89423-9.62939-4.39039-19.2093 9.18451 7.74549 19.83611-4.88585 17.69184 9.41245 4.48803 1.16704 9.85832-4.06024 9.23427-11.11476-.84642-9.57135-11.39193-9.83532-9.93696-11.47539 3.39697.1027 14.86824-6.32178 17.66958 1.26142 7.63998-6.71242-6.43062-11.2507 5.104-14.15378 11.54504-2.90572 12.18398-4.40786 14.70609-13.07597-17.6665 12.89703-17.08272-1.66842-28.5726-1.82289 15.44701-3.60769 16.655 7.81433 30.25806-8.14719-13.9036 1.87783-29.09721-3.284847-33.16308-10.738878 16.2518 7.384473 23.32679 5.83493 31.62418-5.669824-14.48045 2.386405-17.58841-7.176689-37.98554-6.271307 34.59144-.329456 28.25649-14.577436 34.8399-14.146117-3.62931-5.390608-14.86034.796565-14.86034.796565 13.386-13.448613 17.08762-8.777405 20.29153-3.174785 0 0 1.7863-11.015915-7.32487-11.401119-3.47438-.146878-11.53449 2.685656-16.06837 6.630581-7.10452 6.181623-17.38037 10.940331-19.3775 11.462951 24.67831-10.553757 10.60542-17.554233 30.91989-29.567188.18411-1.107149-15.10138-1.775816-18.78011.6427-14.24271 9.363605-1.72722 13.621692-22.55995 19.815312 4.06825-6.6773 9.56473-10.430553 8.19509-17.150793-1.41753-6.955161-.27809-14.001573 2.93653-19.093422-13.21018 5.089621-14.89187 11.10231-17.092265 18.260737-1.917347 6.237323-7.223042 4.775281-14.122244 10.154184-7.528621-8.727859 11.283262-14.365486 3.610717-25.169-5.537404 8.687977-16.262166 14.420576-24.001298 11.146988 6.651983-7.081114-.763699-9.423287 7.770291-19.716061-18.948695 4.747484-28.874373 24.39281-37.749097 7.511264-4.431333 6.695594-9.754126 4.842726-11.978289 11.631738-4.155031-3.319235-6.290316-10.479631-3.601513-15.086305-11.3173239 4.277648-7.057496 19.505194-12.6638667 23.019284 2.3902003-10.498048-.6186828-13.982998-5.81633611-17.64569.85582131 3.865088 1.26535641 7.700369-2.24872619 10.613999-5.7386616-1.173007-7.4745454-7.450944-7.9538467-13.255237z" fill="#fcef3c" stroke-linecap="round" stroke-linejoin="round" stroke-width="2.003077"/><path d="m-23.18256 59.294864s-18.599668 1.06211-22.515673-2.913567c-3.799525-3.857428-6.607159-2.262588-8.129791-.35437-4.777989 5.987935-16.257368 15.851131-16.257368 15.851131" fill="#fff" stroke-linecap="round" stroke-linejoin="round" stroke-width="2.003077"/><g fill="#fff" stroke-linecap="round" stroke-linejoin="round" stroke-width="2.003078" transform="matrix(.98162718 -.19080903 .19080903 .98162718 -344.889948 -186.679006)"><path d="m291.44441 252.56866s14.37028-10.18411 32.43653-1.32368c9.59861 4.70755 20.55679 5.92325 30.35828 4.81626 7.67425-.86674 21.15097-3.99714 26.87671 7.45433-16.12505-7.63905-24.15559 1.85857-32.03476-.79723l-14.99633 4.57715-5.93045 1.07329-19.94024-11.72415c5.50162 6.29464 1.37125 9.4654-1.86331 12.92668.63476-10.10376-5.54943-13.94171-15.47088-13.43857"/><path d="m307.6013 256.34716c9.32171 2.52116 9.43049 16.91591 21.49862 20.33886.7691-2.70489-.88616-5.2233-2.28329-7.76156 4.61192 2.59059 8.98689 5.46552 12.3141 9.59776 3.3802-14.09949-15.78887-11.63717-25.24078-23.80544"/><path d="m328.5953 257.23746c11.48215 7.29123 25.90468-1.16691 27.25083 17.37227-7.90683-11.60293-14.47667-5.18776-21.35744-7.42899"/></g><path d="m-119.55939 81.81153c-5.98086 12.878675 6.80375 5.923476 10.414 6.974562 18.01019 5.243491 29.20046-2.603295 27.292376-4.732165l-6.456053-17.764016s-10.123962 2.061285-14.207993.816786c-2.63123-.801794-4.655-4.803619-7.30485-5.541567-3.31399-.922899-8.36915 1.610829-10.5559 4.266453-3.64397 4.425282 3.23294 10.780734.81842 15.979947z" fill="#fff" stroke-linecap="round" stroke-linejoin="round" stroke-width="2.003077"/><path d="m-22.759044 144.89145c-5.728191 7.65419-14.378343 10.2247-19.03641 7.45767-3.352327-1.99137-3.211151-5.62133-1.285515-8.74094-5.455973 5.22753-13.089375-1.05702-19.697736-1.92218 1.290127-1.1949 1.278387-2.90432 5.200656-3.05894 0 0 7.142509.0591 10.100841-.62332 2.782026-.64173 5.941559-3.5673 8.795868-3.63388 1.113924-.026 3.495059 1.25659 3.495059 1.25659 3.025039-3.95374 4.773237-3.67877 6.778152-4.254" fill="#fff" stroke-linecap="round" stroke-linejoin="round" stroke-width="2.003077"/><path d="m-5.7015046 133.82081c13.1825566.11902 11.3169339 17.2295 1.0856484 17.87946-32.0132808 2.03371-35.3491858-50.95225 12.1912457-42.20887 18.0233755 3.31476 24.5364455 9.56502 40.2319855 13.40577 42.480095 10.39502 59.192915-21.94402-1.958838-31.468082-11.994497-1.868079-24.670613-1.840307-46.54303465 10.211332-44.79905035 24.68413-100.37061235 5.73193-103.46219235-37.056509-.65728-9.097071-2.9838-32.918751 25.026347-49.290104 1.887722-1.103334 6.596938-7.7920922 8.687323-8.9237375 5.709469-3.0908747 11.933667-7.7195728 15.503925-9.5057684 2.149551-1.075418 6.614956-1.3342385 8.064024-.8816709 5.102983 1.5937604 17.510937.6268466 33.543528.1594256 3.3816557-.098586 4.2168405 1.799014 5.1085215 3.32878006.7870004 1.35017623.5659548 3.29606634-1.9083605 5.84966424-.513081.529523-1.434211.4726685-2.151322.7090081l.09688 2.5954631c1.41332.1791227 3.7096842-1.2596135 4.2250903.671926.6991351 2.6200767-2.8682233 5.1284177-9.3617793 7.9359717-5.431002 2.348148-27.669182 7.875296-45.13812 20.941184-1.251197.93584-4.353286 1.756728-7.630099 2.077151-3.554708.347636-3.822188 2.231597-4.615995 3.788968-4.244923 12.052443 3.559001 20.368341 12.303585 21.577873 8.173942 1.130596 18.134658-.301638 25.334502-5.080822 14.799356-9.823681 23.993591-11.151323 33.6119808-11.663871 7.0360919-.370516 12.7572992-1.112104 19.1502632-2.8472 2.002301-.54349 4.19374-2.041838 5.778862-3.890716 7.764182-9.056115 15.01777-4.999982 19.189044-3.892177 7.739364 2.055432 17.075687 11.898223 26.973629 13.654363 77.170121 13.760332 75.246371 117.472708-19.88294 94.179468-18.553683-4.54303-41.2385992-21.55124-54.4028172-17.63428-4.9258138 1.46566-4.3023978 1.39181-2.9132176 3.87936l3.8623332 1.49864z" fill="#fff" stroke-linecap="round" stroke-linejoin="round" stroke-width="2.003077"/><path d="m-35.068596 135.47393c-1.616854 3.3634 1.535149 5.76735 3.12213 7.42051" fill="#fff" stroke-linecap="round" stroke-linejoin="round" stroke-width="1.502308"/><path d="m69.99552 68.303661c-4.192608-4.287074-5.448933-6.867909-14.553163-9.276769-13.10225-3.466686-22.952665-4.573106-29.265899 7.676683-5.805117 11.263892-6.544789 8.968724-3.658328 22.682076 1.453931 8.987 6.020976 10.09715 10.592993 11.194709l1.285536 4.16661 8.791952 6.38232c17.346991 1.98336 23.99784-1.69373 26.477383-17.926892-.466236-4.560358-4.162278-3.645877-6.864991-4.415168l1.107051-4.067684" fill="#fff" stroke-linecap="round" stroke-linejoin="round" stroke-width="2.003077"/><path d="m53.046606 105.45671c-7.716195 4.48391-8.724501 7.29176-11.701788 12.79447-2.319183 4.28637-6.716213 3.88712-10.035064-.63722l-14.925718-14.73422c1.451658-9.796316 11.113281-.53947 16.727087-2.29938" fill="#fff" stroke-linecap="round" stroke-linejoin="round" stroke-width="1.502308"/><path d="m-37.675022 92.850153c-.490821-4.59583-6.197969-4.606631-10.206297-8.013235-3.74306-3.181156-23.544427-4.387464-23.483861 4.233603-.338672 6.536762-5.299901 9.301934-.748143 17.281979 4.506075 7.89997 9.086516 8.61296 13.629769 12.91944-2.772004-1.78595-4.463165-4.36358-13.69307-7.0877-6.55874-1.93576-9.653439 2.87526-8.706441 4.63068l12.374866 22.57644c6.441367 6.30601 11.284694-6.69995 16.182389-4.45503 5.477089-1.2354 11.096515-.84377 16.420407-3.83023 4.983733-1.79899 5.43321-8.01721 4.141203-11.59403-3.020103-8.3609-3.969417-11.87669-5.872224-16.61001" fill="#fff" stroke-linecap="round" stroke-linejoin="round" stroke-width="2.003077"/><path d="m-76.112229 121.91901c.05407-3.31497 1.687514-7.30837-4.976973-6.37725-14.850063 2.07475-16.370817 15.22607-12.713586 27.25825 3.8293-7.13334 5.104274-14.4291 17.690559-20.881z" fill="#fff" stroke-linecap="round" stroke-linejoin="round" stroke-width="2.003077"/><g fill="#fff" stroke-linecap="round" stroke-linejoin="round" stroke-width="1.610535" transform="matrix(.98623275 -.08628418 .08715574 .9961947 -305.06449 -220.83119)"><path d="m200.9375 258.78125c-1.15635 1.19086-1.12836 3.09365.0625 4.25s2.59933.55166 3.75568-.6392c2.69382-5.67861 10.95693-16.72367-3.81818-3.6108z"/><path d="m200.625 260.875-4.78125 4.90625c-.63221.89292-.72825 2.05918-.25064 3.0435.47762.98431 1.45317 1.63061 2.5458 1.68659 1.09264.056 2.12913-.48724 2.70484-1.41759 1.20159-2.41759.92272-5.5095 2.49617-6.65874-.54035-.98844-1.58885-1.59091-2.71492-1.56001z"/><path d="m196.78125 267.34375-4.71875 5.84375c-.49166.97702-.41269 2.14419.2061 3.04608s1.67933 1.39559 2.76783 1.28847 2.03246-.79809 2.46357-1.8033c.59193-2.72533 1.30876-5.41107 1.7714-6.93558-.53099-.87233-1.46922-1.41467-2.49015-1.43942z"/><path d="m193.25 275.21875-4.125 7.03125c-.44873 1.59645.48168 3.25439 2.07812 3.70313 1.59645.44873 3.2544-.48168 3.70313-2.07813-.44834-3.47581.26376-6.5475.83035-7.5044-.59486-.76217-1.52056-1.19098-2.4866-1.15185z"/><path d="m191.1875 284-3.21875 7.84375c-.11218 1.65685 1.14002 3.09094 2.79687 3.20313 1.65686.11218 3.09095-1.14003 3.20313-2.79688-1.33427-2.71431-1.04392-5.43683-.48317-7.33229-.59833-.62226-1.4357-.95666-2.29808-.91771z"/><path d="m191.0625 293.3125c-.89891.0393-1.73272.47995-2.27161 1.20049l.89661 8.42451c.38833 1.61371 2.01129 2.60708 3.625 2.21875s2.60708-2.01129 2.21875-3.625c-2.52304-3.00855-2.91494-6.7168-4.46875-8.21875z"/><path d="m193.9375 302.53125c-1.1195.0544-2.11532.72828-2.58208 1.74728l3.76958 7.62772c.60524.94126 1.68402 1.46747 2.79838 1.36498 1.11436-.10248 2.07907-.81662 2.50248-1.85248.42341-1.03587.23515-2.22128-.48836-3.075-2.41183-1.88554-4.70783-4.29472-6-5.8125z"/><path d="m200.375 309.78125c-1.3331.11169-2.4312 1.09247-2.69217 2.40454l6.25467 5.78296c.94407.60724 2.14814.63671 3.12078.0764.97265-.56034 1.55116-1.61674 1.49941-2.73805-.0517-1.12131-.72508-2.11995-1.74519-2.58833-2.14558-1.0238-4.03468-.85217-6.4375-2.9375z"/><path d="m206.77346 316.72714c1.89939 3.07862 5.50057 2.75365 8.28904 4.05411 1.07608.23349 2.1936-.14123 2.9114-.97623s.92053-1.99611.52816-3.02495c-.39236-1.02884-1.31678-1.76009-2.40831-1.90507l-5.2239-.28812c-2.09988-.16202-3.50589.28233-4.09639 2.14026z"/><path d="m227.3125 314.8125c-.0733.008-.14624.0181-.21875.0312-3.5301.90997-9.40703.21587-9.95313 3.35937-.42914 2.47026 6.6184 1.9257 10.17188 2.60938 1.64031-.0232 2.95787-1.35953 2.95787-3s-1.31756-2.9768-2.95787-3z"/><path d="m238.78125 313.0625c-.16812.007-.33538.0277-.5.0625-3.20579 2.42914-7.42735 1.4784-9.40831 3.12382-.39237 1.02884-.18964 2.18995.52816 3.02495l9.9114-.24252c1.57999-.22464 2.70764-1.64682 2.56616-3.23642s-1.50258-2.79027-3.09741-2.73233z"/><path d="m249.1875 310.5c-.26479.007-.52749.049-.78125.125-2.47199 1.85222-5.55154 2.71893-8.15685 3.62113-.32533 1.08266-.0145 2.25628.80411 3.03595l8.88399-.84458c1.54141-.31006 2.58201-1.75749 2.38497-3.31738s-1.56488-2.70309-3.13497-2.62012z"/><path d="m259.375 307.28125c-.2662.0171-.52894.0697-.78125.15625l-4.91484 2.80391c-1.57919.50914-3.37555 1.27315-2.86641 2.85234s2.20206.96038 3.78125.45124l5.84375-.38874c1.48066-.42488 2.39899-1.90203 2.12485-3.41786s-1.65166-2.57777-3.18735-2.45714z"/><path d="m269.75 303.8125c-.2662.0171-.52894.0697-.78125.15625-3.40988 2.50436-7.26626 3.90085-7.5625 5.6875.5264 1.57919 1.67596 1.68952 3.25515 1.16312l6.2136-1.16312c1.43229-.47271 2.29101-1.93524 2.00588-3.41632s-1.62546-2.52027-3.13088-2.42743z"/><path d="m280.28125 300.65625c-.2662.0171-.52894.0697-.78125.15625-3.53761 3.22893-8.28605 3.40004-8.70313 5.64063.466 1.59644.46563 1.49292 2.06208 1.02693l8.2973-.91756c1.49446-.37671 2.46042-1.82442 2.23456-3.34899-.22586-1.52456-1.57008-2.63002-3.10956-2.55726z"/><path d="m291.25 298.21875c-.0632.0188-.1257.0396-.1875.0625-3.10794 1.67617-7.08205 2.31834-8.96329 3.22472-.38486 1.05064-.15312 2.22815.60117 3.05459l9.51837-.40431c1.6396-.26751 2.75189-1.81353 2.48437-3.45313-.26751-1.63959-1.81352-2.75188-3.45312-2.48437z"/><path d="m302.80034 296.83427c-3.47073.95704-7.53696 1.78689-9.515 2.41528-.4849.99791-.37951 2.18195.27401 3.07853l9.74099.47494c1.11489-.0258 2.12346-.6679 2.61871-1.66709.49524-.99919.39544-2.19062-.25914-3.09348-.65458-.90287-1.75592-1.36819-2.85957-1.20818z"/><path d="m304.27077 300.02709c3.82171 1.74256 7.72406 1.46674 10.63548 2.78541 1.65685.0259 3.02099-1.29627 3.04688-2.95312.0259-1.65686-1.29628-3.02099-2.95313-3.04688-4.24536 1.4609-10.76197.65813-10.72923 3.21459z"/><path d="m316.21323 300.01868c2.32858 2.48229 5.48585 2.47854 8.25552 3.63757 1.64822.18122 3.13128-1.00803 3.3125-2.65625s-1.00803-3.13128-2.65625-3.3125l-5.37672.30391c-2.06726-.0465-2.97532.25223-3.53505 2.02727z"/><path d="m325.6994 301.13087c-.0869 1.5005 1.94479 2.03785 3.42046 2.32324l4.78639 2.01464c1.08572.33753 2.26895.0324 3.05598-.78819.78703-.82054 1.04263-2.01546.66014-3.08617-.38248-1.07071-1.33733-1.83323-2.46612-1.96939-2.21903-.49629-5.36848.12372-7.61087-.16262-2.59266-.36266-2.01501-.87196-1.84598 1.66849z"/><path d="m335.62395 303.31447c-.14591 1.44383-.002.90755 1.3926 1.30794l6.4522 3.65884c1.04271.39502 2.21848.17921 3.05293-.56036.83446-.73957 1.18996-1.88089.92306-2.96351-.26689-1.08261-1.11214-1.92792-2.19474-2.19488l-7.55412-.7322c-2.10341-.55181-1.34279-.33985-2.07193 1.48417z"/><path d="m345.59879 306.52489c-.20124 1.37884-.22291 1.33827 1.07371 1.84863l6.23375 3.62648c1.00572.50749 2.21096.40885 3.12079-.25541.90982-.66426 1.37089-1.78219 1.19385-2.89469-.17703-1.11251-.96232-2.03211-2.03339-2.38115l-5.00831-1.45411c-2.10699-.7366-3.76038-.35537-4.5804 1.51025z"/><path d="m355.19186 310.62165 7.52689 6.25335c.95817.59576 2.16956.6036 3.13536.0203s1.52269-1.65913 1.44137-2.78447c-.0813-1.12535-.7871-2.10993-1.82673-2.54832l-6.07397-1.86867c-2.11122-.92536-3.3201-.97638-4.20292.92782z"/><path d="m366.92286 314.33861c-1.33361.0267-1.69356-.0642-2.04085 1.22367l6.83674 6.81272c1.4066.8802 3.26042.45348 4.14062-.95312.88021-1.40661.45348-3.26043-.95312-4.14063-2.42162-1.24786-5.24217-2.52169-7.98339-2.94264z"/><path d="m375.89161 319.64794c-1.28031.0518-1.5905.5131-1.95739 1.74081l5.72203 6.705c1.32894.99239 3.21074.71956 4.20313-.60937.99238-1.32894.71956-3.21074-.60938-4.20313-2.16684-1.46432-4.9419-2.19847-7.35839-3.63331z"/><path d="m384.25 325.34375c-1.15707.1018-2.15142.8623-2.55266 1.95234l4.11516 6.73516c1.15635 1.19086 3.05914 1.21885 4.25.0625s1.21885-3.05914.0625-4.25c-2.79047-1.67038-6.0136-3.88362-5.875-4.5z"/><path d="m390.84375 332.84375c-1.06028.0727-2.00298.70092-2.47826 1.65149l2.91576 7.34851c.53412.97245 1.5613 1.57076 2.67067 1.55562 1.10938-.0151 2.11985-.64125 2.62724-1.62791.50739-.98667.42887-2.17279-.20416-3.08396-2.63879-1.73847-4.32696-4.12868-5.53125-5.84375z"/><path d="m395.53125 341.03125c-.95218.0283-1.83432.50716-2.37688 1.29016l1.47063 8.30359c.51777 1.57919 2.21769 2.43964 3.79688 1.92188 1.57918-.51777 2.43964-2.21769 1.92187-3.79688-2.31781-2.46093-2.46042-6.11099-4.8125-7.71875z"/><path d="m397.9375 351.40625c-1.5333.17677-1.18781 1.48801-1.16173 3.03125l-1.46327 6.03125c-.009 1.08127.56532 2.08351 1.5022 2.62339.93689.53988 2.0918.53387 3.02301-.0157.93121-.54961 1.49464-1.55778 1.47479-2.6389l-1.15214-5.62637c-.12864-2.01183-.3404-3.29995-2.22286-3.40488z"/><path d="m397.40625 361.5-4.34375 7.28125c-.37427 1.02484-.16269 2.17207.55251 2.99599.71521.82392 1.82132 1.19465 2.88859.96815 1.06727-.22649 1.92747-1.0145 2.2464-2.05789.34392-3.48496 1.64069-6.98492 1.28039-8.04289-.62453-.80117-1.61206-1.23192-2.62414-1.14461z"/><path d="m393.90625 370.28125-5.875 5.59375c-1.04416 1.29442-.84129 3.19021.45313 4.23438 1.29441 1.04416 3.19021.84129 4.23437-.45313.70207-2.70842 3.41314-4.67528 3.97149-7.6972-.51843-1.05706-1.60718-1.7132-2.78399-1.6778z"/><path d="m387.15625 377.34375-5.875 3.09375c-.9609.5275-1.55765 1.53705-1.5565 2.63322.001 1.09617.60002 2.10446 1.56203 2.62994.96201.52547 1.76039.29767 2.68334-.29373 1.98388-2.18596 4.79363-3.26986 6.27886-5.95253-.41156-1.33943-1.69544-2.21562-3.09273-2.11065z"/><path d="m372.5625 383.84375c-1.56193.56091-2.37341 2.28182-1.8125 3.84375s2.28182 1.97711 3.84375 1.4162l5.62214-3.85647c1.41039-.51098 1.16986-1.19252.85447-2.65909z"/><path d="m360.37333 386.81404.61067 5.26301 11.85477-3.78445-1.56811-3.20087z"/><path d="m350.27577 391.61816 10.61313-.0631c.54961-.93121.83584-2.08612.29596-3.02301-.53988-.93688-1.95444-.95972-3.03571-.95114l-6.9976-.6851c-.84047.12523-.0686 2.91775-.87578 4.72232z"/><path d="m336.55657 388.35182 13.71561 2.72912.28046-3.20928-12.39161-3.46609z"/><path d="m326.87808 379.21841-2.52587 3.63231 12.24105 5.14955 1.32622-2.7643z"/><path d="m315.96978 372.28227-2.17427 4.06105 10.75475 5.86885 1.65036-2.69009z"/><path d="m304.97389 366.09512-2.01238 3.69647 10.66138 5.62987 1.56203-2.62994z"/><path d="m293.22389 360.0649-1.5795 3.96094 10.92666 4.85433 1.24306-2.75361z"/><path d="m282.19366 357.34375-.6815 3.96057 10.52577 2.09043.90454-3.00116z"/><path d="m271.53969 358.23815 1.67701 3.85594 8.47868-1.3421-.36755-2.88698z"/><path d="m261.29482 363.36314 2.52145 2.85287 8.57869-4.39975-1.70848-2.64243z"/><path d="m261.05976 363.9667-3.34272 9.19127 3.65727.0876 2.48739-7.35652-2.80194-1.92234z"/><path d="m257.56216 373.68237 1.02277 10.25884 3.7554-1.26056-1.37295-9.54915z"/><path d="m262.36713 383.02782-2.95269.94365 5.19691 7.24676 2.12519-3.0775z"/><path d="m265.53168 391.19822 10.46834 1.98111c1.73455-.70402 3.214-1.4623-.40592-3.30517l-8.57013-1.04145z"/></g><path d="m-76.326706 122.02961c6.604454-1.49432 5.985869 7.51529 3.935908 8.75238-13.833712 8.34828-13.886678 13.09845-15.012043 19.92792-4.618451-2.90831-6.97383-24.59634 11.076135-28.6803z" fill="#fff" stroke-linecap="round" stroke-linejoin="round" stroke-width="2.003077"/><path d="m-76.224475 150.10018c3.002288-1.81705 4.496664-8.10074 11.189886-8.89642 4.281025-.50893.48942-17.4457-6.21695-12.36789-8.504371 6.43917-8.376897 17.02033-4.972936 21.26431z" fill="#fff" opacity=".99" stroke-linecap="round" stroke-linejoin="round" stroke-width="2.003077"/><path d="m-118.86065 67.509568c2.17225-2.504675 5.99044-4.513828.28665-8.084407-12.70944-7.956074-22.3279 1.140896-27.26045 12.708906 7.51864-3.00304 13.18496-7.772371 26.9738-4.624499z" fill="#fff" stroke-linecap="round" stroke-linejoin="round" stroke-width="2.003077"/><path d="m-115.55525 68.01309c6.01984 3.100545-.2453 9.604688-2.61085 9.234681-15.96342-2.496999-19.05734 1.107802-24.30931 5.616097-1.66851-5.196574 10.46796-23.32456 26.92016-14.850778z" fill="#fff" stroke-linecap="round" stroke-linejoin="round" stroke-width="2.003077"/><path d="m-133.32311 90.411443c3.50859-.07247 7.9446-4.767118 14.13893-2.109586 3.96194 1.699772 9.14671-14.863709.79992-13.819385-10.58459 1.324307-15.76477 10.551583-14.93885 15.928971z" fill="#fff" stroke-linecap="round" stroke-linejoin="round" stroke-width="2.003077"/></g><path d="m-59.326728 26.82301c1.81352-3.467603.16606-2.465384 4.774423-6.177505l2.561366-.224091 2.800281-2.031822 2.364339-.206853 1.566404-2.519478 3.007133.332516 1.960459-2.553954 3.778006.06655 2.281493-1.986434 3.328905.304365 2.210473-1.278953 2.843308.04266 2.406226-1.9973469 4.763153-.019651 2.800281-2.0318223 5.679339-.8939487-.51466 2.3618531c-.86912.076038-1.822319 1.4162649-3.016786 1.5207672l-4.0394.3534017-6.243358 3.5242659-1.859445-.829997-2.012172 1.962861-3.255874-.906361-1.763431 2.536716-4.206547-.426126-2.174723 2.374164-4.172071-.03206-2.928357 2.837169-2.578604.02706-2.637729 1.62053-2.150074.386642c-4.951926 2.948027-3.42194 1.161954-5.572358 3.86488z"/><path d="m-60.685826 8.5713506c8.007225-4.3001691 11.263692-2.274089 16.03037-5.1072936 3.43372-2.0409046 8.044723-.9338473 13.979571-2.3086951-3.118257.2261346-12.053725 1.8146065-14.766152-.31727239-2.448536-1.92446921-6.209422-2.13621221-8.112883 1.16675419-1.256404 3.4906057-4.874422 4.8364781-7.130906 6.5665069z" fill="none" stroke="#000" stroke-linecap="round" stroke-linejoin="round" stroke-width="1.502308"/><path d="m-51.923819 1.569688c1.409479.4899904 2.255673 1.1908567 2.673378 2.0521287-1.466618 1.3089552-1.92958.03583-3.638416-.1940195 1.584429 1.097685 3.529221 3.9809268 6.951909-1.2090495-1.050144-.7158179-1.540753-1.88650331-3.171666-1.72664154-1.118434.109595-1.946012.60573114-2.815205 1.07758184z"/><path d="m-72.689034 40.642429s4.067899-4.117238 4.913293-5.636159c1.098902-1.974399 1.661495-5.068034 1.750005-7.32591.116231-2.965043-1.370202-7.853273-1.370202-7.853273" fill="none" stroke="#000" stroke-linecap="round" stroke-linejoin="round" stroke-width="2.003077"/><path d="m22.999659 104.23603c-4.306649-6.553556-9.320778-5.359592-12.630064-1.49895-11.014743 12.84989-8.2707731 25.56538-2.2323433 27.16954 2.8754943-11.68423 7.2063213-21.17888 14.8624073-25.67059z" fill="#fff" stroke="#000" stroke-linecap="round" stroke-linejoin="round" stroke-width="2.003077"/><path d="m22.906469 104.29105c3.289677.48911 7.342797 1.72456 8.088408 7.71412-12.211401 3.87371-11.236387 17.56615-16.584984 20.28812-3.716876-10.63799.242768-19.74759 8.496576-28.00224z" fill="#fff" stroke="#000" stroke-linecap="round" stroke-linejoin="round" stroke-width="2.003077"/><path d="m31.28934 111.70733c-5.255457 2.85089-10.549275 11.21026-4.190244 19.77863 2.552977-4.68274 3.289371-10.88977 10.258877-11.86659.355696-4.28711-.03463-8.05678-6.068633-7.91204z" fill="#fff" stroke="#000" stroke-linecap="round" stroke-linejoin="round" stroke-width="2.003077"/></g></g><use fill="url(#a)" height="660" width="600" xlink:href="#b"/></g><use fill="none" height="660" stroke="#313131" stroke-width="3.000234" transform="matrix(1 0 0 .99984407 300 299.953579)" width="600" xlink:href="#b"/></svg>