<svg height="660" width="600" xmlns="http://www.w3.org/2000/svg" xmlns:xlink="http://www.w3.org/1999/xlink"><radialGradient id="a" cx="221.44487" cy="226.33101" gradientTransform="matrix(1.353218 0 0 1.348928 -77.62935 -85.74693)" gradientUnits="userSpaceOnUse" r="300"><stop offset="0" stop-color="#fff" stop-opacity=".313726"/><stop offset=".19" stop-color="#fff" stop-opacity=".25098"/><stop offset=".60000002" stop-color="#6b6b6b" stop-opacity=".12549"/><stop offset="1" stop-opacity=".12549"/></radialGradient><path d="m300 658.5s298.50001-112.32031 298.50001-397.77183c0-285.451524 0-258.5516935 0-258.5516935h-597.00001v258.5516935c0 285.45152 298.5 397.77183 298.5 397.77183z" fill="#e20909" fill-rule="evenodd"/><g><g stroke="#000" stroke-linecap="round" stroke-linejoin="round"><g stroke-width="2.986212" transform="matrix(1.0046201 0 0 1.0046144 -2.659633 -3.592499)"><circle cx="300.58215" cy="346.04877" fill="#fcef3c" r="129.57262" stroke="#000" stroke-width="2.986212"/><path d="m154.1341 523.06966c40.89306 21.66163 52.09139 40.21639 102.65647 46.67912h91.26985c45.57006-15.67333 68.26601-25.21062 104.86629-49.85373 6.20733-21.54594 16.69574-40.45656-36.61232-51.5873-25.32202-5.50721-50.87887-10.68174-67.46032-28.57143l-10.71428-19.04762h-79.36509c-14.75924 41.52452-29.52976 39.95138-72.27037 48.20019-49.65647 2.55272-33.19568 26.38709-32.37023 54.18077z" fill="#fec3ac" fill-rule="evenodd" stroke="#000" stroke-width="2.986212"/><path d="m256.00254 407.05429c-1.03792 19.76276-15.37553 36.48559 0 60-4.39125-1.63461-10.37532 1.34595-14.00794-1.98413-12.97929-11.89831-13.56307-29.14903-37.02381-48.01587-9.48415-7.62704 6.38168-34.87973 11.66667-54.64286-.56304-3.28267-.13235-9.37716-7.02381-8.96825-2.51823 6.66667 1.43618 12.52584-.59524 17.22222-1.4042 3.24634-7.50676 9.10202-11.03174.75397-.41085-12.37012.78406-19.92295 3.01587-24.36508-2.04834-1.63867 14.94282-27.29283 25-30v-5c0-1.76777-3.75-1.25-5 0s3.04134 4.30075 0 5c-3.89431.89536-7.08286 2.36221-10 5-2.01442-7.75778-3.16771-15.76161 0-25 4.00172-5.39931 7.41321-11.03472 15-15 5.1952-3.15313 13.5871-6.87632 16.62698-4.96032 1.15051.72515 10.5273-26.89081 43.37302-10.03968 11.66667 4.76335 23.33333 2.4865 35 0 14.00663-13.22291 29.43136-2.81061 45 10 11.39899 4.6229 22.88787 9.18586 25 20 3.61493 10.44204 2.70646 18.24544 0 25l-10-10c-4.34558-3.06161-4.1356-.91688-5 0 10.89332 12.13801 20.3531 23.91764 27.02381 35 2.80181 10.67218 1.08207 16.82281.39682 24.00794-5.4999.84983-12.63776 8.17468-13.41269.99206 2.53031-6.66667 2.02598-13.33333.99206-20-4.8933.71718-1.48593 15.78241-5 25 11.85567 11.77523 16.85405 27.18835 10.63492 38.61111-8.34089 15.31983-23.89133 28.51885-34.00794 48.76984-1.80036-3.24066-18.3679 1.23143-17.61904 2.57937 13.77342-18.33333 1.22169-41.62699.99206-59.96032z" fill-rule="evenodd" stroke="#313131" stroke-width="2.986212"/><path d="m270.89315 291.92186 43.94637-.65773c10.35121 6.09838 20.70242 8.32631 31.05363 5.65773 10.50212 2.62541 14.41505 7.99631 14.4093 15 6.18209 18.94487 2.16851 20.41143 2.89275 30 1.37792 16.01159.14032 20.25297 0 30-2.28985 42.09917-17.07941 46.69921-27.30205 65-27.43074 8.19482-49.53878 5.74422-70 0-8.68312-19.65021-23.58873-31.14623-25-60-.708-14.47526-2.26216-23.5205 0-40 .69096-9.34953 1.71302-18.91979 5-30 11.25232-12.58937 18.00188-13.47156 25-15z" fill="#fec3ac" fill-rule="evenodd" stroke="#313131" stroke-width="2.986212"/><g stroke="#000"><path d="m259.03788 338.54311c.38752 2.59553 4.03547 4.41749 7.7349 4.39381l12.47468-.0798c3.76149-.0241 6.44986.10076 7.36309-.99229 1.66133-1.98844-5.9265-7.37695-11.8301-7.16281l-9.74162.35337c-2.96672.10762-6.34028 1.21523-6.00095 3.48777z" fill="#ebebeb" fill-rule="evenodd" stroke-width="1.990808"/><ellipse cx="268.84671" cy="306.88174" rx="6.57729" ry="2.055403" stroke-width="2.205258" transform="matrix(.536256 0 0 1.519735 129.3309 -127.8133)"/><path d="m343.01592 338.39421c-.38752 2.59553-4.03547 4.41749-7.7349 4.39381l-12.47468-.0799c-3.76149-.0241-6.44986.10076-7.36309-.99229-1.66133-1.98844 5.9265-7.37695 11.8301-7.16281l9.74162.35337c2.96672.10762 6.34028 1.21523 6.00095 3.48777z" fill="#ebebeb" fill-rule="evenodd" stroke-width="1.990808"/><ellipse cx="268.84671" cy="306.88174" rx="6.57729" ry="2.055403" stroke-width="2.205258" transform="matrix(-.536256 0 0 1.519735 472.7229 -127.9622)"/></g><path d="m255.60508 328.97549c16.10798.45062 36.84864-.44993 39.99728 8.83661-2.84292-4.61361 1.65692-8.92812-11.16203-14.65017h-29.06779c-1.31992 1.93785-4.29688 3.87571.23254 5.81356z" fill-rule="evenodd" stroke="#313131" stroke-width="1.990808"/><path d="m349.17051 328.94472c-16.10798.45062-36.84864-.44993-39.99728 8.83661 2.84292-4.61361-1.65692-8.92812 11.16203-14.65017h29.06779c1.31992 1.93785 4.29688 3.87571-.23254 5.81356z" fill-rule="evenodd" stroke="#313131" stroke-width="1.990808"/><path d="m290.57997 372.48536s-5.15186 7.63693-.10356 10.18257c5.0483 2.54566 15.30023 2.6305 20.29675 0s-.31066-10.52199-.31066-10.52199" fill="none" stroke="#000" stroke-width="2.48851"/><path d="m314.59246 329.84579c-6.50225 5.21967-8.98771 15.2595-9.3017 27.90508" fill="none" stroke="#000" stroke-width="2.48851"/><path d="m297.09375 388.09375c-5.07172.0765-10.4116.4227-16.15625 1.25-6.98454 6.04115-22.32256 3.71903-28.84375 9.5-6.88789 6.10609-5.51718 19.62457-2.15625 27.25 3.80609 3.39376 7.1293 6.78367 10.09375 10.15625l.4375 3.40625 4.0625 2.03125c.63336.81442 1.24305 1.62466 1.84375 2.4375l1.65625 4.75 1.53125-.25c1.27967 1.88514 2.48684 3.74975 3.65625 5.625l.0625 1.53125.59375-.46875c3.02244 4.908 5.78309 9.79705 8.65625 14.625l.9375 3.59375h1.21875c.64125 1.04127 1.30247 2.05688 1.96875 3.09375.77749 1.20994 8.26615-.25264 9.15625-.25.90523.003 8.21115 1.97965 9.03125.75.8291-1.24314 1.65112-2.39862 2.46875-3.59375h2.46875l.65625-4.28125 3.9375-1.3125 2.3125-.96875-1.1875-4.84375c.2844-.37195.55675-.75446.84375-1.125l2.65625 1.34375 1.96875-5.90625 3.28125.65625.65625-5.90625 3.28125 2.625 1.65625-7.90625 2.96875 1.65625 2.96875-7.5625c.00001 0 1.61909 1.95376 4.25-5.28125h-.0937c3.35468-3.32697 7.02007-6.82602 11.0625-10.625 2.01627-7.10861 9.04539-16.29796 2.3125-22.78125-5.31575-5.11871-21.79523-6.01602-32.34375-11.96875-7.69614-.71682-15.42214-1.37749-23.875-1.25z" fill-rule="evenodd" stroke="#313131" stroke-width="2.986212"/><path d="m288.52636 407.58245c7.77057 1.55302 15.73796 2.24556 23.83159 0 4.18235-1.1604 2.54489-4.06704 0-4.94765-6.52662-2.25841-16.3801-2.35517-23.83159 0-2.8722.90781-2.4598 4.45604 0 4.94765z" fill="#fec3ac" fill-rule="evenodd" stroke="#313131" stroke-width="2.48851"/><g stroke="#000" stroke-width="2.986212"><g fill="#fcef3c" fill-rule="evenodd"><path d="m128.61596 523.06966c40.89306 21.66163 77.60953 49.88647 128.17461 56.3492h91.26985c45.57006-15.67333 87.60607-34.8807 124.20635-59.52381 6.20733-21.54594-2.64432-40.45656-55.95238-51.5873-7.40772 28.36135-32.95071 40.60238-59.31161 52.11639l-4.4412 29.8307-111.04185-.5688-2.97993-27.33074-33.77969-23.18527-18.25578-30.28114c-49.65647 2.55272-58.71382 26.38709-57.88837 54.18077z" stroke-width="2.986212"/><path d="m186.50433 468.88889c11.86837 23.02393 33.04399 37.49955 59.06197 47.86331v30h105v-30c28.42613-8.21733 50.10781-21.70852 63.59701-48.59701l16.26034 4.13424c-18.25776 25.7775-40.39643 45.11657-69.85735 54.46277v30h-125v-30c-27.19867-11.17427-51.41839-28.02469-65.94014-55.60438 3.91135-1.11645 9.81037-2.21002 16.87817-2.25893z" stroke-width="2.986212"/><path d="m154.54102 474.11133c-1.56763.57744-3.08611 1.18842-4.55664 1.82812-18.7647 9.75191-22.87277 27.00511-22.30469 46.13282 31.43512 16.65155 60.41288 37.16596 95.08398 48.73242v-42.8418c-32.21189-5.08981-49.14923-29.05412-68.22265-53.85156z" stroke-width="2.990368" transform="matrix(.99860794 0 0 .99861243 1.113663 1.721567)"/><path d="m438.94531 473.46289c-13.51052 24.5403-33.93822 46.80288-64.97265 55.63477v39.6914c35.46257-13.78171 68.40848-30.08164 97.83789-49.89648 5.17607-17.96631-.13106-34.09765-32.86524-45.42969z" stroke-width="2.990368" transform="matrix(.99860794 0 0 .99861243 1.113663 1.721567)"/></g><path d="m425.88664 527.74763v18.10866" fill="none" stroke-width="2.986212"/><path d="m176.32885 528.02007-.65773 21.83379" fill="none" stroke-width="2.986212"/></g></g><path d="m121.49346 242.70043c-3.19484-.53273-6.15059-1.73268-8.86726-3.59988l.47555-.3966 8.39171 3.59988zm-9.59158-3.99648-.23411.19525c-5.7555-2.26554-12.230344-8.3284-19.424561-18.18854h.958419c2.721578 3.06309 5.560273 6.2613 8.516072 9.59458 2.9557 3.3336 6.19191 5.79962 9.70865 7.39807-.00009.13437.15843.46793.47553 1.00064zm36.20069 85.37211c.48275 2.3959.72418 4.79379.72429 7.19367-.00011 8.93263-2.95829 18.1296-8.87457 27.59095-.63905 1.06574-1.83648 1.86708-3.59227 2.40399 1.43875-1.86703 3.27513-4.66761 5.50911-8.40176 3.67752-7.06143 5.51633-14.39135 5.51645-21.98978-.00012-8.39968-2.3974-15.39807-7.19185-20.99525-6.23352-9.99417-18.93935-19.72399-38.11753-29.18954-.79997.53297-1.2804 1.20007-1.44129 2.00128 13.58858 7.99713 23.65813 15.46128 30.20868 22.3925 9.11103 9.7299 13.26664 20.05973 12.46686 30.98948-.63908 9.46142-4.63494 18.39095-11.98765 26.7886-7.35288 8.39771-16.38232 13.86362-27.0883 16.39779-5.7555 1.33011-13.666768 1.72875-23.733834 1.19589-5.594508-1.33013-13.586258-3.72801-23.975263-7.19367l-1.675418-.20136c-4.638497-2.13144-9.513539-3.59783-14.625126-4.39917l-6.474859-.20135v-1.39725c8.950169-12.26397 13.425252-21.92872 13.425277-28.99428-.000025-3.86424-.958443-7.59631-2.875279-11.19624-1.277914-1.99719-2.716775-5.12927-4.31657-9.39631h1.19985c4.955514 3.33555 8.55021 8.53401 10.784112 15.59541 3.355697 10.53121 5.355461 16.32967 5.999315 17.39537-.000023.00003 2.875242 2.39994 8.625823 7.19976-.160994.79728-.640203 2.09588-1.43764 3.8958-.797495 1.79997-1.196231 3.16568-1.196207 4.09716-.000024 1.0698.399933 2.07044 1.199872 3.00193 1.594896 2.9328 3.831218 4.99916 6.708975 6.19912-.956022-1.46842-1.994926-3.80123-3.11671-6.99841-.317077-3.46564.960826-6.53062 3.833697-9.19496-4.155647-3.33546-7.111398-5.80249-8.867265-7.40111-3.038691-3.19715-4.71655-6.26214-5.033557-9.19495-2.716786-9.33118-7.430859-17.12887-14.142264-23.39314-.000012-.39855.07803-.66499.234114-.79928 4.794557 3.06708 8.630696 7.59844 11.508429 13.59412 2.077782 5.33275 4.155587 10.66546 6.233418 15.99812 2.238739 2.92875 6.235824 6.39236 11.99129 10.39085-.799951 1.19997-1.999799 2.99991-3.599582 5.39983-.638981 1.06573-.958466 2.13146-.958418 3.19717-.000048 2.13553 1.677812 4.93612 5.033557 8.40176-.317078.26441-.475593.59795-.475557 1.00064-.000036.2644 1.277854 1.13082 3.833708 2.59924 2.555746.66303 5.192024.99454 7.908835.99454 5.916328 0 14.388497-2.53212 25.416547-7.59636 11.82293-7.06144 17.73444-16.8584 17.73453-29.39089-.00009-1.99718-.15862-3.92932-.47556-5.79642-3.73498-19.31353-23.75126-30.0015-41.234226-40.7885-.799962.13433-1.68035.86855-2.641151 2.20266v1.19589c7.51126 5.06837 15.024997 10.13465 22.541277 15.19882 8.62818 6.39849 13.74222 12.92912 15.34211 19.59189.63887 2.5342.95834 4.9992.95843 7.39501-.00009 11.33253-5.27507 20.13088-15.82499 26.39507l-9.591562 5.59507c-.156143.00001-.634131-.33151-1.433975-.99455v-.60405c8.950087-6.12996 13.425187-13.66121 13.425257-22.59383.21845-8.472-6.98386-15.08239-13.90813-20.59254-6.55052-4.53132-13.183883-9.06269-19.900126-13.59413-.795077-.53279-2.231495-1.19988-4.309252-2.00129-5.755467 7.46423-8.633176 14.39551-8.633152 20.7939-.000024 3.59991 1.119352 6.93235 3.358152 9.9973 2.238728 3.06501 5.355436 5.06528 9.350126 6.00081 2.233841.66713 4.470163.56746 6.708974-.29898 2.238716-.86639 3.75805-2.23311 4.558012-4.1002.638897-1.33416.877886-2.99986.716988-4.99712-.478048-.53283-.997493-1.09924-1.558349-1.69928-.560963-.59992-1.319421-.7006-2.275347-.30201-.161006 1.06576-.960921 2.39793-2.399722 3.99648-.799963.66713-2.558285.53493-5.274999-.3966-.799951-.53283-.958466-1.99922-.475557-4.39916.638909-1.0657 2.636242-1.99923 5.991987-2.8006 1.277854.00004 2.955703.4007 5.033569 1.20199 1.75583 1.86304 2.633775 3.99448 2.633835 6.39437-.00006 1.60269-.397574 3.06909-1.192544 4.39917-1.121878 2.13148-3.519157 3.665-7.191847 4.60053-5.594509.66713-10.550036-1.19994-14.866569-5.60118-3.194774-3.33137-4.79215-7.32987-4.792126-11.99552-.000024-5.99569 2.875254-13.19341 8.625834-21.5932v-.99454c-28.079681-16.66546-44.484756-41.71467-18.217403-63.77892 3.355684-2.53401 9.669586-6.46744 18.941707-11.80029l15.817669-13.19143h.482874c4.472594 5.19455 8.308735 9.25815 11.508411 12.19078 6.233355 5.86572 15.980995 9.73202 29.242945 11.59896 2.56059-3.20113 2.56059-6.80101 0-10.79967-.63904-1.06557-2.15594-2.2635-4.55069-3.59377-.79999.13031-1.75842.66316-2.87527 1.59859.4779.53301.87542 1.53162 1.19255 2.99584-.79513.40283-1.67308.33777-2.63385-.19525-1.59989-.80119-2.3998-1.30151-2.39972-1.50097-.00008-.19917-.0805-.6995-.24144-1.50097 1.2827-.53271 2.48256-1.332 3.59959-2.39788-.00009-.13408-.71952-.26833-2.15829-.40271-.00008-.66694.39987-1.06658 1.19986-1.19894.79982-.13204 1.51925-.26526 2.15829-.39965 2.07771-.13408 3.91652.66522 5.51643 2.39789 1.11685 1.46858 2.31426 2.93496 3.59226 4.39918.79981 1.86719 1.19976 3.79934 1.19986 5.79641-.0001 3.8685-3.1168 9.93338-9.35013 18.19468-1.76085 2.40003-4.95805 5.76601-9.59157 10.09796-4.63369 4.33217-7.7504 7.49886-9.35013 9.50003 11.51078 6.79716 19.26352 11.79428 23.25829 14.99136 8.46719 6.2643 14.22017 12.72983 17.25896 19.39666.16084.53293.96074 2.19864 2.39971 4.99711 1.11683 1.9973 1.59482 3.79722 1.43399 5.39983zm-30.20138-62.38166c-20.778123-7.06541-34.68382-15.46309-41.717092-25.19308l-1.916848-.19525c-4.794606 3.19731-10.789025 7.92801-17.983278 14.19209-3.355733 4.13286-4.394635 10.32994-3.116709 18.59123 1.121796 7.46428 7.03574 14.39557 17.741835 20.79389 2.555758 1.86716 6.391896 4.33419 11.508417 7.40112 1.755843-1.86696 2.633788-2.80048 2.633848-2.80057-8.789272-5.33262-16.139622-10.53109-22.0511-15.59542-5.277467-4.39704-7.916176-9.66263-7.916152-15.79678-.000024-2.52997.599907-5.09462 1.799791-7.69398 1.199837-2.59911 3.437379-4.96547 6.712626-7.09909 3.2752-2.13336 6.590673-3.3323 9.946417-3.59683v.79929c-2.872883 2.40006-4.470258 5.93282-4.792127 10.5983 2.245052 13.00575 17.663926 18.7117 29.72581 24.99172.799828-1.0697 1.199778-1.66968 1.199858-1.79994-4.955584-3.06691-9.908657-6.13392-14.85925-9.20105-6.233465-3.72993-10.389077-7.59421-12.466834-11.59284-1.92177-3.73398-1.602298-7.39895.958418-10.9949.316993.00013.71695.13234 1.19986.39661-.643867 1.73296-.965783 3.46576-.965735 5.19846-.000048 4.93013 3.197146 9.66286 9.591557 14.19819 5.755382 3.33153 11.510801 6.73005 17.266278 10.19558l1.43398.19526c3.83851-3.33131 9.19399-8.66198 16.06643-15.99201z" fill="#fcef3c" stroke-width="2.5"/><path d="m532.36568 240.96201h-.70175c-6.78559-6.25386-11.64259-12.23603-14.57099-17.94655.11778-.13678.29456-.27374.53034-.41084 1.63916 3.12923 6.55329 8.97653 14.7424 17.54191zm37.73992 122.38881c-.23226.13698-.52333.27393-.87319.41086-1.98934-4.21636-2.98397-8.02394-2.98384-11.42279l1.04998-47.32211c-.11799 29.91718-.11799 46.50667 0 49.76851.70342 3.1291 1.6391 5.98428 2.80705 8.56553zm-76.00481-129.3234c-5.26774-1.2241-11.17827-4.62293-17.7316-10.19648-2.33925-1.49798-4.21062-2.31344-5.61412-2.44642v-.81546c2.68917.26991 5.90693 1.96932 9.65327 5.09823 4.21413 3.39898 7.31581 5.4387 9.30508 6.11914 1.05349.26989 2.51595.81353 4.38737 1.63094zm37.21493 125.45149c-.00009.40672-.11794 1.08523-.35356 2.03556-1.40362-2.99211-2.10539-6.59427-2.1053-10.80652l.17679-101.17418c.23205-.13681.52489-.2053.87853-.20542v101.98964c-.23579 2.99217.23205 5.71246 1.40354 8.16092zm44.93433-122.18339c-.35012 1.08742-1.57865 2.71836-3.68559 4.89281-2.45721 2.04192-5.32318 5.37434-8.59797 9.99727l-.35355 16.11018-.35356 35.70011c-.1144 8.70256-.28939 17.40504-.52498 26.10745-.11798 9.78983.17488 18.35743.87854 25.70284.23559 2.44852 1.69805 6.11915 4.38736 11.01195.70344.41086 1.17128.47934 1.40354.20541l4.03916-4.8928c.46771.00002.81949.20337 1.05533.61003-3.8643 4.897-9.54091 11.90006-17.02985 21.00923-.23224 0-1.57863-1.08729-4.03915-3.26187-3.86071-4.89695-5.791-12.44575-5.7909-22.64638v-32.63121c-1.52149-2.17867-4.97316-3.06262-10.35504-2.65183-1.28933.40675-2.22502 1.2907-2.80706 2.65183l-.17678 53.44123c.11777.8134-.11616 1.76581-.70176 2.85724h-.70176c.11418-16.59154.28918-41.41042.52498-74.45667l.3482-61.80134h-.87318c-1.28934 1.22022-3.28035 2.7827-5.97303 4.68739l-.52499 44.06022-.34821 25.292v29.9856c-.00008 6.66488 1.16953 11.69672 3.50883 15.09551-1.75718 2.4485-4.21424 6.12122-7.37121 11.01818-.00008.1328-1.34645 2.85103-4.03916 8.15469l-.70176.20541c-2.69285-5.02976-4.38923-8.09035-5.08913-9.18181-2.10715-3.26186-4.33029-5.77674-6.66944-7.54465.58207-1.08726 1.51775-2.7182 2.80705-4.8928.69992-1.09142 1.16777-2.657 1.40353-4.69673.23564-2.03968.41064-3.94348.52499-5.71139l.35356-27.94383c-.70361-.81333-3.21961-1.56033-7.54798-2.24099-1.40359.26983-2.28214.47318-2.63564.61005-1.05359.27397-1.81428.81761-2.28207 1.63094-.35005 7.7522-.64288 15.43586-.87854 23.05101-.58218 8.56556-2.10178 15.6371-4.55879 21.21465-4.68204 10.19648-12.4068 15.09135-23.17429 14.68466-6.90339-.26975-13.45675-3.80551-19.66011-10.60732-.00001.00002-.81962.68061-2.45886 2.04179.93925 2.44848 1.2321 4.14789.87855 5.09824-.46785.68059-1.57853.81753-3.33205.41084-1.17139-.54364-1.46424-1.90483-.87854-4.08358.69997-1.22422 1.28389-1.90275 1.75173-2.03555 2.57492-2.85932 5.09091-5.78296 7.54799-8.77095 3.51416-4.07942 6.08908-6.32453 7.72476-6.73541 5.38552 7.88911 11.06213 11.83365 17.02983 11.83364 5.26409.00001 9.41753-2.38 12.46033-7.14004l-.17142-.41083c-3.0428 3.40299-6.78911 5.10447-11.23894 5.10446-3.0428.00001-5.90878-.81753-8.59795-2.45264-3.62848-2.17456-5.91055-4.89278-6.84622-8.15468l.17678-.20542c1.1678 1.63096 3.09809 3.80554 5.7909 6.52375 2.45703 2.17874 5.49979 3.26812 9.12829 3.2681 1.87133.00002 3.68467-.44196 5.44001-1.32592 1.75526-.88393 4.38822-2.89044 7.89886-6.01953.93564-.13692 1.60883-.81751 2.01958-2.04179.41065-1.2242.73208-2.37998.96427-3.46729 1.05348-8.42855 1.63917-22.29773 1.75708-41.6076l.34821-66.70038c-.11434.00014-1.75179 1.2223-4.91235 3.6665-.00005 19.04018-.2929 47.39481-.87855 85.06399-.1179 4.34922-.2929 7.40774-.52498 9.17559-.46789 3.39886-1.28751 6.18763-2.45885 8.36633-2.45712 4.48615-5.08917 7.20438-7.89619 8.1547-.11789-.54362.1446-1.05303.78747-1.52823.6428-.47515 1.25706-.91608 1.84281-1.3228 3.04272-2.8593 5.09087-6.87232 6.14445-12.03906.58565-2.99209.93743-7.95545 1.05532-14.89009l.70177-80.16496c-.7036.27402-1.52321.95463-2.45886 2.04179l-.35356 80.37037c-.11432 13.05169-3.09816 21.279-8.9515 24.68195-3.16066 1.90071-6.08557 2.91953-8.77474 3.05645l-.87854-1.22009c2.57489-2.99209 3.97842-7.68364 4.21058-14.07463-.00003-5.17081.0589-10.27111.17678-15.30093v-31.61654c-1.05356.26984-1.98925-.13894-2.80705-1.22632-1.52142-1.90059-2.2821-2.85094-2.28208-2.85102-.11788-.27381-.059-.75106.17679-1.43174l4.38736 4.69361.52498-.41085v-57.11395c-.00003-8.02174-2.63209-13.18844-7.89619-15.50013-1.63925-.54349-3.10349-.27166-4.39272.81546.58568.26991 1.28923 1.0169 2.11065 2.24099.23212 1.49829-.23751 2.58767-1.40889 3.2681-1.63568.68076-2.74636.34045-3.33203-1.02089-.35-2.72223-.11609-4.42164.70176-5.09825 1.17138-1.63491 2.69276-2.45246 4.56415-2.45262 1.17137.00016 2.69274.34046 4.56414 1.02089 2.68917 1.08745 4.09271 1.69958 4.21059 1.83636 3.16058 2.31168 6.3212 4.6917 9.48185 7.14002 3.62842 2.58559 6.96403 4.49041 10.00684 5.71452.23208.40683.34815.74505.3482 1.01466-.00005.54379-.3804 1.25758-1.14104 2.14138-.76074.88409-1.20001 1.53148-1.31782 1.94219-1.05358 2.71837-1.52142 4.6896-1.40352 5.9137.23566.40684 1.08473.20245 2.54724-.61315 1.4624-.81534 3.42216-2.65066 5.87928-5.50597v-16.52104c.34994-.41069.64279-.6161.87855-.61627-.11791 3.40314.11601 8.50345.70176 15.30095.70351-.26961 1.49365-.98237 2.37047-2.13827.8767-1.15563 1.43293-1.87046 1.6687-2.1445 1.87131-2.31138 4.09446-5.77868 6.66943-10.40191.46779-1.08713 1.4624-2.31137 2.98385-3.67272 1.98915 3.67288 5.55868 8.70471 10.7086 15.09551l7.89619 7.14003c.8213-.41071 1.52307-1.02283 2.10528-1.83636l.35356-16.72646c.23562-.81737.64453-.88586 1.22675-.20541v13.86919c.23562.54379.58738.61226 1.05532.20542.11776.00015 3.86229-5.84715 11.23359-17.54192.93559.54381 2.16411 2.24322 3.6856 5.09824 3.39621 6.93475 8.19428 12.85052 14.3942 17.74735.82128.68073 1.58197.47737 2.28207-.61005-.00012-.68046-.23404-1.08923-.70175-1.22631-.81796-.26962-1.2858-.54143-1.40354-.81547-4.91425-4.62292-8.65877-9.24599-11.23358-13.86921-1.17151-1.36102-2.22504-3.12891-3.16062-5.30366.34988-.68043.81773-.74889 1.40353-.20541 4.56403 8.43288 9.71387 14.8923 15.44954 19.37828 1.0534.13709 2.36943-.67838 3.94808-2.44641 1.57839-1.76775 2.89442-2.58321 3.94809-2.4464zm-103.38969 43.44394c-.46787.13705-.81964.20553-1.05532.20543-1.98925-3.12898-2.98387-5.78081-2.98384-7.95549-.00003-.81744.20532-1.70138.61606-2.65183.41067-.95023.67316-1.359.78747-1.22632.47138.27401.58924.75125.35356 1.43175-.35002.6807-.52501 1.22434-.52498 1.63092-.23573 2.31165.69995 5.16683 2.80705 8.56554zm-.87854 21.82469c-1.28571 1.49822-3.216 3.87822-5.79089 7.14003 3.86056 5.16677 5.61586 9.85831 5.26591 14.07461.11783 5.44067-1.93033 9.72551-6.14446 12.85454-1.7571 2.03768-4.74094 2.92162-8.95152 2.65183-.00001-.68055.38034-1.12356 1.14105-1.32903.76067-.20538 1.25708-.51144 1.48923-.91819 2.22492-2.31148 3.33739-4.96331 3.33741-7.95548-.00002-.95029-.11789-1.83423-.35357-2.65184-1.16783-3.39875-3.0392-5.50694-5.61412-6.32455v-1.01467l6.31588-7.75629v-1.22009l-6.31588-7.75007.17679-1.43173c2.22134-2.1745 4.26771-4.48604 6.13909-6.93461-.00002-.54355-.32143-1.18887-.96425-1.93596-.64286-.74689-1.08212-1.32581-1.31782-1.73675-1.52139-2.99203-2.28209-6.39085-2.28207-10.19648-.00002-2.44838.35176-4.62503 1.05532-6.52997 1.63923-4.34907 5.56053-7.81636 11.76392-10.40191l.17143.20542c-.7.81352-1.60622 2.07097-2.71867 3.77233-1.11248 1.70161-1.66872 3.63964-1.66869 5.81411-.00003 2.71833.52675 5.09834 1.58031 7.14002.11782.6807.73209 1.56464 1.8428 2.65183 1.11065 1.08739 1.66599 1.90287 1.66602 2.4464-.00003.54374-.23394 1.08739-.70177 1.63094-1.05356.95459-2.69101 2.72247-4.91234 5.30367v1.02088c1.16778 1.63104 3.03916 4.01105 5.61411 7.14003.58567.54373.64459 1.29072.17678 2.24098zm.70176 13.46459c-.46786.137-.84821-.16905-1.14103-.91819-.29288-.749-.4393-1.2252-.43928-1.42862-.00002-.20329-.38037-.7127-1.14103-1.52824-.76072-.8154-1.02321-1.56342-.78748-2.24409 1.9892 1.08736 3.1588 3.12706 3.50882 6.11914zm75.13162-42.6285v-22.64639c-3.97854-4.89266-6.72846-8.70027-8.24974-11.42278-.8215.1371-2.05003 1.42981-3.6856 3.87815-.58579 9.92685-.8197 20.1254-.70176 30.59564 2.57125 2.4486 6.43184 2.72041 11.58179.81547zm-.17677 41.81301v-39.3666h-.87854c-3.275 1.4941-7.1356 1.5605-11.58179.1992l-.53035 45.49195c.23563.68066.64632.88402 1.23211.61005.58561-.26967 1.16951-.54151 1.75174-.81546 1.1713-.54358 2.81052-.61206 4.9177-.20542 2.57482.4109 4.21226.54785 4.91235.41083zm-36.51317-68.53673c-1.0536-1.08715-2.57498-2.78657-4.56414-5.09823l-2.4535-3.26811c-.82146.27404-1.64108 1.02311-2.45885 2.24721-1.40358 1.76803-2.16427 2.72044-2.28208 2.85724l-.52498 29.16392.52498 2.04178c.34993.13707 1.11062.47735 2.28208 1.0209 4.56408.95045 7.60685.4068 9.12829-1.63095zm-.70176 74.45045v-44.25942c-3.97851.81349-6.78735 1.01684-8.42653.61004-.70003-.4066-1.63572-.67841-2.80705-.81547l-.52499 44.67027c1.75346-.68053 5.67298-.74901 11.75857-.20542z" fill="#fcef3c" stroke-width="2.5"/></g><g><path d="m1.5 1.5h597v180h-597z" fill="#2b5df2" stroke="#000" stroke-width="3"/><g id="b" fill="#fcef3c" stroke="#000" stroke-width="1.317374" transform="matrix(1.8965674 0 0 1.8988638 42.18054 6.293671)"><path d="m29.738807 62.945549c-2.689943 6.351213-6.015432 8.922247-9.243665 12.043068 3.618431.01652 7.225043-.678341 10.962762-3.813951.06366 9.674934 1.458013 12.982212 4.819106 16.232778 3.322963-3.148967 4.858497-6.547149 4.847287-16.232778 3.737718 3.135613 7.334938 3.830472 10.953368 3.813951-3.227999-3.120592-6.544434-5.692883-9.234271-12.043068z" fill="#fcef3c" fill-rule="evenodd" stroke="#000" stroke-width="1.317374"/><path d="m21.706974 58.178268h29.158859v4.771534h-29.158859z" fill="#fcef3c" stroke="#000" stroke-width="1.317374"/><path d="m126.28125 7.9375c-34.941678 37.094566-48.391726 79.825556-20.625 133.34375 6.34161 16.25846 11.33844 33.04455 10.3125 52.25h20.625c-1.02594-19.20545 3.97088-35.99154 10.3125-52.25 27.76673-53.518189 14.31668-96.249184-20.625-133.34375z" fill="#fcef3c" fill-rule="evenodd" stroke="#000" stroke-width="4.382379" transform="matrix(.300607 0 0 .300607 -1.678333 0)"/><path d="m52.25 100c-35.235309.84534-58.7273133 60.01799 15.21875 88.875-24.439711-47.87444 20.895745-30.13204 26.875 4.65625h17.53125c-9.67933-70.66082-37.052039-94.072804-59.625-93.53125z" fill="#fcef3c" fill-rule="evenodd" stroke="#000" stroke-width="4.382379" transform="matrix(.300607 0 0 .300607 -1.678333 0)"/><path d="m198.96875 100c-22.30142.41761-48.7644 24.28444-58.25 93.53125h17.5c5.97956-34.78829 51.34596-52.53069 26.90625-4.65625 74.89409-29.22698 49.82147-89.548704 13.84375-88.875z" fill="#fcef3c" fill-rule="evenodd" stroke="#000" stroke-width="4.382379" transform="matrix(.300607 0 0 .300607 -1.678333 0)"/></g><use id="c" height="100%" transform="translate(189.00001 .000011)" width="100%" xlink:href="#b"/><use height="100%" transform="translate(188)" width="100%" xlink:href="#c"/></g></g><path d="m300.00001 658.5s298.5-112.32031 298.5-397.77183c0-285.451504 0-258.5516835 0-258.5516835h-597.00001v258.5516835c0 285.45152 298.50001 397.77183 298.50001 397.77183z" fill="url(#a)" fill-rule="evenodd"/><path d="m299.99999 658.39715s-298.49999-112.41841-298.49999-398.11925c0-285.700818 0-258.7775027 0-258.7775027h596.99999v258.7775027c0 285.70084-298.5 398.11925-298.5 398.11925z" fill="none" stroke="#000" stroke-width="3"/></svg>