<svg height="660" width="600" xmlns="http://www.w3.org/2000/svg" xmlns:xlink="http://www.w3.org/1999/xlink"><radialGradient id="a" cx="221.44487" cy="226.33101" gradientTransform="matrix(1.353218 0 0 1.348928 -77.62935 -85.74693)" gradientUnits="userSpaceOnUse" r="300"><stop offset="0" stop-color="#fff" stop-opacity=".313726"/><stop offset=".19" stop-color="#fff" stop-opacity=".25098"/><stop offset=".60000002" stop-color="#6b6b6b" stop-opacity=".12549"/><stop offset="1" stop-opacity=".12549"/></radialGradient><path d="m300.00003 658.5s298.5-112.32031 298.5-397.77183c0-285.45152 0-258.55169 0-258.55169h-597.00003v258.55169c0 285.45152 298.50003 397.77183 298.50003 397.77183z" fill="#2b5df2" fill-rule="evenodd"/><g><g><path d="m222.95847 210.43527-44.38657 44.30879v80.01755h44.38657zm-44.37363 125.13409v110.56462l44.46424-.62762v-109.937z" fill="#fcef3c"/><path d="m223.83711 186.73239h149.49641v257.68856h-149.49641z" fill="#fcef3c"/><path d="m103.38207 231.65766v100.3606h78.47229v-100.3606zm0 106.69562v100.36061h78.47229v-100.36061z" fill="#fcef3c" stroke="#000"/><path d="m217.58955 220.38989-33.62677 33.26393v74.0201h33.62677zm-33.61697 122.69019v90.2696h33.68562v-90.2696z" fill="#fcef3c" stroke="#000" stroke-linecap="round" stroke-linejoin="round"/><path d="m76.922828 458.23524h439.403792v6.93183h-439.403792z" fill="#fcef3c" stroke="#000" stroke-linecap="round" stroke-linejoin="round"/><path d="m182.2859 437.6178h38.71567v4.34659h-38.71567z" fill="#fcef3c" stroke="#000"/><path d="m100.30332 435.27654h84.67087v10.81071h-84.67087z" fill="#fcef3c" stroke="#000"/><path d="m100.30332 329.83614h84.67087v10.81072h-84.67087z" fill="#fcef3c" stroke="#000"/><path d="m100.30332 225.65099h84.67087v10.8107h-84.67087z" fill="#fcef3c" stroke="#000"/><path d="m111.6098 206.93526-1.74557 18.82864.0392 106.91138 3.48134-.01-.0294-106.90156zm1.75538 131.28076-3.51076.01.0392 100.57633 3.50095-.01z" fill="#fcef3c" stroke="#000"/><path d="m174.0189 206.93526-1.68673 18.82864.0294 106.91138 3.37346-.01-.0294-106.91137zm-1.69654 131.28076.0392 100.58612h3.38327l-.0392-100.58612z" fill="#fcef3c" stroke="#000"/><path d="m127.92318 225.19112c.44185-1.22357.41081-2.62822-.29215-3.84092-1.26278-2.1784-4.06941-2.92519-6.24779-1.66241-1.95419 1.13277-2.74848 3.48861-1.98071 5.53587" fill="#fcef3c" fill-rule="evenodd" stroke="#000"/><path d="m141.10323 225.19112c.44185-1.22357.41081-2.62822-.29215-3.84092-1.26278-2.1784-4.06941-2.92519-6.24779-1.66241-1.95419 1.13277-2.74848 3.48861-1.98071 5.53587" fill="#fcef3c" fill-rule="evenodd" stroke="#000"/><path d="m166.20809 225.19112c.44184-1.22357.41081-2.62822-.29216-3.84092-1.26277-2.1784-4.0694-2.92519-6.24778-1.66241-1.95419 1.13277-2.74848 3.48861-1.98071 5.53587" fill="#fcef3c" fill-rule="evenodd" stroke="#000"/><path d="m372.59754 208.5524 45.5525 45.08607-1.16594 79.24028h-44.38656zm43.98498 123.57954.38866 112.11918-44.46427-.62763.38864-111.49155z" fill="#fcef3c"/><g stroke="#000"><path d="m377.47615 332.91939h38.71568v4.64421h-38.71568z" fill="#fcef3c"/><path d="m376.84853 435.8493h38.71568v4.64421h-38.71568z" fill="#fcef3c"/><path d="m375.56358 437.60087h39.91248c.94592.76214.84672 1.21361 0 1.82042h-39.91248c-.81767-.65475-.84672-1.17396 0-1.82042z" fill="#fcef3c" stroke-linecap="round" stroke-linejoin="round"/><path d="m376.19121 334.27767h39.91247c.94592.77995.84672 1.24197 0 1.86296h-39.91247c-.81768-.67005-.84673-1.2014 0-1.86296z" fill="#fcef3c" stroke-linecap="round" stroke-linejoin="round"/><path d="m182.91352 332.91939h38.71567v4.64421h-38.71567z" fill="#fcef3c"/><path d="m182.25619 437.48445h39.91247c.94592 1.07364.84673 1.70964 0 2.56446h-39.91247c-.81767-.92235-.84672-1.65378 0-2.56446z" fill="#fcef3c" stroke-linecap="round" stroke-linejoin="round"/><path d="m181.62857 334.12533h39.91246c.94592.90751.84672 1.44509 0 2.16764h-39.91246c-.81767-.77964-.84673-1.39788 0-2.16764z" fill="#fcef3c" stroke-linecap="round" stroke-linejoin="round"/><path d="m153.65566 225.19112c.44185-1.22357.41081-2.62822-.29216-3.84092-1.26277-2.1784-4.0694-2.92519-6.24778-1.66241-1.95419 1.13277-2.74848 3.48861-1.98071 5.53587" fill="#fcef3c" fill-rule="evenodd"/><path d="m97.527542 227.9998h89.279148c2.11591 2.49625 1.89401 3.97494 0 5.9624h-89.279148c-1.829022-2.14437-1.894015-3.84495 0-5.9624z" fill="#fcef3c" stroke-linecap="round" stroke-linejoin="round"/><path d="m97.527542 332.18495h89.279148c2.11591 2.49627 1.89401 3.97495 0 5.96241h-89.279148c-1.829022-2.14437-1.894015-3.84497 0-5.96241z" fill="#fcef3c" stroke-linecap="round" stroke-linejoin="round"/><path d="m97.527542 437.62535h89.279148c2.11591 2.49627 1.89401 3.97494 0 5.9624h-89.279148c-1.829022-2.14436-1.894015-3.84496 0-5.9624z" fill="#fcef3c" stroke-linecap="round" stroke-linejoin="round"/><path d="m415.93751 231.65766v100.3606h78.47232v-100.3606zm0 106.69562v100.36061h78.47232v-100.36061z" fill="#fcef3c"/><path d="m412.85878 435.27654h84.67087v10.81071h-84.67087z" fill="#fcef3c"/><path d="m440.47864 225.19112c.44185-1.22357.41081-2.62822-.29216-3.84092-1.26277-2.1784-4.0694-2.92519-6.24778-1.66241-1.95419 1.13277-2.74848 3.48861-1.98071 5.53587" fill="#fcef3c" fill-rule="evenodd"/><path d="m453.65869 225.19112c.44185-1.22357.41081-2.62822-.29216-3.84092-1.26277-2.1784-4.0694-2.92519-6.24778-1.66241-1.95419 1.13277-2.74848 3.48861-1.98071 5.53587" fill="#fcef3c" fill-rule="evenodd"/><path d="m478.76355 225.19112c.44184-1.22357.41081-2.62822-.29216-3.84092-1.26278-2.1784-4.0694-2.92519-6.24778-1.66241-1.9542 1.13277-2.74848 3.48861-1.98071 5.53587" fill="#fcef3c" fill-rule="evenodd"/><path d="m466.21112 225.19112c.44184-1.22357.41081-2.62822-.29216-3.84092-1.26277-2.1784-4.0694-2.92519-6.24778-1.66241-1.9542 1.13277-2.74848 3.48861-1.98071 5.53587" fill="#fcef3c" fill-rule="evenodd"/><path d="m412.85878 329.83614h84.67087v10.81072h-84.67087z" fill="#fcef3c"/><path d="m412.85878 225.65099h84.67087v10.8107h-84.67087z" fill="#fcef3c"/><path d="m424.16525 206.93393-1.74557 18.73771.0392 106.39507 3.48132-.01-.0294-106.3853zm1.7554 130.64677-3.51079.01.0392 100.09062 3.50096-.01z" fill="#fcef3c"/><path d="m486.57436 206.93393-1.68673 18.73771.0294 106.39507 3.37347-.01-.0294-106.39506zm-1.69653 130.64677.0392 100.10036h3.38326l-.0392-100.10036z" fill="#fcef3c"/><path d="m410.083 332.18495h89.27914c2.1159 2.49627 1.89401 3.97495 0 5.96241h-89.27914c-1.82901-2.14437-1.894-3.84497 0-5.96241z" fill="#fcef3c" stroke-linecap="round" stroke-linejoin="round"/><path d="m410.083 227.9998h89.27914c2.1159 2.49625 1.89401 3.97494 0 5.9624h-89.27914c-1.82901-2.14437-1.894-3.84495 0-5.9624z" fill="#fcef3c" stroke-linecap="round" stroke-linejoin="round"/><path d="m410.083 437.62535h89.27914c2.1159 2.49627 1.89401 3.97494 0 5.9624h-89.27914c-1.82901-2.14436-1.894-3.84496 0-5.9624z" fill="#fcef3c" stroke-linecap="round" stroke-linejoin="round"/><path d="m411.25979 457.70245-222.57024.0785m-8.23753.0784-96.490011-.0784v-7.04719h426.298281v7.04719h-90.48839" fill="#fcef3c" stroke-linecap="round" stroke-linejoin="round"/><path d="m90.841104 443.80516h415.050566v6.20906h-415.050566z" fill="#fcef3c" stroke-linecap="round" stroke-linejoin="round"/><path d="m419.79444 464.53364-58.10255 51.7903h-123.38379l-57.41864-52.09414m7.83931.75438h222.41336" fill="#fcef3c"/><path d="m415.78507 251.26141-8.40649-7.99275c1.49898-1.09707 2.87836-3.19729 2.33673-5.08613-.69406-2.42038-3.40717-4.43172-5.82756-3.73768-1.09229.3132-1.93177 1.02696-2.50999 1.90865l-6.48163-6.16678c2.20525-.82597 3.4527-3.21179 2.7925-5.51406-.69403-2.42038-3.23416-3.82841-5.65456-3.13438-1.51274.43377-2.63266 1.61571-3.08643 3.00814l-7.3122-6.9902c.34701-.0163.7168-.0357 1.06515-.13558 2.42037-.69404 3.82843-3.23417 3.13437-5.65456-.69404-2.42037-3.23416-3.82838-5.65456-3.13436-2.02623.58102-3.29812 2.44804-3.26446 4.46044m-78.14293-156.36146c-2.29876.0043-3.66873 3.059152-3.38785 4.204197.28085 1.14503.80996 2.071829.89798 2.408231-2.85459-1.852591-5.70644.146954-5.59199 2.775586.0998 2.290819 1.87037 4.163393 4.16338 4.16338.60865 0 1.19566-.759792 1.71434-.994977v12.587129h4.81645v-12.42386c.40931.136191.85005.831708 1.30616.831708 2.29299 0 4.30809-1.874953 4.16338-4.16338-.23891-3.778011-3.07685-3.582441-5.18381-2.693951.0866-.333908.81635-2.169804.81635-2.530683-.00003-2.292986-1.42142-4.163392-3.71439-4.16338zm-71.72588 130.33194 6.4412-8.39958c-1.65215-.84908-3.34308-2.70766-3.10359-4.65797.30686-2.49915 2.67194-4.91015 5.1711-4.60329 1.12784.13848 2.06863.71212 2.77767 1.4925l5.43713-7.10481c-2.3073-.47082-3.91261-2.63211-3.62071-5.00932.30686-2.49916 2.59545-4.28722 5.09462-3.98036 1.56197.19179 2.853 1.18397 3.519 2.48827l6.12868-8.04802c-.3453.0382-.71357.0769-1.07325.0327-2.49915-.30686-4.28722-2.59545-3.98034-5.09461.30685-2.49915 2.59544-4.28719 5.09461-3.98034 2.09218.25688 3.75142 1.40269 3.91162 3.47366l7.31958-9.68609c-1.65215-.84907-3.34307-2.70766-3.10358-4.65797.30685-2.49915 2.67193-4.91014 5.17109-4.60329 1.12784.13848 2.06863.71214 2.77767 1.49253l5.43712-7.10484c-2.30729-.47082-3.91261-2.6321-3.6207-5.00933.30686-2.49915 2.59545-4.28718 5.09462-3.98035 1.56196.19179 2.853 1.18398 3.51901 2.48828l6.12866-8.04802c-.34528.0382-.71356.0769-1.07324.0327-2.49915-.30686-4.28722-2.59545-3.98034-5.094611.30686-2.499154 2.59544-4.287191 5.09461-3.980343 2.09217.256888 3.64047 1.901959 3.92203 3.894855l6.3842-9.250371c-2.37025-.419866-3.49262-1.907536-3.19578-4.32482.30685-2.49915 2.58259-3.980346 4.41596-3.980346 1.8583 0 4.10911 1.481196 4.41596 3.980346.29684 2.417284-.82553 3.904954-3.19578 4.32482l6.3842 9.250371c.28156-1.992896 1.82986-3.637967 3.92203-3.894855 2.49917-.306848 4.78775 1.481189 5.09461 3.980343.30689 2.499161-1.48119 4.787751-3.98034 5.094611-.35968.0442-.72796.005-1.07324-.0327l6.12866 8.04802c.66601-1.3043 1.95705-2.29649 3.51901-2.48828 2.49917-.30683 4.78776 1.4812 5.09462 3.98035.29191 2.37723-1.31341 4.53851-3.6207 5.00933l5.43713 7.10484c.70903-.78039 1.64982-1.35405 2.77766-1.49253 2.49916-.30685 4.86424 2.10414 5.17109 4.60329.2395 1.95031-1.45143 3.8089-3.10358 4.65797l7.1809 9.65835c.40983-1.54396 1.95812-3.18904 4.0503-3.44592 2.49917-.30685 4.78776 1.48119 5.09461 3.98034.30688 2.49916-1.48119 4.78775-3.98034 5.09461-.35968.0442-.72795.005-1.07325-.0327l6.12868 8.04802c.666-1.3043 1.95703-2.29648 3.519-2.48827 2.49917-.30686 4.78776 1.4812 5.09462 3.98036.2919 2.37721-1.31341 4.5385-3.62071 5.00932l5.43713 7.10481c.70904-.78038 1.64983-1.35402 2.77767-1.4925 2.49916-.30686 4.86424 2.10414 5.1711 4.60329.23949 1.95031-1.45144 3.80889-3.10359 4.65797l6.09501 8.64861m-71.64796-91.878869 71.54884 99.164179h-144.35292zm-117.50524 155.828609 8.40647-7.99275c-1.49898-1.09707-2.87835-3.19729-2.33671-5.08613.69404-2.42038 3.40717-4.43172 5.82756-3.73768 1.09228.3132 1.93176 1.02696 2.50999 1.90865l6.48162-6.16678c-2.20524-.82597-3.45269-3.21179-2.7925-5.51406.69403-2.42038 3.23416-3.82841 5.65456-3.13438 1.51274.43377 2.63266 1.61571 3.08643 3.00814l7.3122-6.9902c-.34701-.0163-.7168-.0357-1.06514-.13558-2.42038-.69404-3.82844-3.23417-3.13437-5.65456.69403-2.42037 3.23415-3.82838 5.65455-3.13436 2.02623.58102 3.29812 2.44804 3.26446 4.46044m150.29254-77.81286 3.03053-32.99661 3.03053 32.99661v308.63958h-6.06106zm-150.00152 0 3.03053-32.99661 3.03053 32.99661v308.63958h-6.06106z" fill="#fcef3c"/><path d="m180.45202 457.85935 239.31988-.0784-57.53845 52.3454-123.8144.65017-50.10365-45.9708z" fill="#fcef3c"/><path d="m368.53389 193.79633h10.37602v5.40324h-10.37602z" fill="#fcef3c"/><path d="m367.69445 195.0085h12.24403c.67536 1.21568.59585 2.07138 0 2.95275h-12.24403c-.69913-1.06199-.67537-2.22697 0-2.95275z" fill="#fcef3c" stroke-linecap="round" stroke-linejoin="round"/><path d="m218.53237 193.79633h10.37603v5.40324h-10.37603z" fill="#fcef3c"/><path d="m217.61448 195.0085h12.24403c.67536 1.21568.59585 2.07138 0 2.95275h-12.24403c-.69913-1.06199-.67536-2.22697 0-2.95275z" fill="#fcef3c" stroke-linecap="round" stroke-linejoin="round"/><g><path d="m448.13104 272.67369c-2.91041 4.3979-5.54525 10.78886-5.99447 16.05671-.45578 5.34475 0 24.80084 0 24.80084h6.02767.0609 6.02768s.45577-19.45609 0-24.80084c-.44922-5.26785-3.08407-11.65881-5.99448-16.05671z" fill="none"/><path d="m463.82158 272.67369c-2.91041 4.3979-5.54526 10.78886-5.99448 16.05671-.45578 5.34475 0 24.80084 0 24.80084h6.02768.0608 6.02768s.45578-19.45609 0-24.80084c-.44922-5.26785-3.08407-11.65881-5.99447-16.05671z" fill="none"/><path d="m453.42239 288.35762h5.11878v2.05659h-5.11878z" fill="#fcef3c"/><path d="m453.00827 288.84886h6.04032c.33317.46271.29394.78841 0 1.12388h-6.04032c-.3449-.40422-.33318-.84764 0-1.12388z" fill="#fcef3c" stroke-linecap="round" stroke-linejoin="round"/><path d="m440.53112 288.32272h2.50028v2.12638h-2.50028z" fill="#fcef3c"/><path d="m440.32885 288.83062h2.95039c.3981.47844.30049.73674 0 1.16204h-2.95039c-.40383-.45719-.35887-.83718 0-1.16204z" fill="#fcef3c" stroke-linecap="round" stroke-linejoin="round"/><path d="m468.97022 288.36195h2.50027v2.12638h-2.50027z" fill="#fcef3c"/><path d="m468.76794 288.86985h2.9504c.3981.47844.30049.73673 0 1.16204h-2.9504c-.40382-.45719-.35887-.83718 0-1.16204z" fill="#fcef3c" stroke-linecap="round" stroke-linejoin="round"/><g fill="none"><path d="m457.57985 260.89701c2.65641-.85231 4.46583.75083 3.65282 3.51152-1.02152 2.44904-4.19944 1.53701-5.56992-.27431-1.37818 1.81276-4.65952 2.71889-5.68155.26859-.66057-2.24305.34944-3.76039 2.17662-3.79438.42166-.008.88603.063 1.45666.30001-1.26192-1.84013-.77647-4.57743 1.94222-4.65441 2.80645.23937 3.77279 2.42601 2.02315 4.64298z"/><ellipse cx="937.625" cy="365.25" rx="17.625" ry="13.75" stroke-width="2.288177" transform="matrix(.3999666 0 0 .4775261 80.635771 87.622498)"/><ellipse cx="943.81079" cy="366.31311" rx="15.026019" ry="14.495689" stroke-width="1.593516" transform="matrix(.6386569 0 0 .6166226 -147.11686 36.162019)"/><path d="m455.69761 246.60141c-8.83807 7.98008-16.83939 19.5766-18.2035 29.13522-1.38406 9.69818 0 45.00163 0 45.00163h18.3043.1848 18.30433s1.38406-35.30345 0-45.00163c-1.3641-9.55862-9.36543-21.15514-18.2035-29.13522z"/><path d="m455.68682 242.92383c-10.26541 8.81052-19.55891 21.6138-21.14334 32.16713-1.60756 10.7074 0 49.68464 0 49.68464h21.26042.21465 21.26042s1.60756-38.97724 0-49.68464c-1.58443-10.55333-10.87793-23.35661-21.14334-32.16713z"/><path d="m440.67954 313.67012h30.43964v2.03977h-30.43964z" stroke-linecap="round" stroke-linejoin="round"/></g></g><g><path d="m448.13104 377.48647c-2.91041 4.3979-5.54525 10.78885-5.99447 16.0567-.45578 5.34476 0 24.80084 0 24.80084h6.02767.0609 6.02768s.45577-19.45608 0-24.80084c-.44922-5.26785-3.08407-11.6588-5.99448-16.0567z" fill="none"/><path d="m463.82158 377.48647c-2.91041 4.3979-5.54526 10.78885-5.99448 16.0567-.45578 5.34476 0 24.80084 0 24.80084h6.02768.0608 6.02768s.45578-19.45608 0-24.80084c-.44922-5.26785-3.08407-11.6588-5.99447-16.0567z" fill="none"/><path d="m453.42239 393.17039h5.11878v2.05659h-5.11878z" fill="#fcef3c"/><path d="m453.00827 393.66163h6.04032c.33317.46271.29394.78842 0 1.12388h-6.04032c-.3449-.40422-.33318-.84763 0-1.12388z" fill="#fcef3c" stroke-linecap="round" stroke-linejoin="round"/><path d="m440.53112 393.13549h2.50028v2.12638h-2.50028z" fill="#fcef3c"/><path d="m440.32885 393.6434h2.95039c.3981.47843.30049.73673 0 1.16204h-2.95039c-.40383-.45719-.35887-.83719 0-1.16204z" fill="#fcef3c" stroke-linecap="round" stroke-linejoin="round"/><path d="m468.97022 393.17472h2.50027v2.12638h-2.50027z" fill="#fcef3c"/><path d="m468.76794 393.68262h2.9504c.3981.47844.30049.73673 0 1.16204h-2.9504c-.40382-.45719-.35887-.83718 0-1.16204z" fill="#fcef3c" stroke-linecap="round" stroke-linejoin="round"/><g fill="none"><path d="m457.57985 365.70979c2.65641-.85231 4.46583.75082 3.65282 3.51151-1.02152 2.44904-4.19944 1.53701-5.56992-.2743-1.37818 1.81275-4.65952 2.71888-5.68155.26859-.66057-2.24306.34944-3.7604 2.17662-3.79438.42166-.008.88603.063 1.45666.3-1.26192-1.84012-.77647-4.57743 1.94222-4.65441 2.80645.23938 3.77279 2.42601 2.02315 4.64299z"/><ellipse cx="937.625" cy="365.25" rx="17.625" ry="13.75" stroke-width="2.288177" transform="matrix(.3999666 0 0 .4775261 80.635771 192.43527)"/><ellipse cx="943.81079" cy="366.31311" rx="15.026019" ry="14.495689" stroke-width="1.593516" transform="matrix(.6386569 0 0 .6166226 -147.11686 140.97479)"/><path d="m455.69761 351.41418c-8.83807 7.98008-16.83939 19.5766-18.2035 29.13523-1.38406 9.69817 0 45.00163 0 45.00163h18.3043.1848 18.30433s1.38406-35.30346 0-45.00163c-1.3641-9.55863-9.36543-21.15515-18.2035-29.13523z"/><path d="m455.68682 347.7366c-10.26541 8.81052-19.55891 21.6138-21.14334 32.16713-1.60756 10.7074 0 49.68464 0 49.68464h21.26042.21465 21.26042s1.60756-38.97724 0-49.68464c-1.58443-10.55333-10.87793-23.35661-21.14334-32.16713z"/><path d="m440.67954 418.48289h30.43964v2.03977h-30.43964z" stroke-linecap="round" stroke-linejoin="round"/></g></g><g><path d="m196.26991 274.90449c-1.71857 2.85661-3.27442 7.00778-3.53968 10.42945-.26913 3.47163 0 16.10912 0 16.10912h3.55928.0359 3.55929s.26913-12.63749 0-16.10912c-.26526-3.42167-1.82112-7.57284-3.53968-10.42945z" fill="none"/><path d="m205.53501 274.90449c-1.71856 2.85661-3.27441 7.00778-3.53967 10.42945-.26914 3.47163 0 16.10912 0 16.10912h3.55928.0359 3.55928s.26913-12.63749 0-16.10912c-.26526-3.42167-1.82111-7.57284-3.53968-10.42945z" fill="none"/><path d="m199.3944 285.09181h3.02259v1.33583h-3.02259z" fill="#fcef3c"/><path d="m199.14986 285.41089h3.56675c.19674.30055.17357.51211 0 .73h-3.56675c-.20366-.26255-.19673-.55057 0-.73z" fill="#fcef3c" stroke-linecap="round" stroke-linejoin="round"/><path d="m191.78223 285.06914h1.47639v1.38117h-1.47639z" fill="#fcef3c"/><path d="m191.66279 285.39904h1.74218c.23507.31077.17744.47854 0 .7548h-1.74218c-.23845-.29697-.21191-.54379 0-.7548z" fill="#fcef3c" stroke-linecap="round" stroke-linejoin="round"/><path d="m208.57524 285.09462h1.47638v1.38117h-1.47638z" fill="#fcef3c"/><path d="m208.45579 285.42452h1.74218c.23508.31077.17744.47854 0 .75479h-1.74218c-.23845-.29696-.21191-.54378 0-.75479z" fill="#fcef3c" stroke-linecap="round" stroke-linejoin="round"/><g fill="none"><path d="m201.84934 267.25508c1.56858-.55361 2.63702.48768 2.15695 2.28086-.6032 1.59075-2.47972.99835-3.28899-.17817-.8138 1.17746-2.75139 1.76602-3.35489.17446-.39006-1.45695.20634-2.44252 1.28527-2.4646.24899-.005.5232.041.86015.19487-.74516-1.19524-.45851-2.97323 1.14686-3.02323 1.65718.15549 2.22779 1.57579 1.19465 3.01581z"/><ellipse cx="937.625" cy="365.25" rx="17.625" ry="13.75" stroke-width="3.694713" transform="matrix(.2361763 0 0 .3101718 -20.732397 154.70651)"/><ellipse cx="943.81079" cy="366.31311" rx="15.026019" ry="14.495689" stroke-width="2.573046" transform="matrix(.3771206 0 0 .4005205 -155.21806 121.28092)"/><path d="m200.73789 257.96952c-5.21879 5.18338-9.94349 12.71577-10.74898 18.92447-.81728 6.29934 0 29.23031 0 29.23031h10.8085.10913 10.80852s.81728-22.93097 0-29.23031c-.80549-6.2087-5.53019-13.74109-10.74899-18.92447z"/><path d="m200.73152 255.58079c-6.06162 5.72278-11.54934 14.03901-12.48493 20.89381-.94925 6.95487 0 32.27211 0 32.27211h12.55407.12674 12.55407s.94925-25.31724 0-32.27211c-.93559-6.8548-6.42331-15.17103-12.48493-20.89381z"/><path d="m191.86987 301.53327h17.97431v1.32491h-17.97431z" stroke-linecap="round" stroke-linejoin="round"/></g></g><g fill="none" stroke-width="5.14545" transform="matrix(.1853021 0 0 .2038323 173.98822 217.7102)"><g stroke-width="5.14545"><path d="m120.2452 816.35937c-9.2744 14.0145-17.6707 34.38013-19.1022 51.16685-1.4524 17.03178 0 79.03121 0 79.03121h19.208.1939 19.208s1.4524-61.99943 0-79.03121c-1.4315-16.78672-9.8278-37.15235-19.1022-51.16685z"/><path d="m170.2452 816.35937c-9.2744 14.0145-17.6707 34.38013-19.1022 51.16685-1.4524 17.03178 0 79.03121 0 79.03121h19.208.1939 19.208s1.4524-61.99943 0-79.03121c-1.4315-16.78672-9.8278-37.15235-19.1022-51.16685z"/><path d="m137.10679 866.3383h16.31169v6.5536h-16.31169z"/><path d="m135.78714 867.9037h19.24829c1.0617 1.4745.9367 2.5124 0 3.5814h-19.24829c-1.09906-1.2881-1.06171-2.7011 0-3.5814z" stroke-linecap="round" stroke-linejoin="round"/><path d="m96.027046 866.2271h7.967454v6.776h-7.967454z"/><path d="m95.382461 867.8456h9.401839c1.26859 1.5246.95754 2.3477 0 3.703h-9.401839c-1.286836-1.4569-1.143593-2.6678 0-3.703z" stroke-linecap="round" stroke-linejoin="round"/><path d="m186.65205 866.3521h7.96745v6.776h-7.96745z"/><path d="m186.00746 867.9706h9.40184c1.26859 1.5246.95754 2.3477 0 3.703h-9.40184c-1.28684-1.4569-1.14359-2.6678 0-3.703z" stroke-linecap="round" stroke-linejoin="round"/><path d="m150.3551 778.8314c8.46502-2.716 14.23096 2.3926 11.6402 11.1899-3.2552 7.8042-13.38206 4.8979-17.74931-.8741-4.39175 5.7766-14.84816 8.6641-18.10502.8559-2.10498-7.1478 1.11355-11.983 6.93611-12.0913 1.34367-.025 2.82346.2009 4.64185.956-4.02129-5.8638-2.47435-14.5866 6.18914-14.8319 8.94312.7628 12.02251 7.7308 6.44703 14.7955z"/></g><ellipse cx="937.625" cy="365.25" rx="17.625" ry="13.75" stroke-width="3.694713" transform="matrix(1.2745473 0 0 1.521701 -1050.8279 226.66885)"/><ellipse cx="943.81079" cy="366.31311" rx="15.026019" ry="14.495689" stroke-width="2.573046" transform="matrix(2.0351661 0 0 1.964951 -1776.5923 62.68311)"/><path d="m144.3571 733.27653c-28.1637 25.42961-53.661 62.38346-58.0079 92.84331-4.4105 30.90454 0 143.40375 0 143.40375h58.3291.5889 58.3292s4.4105-112.49921 0-143.40375c-4.3469-30.45985-29.8442-67.4137-58.0079-92.84331z" stroke-width="5.14545"/><path d="m144.3227 721.55743c-32.7121 28.0759-62.3271 68.87528-67.3761 102.50488-5.1227 34.12056 0 158.3268 0 158.3268h67.7492.684 67.7492s5.1227-124.20624 0-158.3268c-5.049-33.6296-34.664-74.42898-67.3761-102.50488z" stroke-width="5.14545"/><path d="m96.5 947h97v6.5h-97z" stroke-linecap="round" stroke-linejoin="round" stroke-width="5.14545"/></g><path d="m379.78065 220.38989v107.28403h33.6268v-74.0201zm-.0294 122.69019v89.56352h33.84253v-89.56352z" fill="#fcef3c" stroke-linecap="round" stroke-linejoin="round"/><g><path d="m392.08779 274.90449c-1.71857 2.85661-3.27442 7.00778-3.53968 10.42945-.26913 3.47163 0 16.10912 0 16.10912h3.55928.0359 3.55929s.26913-12.63749 0-16.10912c-.26526-3.42167-1.82112-7.57284-3.53968-10.42945z" fill="none"/><path d="m401.35289 274.90449c-1.71856 2.85661-3.27441 7.00778-3.53967 10.42945-.26914 3.47163 0 16.10912 0 16.10912h3.55928.0359 3.55928s.26913-12.63749 0-16.10912c-.26526-3.42167-1.82111-7.57284-3.53968-10.42945z" fill="none"/><path d="m395.21228 285.09181h3.02259v1.33583h-3.02259z" fill="#fcef3c"/><path d="m394.96774 285.41089h3.56675c.19674.30055.17357.51211 0 .73h-3.56675c-.20366-.26255-.19673-.55057 0-.73z" fill="#fcef3c" stroke-linecap="round" stroke-linejoin="round"/><path d="m387.60011 285.06914h1.47639v1.38117h-1.47639z" fill="#fcef3c"/><path d="m387.48067 285.39904h1.74218c.23507.31077.17744.47854 0 .7548h-1.74218c-.23845-.29697-.21191-.54379 0-.7548z" fill="#fcef3c" stroke-linecap="round" stroke-linejoin="round"/><path d="m404.39312 285.09462h1.47638v1.38117h-1.47638z" fill="#fcef3c"/><path d="m404.27367 285.42452h1.74218c.23508.31077.17744.47854 0 .75479h-1.74218c-.23845-.29696-.21191-.54378 0-.75479z" fill="#fcef3c" stroke-linecap="round" stroke-linejoin="round"/><g fill="none"><path d="m397.66722 267.25508c1.56858-.55361 2.63702.48768 2.15695 2.28086-.6032 1.59075-2.47972.99835-3.28899-.17817-.8138 1.17746-2.75139 1.76602-3.35489.17446-.39006-1.45695.20634-2.44252 1.28527-2.4646.24899-.005.5232.041.86015.19487-.74516-1.19524-.45851-2.97323 1.14686-3.02323 1.65718.15549 2.22779 1.57579 1.19465 3.01581z"/><ellipse cx="937.625" cy="365.25" rx="17.625" ry="13.75" stroke-width="3.694713" transform="matrix(.2361763 0 0 .3101718 175.08548 154.70651)"/><ellipse cx="943.81079" cy="366.31311" rx="15.026019" ry="14.495689" stroke-width="2.573046" transform="matrix(.3771206 0 0 .4005205 40.599816 121.28092)"/><path d="m396.55577 257.96952c-5.21879 5.18338-9.94349 12.71577-10.74898 18.92447-.81728 6.29934 0 29.23031 0 29.23031h10.8085.10913 10.80852s.81728-22.93097 0-29.23031c-.80549-6.2087-5.53019-13.74109-10.74899-18.92447z"/><path d="m396.5494 255.58079c-6.06162 5.72278-11.54934 14.03901-12.48493 20.89381-.94925 6.95487 0 32.27211 0 32.27211h12.55407.12674 12.55407s.94925-25.31724 0-32.27211c-.93559-6.8548-6.42331-15.17103-12.48493-20.89381z"/><path d="m387.68775 301.53327h17.97431v1.32491h-17.97431z" stroke-linecap="round" stroke-linejoin="round"/></g></g><g fill="none" stroke-width="5.14545" transform="matrix(.1853021 0 0 .2038323 369.8061 217.7102)"><g stroke-width="5.14545"><path d="m120.2452 816.35937c-9.2744 14.0145-17.6707 34.38013-19.1022 51.16685-1.4524 17.03178 0 79.03121 0 79.03121h19.208.1939 19.208s1.4524-61.99943 0-79.03121c-1.4315-16.78672-9.8278-37.15235-19.1022-51.16685z"/><path d="m170.2452 816.35937c-9.2744 14.0145-17.6707 34.38013-19.1022 51.16685-1.4524 17.03178 0 79.03121 0 79.03121h19.208.1939 19.208s1.4524-61.99943 0-79.03121c-1.4315-16.78672-9.8278-37.15235-19.1022-51.16685z"/><path d="m137.10679 866.3383h16.31169v6.5536h-16.31169z"/><path d="m135.78714 867.9037h19.24829c1.0617 1.4745.9367 2.5124 0 3.5814h-19.24829c-1.09906-1.2881-1.06171-2.7011 0-3.5814z" stroke-linecap="round" stroke-linejoin="round"/><path d="m96.027046 866.2271h7.967454v6.776h-7.967454z"/><path d="m95.382461 867.8456h9.401839c1.26859 1.5246.95754 2.3477 0 3.703h-9.401839c-1.286836-1.4569-1.143593-2.6678 0-3.703z" stroke-linecap="round" stroke-linejoin="round"/><path d="m186.65205 866.3521h7.96745v6.776h-7.96745z"/><path d="m186.00746 867.9706h9.40184c1.26859 1.5246.95754 2.3477 0 3.703h-9.40184c-1.28684-1.4569-1.14359-2.6678 0-3.703z" stroke-linecap="round" stroke-linejoin="round"/><path d="m150.3551 778.8314c8.46502-2.716 14.23096 2.3926 11.6402 11.1899-3.2552 7.8042-13.38206 4.8979-17.74931-.8741-4.39175 5.7766-14.84816 8.6641-18.10502.8559-2.10498-7.1478 1.11355-11.983 6.93611-12.0913 1.34367-.025 2.82346.2009 4.64185.956-4.02129-5.8638-2.47435-14.5866 6.18914-14.8319 8.94312.7628 12.02251 7.7308 6.44703 14.7955z"/></g><ellipse cx="937.625" cy="365.25" rx="17.625" ry="13.75" stroke-width="3.694713" transform="matrix(1.2745473 0 0 1.521701 -1050.8279 226.66885)"/><ellipse cx="943.81079" cy="366.31311" rx="15.026019" ry="14.495689" stroke-width="2.573046" transform="matrix(2.0351661 0 0 1.964951 -1776.5923 62.68311)"/><path d="m144.3571 733.27653c-28.1637 25.42961-53.661 62.38346-58.0079 92.84331-4.4105 30.90454 0 143.40375 0 143.40375h58.3291.5889 58.3292s4.4105-112.49921 0-143.40375c-4.3469-30.45985-29.8442-67.4137-58.0079-92.84331z" stroke-width="5.14545"/><path d="m144.3227 721.55743c-32.7121 28.0759-62.3271 68.87528-67.3761 102.50488-5.1227 34.12056 0 158.3268 0 158.3268h67.7492.684 67.7492s5.1227-124.20624 0-158.3268c-5.049-33.6296-34.664-74.42898-67.3761-102.50488z" stroke-width="5.14545"/><path d="m96.5 947h97v6.5h-97z" stroke-linecap="round" stroke-linejoin="round" stroke-width="5.14545"/></g><path d="m183.76217 388.49922c48.84064-31.60033 181.39633-31.60033 230.23697 0 1.88785 1.22145 0 5.75796 0 5.75796h-230.23697s-1.88784-4.53651 0-5.75796z" fill="#fcef3c" stroke-linecap="round" stroke-linejoin="round"/><path d="m191.12087 403.50568h32.17686v49.23034h-32.17686z" fill="#fcef3c" stroke-linecap="round" stroke-linejoin="round"/><path d="m368.53389 129.77894h10.37602v5.40324h-10.37602z" fill="#fcef3c"/><path d="m367.69445 131.01409h12.24403c.67536 1.21568.59585 2.07139 0 2.95276h-12.24403c-.69913-1.062-.67537-2.22698 0-2.95276z" fill="#fcef3c" stroke-linecap="round" stroke-linejoin="round"/><path d="m188.18092 448.257h38.36074c2.61586 3.16337 2.55532 6.32677 0 9.49014h-38.36074c-2.19668-3.63408-2.35358-6.32677 0-9.49014z" fill="#fcef3c" stroke-linecap="round" stroke-linejoin="round"/><path d="m238.41905 510.77652c-.11095 5.54742-.11095 5.54742-.11095 5.54742" fill="#fcef3c" fill-rule="evenodd"/><path d="m361.58095 510.44366.11094 5.88028" fill="#fcef3c" fill-rule="evenodd"/><path d="m181.11979 458.62239-.0988 6.42289" fill="#fcef3c" fill-rule="evenodd"/><path d="m419.69719 458.10639-.0975 6.98844" fill="#fcef3c" fill-rule="evenodd"/><path d="m106.89282 432.9137h9.06259v4.3818h-9.06259z" fill="#fcef3c"/><path d="m106.18721 434.38867h10.63814c.58678 1.22503.5177 2.08728 0 2.97543h-10.63814c-.60743-1.07016-.58679-2.24406 0-2.97543z" fill="#fcef3c" stroke-linecap="round" stroke-linejoin="round"/><path d="m169.65496 432.9137h9.06259v4.3818h-9.06259z" fill="#fcef3c"/><path d="m168.94935 434.38867h10.63814c.58678 1.22503.5177 2.08728 0 2.97543h-10.63814c-.60743-1.07016-.58679-2.24406 0-2.97543z" fill="#fcef3c" stroke-linecap="round" stroke-linejoin="round"/><path d="m419.44827 432.9137h9.0626v4.3818h-9.0626z" fill="#fcef3c"/><path d="m482.21041 432.9137h9.0626v4.3818h-9.0626z" fill="#fcef3c"/><path d="m418.74267 434.38867h10.63812c.58679 1.22503.51772 2.08728 0 2.97543h-10.63812c-.60744-1.07016-.5868-2.24406 0-2.97543z" fill="#fcef3c" stroke-linecap="round" stroke-linejoin="round"/><path d="m481.50481 434.38867h10.63812c.58679 1.22503.51772 2.08728 0 2.97543h-10.63812c-.60744-1.07016-.5868-2.24406 0-2.97543z" fill="#fcef3c" stroke-linecap="round" stroke-linejoin="round"/><path d="m375.64157 403.50568h32.17685v49.23034h-32.17685z" fill="#fcef3c" stroke-linecap="round" stroke-linejoin="round"/><path d="m183.55919 395.08658h230.64267c6.22246 4.10778 6.22246 8.21563 0 12.32341h-230.64267c-5.77798-4.10778-6.22244-7.88126 0-12.32341z" fill="#fcef3c" stroke-linecap="round" stroke-linejoin="round"/><path d="m189.61578 399.74463h219.47893c5.92127 1.00244 5.92127 2.00487 0 3.00731h-219.47893c-5.49832-1.00244-5.92126-1.92328 0-3.00731z" fill="#fcef3c" stroke-linecap="round" stroke-linejoin="round"/><path d="m196.71999 386.74678c43.67595-16.58446 162.21444-16.58446 205.89039 0 1.68822.64105 0 3.0219 0 3.0219h-205.89039s-1.68821-2.38085 0-3.0219z" fill="#fcef3c" stroke-linecap="round" stroke-linejoin="round"/><path d="m372.70161 448.257h38.36074c2.61585 3.16337 2.55532 6.32677 0 9.49014h-38.36074c-2.19668-3.63408-2.35358-6.32677 0-9.49014z" fill="#fcef3c" stroke-linecap="round" stroke-linejoin="round"/><path d="m196.65368 411.97085h21.11124v32.3h-21.11124z" fill="#fcef3c" stroke-linecap="round" stroke-linejoin="round"/><path d="m381.17437 411.97085h21.11125v32.3h-21.11125z" fill="#fcef3c" stroke-linecap="round" stroke-linejoin="round"/><path d="m371.79809 451.43302h40.88323" fill="#fcef3c" fill-rule="evenodd"/><path d="m372.1119 454.88494h40.88323" fill="#fcef3c" fill-rule="evenodd"/><path d="m186.96359 454.88494h41.08158" fill="#fcef3c" fill-rule="evenodd"/><path d="m186.96359 451.11921h41.08158" fill="#fcef3c" fill-rule="evenodd"/><path d="m218.53237 129.77894h10.37603v5.40324h-10.37603z" fill="#fcef3c"/><path d="m217.58199 130.95862h12.24402c.67537 1.21568.59586 2.07139 0 2.95275h-12.24402c-.69913-1.06199-.67537-2.22697 0-2.95275z" fill="#fcef3c" stroke-linecap="round" stroke-linejoin="round"/><ellipse cx="943.81079" cy="366.31311" fill="#fcef3c" rx="15.026019" ry="14.495689" stroke-width=".480552" transform="matrix(2.0703037 0 0 2.0916337 -1654.8765 -609.17582)"/><ellipse cx="937.625" cy="365.25" fill="#fcef3c" rx="17.625" ry="13.75" stroke-width=".690039" transform="matrix(1.2965526 0 0 1.6198069 -916.58164 -434.61771)"/><path d="m305.34005 153.14338c8.61117-2.89105 14.47666 2.5469 11.84117 11.91134-3.31139 8.30737-13.6131 5.21374-18.05576-.93042-4.46756 6.149-15.10451 9.22266-18.4176.91104-2.14133-7.60862 1.13278-12.75553 7.05586-12.87086 1.36687-.0266 2.87221.21391 4.722 1.01766-4.09072-6.24184-2.51708-15.52701 6.296-15.78811 9.09752.81202 12.23007 8.22927 6.55833 15.74935z" fill="#fcef3c"/><g><path d="m135.57558 377.48647c-2.9104 4.3979-5.54525 10.78885-5.99447 16.0567-.45578 5.34476 0 24.80084 0 24.80084h6.02767.0609 6.02768s.45578-19.45608 0-24.80084c-.44922-5.26785-3.08407-11.6588-5.99448-16.0567z" fill="none"/><path d="m151.26612 377.48647c-2.91041 4.3979-5.54526 10.78885-5.99448 16.0567-.45578 5.34476 0 24.80084 0 24.80084h6.02768.0609 6.02767s.45578-19.45608 0-24.80084c-.44922-5.26785-3.08407-11.6588-5.99447-16.0567z" fill="none"/><path d="m140.86693 393.17039h5.11878v2.05659h-5.11878z" fill="#fcef3c"/><path d="m140.45281 393.66163h6.04032c.33317.46271.29395.78842 0 1.12388h-6.04032c-.3449-.40422-.33318-.84763 0-1.12388z" fill="#fcef3c" stroke-linecap="round" stroke-linejoin="round"/><path d="m127.97567 393.13549h2.50027v2.12638h-2.50027z" fill="#fcef3c"/><path d="m127.77339 393.6434h2.9504c.39809.47843.30048.73673 0 1.16204h-2.9504c-.40382-.45719-.35887-.83719 0-1.16204z" fill="#fcef3c" stroke-linecap="round" stroke-linejoin="round"/><path d="m156.41476 393.17472h2.50027v2.12638h-2.50027z" fill="#fcef3c"/><path d="m156.21248 393.68262h2.9504c.3981.47844.30049.73673 0 1.16204h-2.9504c-.40382-.45719-.35887-.83718 0-1.16204z" fill="#fcef3c" stroke-linecap="round" stroke-linejoin="round"/><g fill="none"><path d="m145.02439 365.70979c2.65642-.85231 4.46583.75082 3.65282 3.51151-1.02152 2.44904-4.19943 1.53701-5.56992-.2743-1.37818 1.81275-4.65951 2.71888-5.68155.26859-.66057-2.24306.34944-3.7604 2.17662-3.79438.42166-.008.88604.063 1.45667.3-1.26193-1.84012-.77648-4.57743 1.94222-4.65441 2.80644.23938 3.77279 2.42601 2.02314 4.64299z"/><ellipse cx="937.625" cy="365.25" rx="17.625" ry="13.75" stroke-width="2.288177" transform="matrix(.3999666 0 0 .4775261 -231.91969 192.43527)"/><ellipse cx="943.81079" cy="366.31311" rx="15.026019" ry="14.495689" stroke-width="1.593516" transform="matrix(.6386569 0 0 .6166226 -459.67232 140.97479)"/><path d="m143.14216 351.41418c-8.83807 7.98008-16.8394 19.5766-18.2035 29.13523-1.38407 9.69817 0 45.00163 0 45.00163h18.30429.1848 18.30433s1.38406-35.30346 0-45.00163c-1.3641-9.55863-9.36543-21.15515-18.2035-29.13523z"/><path d="m143.13136 347.7366c-10.26541 8.81052-19.55891 21.6138-21.14334 32.16713-1.60756 10.7074 0 49.68464 0 49.68464h21.26042.21465 21.26042s1.60756-38.97724 0-49.68464c-1.58443-10.55333-10.87793-23.35661-21.14334-32.16713z"/><path d="m128.12409 418.48289h30.43963v2.03977h-30.43963z" stroke-linecap="round" stroke-linejoin="round"/></g></g><g><path d="m135.57558 272.67369c-2.9104 4.3979-5.54525 10.78886-5.99447 16.05671-.45578 5.34475 0 24.80084 0 24.80084h6.02767.0609 6.02768s.45578-19.45609 0-24.80084c-.44922-5.26785-3.08407-11.65881-5.99448-16.05671z" fill="none"/><path d="m151.26612 272.67369c-2.91041 4.3979-5.54526 10.78886-5.99448 16.05671-.45578 5.34475 0 24.80084 0 24.80084h6.02768.0609 6.02767s.45578-19.45609 0-24.80084c-.44922-5.26785-3.08407-11.65881-5.99447-16.05671z" fill="none"/><path d="m140.86693 288.35762h5.11878v2.05659h-5.11878z" fill="#fcef3c"/><path d="m140.45281 288.84886h6.04032c.33317.46271.29395.78841 0 1.12388h-6.04032c-.3449-.40422-.33318-.84764 0-1.12388z" fill="#fcef3c" stroke-linecap="round" stroke-linejoin="round"/><path d="m127.97567 288.32272h2.50027v2.12638h-2.50027z" fill="#fcef3c"/><path d="m127.77339 288.83062h2.9504c.39809.47844.30048.73674 0 1.16204h-2.9504c-.40382-.45719-.35887-.83718 0-1.16204z" fill="#fcef3c" stroke-linecap="round" stroke-linejoin="round"/><path d="m156.41476 288.36195h2.50027v2.12638h-2.50027z" fill="#fcef3c"/><path d="m156.21248 288.86985h2.9504c.3981.47844.30049.73673 0 1.16204h-2.9504c-.40382-.45719-.35887-.83718 0-1.16204z" fill="#fcef3c" stroke-linecap="round" stroke-linejoin="round"/><g fill="none"><path d="m145.02439 260.89701c2.65642-.85231 4.46583.75083 3.65282 3.51152-1.02152 2.44904-4.19943 1.53701-5.56992-.27431-1.37818 1.81276-4.65951 2.71889-5.68155.26859-.66057-2.24305.34944-3.76039 2.17662-3.79438.42166-.008.88604.063 1.45667.30001-1.26193-1.84013-.77648-4.57743 1.94222-4.65441 2.80644.23937 3.77279 2.42601 2.02314 4.64298z"/><ellipse cx="937.625" cy="365.25" rx="17.625" ry="13.75" stroke-width="2.288177" transform="matrix(.3999666 0 0 .4775261 -231.91969 87.622498)"/><ellipse cx="943.81079" cy="366.31311" rx="15.026019" ry="14.495689" stroke-width="1.593516" transform="matrix(.6386569 0 0 .6166226 -459.67232 36.162019)"/><path d="m143.14216 246.60141c-8.83807 7.98008-16.8394 19.5766-18.2035 29.13522-1.38407 9.69818 0 45.00163 0 45.00163h18.30429.1848 18.30433s1.38406-35.30345 0-45.00163c-1.3641-9.55862-9.36543-21.15514-18.2035-29.13522z"/><path d="m143.13136 242.92383c-10.26541 8.81052-19.55891 21.6138-21.14334 32.16713-1.60756 10.7074 0 49.68464 0 49.68464h21.26042.21465 21.26042s1.60756-38.97724 0-49.68464c-1.58443-10.55333-10.87793-23.35661-21.14334-32.16713z"/><path d="m128.12409 313.67012h30.43963v2.03977h-30.43963z" stroke-linecap="round" stroke-linejoin="round"/></g></g></g></g><path d="m299.99999 650.66602s61.6919-22.99071 61.6919-81.41944 0-52.92264 0-52.92264h-123.38379v52.92264c0 58.42873 61.69189 81.41944 61.69189 81.41944z" fill="#fff" fill-rule="evenodd" stroke="#000" stroke-width="2.5"/><circle cx="299.45819" cy="576.5" fill="#f00" fill-rule="evenodd" r="35" stroke="#000" stroke-width="2"/><path d="m299.41816 651.02192s-61.69189-22.99071-61.69189-81.41947c0-58.42875 0-52.92265 0-52.92265h123.38378v52.92265c0 58.42876-61.69189 81.41947-61.69189 81.41947z" fill="none"/><g transform="matrix(-.91830237 0 0 .91830237 1042.0683 -1.352645)"><path d="m805.81814 273.98106c-1.95807.38147-2.11384.60679-2.43333 1.06666l-2.53333 3.66667c.0521.79058.37947 1.61094-1.26667 2.16667-.61959.39439-1.27363.78799-.6 2.2l2.13333 1.43333-.8 3.6c-1.18168-.7418-4.19067 2.13038-6.3 3.7-3.69843-1.84428-10.59725.24583-13.8.53333-6.58794-2.56043-9.34224-3.60255-15.5-7.63333l-2.96666 2.1 2.76666 2.2 2.33334-1.33333c5.63402 2.14419 7.86017 3.38876 12.6 6.43333l3.86666-.9c-.55605.77681-.97537 1.58948-1.33333 2.4-3.56309-1.56982-2.4995 3.3894-4.8 5.1 2.02773-.91556 2.83445-4.72754 4.06667-3.16667-.76235 2.69854-.7223 5.4213-.7 7.8 1.09866-3.41604 1.07138-6.90615 3.56666-10.2.31576-.4169 4.37274-3.09423 7.16667-2.76666l-2.46667 2.46666c-3.5512-.16143-3.69588 6.16138-4.76666 13.93334 1.10836 1.86834 2.05248 8.37755 3.96666 10.8-1.87953.95151-3.78849 1.33117-5.73333 1.3-3.35328-.0538-2.54702-14.35144-5.93333-12.16667l-1.23334-1.7c-.44522-.0195-.85549.24512-1 .66667-.85717 2.2286-1.00828 4.53307-1.5 6.56666-.49162 2.03361-1.21395 3.76633-3.1 5.23334-.21877 3.43848-.22571 6.91751-1.46666 10.16666.0988 2.30206.90847 4.74509 3.2 6.96667l.43333 3 4.33333 6.63333c.007.0178.0215.0484.0333.0667l.0333.0667c1.20096 2.65882 2.0534 5.24576 2.1 7.63333.0477 2.43052-.67562 4.68639-2.86666 6.96667-.0962.97626-.44159 2.03588.0667 3.13333-.97845 5.53377-3.37046 7.84368-6 9.6 1.12043 1.17155 3.43798.90294 4.73334-.43333l3.33333-9.23334-.36667-2.16666c5.02699-8.49651 1.86613-15.89422-3.6-23.16667l-.23333-2.53333c-6.2816-5.48084-2.59347-9.28291-2.1-15.6 1.92565-1.72797 2.90382-3.81464 3.4-5.86667.99808-5.41452 2.66789 8.22337 7.7 8.2 1.96488-.19064 4.5733-1.04934 6.96667-2.43333.29813.0684.62719.0401.96666-.1 9.55325-3.42744 6.11248-13.12728 11.43334-21.06667-.00002-.00001 3.06469-3.45675 4.03333-4.7.89366-1.14703 2.92902-2.26267 3.5-3.6.55596-1.30199.526-3.26619.73333-4.66666.30051-2.02943.89769-4.28837.73334-6.33334-.0833-1.03582-.42907-2.45462-1.03334-3.3-.81431-1.13929-3.76666-2.73333-3.76666-2.73333z"/><path d="m820.91954 166.38858c25.55073 2.2354 43.58528 22.8136 41.51731 46.45059-1.0827 12.37533-8.66777 23.73238-18.43528 30.75759.13075 2.357.35305 11.73975.85984 16.46184 7.57996 4.0024 11.67571 11.99072 17.20143 20.93646 7.84603 12.70282 19.18175 44.00009 19.86113 63.95769.15181 4.45819-2.36733 15.90397-7.52796 15.21164l-2.89089 7.57255c-1.00414 4.73131 1.63365 7.62789-1.89114 10.27755l-6.53097 9.43598-2.88954 6.63274c5.89974 8.79786 6.01511 14.56102 7.63998 20.62514 4.54299 14.82354 6.89092 30.19192 10.75467 44.61163-1.78685.32527-5.17054-1.36528-5.31002.39775-.31488 3.98335 4.69026 41.83783 1.60148 44.47946l-12.3946 13.97805-4.2958 24.72383-4.24039-.61204c4.32203 16.999-8.16717 10.87991-17.09089 4.191-10.02044-1.23453-14.87516 2.67258-26.55517-3.26302l-12.00644.59788-17.95259 5.79698c-.27401-3.69073 2.71218-8.96498-.8999-11.03436.0628-.0981-25.49634 22.62272-18.02334-4.87771l-9.58566-4.5605-14.99108 6.77055-19.14496-5.54953c-1.61868-15.22603 7.21899-27.31146 11.67738-42.03604l-2.10514-25.63346c1.03294-15.85339 5.66302-13.34995 6.87124-29.05211l2.00219-21.9375-4.07646-2.14323-1.90519-1.25829c-5.99673-7.6973-4.30211-9.86849-2.58646-17.07264-9.88588-23.94457-6.29186-40.61027-2.74829-53.91932l2.20304-1.19268c-.18305-6.95837-1.48126-10.44765.41382-22.00595l-.33492-.49114-.58334-.051c-2.80247 1.84609-6.65866 4.67626-9.0551 4.16202l-2.12327.27608-2.08645 2.25258c.20265-.1407-3.13194-.85906-6.84682.99641l-7.29931.41101c-8.19498-6.41488-8.05803-15.43846-7.54134-25.13705 0 .00001-1.69766-4.27783-2.18186-5.77489-.44672-1.38121-1.95483-3.13685-2.03383-4.58638-.077-1.41128.62456-3.23825.90824-4.62286.41104-2.00647.61103-4.3074 1.46348-6.16973.43182-.9433 1.23294-2.16948 2.08846-2.75622 1.15297-.79077 4.47905-1.28753 4.47905-1.28753 1.7067 1.02645 1.75314 1.30474 1.89583 1.84525l1.13538 4.29785c-.31883.72387-.8993 1.39153.45524 2.47495.44662.58156.91729 1.15533-.19679 2.24998l-2.4894.62191-.48751 3.65202c1.40322-.30129 3.31885 3.67696 4.77956 5.83423l1.60532-.11147 1.97378 1.43225 2.00582-.37032 3.25826 1.62858c5.8897-3.04323 5.0872-.55887 11.56077-1.12981.81231-.0716.62414-.39341 1.39172-.55.27996-1.71119 1.17511-2.85916 4.6113-4.71873l17.43195-3.93296 36.11895-27.92239c-.85201-1.80758-.49193-4.87883-1.15739-6.97334 1.58594-3.12088 3.29976-10.73001 3.59441-12.18484-8.10031-8.56315-13.57564-20.59636-12.51352-32.73588 2.06792-23.63697 24.09698-40.58247 49.64798-38.34704v-.00003z"/><path d="m828.81463 254.87604c5.06307-1.29934 6.26957 5.03796 10.55558 5.122 14.56197 4.7449 21.23717 20.56718 27.22589 33.44996 6.98237 17.88736 14.884 36.66968 13.90403 56.20236-.48102 8.25534-8.69835 9.77701-11.27044 17.10273-1.10043 6.21507-.9298 12.47758-6.43878 17.13349-2.89392 3.02799-4.38759 6.85593-5.83333 10.71125 9.63635 10.41425 10.21002 25.87265 13.97659 38.95312-1.68035 7.17301 12.05427 23.19318 1.3678 23.71114-2.54716 2.06474.15178 8.30747-.32304 12.02262.79956 11.18215 1.59913 22.36431 2.39869 33.54647-4.34219 5.12387-9.68904 9.75962-13.42595 15.17757-1.24091 7.62257-2.48183 15.24513-3.72274 22.8677-4.99533-1.30322-9.90542-5.02551-15.0427-2.30032-6.40671-.43417-6.34614 7.87597-13.10667 6.08814-10.68387 2.14413-20.22095-6.35068-30.84789-2.37978-6.385 1.05667-19.14304 9.50296-14.69046-2.20354.70493-4.95567 1.40987-9.91134 2.1148-14.86701-3.72802 4.34483-1.01271 18.87413-8.75923 9.18543-5.69345-7.02317-14.01564-.6592-20.908-4.90241-5.33743-3.10021-10.27445 1.77388-15.38288 3.23418-4.92979 3.51697-10.31287-.77668-15.49331-1.57867-12.65641-.43227-3.79521-16.22854-1.94507-23.43277 2.48802-8.58165 9.23583-16.76272 6.7684-26.01138-1.95073-12.93655-3.23641-27.18793 4.72009-38.53101 1.17436-11.13761 2.34873-22.27523 3.52309-33.41284-9.41417-1.01889-13.00607-11.76887-9.81027-20.41894-6.96665-13.57897-6.90884-29.72567-4.42778-44.4287 2.20741-10.55105 3.59457-.60869 6.23252 3.67914.47498-3.10061 2.75716-9.5682 2.13236-10.72791-5.78587 3.19392-3.84755-16.62969-3.54071-21.97158-.0987-2.35311 6.77471-12.26376 2.44537-7.37896-1.92028 6.01078-3.85606 4.72093-1.29678-.70306 3.11393-7.14254-1.71837-.84888-2.32208 2.69475-.60128-1.93928-4.67298 5.14234-8.84688 4.40614-5.16515.8359 7.09896-10.04714-2.55001-11.86894 8.07237 9.65474-6.32303 18.36566-15.3696 17.02823-6.68115-.85001 12.50182-1.17205-.52058-2.13318-8.96506.9572-8.44451-26.51031-4.86613-11.765 2.1051 4.30652 1.98456 12.13406 8.67739 11.05856 5.26052-.22513 8.44237-7.71226 2.89017-9.33365.1313-4.90496-4.47791-18.98241 3.95233-9.55779 4.52412 5.83945-2.99534 24.77495 2.55851 9.51451 1.62957-3.0855-3.28435-9.65478 2.28253-7.49134-5.04438-4.53759-3.16077-7.40237 1.5561-2.20148 2.28369 6.30039 5.62227 9.34727 1.49037.94751-7.07526-7.26748 8.05986-1.45862 6.64646-7.55585 5.78381-4.63788 14.69661-1.71697 19.99492-7.5354 13.2139-9.14351 26.17526-18.79235 39.54554-27.62294 3.65532-.23912 9.69281-5.05951 11.80669-2.33422 5.03361 15.14405 26.17963 15.49633 31.97509.81167zm-121.56967 42.01327c1.08397 3.59628 2.18593 9.17969 2.72232 12.27605 3.06391-3.3767-.0505-9.47872-2.72232-12.27605z" fill="#2b5df2"/><path d="m730.17361 348.59597c.4749-3.10061 2.7571-9.5682 2.1323-10.72791-5.7859 3.19392-3.8475-16.62969-3.5407-21.97158-.099-2.35311 6.7747-12.26376 2.4454-7.37896-1.9203 6.01078-3.8561 4.72093-1.2968-.70306 3.1139-7.14254-1.7184-.84888-2.3221 2.69475-.6013-1.93928-4.673 5.14234-8.8469 4.40614-5.1651.8359 7.099-10.04714-2.55-11.86894 8.0724 9.65474-6.323 18.36566-15.3696 17.02823-6.6811-.85001 12.5018-1.17205-.5206-2.13318-8.965.9572-8.4445-26.51031-4.8661-11.765 2.1051 4.30652 1.9846 12.13406 8.6774 11.05856 5.2605-.22513 8.4424-7.71226 2.8902-9.33365.1313-4.90496-4.4779-18.98241 3.9523-9.55779 4.5241 5.83945-2.9953 24.77495 2.5585 9.51451 1.6296-3.0855-3.2843-9.65478 2.2825-7.49134-5.0443-4.53759-3.1607-7.40237 1.5561-2.20148 2.2837 6.30039 5.6223 9.34727 1.4904.94751-7.0752-7.26748 8.0599-1.45862 6.6465-7.55585 5.7838-4.63788 14.6966-1.71697 19.9949-7.5354 11.19154 1.547 12.99869 7.31523 20.3694 2.0302 4.8208 2.62568 9.5828 6.05019 14.0364 6.82876 2.61008.45629 6.01939-.78403 8.07666-1.02256 3.914-.4538 5.38556-.23316 4.36014 1.47206-1.43 12.07013 1.4238 23.57038-4.5954 27.16015-1.1485.68496-5.2759 2.63733-7.5671.56187-2.788-2.52564-3.8697-9.24968-6.3735-9.13-1.1834.0566-.6877 2.458-1.4255 4.70912-.9432 2.87801-2.949 5.89113-3.1763 7.48552-2.1243 10.65868 13.071 27.48913 9.0359 33.35809l-2.8524 8.12066-2.7874 7.2075-6.9488-2.31389c-.8715-.37183-3.7463 6.62548-5.0622 5.90452-.8425-.46158.6182-6.32778-.3446-7.03335-1.0337-.7575-.5579-16.08758-1.7622-16.94864-2.6834-1.91857-3.4315-5.84295-6.8486-6.35625-3.1565-.47416-6.9963 1.97204-10.7371 2.32639-1.8185.17226-2.9495 4.68488-4.7206 4.54197zm-22.9287-51.70666c1.084 3.59628 2.186 9.17969 2.7224 12.27605 3.0639-3.3767-.051-9.47872-2.7224-12.27605z" fill="#2b5df2"/><path d="m819.25993 264.40725c6.02058 1.84981 14.06673 35.15441 16.99062 54.98815.70465 4.77986-11.31192 16.01551-11.30231 18.6018l-.2847 17.96173c-.48102 8.25534 2.75587 20.335.18378 27.66072-1.10043 6.21507.23964 11.59981-5.26934 16.25572-2.89392 3.02799-20.98966 47.31237-22.4354 51.16769l2.37788 18.92433c2.06359 11.23742 5.30422 21.93159 10.01526 31.94711 17.00465 32.06782 22.94402 24.34487 27.71042 39.35931.81627 3.59386-2.06034 3.66244-15.05948 4.19429-5.0749.20764-8.69945-3.74304-14.66228-3.83366-8.17929-.1243-17.41602 3.82479-22.07703 4.63669-2.1893.38136-3.48816-.40572-2.97562-1.75954.70493-4.95567 2.47934-14.34198 3.18427-19.29765-3.72802 4.34483-1.01271 18.87413-8.75923 9.18543-8.40664-5.50318-10.00259-1.66858-17.00866-3.10946l-8.31694-2.93408-1.24779-3.56263-5.47901-43.08488c-1.95073-12.93655-3.23641-27.18793 4.72009-38.53101l3.95124-32.93648c1.43011-11.92103 5.05974-19.64031 13.74453-31.47197 1.34092-1.8268.59203-2.30338 2.08124-4.23948.43694-.56806 3.04089-2.60765 3.51343-3.10735 3.16272-3.34444 2.22962-5.47677 3.57255-9.46729.53192-1.5806 1.86208-3.85468 2.89903-7.64152.67315-2.45826-6.3397-12.7175-7.13292-17.64123l7.17713-19.37526c-.99179 2.00123.1756 3.92066 2.28638 4.30225 1.7816.32209 4.28964-.71548 6.18758-1.04733 2.23877-.39145 3.18811-.42918 3.57375-1.85956 2.57184-9.53936 1.62184-14.0807 1.96638-22.7891.0644-1.62894.063-3.39032-1.87438-3.9492-.93641-.27013-4.02235.6928-4.53948.27421-1.65249-1.33763.0339-3.97332.4601-5.93384-1.82254-6.12812 13.11895-25.99617 12.94157-26.51961 6.76062 6.97333 12.78398 6.38617 18.88733 4.6327z" fill="#e20909"/><path d="m797.12908 451.43468 21.468-49.33379s9.0904-12.52803 7.2571-33.459c-1.1137-12.7141-.6899-23.84354 2.7969-34.9481.7761-2.47172 5.195-6.43286 6.2855-9.13038 1.8843-4.66123 1.2038-7.85329.8483-9.70037" fill="none" stroke="#000" stroke-width="1.633449"/><path d="m772.58831 372.8029c-3.67995-1.69699-7.45669-2.28509-10.95997-6.00105l.0452 5.8865c-.84222-4.64898-1.8266-8.88543-2.19815-14.89868 1.38501-7.21178-2.30921-11.88921-10.07388-12.92656-6.28052-.83908-9.56953 4.43171-13.81963 7.47469l-6.13164-5.15844c-3.92509-.26429-7.1006 2.399-7.43603 16.15669l3.89015 3.56174c-.48016 7.00904.25047 13.88436 3.53086 20.47764.64012-4.96681 1.70309-7.74774 1.88145-15.10199l6.16967 1.5202 7.78052 7.12347 2.32636.62373 2.69833 5.97855c.44683 2.38557-1.11813 2.43462-1.51332 4.4896-.49996 2.601 2.57407 6.98392 4.18919 9.75058l1.06169 3.87451 6.10194 3.8953 4.27245.79397 2.43061-2.16838c-.2823-2.84351.85575-3.99411 2.24479-4.84576l.75746-3.85545c-1.56678-1.58436-2.45755-3.10959-2.54189-4.56427l-5.83455-6.95323c1.29172-1.76874 3.35015-3.48294 4.4702-5.54302 2.08623-3.83749 3.25911-7.97829 6.65814-9.59034z"/><path d="m827.5297 310.40017-12.87852 45.40987c3.13836-31.83521 6.76757-14.93699 12.87852-45.40987z" fill="none" stroke="#000" stroke-linecap="round" stroke-linejoin="round" stroke-width="2.007613"/><ellipse cx="-773.04492" cy="193.08852" fill="#fcef3c" rx="28.106585" ry="28.10659" stroke="#010007" stroke-linecap="round" stroke-linejoin="round" stroke-width="1.338409" transform="matrix(-.9961947 -.08715568 -.08715575 .9961947 0 0)"/><path d="m760.48357 232.56566c9.87006 2.61244 17.46603 10.39191 19.99367 20.0547-7.66181 3.08626-15.35159 3.36272-23.01317 2.94083-.42243-7.67111-.0807-15.32396 3.0195-22.99553zm-14.70348.0991c3.04995 7.64064 3.67046 15.26256 3.11853 22.90275-7.60939.4248-15.23711.20829-22.84714-2.79658 2.51262-9.85505 10.16907-17.45508 19.72861-20.10617zm20.67976 31.40869c4.64388.30756 9.27669 1.26131 13.91909 3.10709-2.68299 9.77576-10.45691 17.25327-20.07448 19.74005-2.98276-7.5876-3.26133-15.16525-2.83772-22.75225 2.98989-.21581 6.00248-.29297 8.99311-.0949zm-17.55857.10123c.5546 7.55527-.006 15.10998-2.94858 22.66585-9.72128-2.6219-17.22844-10.24176-19.81092-19.74481.00021-.003.003-.0389.003-.0416 7.57989-2.95943 15.17641-3.43556 22.75587-2.87937z" fill="#fcef3c" stroke="#000" stroke-linecap="round" stroke-linejoin="round" stroke-width="1.338409"/><path d="m797.59022 253.41159c.29181-3.73467 2.85696-7.85289 4.0562-9.91694 2.89584 2.40772 6.85902 4.2528 11.36522 4.98825-5.52768-1.79496-8.83026-5.16788-10.83657-8.54149-.97262-2.54722-.66711-4.84593-1.54234-7.39133-.34238-1.75612-.58856-3.49712-.84112-5.1651-.0849-2.46956-.0734-4.92399-.0528-7.391.12121-3.05175.94708-6.82183 1.65325-9.22218 2.56759-3.73148 4.5247-3.87273 6.96192-7.30121 2.0295-4.0416 8.00792-2.54442 14.07529-.38268 2.5438.90633 4.5927 4.42264 7.04828 4.63748 2.30442-.12623 4.60019 3.46779 4.56132 8.95356.1817 2.47804-.60849 2.74126-.61646 6.18619-.80151 4.60658-3.00609 11.30045-5.2458 16.3566-1.84559 2.87604-4.7943 8.18734-12.52432 9.40134 3.96348.92034 8.18709-1.9697 9.81366-3.73073-.53605 5.55897 1.65059 8.68173 1.13149 11.98612-9.86066 13.85182-26.27926 6.31747-29.00656-3.46681z" fill="#fec3ac" fill-rule="evenodd"/><path d="m818.12007 197.11873c3.20085 2.84204 7.14189-.59272 8.47481 2.3419 1.58727 3.49456 3.04355 4.16984 5.34341 5.63004 3.90696 1.13034 4.94938 4.49507 6.08149 7.78991l.11929 8.9561-2.92773 5.10842c.28971-3.31135.72012-8.98351.1525-11.98756-.67507-3.57402-1.68209-7.85629-5.59447-8.15527-2.38217-.13856-3.30514-2.76034-5.50239-4.52711-2.00647-1.61336-5.09342-1.65849-6.14691-5.15643z" fill="#313131"/><path d="m817.70862 200.02959c-2.88242-2.23245-3.03325-2.65083-1.82472-4.28354-3.38489-.1226-6.74386-.46784-7.64153 1.35589-1.90384 3.86747-3.25822 1.35176-4.55997 3.91806.94222 3.06653-1.72415 4.20309-3.35215 6.05882l-.98151 5.32485c.63371-1.12227.72002-2.58934 1.88379-3.83186 1.19462-1.27568 1.79078-1.16396 2.9316-2.33145 2.0367-1.0495 2.70032-1.37258 3.17857-3.41299.30756-1.31192.96354-2.43219 2.82701-3.04497 1.07788-.35447 3.39268-.6267 7.53891.24719z" fill="#313131"/><path d="m843.18642 258.8827s-1.18804-33.82467-3.32637-48.14333c-.32709-2.19051-.78332-5.16069-1.66508-7.19243-.77653-1.78922-2.39687-3.88184-3.62473-5.39732-1.5082-1.86153-5.56207-5.73071-5.56207-5.73071-8.3106-2.74445-17.68604-7.75903-25.03325 1.41519 0 0-3.36661 3.67202-4.41537 5.5133-2.51733 4.41935-5.70775 10.56609-6.68718 15.55691-1.82664 9.30765-5.07204 22.27443-8.71772 31.27539-.53605 1.32347-2.17309 4.23458-2.17309 4.23458 1.72306 2.18531 3.19104 2.94953 5.005 2.73218 5.24189-.62807 7.95699-1.40498 9.79551-3.32188 2.06796-2.15617 1.59589-8.87366 1.59589-8.87366s.74287-1.00022 1.86717-.73798c-.25419-.84161-2.05978-11.44796-2.16933-16.41368-.0605-2.74201 1.65099-6.92207.7968-9.10745-.19607-.50174-1.97242.35-1.78892-.1565 1.7592-4.85403.84076-5.83216 2.01249-8.01783.6109-1.13956 2.26025-2.06448 2.90089-3.18763.69477-1.21824.42178-3.43877 1.37412-4.46836.59489-.64322 1.99272-.5791 2.71606-1.0734.9221-.63008 1.51029-2.27915 2.53289-2.72821 2.43182-1.06792 6.32489-.85835 8.85329-.0448 1.08747.3499 2.00253 1.86267 3.08201 2.23618 1.89988.65735 4.96188-.75829 6.69638.25809 1.20861.7082 1.48462 2.95579 2.4375 3.98246 1.43419 1.54519 4.24648 2.58143 5.70436 4.10437 1.4228 1.48635 3.12697 3.77869 3.75895 5.73683 1.03183 3.19706.49616 11.18711.49616 11.18711-3.2201 2.77732-4.03315 5.76523-4.69995 8.76596l-1.86018.65664c-1.43772 3.54137-2.5849 7.22171-5.62696 9.99587-1.85964 3.60651-.68518 7.47843.6446 11.36397l2.23408.68709c-1.06088-2.86046-2.3728-5.58343-.77252-9.90024.3343 4.50513.89252 8.7714 3.83417 10.49586-3.30404-11.95918 1.38423-14.39373 2.20336-21.43909-1.31796 10.81824-5.9865 23.588 7.58104 25.73654z" fill="#2b5df2"/><path d="m824.82048 222.67675c-.66612-.37942-1.03706-1.06757-.83318-1.53813-.79092-.0692-1.52048.27511-2.23597.46006-.0984-.0889-.0908-.17521-.0908-.17521 2.31252-1.14918 2.50696-1.3262 5.94247-.62418.3885.11419.76942.31486 1.15037.51545-.0908-.1752-.16514-.34228-.25554-.51746-2.47415-1.28026-4.86202-1.40889-6.77398-.0975-.19373-.017-.39545-.0346-.58918-.0515.94079-1.64385 3.06924-1.52454 5.09727-1.28022 2.23182.61008 3.12173.84849 4.18431 3.48389-.49343-.1234-.97872-.24621-1.47156-.37629-.9132-.90285-1.32435-.85183-2.00279-.99818-.0354.40503-.26518.79975-.70407 1.16947-.45387.16769-.87302.12433-1.41775.0299z" fill-rule="evenodd" opacity=".99"/><path d="m831.17353 219.96533c-.83093-.72837-1.66985-1.45745-2.40268-2.09694-.58326-.2116-1.06912-.42138-1.54641-.54343-.88785-.0777-1.68678-.14757-2.4777-.21677-1.80521.0896-3.09058.5353-3.48024.34065.0215-.24568.043-.49134.057-.6507 2.66757-.83711 5.47446-1.47752 8.75151.94348.53225.70224 1.16248 1.49333 1.79258 2.28443-.29854-.0261-.5004-.0437-.694-.0607z" fill-rule="evenodd" opacity=".99"/><path d="m807.88935 221.19546c.72187-.25797 1.20654-.87126 1.08761-1.37006.79092.0692 1.44948.53493 2.12211.84132.1123-.0704.11985-.15678.11985-.15678-2.07796-1.53329-2.23858-1.74137-5.74391-1.64661-.40243.045-.81242.17649-1.2224.30787.11985-.15677.22218-.30838.34164-.46521 2.65887-.83117 5.03266-.54321 6.688 1.08022.19372.017.39546.0347.5892.0515-.64107-1.78224-2.75789-2.03435-4.79754-2.14589-2.30385.21326-3.22179.29351-4.72571 2.70435.50735-.0358 1.00659-.0725 1.51454-.11504 1.05611-.73056 1.45214-.60892 2.14569-.63522-.0354.40501.12215.83363.49031 1.27396.41785.24396.83803.27403 1.39089.27557l.00012.00001z" fill-rule="evenodd" opacity=".99"/><path d="m804.32305 220.09824c-.1123.0704-.11986.15678-.11986.15678 2.11036 1.7773 3.80968 1.91494 6.31788.96166.13001-.10389-.0152-.22626.027-.30866-2.69473.7513-3.89799.33367-6.22249-.80956z" fill-rule="evenodd" opacity=".99"/><path d="m828.69184 222.30649c.0984.0889.0908.17522.0908.17522-2.38691 1.38384-4.08433 1.2243-6.38887-.15004-.11-.1249.0542-.2202.027-.30866 2.52333 1.20781 3.78085 1.00547 6.26855.28326z" fill-rule="evenodd" opacity=".99"/><path d="m813.95059 239.17406c-.66834-.35552-1.42868-.95996-1.50805-1.16763.0716.30333 3.05991.34806 3.54173.51059-.5348.44296-1.74315.68247-2.03368.65704z" fill-rule="evenodd"/><path d="m810.1725 236.47868c-.0799-.20771.0565-.49286.0733-.68407.0537-.61352 1.94265-.38896 3.32162-.81426 1.01075.34535 2.19461.20007 2.60621.23608.74002.65086 1.41636 1.00708 3.5874 1.19701-.0683.78082-1.95718.71193-2.15892.69427-.3618-.0477-.75806-.25901-1.10372-.3053-1.06045-.14894-2.05276-.14749-3.07281-.29288-.3134-.0435-.62597-.0949-.93937-.13834-.70249.0349-1.69374-.0388-2.3085.10804l.00051.00049z" fill-rule="evenodd"/><path d="m812.64508 231.2303c-.9571-.77285-1.48492-1.48893-1.04343-2.59639 1.52212-3.81791 3.48658-8.67332 2.35321-10.53944-.20034-.32988-.55056-.55441-.83021-.73498-.69712-.4503-2.33106-1.3293-3.51856-1.49565-1.86546-.26128-3.5452-.47073-4.78213-.0906-.82635.33583-1.65272.67165-2.48663 1.09379.0145-.16597.0285-.32533.043-.49133 2.74528-1.72684 2.908-2.30133 6.93719-1.76822 1.49391.19761 3.08341.92734 4.38422 1.82561.31369.21659.74467.5595.80943.97405.17754 1.13709.094 1.7684-.13468 3.14258-.48339 2.90539-.90841 5.82828-1.2695 8.74724.37396.28026.74096.64021 1.10796 1.00014-.20069.0626-.4094.12477-.52188.2019-.0215.24566-.043.49134-.0715.81669-.37934-.0332-.678-.0593-.97652-.0854z" fill-rule="evenodd"/><path d="m816.479 231.52617c-.0689-.33388-.15177-.58869-.13029-.83436.50041.0437.98583.16646 1.47111.28929-.007.0796-.0214.24566-.0354.40502-.49981.0432-.90224.0883-1.30539.14005z" fill-rule="evenodd"/><path d="m820.76644 167.70642c24.33421 2.12897 42.48349 22.13647 40.51399 44.64789-1.03113 11.78603-7.39079 21.91015-16.69318 28.60082-.60078-11.7116-1.58562-21.5553-3.00411-30.76767-.35411-2.30096-.86858-5.41306-1.81664-7.54831-.83481-1.88042-2.55272-4.07697-3.87033-5.67071-1.61843-1.95766-5.98065-6.02329-5.98065-6.02329-9.02391-2.9742-20.71996-8.00333-26.78611 1.43517-.00002.00001-3.88893 3.69419-4.7441 5.75677-2.68143 6.46703-6.0996 11.09796-7.13926 16.33734-1.57934 7.95793-4.15915 12.03988-7.16331 20.76738-7.71471-8.15537-12.02092-19.04319-11.00939-30.60463 1.96942-22.51142 23.35887-39.05972 47.69309-36.93076z" fill="#fcef3c"/><path d="m840.0059 224.46544c-.9432 1.51156.65833 5.50675 1.10197 9.12154.82267 6.70298-1.90485 10.18774-3.14344 14.21268-.88331-3.94736 2.83203-7.46654 1.72933-14.33642-.90417-5.63303-1.84567-8.49576.31214-8.9978z"/><path d="m770.14309 270.48202c-.72146 2.11215-1.93788 1.34384-2.7011.82264-3.35545 6.81733-5.44393 9.57689-9.07467 11.58937l6.44909 5.74604c1.51608 9.54488-25.91775 10.7964-27.19798 2.52018l3.95362-5.08957.86864-6.9142c.0107 1.06367-2.70631-2.98896-2.11818-1.7905-1.96194.68925-3.64256.0626-5.24927-1.02755-1.04178-.72521-1.69659-1.51134-1.77102-2.71101l-.30574-2.76538-2.10294-1.00557c-.43948-1.05589-2.07515-.0687-.73052-4.17187-1.02932.20504-1.11111-.6787-1.33867-1.39515 4.89691-7.88581 1.92851-7.50295 2.4008-10.74453 0 0 .17209-1.1075.40647-1.51633.76277-1.33474 3.56653-2.24632 3.59135-3.65552.38462-2.33198 1.87538-2.46528 3.53032-3.66346 3.3213-3.25825 4.40578-2.79521 7.26331-3.7451 1.9643-.65297 4.57721-.81939 8.86224.3472l.81442-.32345c1.8608.25459 2.89523-.69581 6.30097 3.10732l2.2252.65114c1.966.57867 1.994.94355 2.42466 2.12901.54212-.635 1.73768.42892 1.96588.90242 1.0207 2.11769 1.56465 5.20877 3.40052 5.99854 2.0809.89519 1.74995 1.39609 1.62535 2.29195-.41074 2.95289-.46441 4.18727-1.95579 4.84972l.0348.83185c.53351.53346 1.45081-.32225 1.10174 2.64525l-2.67289 6.0866z"/><path d="m760.068 251.94052 5.11067 2.09413c3.37204.34929 2.20296 3.72251 2.52471 6.10298-.0659-.16797-1.06432 4.58065-1.3338 7.17713-.81075 7.80806-4.46784 11.61366-7.02668 13.73562-1.33201 1.10455-2.66172 1.60089-4.464 1.96428-2.73132.55065-7.25792-.54887-9.8872-2.62966l.0493.77274c4.62511 3.37042 8.36301 3.41868 12.14152 2.41139 1.91544 1.74768 2.9709 3.70109 4.53569 4.63194 2.40356 1.42971.97944 2.41078-.073 3.52288-5.51709 5.82987-18.33319 3.28034-22.077.89193.0185-3.22059 1.81686-4.08496 3.11993-6.07972.0624-3.35938.55995-5.61699.85276-8.39564-1.9428-2.20912-1.75416-4.23174-1.5703-6.25478-3.72849.60741-9.51304-7.07676-3.86303-9.63171.97932-.41337 1.8908-.94186 2.11312-2.63854-.18691-6.93472 4.27547-8.60861 9.74103-9.14735-.17848 3.64009 7.6653 9.37238 10.10612 1.47237z" fill="#fec3ac"/><path d="m752.44589 263.53473c.5564.36031.90916-.42225.63564-.60988-4.52089-3.10118-5.91515-1.18214-8.99933 1.12593l1.54375-.53042c2.35864-.96984 4.69438-1.36191 6.81994.0144z"/><path d="m751.73697 266.88332c.62897-.72557.8769-1.75647-.17645-2.26144-2.20235-1.05593-4.44522.41522-6.8329.60838 2.05626.11044 4.56819-.497 5.91555-.10635.93027.0521 1.12429.79983 1.0938 1.75941z"/><path d="m751.03525 266.82193-1.05352.15739c.31244-.6887.33026-1.12591.17495-1.52364-1.224-.27278-2.06306.0331-3.42435.15793 0 0 .50832 1.23392 1.19091 1.60154.54762.29493.87382.46853 1.49468.5051.57221.0337 1.61746-.89831 1.61746-.89831z"/><path d="m756.83412 264.72924c-.61379 3.76932.51792 4.68685 1.18067 5.98916.30358.59659-.34014 1.43398-.9287 1.58245-1.05553.26631-2.65394.58608-3.62726.0986-.37854-.1896-.77566-.22522-.73357-.64646.0391-.44731.94071-.76297 1.244-.43187.50502.55131 1.88416.41761 2.58231.43386.38105.009.99552-.48801.80219-.81666-.53123-.90295-1.10201-2.97557-.92306-4.78898.0721-.67089.0254-1.11931.40342-1.42008z"/><path d="m759.65391 263.37169c-.63064.20402-1.17222-.58964-.8786-.74395 3.71979-1.95483 5.64997-.13891 6.64884 1.42481l-1.35389-.91191c-1.38137-.67606-2.00695-.54819-4.41635.23105z"/><path d="m762.37895 264.68944c.6354.0901 1.23013.29338 1.82307.53863.46872.19388 1.36736.99446 1.36736.99446-.59584-.29652-1.32899-.0679-2.32033 1.07727 0 0 1.092-.9643.20733-1.74023-.67929-.59576-2.15255-.76984-2.98331-.41434-.9624.41189-.60012 2.26468-.60012 2.26468s-1.07288-.97732-.90566-1.64317c.52432-1.60723 1.83856-1.14199 3.4118-1.07729z"/><path d="m752.06725 274.87748c.17414.34535.26654.82479.93994.98117l2.31562-.23866 1.92013.33035c.42653-.18068.8358-.73546.73131-1.1259-.90609-.32071-1.81196.0162-2.71779.0244-1.06303.01-2.12605-.36029-3.18921.0286z"/><path d="m752.97932 276.92973s1.34398.31566 2.4048.0855c.31348-.0679.72744.33716.60997.63567-.16085.41031-1.21534.221-1.6279.0655-.88093-.33197-1.38687-.78683-1.38687-.78683z"/><path d="m763.17179 266.70093-.82854.24861c.20106-.71329.18395-1.15047.0334-1.53306-.99455-.16507-.77855-.12925-1.85474.11374 0 0-.3722 1.52696.19748 1.83369.45704.24607.62224.17133 1.11969.15358.45836-.0163 1.33302-.8166 1.33302-.8166z"/><path d="m770.15907 268.2635c-.47524 2.36148-2.81856.6238-2.52272-1.09176-.40728-1.19288-.50599-3.84689.23861-4.20471.33457.86141 1.99286 2.51359 1.58864.49187-.87939-1.47939-1.1983-3.18798-.61906-5.01996.20623-2.40116-1.20319-4.86302-3.57288-5.58631-2.02365-.10401-3.84827-1.16601-4.59323-3.12924-.90172-.92963.16899-2.38927.99643-1.00931.8137.69374 4.10429 2.63088 4.03296 1.45123-2.19944-.4184-4.37465-1.95671-4.79947-4.27117-1.81963.99135-1.17404 3.11555-1.24227 4.77387.12925.98487-2.21231 3.66066-1.28725 1.62981.65052-2.02759.12526-4.94042-2.14131-5.66566-1.18023-.49266-2.73987 1.08908-.93948 1.52817 1.17493.64379.0702 1.89533 1.5931 1.97825.9917 1.79249-1.3643 3.94188-3.10473 2.65646-1.64119-.79866-1.29722-2.99228-1.63026-4.39434.67145-.69024 1.38536-.31623.89899-1.501.45116-1.30639 1.95301-1.2984.7916-2.442.54803-1.40379-1.29116-1.41046-2.26194-1.60908-1.1213-.28709-3.8304.59195-3.69298 1.02456 1.58435-.1847 4.58024 1.50547 2.23686 2.82345-1.38394 1.02657.4599 3.70777-1.93915 3.01366-3.06249.0113-6.46559 1.20151-7.78985 4.18391-1.08974 1.91821-.7906 4.24154-1.69065 6.20874-.89274 1.6285-2.64289 2.19137-4.32573 2.59803.69649 1.07861.62627 3.12641.54528 4.6387.45131.88487.78221 1.87062 1.30692 2.69401 1.52373 1.06358 3.04745 2.12716 4.57118 3.19074-.61634 1.23412 1.05269 3.3011-.84412 3.34674-.2808-.94588-1.33475-2.67513-2.74659-3.21927.36031.68948 2.34311 3.5158.6451 2.70829-1.40259-.55832-3.07105-1.21923-3.3785-2.90389-.611-1.13101.43342-1.87451 1.15703-1.48175-1.29331-1.24483-2.8029-2.67275-2.53777-4.6613.21159-1.02604.46167-3.87206-.0102-1.56797-.30593 1.25758-.61186 2.51517-.91779 3.77275-1.51778-.80714-1.25539-2.5382-.6846-3.9099-2.1342-.15892-.93261-3.08541.17519-3.957.62608-1.08091 1.79954-.70292 1.23311.57241 2.35612-.53073 2.31047-2.8567 2.71796-4.73284-.0575-2.6268 3.91485-2.07148 3.64091-4.43418-.71634-2.09255-1.91006 1.36099-3.41253 1.36192-2.09044.4884-.50914 3.16993-1.67933 3.95595-1.70044.0753-1.08551-3.61604.18027-4.39009.5129-.75991 2.80123-2.06866 2.32333-2.44618-1.57167.55593-2.83306 2.20125-3.73827 3.10021-1.41814-1.52902 1.49593-3.25242 2.65463-4.12676.43622-1.34121 1.60989-1.82584 2.73768-.71909.82905 1.97708 3.17427 1.3058 3.63722-.38227.9658-.88654 3.74581-1.7407 3.96543-2.12873-1.4418-.0694-3.58504 2.03194-4.49287 1.13279.54056-1.5095 2.59756-1.8675 3.73648-2.94678 2.06842-1.29809-2.5082.0196-3.19002.78204-.56961 1.01283-2.95222 1.98937-2.65397.0912 1.31894-1.83342 3.44093-3.09306 5.6669-3.50757 2.21938-.77966 4.59771-1.13235 6.92862-.66556 1.52969.43669 2.90432.54345 4.4154.34691 2.15857-.22492 3.71709 1.54782 5.0913 2.89105 1.67555.51547 3.79392.80915 4.49045 2.68441.0549 1.15179 1.60204-.49616 1.77935 1.11824.9163 1.99237 1.26109 4.74967 3.64264 5.53854 1.90569 1.0056.48279 3.6568-.0515 5.15442-.72036.87986-1.81456 1.20229-1.2286 2.49369.50682.42182 1.9267.15017 1.4488 1.5317-.26614 1.57596-.92373 3.09254-1.3487 4.63698z" fill="#313131"/><path d="m695.75755 272.70401c1.43942.23933 1.4275 1.73379.6104 1.54442-.92625-.21473-3.08085.12826-3.47102.85599 0 0 2.32797-.1524 3.31693-.0412 1.66719.18904 1.53696 2.2171.19221 1.59068-1.15712-.53905-3.1342-.0197-2.81344.91353.13407-.073 2.34319-.64692 2.92856-.45081 1.19288.39961 1.6329 1.71849-.14153 1.77147-1.36137.0403-2.06003.14319-2.56692.9351 1.13859-.29406 2.05567-.38815 3.2492-.21275 1.82128.26764 1.21451 1.9215.0514 1.81262-.6942-.0647-2.54744.20553-2.54744.20553 1.62397.65794 1.27223 2.99533.57365 3.95512-1.61703 2.22161-.72805 2.29691-1.09246 3.86866.95989-1.17462 2.90982-2.63259 4.38086.17499 2.64669 5.05179 3.55887 4.56219 5.15482 7.28787 3.7843 6.46326 2.93057 13.00668 2.58567 17.78504 0 0-.95959 1.17842-1.53409 1.43962-.84862.3858-3.06571-.01-3.99644-.0626-1.03027-.0581-1.53642-1.14802-1.79093-2.9044-.22426-1.5478-2.85858-5.3009-3.4939-10.59294-.50221-4.18256-2.33063-6.53131-2.91174-7.70664-1.10876-2.24256-2.1284-5.40273-2.44381-5.52664-1.04733-1.69309-1.35465-3.32143-1.30908-4.91889l1.90594-8.53078 2.053-2.63672s2.1776-.71154 3.11354-.55594z" fill="#fec3ac"/><path d="m728.40905 348.81305 5.00189 4.42052c2.85157.23159 5.80804.75436 7.3732 2.91932 1.54569 2.13843 4.36478 4.41714 7.92855 6.33668-3.54886 1.68001-6.21896-.14633-8.73275-3.28435.42916 5.80388 2.13862 8.79883 4.09174 12.76696-1.13943.50834-1.98048-.84912-2.89044-1.77573l.16133.83411 3.63736 3.9497 1.57965 4.70683c-2.65168-1.23783-4.56124-3.30361-6.17892-5.69495l-3.09245-2.14483c-2.75626.95947-4.63122-1.17997-6.474-2.3236-1.68041-1.04284-3.09181-2.42158-4.07182-4.33913-.92262-1.80552-1.95855-3.49981-3.01536-4.36388.38731-4.42695-.0466-9.15385 4.68202-12.00765z" fill="#fec3ac"/><path d="m738.05259 352.61123c4.68638-4.23509 10.09836-7.86473 16.47994-4.68787 5.36152 2.66909 3.95182 6.93121 3.74033 10.26727-.24354 3.82773.42979 7.15753 1.53111 10.9023 1.86515 6.34193.28154 12.72579.15441 19.06524 2.35063 1.99616 3.72551 4.22541 4.72896 6.54341l1.52898 1.45911c.15344 1.55751.79579 2.77525 2.35724 3.3539 0 0 .2658 1.78966-.20138 2.30174-.38048.41706-1.35602.60518-1.85164.33498-1.12771-.61476-1.64216-3.95399-1.64216-3.95399s.0764 3.05889-.44587 5.09665c-.0859.33578-1.04391.22902-1.15093-.10069-.55992-1.72645-1.31312-3.92524-1.31312-3.92524l-.93104 3.06622-1.46517-.29387-.99887-3.73205s.34118 3.67451-.31649 3.61699c-.65757-.0575-1.58659-.80148-1.58659-.80148l-.33491-1.85165-.65139 1.76535c-1.62406.0584-2.89842-2.28404-4.42579-5.27439-.4135-1.31999-1.25231-2.71939.49262-4.67841.86341-.96955.38368-1.88828.93103-3.06622-2.21199-2.95122-4.91916-9.73026-6.65174-13.7979-2.20645-5.18024-3.0605-7.47674-1.77539-8.30718-.49495-1.48254-1.6099-.86421-2.18995-2.34851 2.69844.69604 4.67456 2.42105 9.99401-.61665-2.25352-1.06832-4.50267-2.18492-6.69965-3.89949-2.4238-2.19968-4.48096-6.10566-7.30601-6.43754z" fill="#fec3ac"/><path d="m765.197 404.02354c-.91187 1.41536-6.47571-.98927-6.4509-1.0614l-3.92423-.59181 1.95332 3.23572 3.76599 2.40033-.0523-2.24108-3.30159-2.02836 4.03105 1.26384.0669 2.07668 2.18047-.30621 1.7313-2.74771z" fill="#fec3ac"/><path d="m765.44575 406.86164-1.42632.20654-.5548 1.60814 1.51556-.28158z" fill="#fec3ac"/><path d="m768.2017 372.1493c-2.59132-.50833-3.70017-1.46424-5.04269-2.34961-.13642 1.8965-.31681 3.78916-1.44399 5.59898l-.48762 11.02628c2.48983-3.26595 5.15642-4.9335 6.9743-14.27565z" fill="#fec3ac"/><path d="m732.68426 391.8615c-1.27839 5.82812-1.71597 11.32397-1.44709 16.5406 0 0 1.87017.7048 1.51685.27276-.49349-.6034.81644-13.51444 1.73555-13.43402z"/><path d="m800.37259 259.77455c-11.5005 15.00828-12.62354 22.97982-14.31916 31.40482" fill="none" stroke="#000" stroke-linecap="round" stroke-linejoin="round" stroke-width="1.338409"/><path d="m768.04505 290.99038c-9.9085 12.20739-32.73658 7.68616-33.89614-1.97516" fill="none" stroke="#000" stroke-linecap="round" stroke-linejoin="round" stroke-width="1.338409"/><path d="m765.78217 303.27117-4.39813 9.519" fill="none" stroke="#000" stroke-linecap="round" stroke-linejoin="round" stroke-width="1.338409"/><path d="m774.62799 304.04507c-4.44623 1.81471-4.4178 7.21296-6.50158 10.91958" fill="none" stroke="#000" stroke-linecap="round" stroke-linejoin="round" stroke-width="1.338409"/><path d="m732.79949 311.93047c1.68902 11.73381 10.2975 19.7011 21.88894 26.22439.23855.0982.39944.32496.4134.58259-12.48809-5.03728-21.62774-13.94197-23.4174-27.23651.53043-.70331.87129.33565 1.11506.42953z"/><path d="m727.04289 295.52426c1.93182.93091 3.42811 3.35003 4.80874 6.16489" fill="none" stroke="#000" stroke-linecap="round" stroke-linejoin="round" stroke-width="1.338409"/><path d="m756.2666 341.23189c3.92626 3.04887 6.09427 6.90526 8.15057 10.4956 2.05621 3.59032 3.96024 6.88653 7.29792 9.20343.32639.18593.52149.53842.50603.91363-3.96245 1.13614-7.4325-5.43012-9.57273-9.09623-2.05843-3.59417-4.05255-7.13685-7.6145-9.90289-3.03228-2.35467-6.23559-3.79484-9.42962-3.55402-5.70164-.85682-8.98448 5.88121-11.44609 7.01777 5.04355-12.2804 15.27385-11.31573 22.10842-5.07729z"/><path d="m734.57403 330.7227 11.81155 5.16283" fill="none" stroke="#000" stroke-linecap="round" stroke-linejoin="round" stroke-width="1.338409"/><path d="m753.56199 335.38717c5.12916 2.92887 11.13258 2.86912 15.36788 8.85265" fill="none" stroke="#000" stroke-linecap="round" stroke-linejoin="round" stroke-width="1.338409"/><path d="m772.32484 356.92525c-3.19169-5.42298-6.95895-9.51859-10.53251-14.0607" fill="none" stroke="#000" stroke-linecap="round" stroke-linejoin="round" stroke-width="1.338409"/><path d="m758.08257 329.59295c.69568.50645.27952 1.44871.14014 2.23749.10176.15671.47142.33242 1.00525.50779 4.22059 1.38644 8.7171 2.92914 13.94411 7.13985.91102 1.21025.0127 1.9218-.18529 2.11764-3.69516-4.49064-9.99357-6.80662-14.15783-7.99087-.60539-.17212-1.28575-.42092-1.7115-1.0734-.7303-1.55785.15494-2.20063.97065-2.938z"/><path d="m852.53559 542.2614c-7.32619-3.71317-12.38657-3.28602-14.23309 3.01374l10.51589 6.37153c8.0928 2.52894 3.16199-6.02014 3.7172-9.38527z" fill="#2b5df2"/><path d="m751.56472 528.93474-6.30689-42.51966c-1.55801-14.25608-3.66591-33.11441 4.30663-43.23777l4.96124-39.45299" fill="none" stroke="#000" stroke-width="1.633449"/><path d="m784.68802 520.69991.10496-14.17806" fill="none" stroke="#000" stroke-width="1.51747"/><path d="m722.88588 528.70386 16.92751-10.44418.87065-6.05677" fill="none" stroke="#000" stroke-width="1.51747"/><path d="m723.27467 516.472 12.59096-11.505 5.11808-31.23903" fill="none" stroke="#000" stroke-width="1.51747"/><path d="m848.05737 531.13698s-2.98078-2.72095-4.80571-3.48692c-2.61643-1.09817-6.99888 1.05504-8.39408-1.41582l-17.40559-30.82455" fill="none" stroke="#000" stroke-width="1.51747"/><path d="m797.14258 451.04306c2.39766 30.67236 10.98557 56.44484 28.965 74.78346.49257.50241 3.72108 3.30835 6.13622 6.59603 2.46636 3.35739 4.1205 7.19753 4.65288 7.68734" fill="none" stroke="#000" stroke-width="1.51747"/><path d="m858.92688 410.79223-10.20306-.21121c-14.55889 20.65803-22.04451 84.95517-47.15598 40.50847-.12325-.0379 1.40959 6.00539 5.16929 11.01454.18227 1.35012-1.90915 3.41366-.69312 4.02796 0 0 4.78127 1.59505 6.52594 3.29671 2.80809 2.73883 5.56658 10.36782 5.56658 10.36782s4.25441-8.0704 6.50464-12.03749c3.47036-6.11813 10.78613-18.13654 10.78613-18.13654l-.93836-4.85216 15.35074-31.36594z"/><path d="m782.28553 410.56063 15.491 37.13071s-5.16955-2.4418-6.74569-4.67881c-6.45292-9.15817-8.74531-32.4519-8.74531-32.4519z"/><path d="m847.8322 428.56108-16.55918 64.6506 4.07029 4.104z"/><path d="m867.2074 460.23939-4.38296 3.36445-.6591 23.11118-3.52921 1.39483s1.20019 14.5014-2.45122 20.22864c-3.34528 5.24705-9.9207 11.73253-15.85397 9.85667-13.51723-4.27369-16.53455-15.93391-23.69897-28.99017 0 0 12.96086 24.20828 24.70066 25.32989 4.39824.42023 10.15672-3.20766 10.88346-7.56577l7.16788-42.98484z"/><path d="m776.52137 495.91734-31.6408-23.89273s2.47225-2.28866 3.92658-2.04151c4.18682.7115 8.72806 9.28157 8.72806 9.28157 2.55659 2.71868 7.64592 1.34993 10.58352 3.65167 4.06161 3.18253 8.40264 13.001 8.40264 13.001z"/><path d="m753.60875 481.30617-5.01256 26.13748 25.78251 9.07005-7.36286-5.41422-7.20219-3.35586-4.77615-3.82504-3.35163-.63395z"/><path d="m843.11079 404.63844c-13.24041 9.58454-15.08316 23.85618-38.42581 29.28637m-3.72595.75694-3.57152-2.01604c-3.59839-8.3785-14.96813-17.43688-9.73419-25.04265" fill="none" stroke="#000" stroke-width="2.023294"/><path d="m802.04116 445.67942c19.99843-2.0397 24.93407-17.58022 37.4011-26.37032" fill="none" stroke="#000" stroke-width="1.51747"/><path d="m805.65499 451.10637c18.95523-2.99126 16.90244-12.80624 25.19468-19.261" fill="none" stroke="#000" stroke-width="1.51747"/><path d="m768.29082 379.69377c4.19856 10.10613 16.1509 19.78827 26.37448 29.56493l-4.18447-10.58764 13.56751 4.59418c-11.67723-5.66919-23.57324-13.31697-35.75752-23.57147z"/><path d="m762.57311 535.90115c7.32624-3.71316 12.3866-3.28602 14.23312 3.01372l-10.5159 6.37152c-8.09275 2.52895-3.162-6.02012-3.71722-9.38524z" fill="#2b5df2"/><path d="m820.6168 399.13973-9.69167 11.20078-13.62669-3.91791 13.02646-.90464z"/><path d="m790.94107 362.25446-3.21204 13.34772 18.82141 22.43047" fill="none" stroke="#000" stroke-width="2.023294"/><path d="m824.84732 383.61965-10.44387 10.32999" fill="none" stroke="#000" stroke-width="2.023294"/><g stroke-width=".547945" transform="matrix(-1.30039484829 0 0 1.30039484829 2620.95047954806 84.14536031904)"><path d="m1399.2812 187-11.5937.34375c-1.8327.0541-3.7479.59316-5.6875 1.8125-2.3588 1.48294-4.8729 2.28495-7.2188 3.03125-5.8831 1.87169-3.2905 7.8051-3.3124 10.4375l1.8124 14.125.8126 2.125-.9376.1875.1876 1.40625-1.1563 3.5c-.2427 4.34102 1.2239 3.72062 2.1875 4.59375.8189-2.54974 1.2465-13.86374 1.4062-19.1875 0 0 .7004-1.99021 1.25-2.6875.7211-.91487 3.0626-2.375 3.0626-2.375.1022 6.43504 1.6692 13.21059-1.9063 19.09375-.7356 1.21045-.8178 2.15768-1.0625 3.25-.2435 1.08672-.8863 1.76939-.7812 3.1875l.125 1.65625c.1367 1.84614 1.7298-3.10326 1.7812-5.1875.035-1.44139 1.9034-2.31346 2.25-3.9375 0 0 1.7395-7.01032 2.1562-10.0625.2441-1.78703.375-6 .375-6 1.666 2.50664 3.0727-1.22055 4.5938-2.1875l.5625-1.75 5.5313.65625c2.0835-.12796 3.1938-.13677 4.25-.53125 1.0646-.39768 1.5036-1.07851 2.1562-2.78125.3473-.0114.5204.0138.625.0312 0-.0295.01-.0514.094-.125 2.2298-.49574 5.4432-.45576 6.3124-1.875.4459-.7279-.1944-.80018-.5-1.28125 1.408-.89637.9876-1.96298-.125-2.5625 1.0037-.42495 1.0193-2.06069.031-2.125-2.8722-.18992-4.534.27102-8.0313-.71875-2.0575-.68862 1.9131-1.45074.75-4.0625zm1.4688 12.75c0 .0491.088.05.125.0312-.01-.0117-.065-.0212-.125-.0312z"/><path d="m1398.8031 187.85519-11.0298.30517c-1.7455.0483-3.5587.52435-5.4059 1.61305-2.2465 1.32405-4.654 2.03661-6.8881 2.70295-5.603 1.67115-2.1072 6.46675-2.7466 9.24236l7.1498-2.00542c1.3427 1.33116 4.1976 1.15021 6.365 1.65665l7.2805.74113c1.9844-.11425 2.9901-.2225 4.0545-.56675 1.1021.0796 1.3319-1.33394.087-1.56945-2.1945-.26188-3.901.77741-6.7138-1.1335 3.1936.45466 6.3079.67154 9.1551.0872 2.1236-.44263 4.7897-.42022 6.1907-1.48226-.2383-.39361-.6893-.88276-1.2992-.77193-2.9023.52748-7.2493.52731-9.1639.24878-1.3228-.19243-2.9213-.17872-4.0108.17438.5377-.52315.6537-1.04631.2616-1.56946l1.395.69754c3.525.6019 6.7112.50326 10.0271.26158.9844-.14532 1.8329-.29064 2.3542-.43596.3971-.25584 1.0135-.3801.8719-.95912-.7552-.80129-4.9963-.21917-7.5857-.21798l-6.5394-1.17709c.8699-.48606 1.5928-.38416 2.3542-.43596l3.4877.87192c2.6261.30097 4.5968-.0534 6.801-.17438.9559-.37941 1.7257-1.59923.7847-1.65665-2.7353-.16957-4.6037.31697-7.9344-.56675-2.5596-.66508-6.4718-1.84634-10.0272-.74113.1159-.46502-.1498-.79331.4796-1.13349.7724-.41744 1.7949-.20505 2.6593-.00001 1.9523.46311 3.3004.44913 5.0572-.0872 1.4284-.43605 2.2774-.7947 2.5285-1.91822z" fill="#fec3ac"/><path d="m1352.6333 232.59318c3.775 4.65842 7.755 12.5323 12.8036 4.93672 1.2865-1.93552 2.6219-3.47455 3.4404-5.66217.1494-1.02593.8967-1.51376-.1732-3.63705l-1.5605-.0554c.8299-2.0021-.3561-4.00421-.8642-6.00631 1.559-1.814 1.903-5.71075 2.5979-9.00602.6001-.36763 1.1092-.21981 1.3125 1.66107l-1.4857 6.30579c-.3276 1.63623-.4588 2.01339.09 2.64784-.389 3.25953 1.2628 3.69714 2.3345 4.45306 1.4625 1.03153 2.4256 1.83043 3.1175 2.94427.8469 1.36326 2.4902-.0182 2.3778.73992-.3906 2.63711-2.5428 2.56389-4.2829 3.07032-.2071-.39807-.2081-1.04351-1.0392-.69277l-4.8494 5.88855c-7.1947 5.83615-10.3472-1.25544-12.5948-4.59053z"/><path d="m1352.2224 196.29402c-2.1337.97528-1.3854 3.51184-4.8947 6.69287-1.6961 1.53743-1.8315 3.69604-2.1977 5.79383.9883-1.8075 1.8907-4.12073 3.1467-4.695 1.7138-.78361 2.6969-2.14205 2.797-3.54622.1375-1.92983.6746-3.10395 1.1487-4.24548z"/><path d="m1342.5625 204.6875c1.4304-1.26423 1.1258-2.96807 1.119-4.49763-.019-4.22428.6883-7.78052 1.5983-11.38787l-.3496-.0999-.5494-2.79702-.7492-.24973c-.073 2.32543.3377 3.70055-.5494 7.59191-.4897 2.14814-.959 4.18205-1.0489 7.49202-.03 1.10405.2143 2.29219-.6993 3.14664l-1.0528.20782 1.6522 1.19069z"/><path d="m1346.7782 201.63833c-1.3444-1.94375-2.3638-3.96251-.2996-6.69287 4.7616-3.23987 9.5232-6.96597 14.2848-11.13814.5939 1.27616 1.2878 2.20214 2.1477 2.54729l-.05 1.09883c-.7683-.24002-1.2741-1.52995-2.3974-.34963-2.7304 2.4141-4.6013 3.7537-8.1913 7.24229-.2286-1.39086-1.4736-.74883-2.4474-.64931.1446 2.0706-.3794 3.0546-1.2986 3.39638l-1.0489-.24973.4995 1.09883c-.02 1.28624-.2529 2.54209-1.1988 3.69606z"/><path d="m1354.4654 194.0181-1.6953 7.27545c-1.3234 3.38588-2.4159 6.61784-5.3683 11.08976-1.0907 2.14919-1.0692 5.96832 0 6.99291.2924.28017.5896.55448 1.3421.28254 1.5844-.57259 1.2201-2.05391 1.3598-3.23157.1428-1.20402.3406-2.37217-1.0066-3.54943.5041-.49449.8493-1.1819 1.9778-.91826 3.8456 7.88878 6.2519 16.18878 8.8294 24.43986l1.9778 1.62461.4945-.77699c-3.9518-4.91587-4.4597-11.08412-6.5691-16.66996 2.2036-.40308 3.5276 1.61251 5.0151 3.1786-.3207-1.35628-.077-2.7493-1.554-4.16749-3.5849-3.44316-3.8161-8.45183-5.5096-12.78502l-.3531.49445 2.4722 9.25324-3.0373-6.71036-.6358.35317 3.2493 8.47626-.4238.70635c-1.1773-2.84896-2.801-8.3769-3.5318-8.54689.4801-3.58604 1.8365-6.73391 2.7548-10.10086l.9889-6.00401z"/><path d="m1364.9856 224.00449c-.7573.36664-.9645.58317-1.4052 1.37188-.1338 2.81087.4667 5.70227-2.7172 8.17796l.6993.39957c2.9658-1.60948 3.1418-5.00022 3.0767-8.49095.2228-.33946.4544-.47919.8191-.49947z"/><path d="m1356.3154 192.44455v1.17208l1.172.74588 5.5941-3.83592c.9767-.38715 1.9535.72501 2.9302 1.22536l-2.8769-3.62281c-.9114-.16144-1.8266-.29982-2.877.37294v1.49174z"/><path d="m1357.4874 195.0551 1.2787-.21311c-1.8518 4.41784-1.5453 9.22811-1.9713 13.9052l-.2663-1.65158c-.026-3.79119-.8505-7.06929.9589-12.04051z"/><path d="m1359.2456 217.32472 3.6761 6.49975 2.2908-1.81141c.437-4.81796-.01-9.7464 1.4385-14.43796l-.2664-9.27013c-2.2239 3.61463-1.6849 12.7551-2.3974 19.39269l.8524 1.11881-1.2786-.0533-.7459 1.54502-.1598-2.39745-.7992-.58604c-.2941-7.30554.2598-13.97669 1.3852-20.40494.2985-1.70491.2051-3.75672 3.6228-3.67608l3.6228-1.43847h-2.2909l-2.8236.15983-1.3852-.58604-2.6106 4.10229c-.8127 1.2771-.8134 3.07844-.7991 5.06128.04 5.5939-.6666 11.18809-1.3319 16.78213z"/><path d="m1379.292 190.7545c-1.704-.44442-3.488-1.04887-5.0481-1.20551-1.4776-.14836-3.1443.0684-3.757 2.25624 1.066-.7127 2.0575-.98438 3.6063-1.12607 1.306-.11947 2.6119.40167 3.9179.60276z"/><path d="m1361.2188 151.96875c-.1755.0156-.3299.12246-.4063.28125l-7.5778 14.8125c-2.5619 7.43688-5.365 14.47195-10.0472 18.375-.127.15939-.1446.37993-.044.55743.1001.17751.298.27645.5001.25009.2021-.0264.368-.17276.4193-.37002 6.0631-4.07407 7.6725-11.72076 10.0785-18.34375l7.5465-14.8125c.093-.16032.09-.35903-.01-.51628-.098-.15725-.2755-.24721-.4604-.23372z"/><path d="m1355.238 184.18142-4.9494-3.59958v2.24974l-5.0088 5.97042 6.3587-5.07053z"/><path d="m1378.9988 132.64242c-1.3362 11.45817-3.0748 22.76156-9.4356 32.2872" fill="none" stroke="#000" stroke-linecap="round" stroke-linejoin="round" stroke-width=".547945"/><path d="m1384.6104 137.44145c-5.4549 6.58443-7.9705 23.2127-13.4254 37.51342l1.9166 4.57033c1.5095-6.24799 2.7676-13.50133 5.0126-16.80704 3.4321-9.84621 2.07-18.38425 7.3808-24.09727z"/></g><g stroke="#000"><path d="m806.90956 386.13893.68455-15.61315 10.05929-5.93429" fill="none" stroke-width="2.023294"/><g fill="#fcef3c" stroke-width=".853333" transform="matrix(1.4358408 .150913 -.150913 1.4358408 -258.57421 -195.57173)"><path d="m772.22652 193.41921c.038-1.65216.4467-3.18771 1.20772-4.64289 1.99238-4.19162 8.07788-4.09151 6.73641 1.03497-.49432 1.88905-2.17357 2.9993-4.16851 3.18973.14399-.49775.936-2.25739.29665-2.60164-1.02235.0386-2.29185 1.80547-2.59714 2.64802-.044.12096-.0318.26075-.081.37974" fill-rule="evenodd"/><path d="m769.69216 193.52845c-.038-1.65216-.4467-3.18772-1.20772-4.6429-1.99239-4.19163-8.07788-4.09151-6.73641 1.03496.49432 1.88906 2.17356 2.99931 4.1685 3.18974-.14399-.49774-.936-2.2574-.29665-2.60164 1.02235.0386 2.29185 1.80547 2.59714 2.64802.0441.12096.0318.26075.081.37973" fill-rule="evenodd"/><path d="m770.84157 177.52172c-2.09904 2.26265-3.50839 4.87897-2.90083 7.94751.33519 1.69289 1.14778 3.26079 1.72084 4.89166.3583 1.0232.44992 2.09205.40749 3.16749h1.78084c-.0852-1.08336.10155-2.13328.4075-3.16749.54597-1.64103 1.37668-3.19749 1.72083-4.89166.64341-3.16745-.86685-5.55626-2.89167-7.93751l-.12374-.15782z"/></g><path d="m841.15386 202.84737c.82921-2.23669 1.34825-4.41216 1.58828-6.57041.82599-6.16512-3.32698-7.60448-5.07535-.3477-.64425 2.67407-.087 4.60493 1.15893 5.37771.16049-.70815.53717-3.2848 1.14615-3.58341.669.31656.6104 3.02642.38022 4.24105-.0329.17442-.11353.35964-.14191.53274" fill="#fcef3c" fill-rule="evenodd" stroke-width="1.232"/><path d="m851.37668 180.88146c-3.99989 1.9637-7.25316 4.76094-8.02189 9.21122-.42412 2.4552-.14007 4.98894-.21148 7.48362-.0464 1.5645-.47598 3.05255-1.0896 4.48016l1.20016.46068 8.36273-21.77218z" fill="#fcef3c" stroke-width="1.232"/><path d="m805.97002 197.65907-.38705-10.0648 3.32309-3.26303c.12018-3.13589-2.29148-4.45693-4.42929-5.97427-2.62795 1.95138-4.56913 3.97492-4.35686 6.22481l2.78343 2.73085.62686 10.36093" fill="#fcef3c" stroke-width="1.232"/><path d="m796.84788 198.19061c-.34606-2.36022-.40146-4.59605-.18753-6.75704.47387-6.20214 4.83536-6.74658 5.03674.71511.0742 2.74959-.87231 4.5224-2.25169 5.01925-.01-.72605.15752-3.32471-.37607-3.74341-.72021.17055-1.22629 2.83339-1.25368 4.06931-.004.17747.0363.37541.0281.55064" fill="#fcef3c" fill-rule="evenodd" stroke-width="1.232"/><path d="m791.41541 174.57927c3.50422 2.75242 6.1048 6.16492 5.93147 10.67779-.0956 2.48973-.90023 4.90904-1.34907 7.36404-.27985 1.53997-.1691 3.08482.13432 4.60881l-1.26973.20108-3.65327-23.03512z" fill="#fcef3c" stroke-width="1.232"/><path d="m832.34157 200.43084 2.47119-9.76439-2.57206-3.88262c.53445-3.09237 3.16805-3.88314 5.57462-4.92283 2.1648 2.45511 3.64285 4.83803 2.96744 6.99463l-3.29038 2.09246-2.76732 10.00418" fill="#fcef3c" stroke-width="1.232"/><path d="m794.85819 197.42467.46465 7.36541c17.67495-1.11756 31.47545.0886 45.94691 4.82923l1.98584-7.10788c-8.34733-2.44297-14.94551-4.18296-23.94115-4.99387-8.9965-.811-16.04766-.77477-24.45625-.0929z" fill="#fcef3c" stroke-width="1.232"/></g><path d="m805.81814 273.98106c-1.95807.38147-2.11384.60679-2.43333 1.06666l-2.53333 3.66667c.0521.79058.37947 1.61094-1.26667 2.16667-.61959.39439-1.27363.78799-.6 2.2l2.13333 1.43333-.8 3.6c-1.18168-.7418-4.19067 2.13038-6.3 3.7-3.69843-1.84428-10.59725.24583-13.8.53333-6.58794-2.56043-9.34224-3.60255-15.5-7.63333l-2.96666 2.1 2.76666 2.2 2.33334-1.33333c5.63402 2.14419 7.86017 3.38876 12.6 6.43333l3.86666-.9c-.55605.77681-.97537 1.58948-1.33333 2.4-3.56309-1.56982-2.4995 3.3894-4.8 5.1 2.02773-.91556 2.83445-4.72754 4.06667-3.16667-.76235 2.69854-.7223 5.4213-.7 7.8 1.09866-3.41604 1.07138-6.90615 3.56666-10.2.31576-.4169 4.37274-3.09423 7.16667-2.76666l-2.46667 2.46666c-3.5512-.16143-3.69588 6.16138-4.76666 13.93334 1.10836 1.86834 2.05248 8.37755 3.96666 10.8-1.87953.95151-3.78849 1.33117-5.73333 1.3-3.35328-.0538-2.54702-14.35144-5.93333-12.16667l-1.23334-1.7c-.44522-.0195-.85549.24512-1 .66667-.85717 2.2286-1.00828 4.53307-1.5 6.56666-.49162 2.03361-1.21395 3.76633-3.1 5.23334-.21877 3.43848-.22571 6.91751-1.46666 10.16666.0988 2.30206.90847 4.74509 3.2 6.96667l.43333 3 4.33333 6.63333c.007.0178.0215.0484.0333.0667l.0333.0667c1.20096 2.65882 2.0534 5.24576 2.1 7.63333.0477 2.43052-.67562 4.68639-2.86666 6.96667-.0962.97626-.44159 2.03588.0667 3.13333-.97845 5.53377-3.37046 7.84368-6 9.6 1.12043 1.17155 3.43798.90294 4.73334-.43333l3.33333-9.23334-.36667-2.16666c5.02699-8.49651 1.86613-15.89422-3.6-23.16667l-.23333-2.53333c-6.2816-5.48084-2.59347-9.28291-2.1-15.6 1.92565-1.72797 2.90382-3.81464 3.4-5.86667.99808-5.41452 2.66789 8.22337 7.7 8.2 1.96488-.19064 4.5733-1.04934 6.96667-2.43333.29813.0684.62719.0401.96666-.1 9.55325-3.42744 6.11248-13.12728 11.43334-21.06667-.00002-.00001 3.06469-3.45675 4.03333-4.7.89366-1.14703 2.92902-2.26267 3.5-3.6.55596-1.30199.526-3.26619.73333-4.66666.30051-2.02943.89769-4.28837.73334-6.33334-.0833-1.03582-.42907-2.45462-1.03334-3.3-.81431-1.13929-3.76666-2.73333-3.76666-2.73333z"/><path d="m805.8474 275.45263c-1.43685-.26787-1.93761 1.1429-1.10363 1.24456.94539.11523 2.85592 1.17621 2.97386 1.99486 0 0-2.139-.94099-3.10799-1.17509-1.63401-.39324-2.20622 1.56031-.72586 1.43138 1.27381-.11096 2.95685 1.05515 2.33521 1.82373-.10123-.11461-1.98392-1.41166-2.60209-1.42762-1.25972-.0325-2.12572 1.05812-.47368 1.71589 1.26756.50437 1.88997.84052 2.09579 1.75957-.97097-.66683-1.80194-1.0696-2.98546-1.31338-1.80599-.37206-1.80145 1.39254-.6694 1.68852.67563.17684 2.32739 1.06618 2.32739 1.06618-1.75397.0629-2.22367 2.38352-1.89495 3.52627.76096 2.64509-.10155 2.4114-.29707 4.01569-.50109-1.43449-1.83699-3.47484-4.18347-1.33615-4.22191 3.84832-4.91278 3.07497-7.34878 5.09379-5.77625 4.78714-2.94773 6.972-4.26009 11.58784 0 0 .4995 1.43794.95077 1.88061.66659.65387 2.8891 1.04077 3.78315 1.31017.98968.29824 1.83948-.55423 2.68076-2.12025.74134-1.38003.24004.25648 2.65104-4.50706 1.90561-3.76481 4.43128-5.3492 5.3809-6.2564 1.81193-1.73097 3.85431-4.3562 4.19366-4.36479 1.56583-1.23482 2.41296-2.66221 2.91733-4.18146l1.12858-8.68262-1.02909-3.18518s-1.80592-1.41577-2.74018-1.58995z" fill="#fec3ac"/><path d="m838.02557 540.5021c-12.01764-3.65223-24.83662-8.94553-35.11012-22.29672-8.43436-9.37686-16.45576-15.01935-23.87646-15.2289l.41138-90.06966" fill="none" stroke="#000" stroke-width="1.51747"/></g><g stroke="#000"><path d="m326.37035 290.02169 6.59077 17.79235" fill="none" stroke-width="1.5"/><path d="m411.5137 158.06442c-5.08246-1.54236-6.31853-2.97765-8.27468-6.93347-2.61703-5.29227-2.06147-7.92901-.44616-11.7296 2.0734-4.87837 7.69968-8.23863 12.78996-10.0042 4.36615-1.5144 7.70025-1.8016 12.35473-2.32204 4.20614-.47031 7.79399-.65486 7.68118-.80293-.72161-.94726-.88534-1.31352-1.96742-2.50539-3.22463-3.55182-12.12102-18.74306-15.25387-26.047143-6.96341-16.234833-8.89927-34.035765-5.00133-45.989329 6.05267-18.561333 27.19562-27.641481 51.60368-22.161964 5.09707 1.144267 15.55735 4.902816 20.82336 7.482159 1.45395.71216 2.2709.71216 3.72486 0 27.79558-13.614591 53.47049-11.737276 67.2444 4.91683 9.46707 11.446676 9.54019 33.932582.1813 55.752304-3.13286 7.304083-12.02924 22.495323-15.25387 26.047143-1.08209 1.19187-1.96741 2.3193-1.96741 2.50539 0 .1861 3.61687.54741 7.68116.80293 9.2053.57872 15.36833 2.73842 20.62591 7.30273 4.39166 3.81258 5.43996 5.84817 5.43996 10.56339 0 6.74725-5.11715 12.54102-11.83118 13.39557-2.85474.36334-3.8851.10183-5.93571-1.50649-3.00163-2.35422-3.19543-5.31346-.55293-8.44289 2.60201-3.08151 2.41607-5.26113-.60797-7.12679-4.28563-2.64397-9.51375-3.37384-22.53285-2.82637-11.8334.49762-13.88952-.0832-29.32805 3.12701-3.36091.69886-5.23915 1.32116-5.64234.8095-.34047-.43208 2.3754-3.22924 6.03527-6.21592 20.87496-17.03521 32.38764-36.487389 37.19376-57.901881 2.48485-11.071688.46944-21.801996-5.19497-27.658769-7.33141-7.580387-23.63173-7.98937-39.49645 2.837973-3.86357 2.636806-7.42777 6.89191-7.92046 6.89191-.4927 0-4.05691-4.255104-7.92046-6.89191-15.86471-10.827378-32.16503-10.41836-39.49645-2.837973-5.66443 5.856773-7.67982 16.587081-5.19497 27.658769 4.80611 21.414492 13.77883 40.866671 34.65377 57.901881 3.65988 2.98668 6.37576 5.78384 6.03527 6.21592-.40318.51166-2.24667-.30563-5.64234-.8095-18.59633-2.75944-14.57626-2.68341-26.78806-3.12701-13.02205-.47302-18.24724.1824-22.53286 2.82637-3.02405 1.86566-3.20999 4.04528-.60797 7.12679 2.60405 3.0839 2.4463 6.09055-.43827 8.35295-2.25629 1.76963-5.08531 2.22424-8.23954 1.32405z" fill="#fff" stroke-linecap="round" stroke-linejoin="round" stroke-width="3"/><path d="m74.926501 29.430936c0 10.063716 1.53365 15.777291 28.077069 15.777291 0 0-40.460804 16.790824-40.460804 55.838263 0 0 23.565333.37969 23.565333 21.53926 0 36.37379-30.133504 19.01736-11.963743 7.99642-13.145563-7.12134-27.879793-2.27673-20.80615 15.74134 0 0 11.183498 20.90395 36.933993 4.13109 19.420141-12.64952 4.164131-42.05831 4.164131-42.05831h44.73354v35.34799s-10.13876 5.16088-13.26 12.38612c-3.12131 7.22521 9.88528-4.38255 9.88528-4.38255h28.60571s9.36326 9.73983 9.10314 5.61113c-.26029-4.12869-2.60052-9.73927-12.22443-14.6421v-97.027322l18.41631-10.546887h-80.320537s-4.21824-.307891-6.677083-9.411776c-4.707043-8.267524-17.545787-2.989301-17.771759 3.700041zm67.241569 16.129321v48.639357h-54.365361s6.375807-48.639357 54.365361-48.639357z" fill="#fff" stroke-linejoin="round" stroke-width="3"/></g></g><path d="m300.00001 658.5s298.49999-112.32031 298.49999-397.77183c0-285.451504 0-258.5516835 0-258.5516835h-597v258.5516835c0 285.45152 298.50001 397.77183 298.50001 397.77183z" fill="url(#a)" fill-rule="evenodd"/><path d="m299.99999 658.39715s-298.49999-112.41841-298.49999-398.11925c0-285.700818 0-258.7775027 0-258.7775027h596.99999v258.7775027c0 285.70084-298.5 398.11925-298.5 398.11925z" fill="none" stroke="#000" stroke-width="3"/></svg>