<svg height="660" viewBox="-300 -300 600 660" width="600" xmlns="http://www.w3.org/2000/svg" xmlns:xlink="http://www.w3.org/1999/xlink"><radialGradient id="a" cx="-80" cy="-80" gradientTransform="matrix(1 0 0 .99983257 0 -.049961)" gradientUnits="userSpaceOnUse" r="405"><stop offset="0" stop-color="#fff" stop-opacity=".31"/><stop offset=".19" stop-color="#fff" stop-opacity=".25"/><stop offset=".6" stop-color="#6b6b6b" stop-opacity=".125"/><stop offset="1" stop-opacity=".125"/></radialGradient><path d="m-298.5-298.50003h597v258.5433c0 286.24794-298.5 398.45673-298.5 398.45673s-298.5-112.20879-298.5-398.45673z" fill="#2b5df2"/><path d="m-255.47453-135.55435 376.16371 376.18623-66.887269 40.36816-310.301911-310.320483zm75.31366-139.20072 395.72637 395.75005-43.45993 63.79692-405.89295-405.91724zm227.155478 12.65017 232.505422 232.519335-32.40928 74.848214-304.997614-305.015859z" fill="#fcef3c" stroke="#000" stroke-linecap="round" stroke-linejoin="round" stroke-width="3"/><g transform="translate(-300 -300)"><path d="m0 0v258.81836c0 285.74543 298.5 398.18164 298.5 398.18164s298.5-112.43621 298.5-398.18164v-258.81836zm80 79.828125h437v189.113285c0 209.48567-218.5 291.45507-218.5 291.45507s-218.5-81.9694-218.5-291.45507z" fill="#e20909" fill-rule="evenodd" transform="translate(1.5 1.5)"/><path d="m81.5 81.327691v189.318399c0 209.0172 218.5 291.25119 218.5 291.25119s218.5-82.23399 218.5-291.25119v-189.318399z" fill="none" stroke="#000" stroke-width="3"/></g><path d="m-298.5-298.5h597v258.5c0 286.2-298.5 398.39-298.5 398.39s-298.5-112.19-298.5-398.39z" fill="url(#a)" height="100%" stroke-width=".999916" transform="matrix(1 0 0 1.0001675 0 .04997)" width="100%"/><path d="m-298.5-298.50001h597v258.502973c0 286.203287-298.5 398.394577-298.5 398.394577s-298.5-112.19129-298.5-398.394577z" fill="none" stroke="#000" stroke-width="3"/></svg>