<?xml version="1.0" encoding="UTF-8" standalone="no"?>
<svg
   xmlns:dc="http://purl.org/dc/elements/1.1/"
   xmlns:cc="http://creativecommons.org/ns#"
   xmlns:rdf="http://www.w3.org/1999/02/22-rdf-syntax-ns#"
   xmlns:svg="http://www.w3.org/2000/svg"
   xmlns="http://www.w3.org/2000/svg"
   xmlns:xlink="http://www.w3.org/1999/xlink"
   xmlns:sodipodi="http://sodipodi.sourceforge.net/DTD/sodipodi-0.dtd"
   xmlns:inkscape="http://www.inkscape.org/namespaces/inkscape"
   width="600"
   height="660"
   viewBox="0 0 600 660"
   id="svg2"
   sodipodi:version="0.32"
   inkscape:version="0.46"
   sodipodi:docname="Blason_ville_fr_Perpignan_(Pyrénées-Orientales).svg"
   inkscape:output_extension="org.inkscape.output.svg.inkscape"
   version="1.0">
  <metadata
     id="metadata28">
    <rdf:RDF>
      <cc:Work
         rdf:about="">
        <dc:format>image/svg+xml</dc:format>
        <dc:type
           rdf:resource="http://purl.org/dc/dcmitype/StillImage" />
      </cc:Work>
    </rdf:RDF>
  </metadata>
  <sodipodi:namedview
     inkscape:window-height="977"
     inkscape:window-width="1280"
     inkscape:pageshadow="2"
     inkscape:pageopacity="0.0"
     guidetolerance="10.0"
     gridtolerance="10.0"
     objecttolerance="7"
     borderopacity="1.0"
     bordercolor="#666666"
     pagecolor="#ffffff"
     id="base"
     showgrid="false"
     inkscape:zoom="1.1621212"
     inkscape:cx="300"
     inkscape:cy="330"
     inkscape:window-x="-4"
     inkscape:window-y="-4"
     inkscape:current-layer="layer3"
     inkscape:object-nodes="false"
     inkscape:object-paths="true" />
  <defs
     id="defs4">
    <radialGradient
       id="Gradient1"
       gradientUnits="userSpaceOnUse"
       cx="-80"
       cy="-110"
       r="400">
      <stop
         stop-color="#fff"
         stop-opacity=".31"
         offset="0"
         id="stop7" />
      <stop
         stop-color="#fff"
         stop-opacity=".25"
         offset=".19"
         id="stop9" />
      <stop
         stop-color="#6b6b6b"
         stop-opacity=".125"
         offset=".6"
         id="stop11" />
      <stop
         stop-opacity=".125"
         offset="1"
         id="stop13" />
    </radialGradient>
    <clipPath
       id="shield_cut">
      <path
         id="shield"
         d="M -298.5,0 L 0,-328.5 L 298.5,0 L 0,328.5 L -298.5,0 z"
         style="stroke-linejoin:round" />
    </clipPath>
  </defs>
  <g
     id="layer4"
     inkscape:label="Fond écu"
     inkscape:groupmode="layer"
     transform="translate(300,330)">
    <use
       xlink:href="#shield"
       id="use18"
       style="fill:#fcef3c"
       x="0"
       y="0"
       width="600"
       height="660" />
    <path
       style="opacity:1;fill:#e20909;fill-opacity:1;fill-rule:nonzero;stroke:#000000;stroke-width:2.5;stroke-linecap:round;stroke-linejoin:round;stroke-miterlimit:4;stroke-dasharray:none;stroke-dashoffset:0;stroke-opacity:1"
       d="M 266.84375 38 L 200.5 111 L 200.5 549 L 266.84375 622 L 266.84375 38 z M 333.15625 38 L 333.15625 622 L 399.5 549 L 399.5 111 L 333.15625 38 z M 134.15625 184 L 67.84375 257 L 67.84375 403 L 134.15625 476 L 134.15625 184 z M 465.84375 184 L 465.84375 476 L 532.15625 403 L 532.15625 257 L 465.84375 184 z "
       transform="translate(-300,-330)"
       id="rect6427" />
    <rect
       style="opacity:1;fill:#2b5df2;fill-opacity:1;fill-rule:nonzero;stroke:#000000;stroke-width:2;stroke-linecap:round;stroke-linejoin:round;stroke-miterlimit:4;stroke-dasharray:none;stroke-dashoffset:0;stroke-opacity:1"
       id="rect4118"
       width="256.37399"
       height="374.86127"
       x="-128.187"
       y="-187.39258" />
  </g>
  <g
     id="layer3"
     inkscape:label="Meubles"
     inkscape:groupmode="layer"
     transform="translate(300,330)">
    <g
       id="g2520">
      <path
         sodipodi:nodetypes="czcccc"
         id="path3967"
         d="M -45.123714,84.754882 C -23.244972,93.95765 4.0932639,97.611146 24.137147,96.656426 C 44.181029,95.701706 80.410003,96.585065 92.76576,81.652954 L 72.41717,-61.385109 L -18.685222,-60.739061 L -45.123714,84.754882 z"
         style="fill:#5ab532;fill-opacity:1;fill-rule:nonzero;stroke:#000000;stroke-width:1.20000005;stroke-linecap:round;stroke-linejoin:round;stroke-miterlimit:4;stroke-dasharray:none;stroke-dashoffset:0;stroke-opacity:1" />
      <path
         sodipodi:nodetypes="cccccc"
         id="path3963"
         d="M -22.808759,-91.322663 L -41.591286,3.4808319 L -45.123714,84.754882 C -44.233209,72.922178 -26.243588,72.241066 -15.200481,67.029618 C -22.793425,35.600527 -20.791628,-26.41941 -13.931342,-92.799783 L -22.808759,-91.322663 z"
         style="fill:#630b57;fill-opacity:1;fill-rule:nonzero;stroke:#000000;stroke-width:1.20000005;stroke-linecap:round;stroke-linejoin:round;stroke-miterlimit:4;stroke-dasharray:none;stroke-dashoffset:0;stroke-opacity:1" />
      <path
         transform="matrix(0.6349992,0,0,0.6616094,-179.15775,-209.87776)"
         d="M 371.34375,109.87098 A 57.43924,55.129021 0 1 1 256.46527,109.87098 A 57.43924,55.129021 0 1 1 371.34375,109.87098 z"
         sodipodi:ry="55.129021"
         sodipodi:rx="57.43924"
         sodipodi:cy="109.87098"
         sodipodi:cx="313.90451"
         id="path6422"
         style="fill:#fcef3c;fill-opacity:1;fill-rule:nonzero;stroke:#000000;stroke-width:1.55515301;stroke-linecap:round;stroke-linejoin:round;stroke-miterlimit:4;stroke-dasharray:none;stroke-dashoffset:0;stroke-opacity:1"
         sodipodi:type="arc" />
      <path
         sodipodi:nodetypes="cscccccscccccccsssccccccccccccccccccccsc"
         id="path6259"
         d="M 19.753712,-155.18309 C 13.342322,-154.88775 7.2219201,-151.47877 6.0197121,-144.89309 C 5.2152878,-140.48673 5.0277326,-141.79397 5.3477121,-137.85809 L 5.2637121,-138.21509 L 7.0067121,-128.80709 C 8.7253924,-122.86804 12.103792,-115.64929 9.0647121,-109.13009 C 9.1638657,-108.82929 9.2379268,-108.56904 9.3167121,-108.29009 C 8.3025297,-106.34669 7.0251719,-104.56169 5.6417121,-102.99809 C 1.7498375,-98.59935 0.41766474,-100.01213 -0.7002879,-99.218087 C -7.1660903,-98.472567 -4.9414949,-98.806183 -11.703294,-95.879335 C -16.701946,-94.326647 -17.64757,-97.096327 -30.457288,-83.216087 C -34.470667,-78.103934 -39.183121,-69.974911 -45.199288,-69.482087 C -51.809248,-69.16042 -56.878742,-66.260888 -62.020288,-63.413086 C -71.543684,-59.567594 -78.47088,-58.59656 -88.123288,-64.946087 C -97.441336,-71.852883 -94.003392,-51.5574 -92.155288,-52.955087 C -89.58456,-50.84285 -81.37264,-47.557206 -75.607288,-48.356087 C -70.440535,-49.072022 -64.981086,-48.564782 -59.290288,-49.112087 C -53.211289,-49.696713 -47.500048,-51.427362 -41.734288,-53.060086 C -31.693754,-55.903312 -20.803498,-63.524437 -16.093288,-66.038086 L -13.300288,-58.415087 L -4.8582879,-58.604087 C -2.4182089,-57.691591 0.1103793,-57.959686 2.6177121,-58.352087 C 7.3831195,-58.55829 13.06547,-59.692055 22.672712,-63.161087 C 32.417303,-58.508011 45.421901,-51.823943 50.728712,-60.599086 C 51.623923,-60.658001 52.543677,-60.708542 53.542712,-60.746087 L 52.219712,-64.169087 C 52.519747,-65.260031 52.757016,-66.474779 52.912712,-67.844087 L 54.949712,-56.756087 L 64.882712,-86.933087 C 61.579462,-91.017111 57.848357,-92.457407 52.849712,-94.010086 C 46.087914,-96.936935 48.794515,-96.792575 42.328712,-97.538087 C 41.525182,-98.108807 40.612599,-97.567591 38.716712,-98.840087 L 37.435712,-102.13709 C 31.522697,-107.2698 31.025935,-111.50763 29.875712,-115.85009 L 29.770712,-115.85009 C 30.52438,-119.98605 32.546805,-124.258 33.718712,-128.30309 L 35.965712,-137.62709 C 36.199588,-140.41351 36.264074,-140.40909 35.776712,-144.32609 C 34.699852,-151.40228 27.9103,-155.05582 21.055712,-155.18309 C 20.627339,-155.19104 20.181104,-155.20278 19.753712,-155.18309 z"
         style="fill:#f7c5b4;stroke:#000000;stroke-width:1.00800002;stroke-linecap:butt;stroke-linejoin:miter;stroke-miterlimit:4;stroke-dasharray:none;stroke-opacity:1" />
      <path
         sodipodi:nodetypes="cccccccscccscccccccccccsccccscccccccsccccc"
         id="path6285"
         d="M -10.339288,17.226914 L -11.200288,56.244914 L -12.439288,79.302914 C -11.561777,84.308954 -12.94394,89.311874 -14.686288,94.317914 C -21.871184,116.72935 -14.630929,143.34115 -21.994288,151.96291 C -25.747394,156.26059 -31.410178,158.86416 -36.295288,164.18491 C -37.509074,164.00346 -46.558078,168.94819 -49.378288,167.96491 C -48.606986,170.76843 -48.789226,170.21164 -48.286288,171.19891 C -47.272072,173.18979 -45.389128,173.64891 -44.149288,172.89991 C -43.781502,173.35394 -41.795736,171.97463 -39.676288,171.91291 C -35.63617,173.70281 -31.592988,171.61104 -31.297288,171.59791 C -21.561366,168.14629 -18.471516,171.20904 -11.347288,171.03091 C -7.3763663,170.93163 -7.0902751,163.49422 -7.2942879,160.74091 C -7.7284943,158.77884 -8.5994063,151.78255 -7.4202879,150.21991 C -5.59103,140.77586 -4.9902956,130.99784 -0.7422879,122.20591 C 3.8445422,112.11023 5.2418385,104.13258 4.4657121,94.590914 C 4.660451,88.196226 5.7679003,83.110506 7.9517121,79.575914 C 12.932851,68.751082 12.58366,63.65286 14.902712,55.698914 L 18.283712,29.952914 L 25.297712,27.621914 L 34.096712,53.892914 C 35.143426,60.280448 34.664277,64.811012 37.561712,73.443914 C 38.814387,78.012768 40.46945,82.137466 39.220712,89.403914 C 36.385483,98.425706 37.082973,109.0143 39.346712,122.68891 C 40.399655,129.0495 40.71901,139.79719 42.958712,146.31391 C 44.352655,150.17811 39.276791,150.66505 42.937712,154.96591 C 44.187471,159.64492 41.059512,161.02145 40.606712,166.32691 C 40.132905,169.78387 47.465903,170.72341 46.738712,168.86791 C 47.623252,170.799 47.862773,170.31711 49.825712,170.88391 C 52.740143,171.72545 56.651398,172.43512 57.448712,169.26691 C 57.360821,172.62573 62.39984,171.16764 62.068712,169.45591 C 62.327748,171.07223 66.110537,170.86743 66.478712,169.22491 C 67.587465,170.52687 70.580681,170.30476 69.649712,168.90991 C 72.445669,172.00685 76.755367,167.18027 71.959712,166.22191 C 70.361346,165.55492 67.659725,163.83799 65.764712,163.19791 C 62.445617,160.83948 63.627007,161.54708 62.068712,158.80891 C 54.189498,150.40707 52.826615,138.20151 54.025712,133.12591 C 60.021034,107.74827 58.472242,97.185841 58.309712,88.059914 C 55.541509,81.381394 57.799725,77.349437 59.086712,71.490914 C 59.594986,60.114384 59.814105,54.244887 57.826712,48.957914 L 54.508712,17.814913 L -10.339288,17.226914 z"
         style="fill:#f7c5b4;stroke:#000000;stroke-width:1.30688798;stroke-linecap:butt;stroke-linejoin:miter;stroke-miterlimit:4;stroke-dasharray:none;stroke-opacity:1" />
      <path
         sodipodi:nodetypes="ccc"
         id="path6287"
         d="M 50.726401,163.71415 L 52.258023,163.87243 C 53.251529,166.99062 56.536453,166.58057 57.838285,168.57563"
         style="fill:none;stroke:#000000;stroke-width:1.30688798;stroke-linecap:butt;stroke-linejoin:miter;stroke-opacity:1" />
      <path
         sodipodi:nodetypes="cc"
         id="path6289"
         d="M 57.957646,164.9324 C 60.177167,167.26465 61.876615,165.47643 62.073478,169.45478"
         style="fill:none;stroke:#000000;stroke-width:1.30688798;stroke-linecap:butt;stroke-linejoin:miter;stroke-opacity:1" />
      <path
         sodipodi:nodetypes="cc"
         id="path6291"
         d="M 66.470098,169.22932 C 66.576206,167.41361 66.273974,167.98039 64.908034,166.69385"
         style="fill:none;stroke:#000000;stroke-width:1.30688798;stroke-linecap:butt;stroke-linejoin:miter;stroke-opacity:1" />
      <path
         sodipodi:nodetypes="cc"
         id="path6297"
         d="M -17.822538,160.0864 C -15.96218,160.97601 -14.101842,161.45366 -12.24149,158.03454"
         style="fill:none;fill-opacity:1;stroke:#000000;stroke-width:1.00800002;stroke-linejoin:round;stroke-miterlimit:4;stroke-dasharray:none;stroke-opacity:1" />
      <path
         sodipodi:nodetypes="ccccccccccccccccccccccccccccccscc"
         id="path6385"
         d="M -13.554425,50.324022 L -9.4652367,40.334319 L -7.9667775,53.320934 L -3.0080493,34.340496 L 1.4873215,42.831746 L 10.47805,44.829683 L 13.474962,58.315782 L 22.465697,46.328142 L 22.774608,35.875068 L 25.272029,35.875068 L 32.918764,56.317846 L 36.41516,53.820418 L 37.913612,30.344616 L 46.595436,42.332256 L 53.588227,45.828658 L 61.307196,60.313726 L 66.528743,25.849252 L 62.723436,-5.618311 C 60.199115,-9.8541825 59.242231,-14.403542 51.551483,-17.606128 L 49.789801,-24.401182 L 46.322644,-32.59051 L 16.471873,-53.568884 C 7.5142839,-61.601496 -1.5530035,-69.502471 -5.1604452,-83.955263 L -12.153237,-96.994782 L -17.647569,-95.496326 L -20.04345,-93.189479 C -19.821102,-75.79076 -7.7692639,-73.421532 -20.989513,-42.580213 C -8.1491423,-34.872351 -15.572833,-30.848863 -13.497237,-25.098234 L -4.9569434,-20.277722 L -5.5054701,-16.107499 C -5.5054701,-16.107499 -12.226015,-8.9668801 -13.65169,-5.1188268 C -16.783249,3.3336007 -15.804085,24.850277 -15.804085,24.850277 L -13.554425,50.324022 z"
         style="fill:#d9bb7a;fill-opacity:1;fill-rule:nonzero;stroke:#000000;stroke-width:1.00800002;stroke-linecap:round;stroke-linejoin:round;stroke-miterlimit:4;stroke-dasharray:none;stroke-dashoffset:0;stroke-opacity:1" />
      <path
         sodipodi:nodetypes="ccccc"
         id="path3965"
         d="M 80.01464,-62.101141 L 63.870986,-79.519219 C 74.150704,-20.960272 69.633672,14.872288 64.564839,69.245266 C 75.458897,71.915698 91.049856,74.63497 92.76576,81.652954 L 80.01464,-62.101141 z"
         style="fill:#630b57;fill-opacity:1;fill-rule:nonzero;stroke:#000000;stroke-width:1.20000005;stroke-linecap:round;stroke-linejoin:round;stroke-miterlimit:4;stroke-dasharray:none;stroke-dashoffset:0;stroke-opacity:1" />
      <path
         sodipodi:nodetypes="cccccsccsc"
         id="path6382"
         d="M 53.542712,-60.746087 L 63.991909,-40.457681 L 38.086248,-43.719522 M 26.537303,-41.711841 L 38.077405,-30.54683 C 38.077405,-30.54683 59.103499,-23.916199 68.146555,-25.342553 C 72.081485,-25.963205 77.451814,-29.826634 80.735071,-32.196698 C 83.339208,-33.714967 84.484256,-35.862907 85.797152,-38.455746 C 86.936544,-40.758818 86.243888,-41.995378 85.517712,-44.203799 C 80.458893,-59.588774 77.22967,-75.711412 64.882712,-86.933087"
         style="fill:#f7c5b4;fill-opacity:1;fill-rule:nonzero;stroke:#000000;stroke-width:1.00800002;stroke-linecap:round;stroke-linejoin:round;stroke-miterlimit:4;stroke-dasharray:none;stroke-dashoffset:0;stroke-opacity:1" />
      <path
         sodipodi:nodetypes="cscccssscccsccccscccssscccscc"
         style="font-size:medium;font-style:normal;font-variant:normal;font-weight:normal;font-stretch:normal;text-indent:0;text-align:start;text-decoration:none;line-height:normal;letter-spacing:normal;word-spacing:normal;text-transform:none;direction:ltr;block-progression:tb;writing-mode:lr-tb;text-anchor:start;fill:#fcef3c;fill-opacity:1;stroke:#000000;stroke-width:1.35737348;marker:none;stroke-miterlimit:4;stroke-dasharray:none;stroke-opacity:1;visibility:visible;display:inline;overflow:visible;enable-background:accumulate;font-family:Bitstream Vera Sans;-inkscape-font-specification:Bitstream Vera Sans"
         d="M -102.98494,-131.07034 C -101.28376,-130.98118 -99.975544,-129.55688 -100.06295,-127.88905 C -100.08982,-127.3764 -100.26955,-126.91501 -100.52162,-126.50416 L -98.956848,-115.02454 L -84.728024,-116.40274 C -84.17792,-117.39011 -83.10216,-118.0419 -81.878504,-117.97777 C -80.177328,-117.88861 -78.869112,-116.4643 -78.95652,-114.79649 C -79.04392,-113.12866 -80.493856,-111.84891 -82.195032,-111.93806 C -82.770176,-111.9682 -83.288,-112.14615 -83.734568,-112.43932 L -98.415912,-111.02174 L -96.74756,-98.653479 C -95.938536,-98.303623 -95.378696,-97.733279 -95.288768,-97.020894 C -95.19956,-96.314295 -95.58172,-95.623694 -96.269088,-95.095559 L -61.211667,163.50297 L -66.049619,163.48214 L -101.0223,-94.440422 C -101.90602,-94.781919 -102.53254,-95.391454 -102.62752,-96.143775 C -102.72144,-96.887615 -102.27097,-97.60879 -101.51446,-98.146254 L -103.2009,-110.57856 L -117.40833,-109.19923 C -118.00132,-108.40251 -118.96713,-107.89302 -120.04774,-107.94965 C -121.74894,-108.03881 -123.05714,-109.46311 -122.96974,-111.13093 C -122.88233,-112.79875 -121.43242,-114.07852 -119.73122,-113.98937 C -118.9949,-113.95077 -118.34902,-113.66775 -117.84123,-113.2174 L -103.74185,-114.58136 L -105.27262,-125.89097 C -105.89429,-126.47875 -106.2712,-127.30089 -106.22346,-128.21191 C -106.13606,-129.87973 -104.6861,-131.15949 -102.98494,-131.07034 L -102.98494,-131.07034 z"
         id="path6329" />
      <path
         sodipodi:nodetypes="cccccs"
         d="M -84.143928,-62.179107 L -87.275512,-67.958643 C -88.34112,-69.420894 -91.612488,-72.221434 -93.816864,-72.648503 L -102.3661,-76.839512 C -101.82491,-71.435919 -99.448312,-70.716087 -93.379744,-69.21795 C -93.937728,-65.041181 -92.212464,-60.884928 -89.882136,-57.143084"
         style="fill:#f7c5b4;fill-opacity:1;fill-rule:evenodd;stroke:#000000;stroke-width:1.07519996;stroke-linecap:round;stroke-linejoin:round;stroke-miterlimit:4;stroke-dasharray:none;stroke-opacity:1"
         id="path6331" />
      <path
         id="path6333"
         style="fill:#f7c5b4;fill-opacity:1;fill-rule:evenodd;stroke:#000000;stroke-width:1.07519996;stroke-linecap:butt;stroke-linejoin:round;stroke-miterlimit:4;stroke-dasharray:none;stroke-opacity:1"
         d="M -82.092856,-53.70866 L -82.092856,-53.70866 z M -91.993736,-56.001047 C -90.82952,-55.60575 -89.131408,-55.097604 -91.375784,-53.154509 L -98.604704,-51.691747 C -100.66969,-52.100504 -101.07283,-54.069659 -99.855104,-55.127185 L -91.993736,-56.001047 z M -91.624592,-56.708791 C -91.054664,-57.557352 -90.939936,-58.366333 -92.070312,-59.067041 L -102.71951,-60.859795 C -103.49805,-60.848069 -103.11963,-59.362942 -102.81252,-58.657974 C -102.59186,-57.603727 -101.31042,-56.281171 -100.20204,-56.153732 L -91.624592,-56.708791 z M -92.8044,-63.02336 C -91.814056,-62.067272 -91.976488,-60.217055 -93.48148,-59.990778 L -102.625,-61.73646 C -104.59533,-62.335582 -105.2089,-66.343289 -104.22662,-66.199198 L -92.8044,-63.02336 z M -92.978176,-63.850283 C -97.73012,-65.060777 -102.07892,-65.628012 -104.4393,-67.21369 C -105.44736,-67.974313 -106.55997,-73.155951 -102.9623,-71.746774 C -101.90181,-70.803286 -97.05968,-68.997944 -93.480544,-67.696818 C -91.500616,-66.977065 -90.936136,-65.318045 -92.978176,-63.850283 z"
         sodipodi:nodetypes="cccccccccccccccccccccsc" />
      <path
         sodipodi:nodetypes="ccccc"
         id="path6388"
         d="M -6.3616327,-16.590744 C 9.3781527,-12.17149 29.195662,-10.507487 52.875598,-17.998459 L 51.996662,-22.047199 C 42.913447,-19.190097 13.135077,-12.133166 -5.8131061,-20.760968 L -6.3616327,-16.590744 z"
         style="fill:#aa4400;fill-opacity:1;fill-rule:nonzero;stroke:#000000;stroke-width:1.00800002;stroke-linecap:round;stroke-linejoin:round;stroke-miterlimit:4;stroke-dasharray:none;stroke-dashoffset:0;stroke-opacity:1" />
      <path
         sodipodi:nodetypes="cccc"
         id="path3959"
         d="M 23.618839,-93.768118 C 15.301495,-62.326431 -1.8572054,-69.197287 -22.460432,-90.994423 C -22.963332,-97.262903 -9.6286655,-97.381359 -1.8563451,-99.971967 L 23.618839,-93.768118 z"
         style="fill:#630b57;fill-opacity:1;fill-rule:nonzero;stroke:#000000;stroke-width:1.20000005;stroke-linecap:round;stroke-linejoin:round;stroke-miterlimit:4;stroke-dasharray:none;stroke-dashoffset:0;stroke-opacity:1" />
      <path
         sodipodi:nodetypes="cc"
         id="path6393"
         d="M -16.562877,-85.660423 L -10.84728,-69.247505"
         style="fill:none;fill-opacity:1;fill-rule:nonzero;stroke:#000000;stroke-width:1.00800002;stroke-linecap:round;stroke-linejoin:round;stroke-miterlimit:4;stroke-dasharray:none;stroke-dashoffset:0;stroke-opacity:1" />
      <path
         sodipodi:nodetypes="cc"
         id="path6397"
         d="M 37.913611,30.344616 C 37.821555,20.257432 38.865238,10.738115 33.411353,-2.0299857"
         style="fill:none;fill-opacity:1;fill-rule:nonzero;stroke:#000000;stroke-width:1.00800002;stroke-linecap:round;stroke-linejoin:round;stroke-miterlimit:4;stroke-dasharray:none;stroke-dashoffset:0;stroke-opacity:1" />
      <path
         sodipodi:nodetypes="cc"
         id="path6399"
         d="M -3.0080501,34.340496 C -2.5811823,22.611408 -3.9484133,9.3124735 1.7455771,2.1921164"
         style="fill:none;fill-opacity:1;fill-rule:nonzero;stroke:#000000;stroke-width:1.00800002;stroke-linecap:round;stroke-linejoin:round;stroke-miterlimit:4;stroke-dasharray:none;stroke-dashoffset:0;stroke-opacity:1" />
      <path
         id="path6403"
         d="M -12.713202,87.49009 L -9.3545391,91.221938"
         style="fill:none;fill-opacity:1;fill-rule:nonzero;stroke:#000000;stroke-width:1.00800002;stroke-linecap:round;stroke-linejoin:round;stroke-miterlimit:4;stroke-dasharray:none;stroke-dashoffset:0;stroke-opacity:1" />
      <path
         sodipodi:nodetypes="csc"
         id="path6405"
         d="M 49.235467,90.848754 C 49.235467,90.848754 51.427519,92.070458 52.811052,92.010881 C 54.300003,91.946402 55.711834,90.98905 55.678449,90.980698"
         style="fill:none;fill-opacity:1;fill-rule:nonzero;stroke:#000000;stroke-width:1.00800002;stroke-linecap:round;stroke-linejoin:round;stroke-miterlimit:4;stroke-dasharray:none;stroke-dashoffset:0;stroke-opacity:1" />
      <path
         sodipodi:nodetypes="csc"
         id="path6407"
         d="M 51.820416,74.589069 C 51.820416,74.589069 48.559368,71.412189 47.733017,69.684194 C 45.754877,65.547672 44.735595,54.697076 44.735595,54.697076"
         style="fill:none;fill-opacity:1;fill-rule:nonzero;stroke:#000000;stroke-width:1.00800002;stroke-linecap:round;stroke-linejoin:round;stroke-miterlimit:4;stroke-dasharray:none;stroke-dashoffset:0;stroke-opacity:1" />
      <path
         sodipodi:nodetypes="cc"
         id="path6409"
         d="M -0.77075382,76.496521 C 3.3126945,71.626201 6.5656987,65.772583 6.8590535,62.636306"
         style="fill:none;fill-opacity:1;fill-rule:nonzero;stroke:#000000;stroke-width:1.00800002;stroke-linecap:round;stroke-linejoin:round;stroke-miterlimit:4;stroke-dasharray:none;stroke-dashoffset:0;stroke-opacity:1" />
      <path
         id="path6411"
         d="M 51.943527,-73.471972 L 48.945065,-79.720343"
         style="fill:none;fill-opacity:1;fill-rule:nonzero;stroke:#000000;stroke-width:1.00800002;stroke-linecap:round;stroke-linejoin:round;stroke-miterlimit:4;stroke-dasharray:none;stroke-dashoffset:0;stroke-opacity:1" />
      <path
         id="path6413"
         d="M -40.472158,-67.917206 L -35.559549,-65.624652"
         style="fill:none;fill-opacity:1;fill-rule:nonzero;stroke:#000000;stroke-width:1.00800002;stroke-linecap:round;stroke-linejoin:round;stroke-miterlimit:4;stroke-dasharray:none;stroke-dashoffset:0;stroke-opacity:1" />
      <path
         sodipodi:nodetypes="ccccc"
         id="path3961"
         d="M 21.597005,-92.881855 L 39.793558,-101.30135 C 47.25478,-97.855111 52.831262,-92.838263 63.04748,-91.687855 C 72.181269,-81.823783 81.27919,-71.958004 79.86886,-61.591834 C 56.53302,-81.767663 25.397892,-76.555925 21.597005,-92.881855 z"
         style="fill:#630b57;fill-opacity:1;fill-rule:nonzero;stroke:#000000;stroke-width:1.20000005;stroke-linecap:round;stroke-linejoin:round;stroke-miterlimit:4;stroke-dasharray:none;stroke-dashoffset:0;stroke-opacity:1" />
      <g
         transform="matrix(0.8,0,0,0.8,1.7713201,-1.6271425)"
         id="g3980">
        <path
           style="fill:#fcef3c;stroke:#000000;stroke-width:1.63361001;stroke-linecap:butt;stroke-linejoin:miter;stroke-miterlimit:4;stroke-dasharray:none;stroke-opacity:1"
           d="M 6.7348622,-116.2167 C 6.809177,-117.69308 3.895721,-118.78217 2.0842442,-120.25854"
           id="path6261"
           sodipodi:nodetypes="cc" />
        <path
           sodipodi:nodetypes="ccccccscscccccc"
           id="path6263"
           d="M 26.354045,-161.62841 C 27.609988,-160.57696 27.545291,-159.69812 27.050187,-158.87556 C 26.050377,-158.17758 25.161959,-158.50079 24.265511,-158.75042 L 23.149227,-158.66586 L 19.654104,-158.44645 C 18.728323,-157.80514 16.599579,-159.00408 17.115759,-161.12042 C 17.603211,-162.38021 18.170017,-162.0937 18.423731,-162.67531 C 19.655028,-165.49792 19.597967,-168.05794 19.999336,-171.4535 C 20.314361,-174.35856 18.941121,-174.90819 17.812396,-174.87315 C 15.851181,-174.81029 10.449166,-175.81732 8.3992466,-175.16585 C 11.548995,-176.92675 15.377824,-176.00128 18.740571,-175.4988 C 20.189915,-174.76417 20.712823,-172.61693 20.582363,-171.45999 L 19.926508,-160.44123 C 19.743085,-158.63483 22.035235,-159.13673 22.685135,-158.91614 C 25.265321,-158.84208 26.521894,-158.29377 26.354045,-161.62842 L 26.354045,-161.62841 z"
           style="fill:#313131;fill-opacity:1;stroke:none" />
        <path
           style="fill:#313131;fill-opacity:1;stroke:none"
           d="M 30.398225,-170.4527 C 30.753696,-171.51931 31.427779,-171.27472 32.016107,-171.29319 C 34.065598,-171.35748 36.115853,-171.31905 38.165713,-170.66753 L 36.193175,-171.66857 C 34.461288,-172.1417 32.76658,-172.13407 31.087848,-171.91883 C 30.403425,-171.65139 29.987003,-171.31593 29.728258,-170.94045 L 30.398225,-170.4527 L 30.398225,-170.4527 z"
           id="path6265"
           sodipodi:nodetypes="csccccc" />
        <path
           id="path6267"
           d="M 38.409675,-169.20757 L 35.322297,-169.60983 L 32.831226,-170.5885 L 30.878629,-169.88412 L 30.389951,-168.97106 L 31.312439,-169.49157 L 31.843941,-167.89454 L 33.176206,-167.32668 L 34.351971,-167.69769 L 35.065979,-168.8054 L 36.609714,-168.60427 L 38.205286,-168.75481 L 38.409675,-169.20757 L 38.409675,-169.20757 z"
           style="fill:#313131;fill-opacity:1;stroke:none" />
        <path
           id="path6269"
           d="M 29.997411,-168.74392 L 30.798258,-167.36209 L 30.397788,-167.103 L 29.917291,-167.96663 L 29.997427,-168.74392 L 29.997411,-168.74392 z"
           style="fill:#313131;fill-opacity:1;stroke:none" />
        <path
           style="fill:#000000;fill-opacity:1;stroke:#313131;stroke-width:1.2131362;stroke-linejoin:round;stroke-miterlimit:4;stroke-dasharray:none;stroke-opacity:1"
           d="M 6.7171886,-175.58523 C 7.8428306,-178.1252 7.060295,-182.16861 12.78492,-183.32294 L 20.048753,-184.00279 C 22.444954,-184.9262 23.735933,-186.16981 23.761788,-187.77991 C 24.026867,-186.27754 25.349775,-184.91786 27.703421,-183.69721 L 34.046647,-183.5439 C 37.331199,-183.65458 39.221467,-179.893 40.420122,-178.14269 C 40.143082,-175.30171 42.599049,-168.53442 42.083398,-165.20664 C 40.311745,-153.77283 36.603549,-145.23877 36.096382,-139.81718 C 32.162368,-134.95262 55.238327,-113.51946 52.156392,-124.48218 C 47.026781,-130.81632 50.812585,-157.69268 46.991476,-171.74271 C 47.829905,-176.65238 46.495019,-180.40804 46.397831,-181.51567 C 46.139749,-184.45689 42.908026,-182.13099 42.969808,-185.3465 C 40.348588,-187.52291 37.95804,-190.88766 35.766203,-192.29232 C 33.608923,-193.67477 31.644037,-193.10834 29.840751,-193.85452 C 23.255125,-196.57969 18.825318,-195.4299 15.055239,-193.09434 C 13.515502,-192.14048 12.085864,-192.592 10.664281,-191.42578 C 8.914385,-189.99018 7.1767358,-188.6258 5.2613174,-187.4877 C 4.132895,-184.68846 1.1488454,-185.3689 0.9264302,-182.7656 C -1.9023118,-174.30486 -3.1804558,-151.9029 -0.8417362,-135.40959 C -1.1490334,-129.71242 -3.1193038,-129.13751 -4.9157446,-123.4418 C -5.1984298,-120.31338 -0.3503782,-121.36543 0.942575,-118.01149 C 3.2328182,-112.07056 7.1358362,-115.14925 7.8429314,-120.46263 C 8.0751326,-122.20766 8.0413562,-124.08387 10.734136,-124.89891 C 10.369971,-126.66152 9.0968666,-130.80585 9.0796466,-132.63709 C 9.0413174,-136.71061 10.670724,-138.44462 10.141944,-141.54915 C 8.319035,-152.25148 5.9329646,-159.39222 5.3986322,-164.78485 C 4.9575986,-169.23605 6.145787,-172.49622 6.7171886,-175.58523 L 6.7171886,-175.58523 z"
           id="path6271"
           sodipodi:nodetypes="cccccccscccscssssccccsscsssc" />
        <path
           style="fill:#313131;fill-opacity:1;stroke:none"
           d="M 28.413876,-174.80815 C 30.371824,-174.67157 35.803155,-175.47464 37.830688,-174.7464 C 34.739824,-176.62477 30.883392,-175.84398 27.506433,-175.46836 C 24.822532,-171.04604 27.630929,-174.61628 28.413876,-174.80817 L 28.413876,-174.80815 z"
           id="path6273"
           sodipodi:nodetypes="cccc" />
        <path
           style="fill:#000000;fill-opacity:1;stroke:#313131;stroke-width:1.2131362;stroke-linecap:butt;stroke-linejoin:round;stroke-miterlimit:4;stroke-dasharray:none;stroke-opacity:1"
           d="M 23.663365,-156.05352 L 24.054268,-153.27685 C 25.902201,-152.43156 28.062051,-152.75251 29.549119,-150.83719 C 25.421343,-149.58612 20.478237,-148.7819 16.630289,-151.17625 C 18.158266,-152.54262 18.499827,-151.99062 22.039679,-153.09863 L 22.392219,-156.08325 L 16.483549,-154.41617 L 13.898962,-152.84697 L 12.371497,-151.16269 C 11.072715,-151.33012 9.6016058,-151.14164 8.9540246,-152.65453 L 7.4150522,-157.18422 L 6.0885914,-161.96614 C 6.519041,-157.84516 7.0394714,-152.42163 8.601065,-149.10401 L 8.9477834,-145.45147 L 10.843563,-140.25315 L 14.898201,-136.95439 C 15.138474,-135.41198 17.392513,-135.16084 19.087197,-134.905 C 21.652725,-135.96523 24.26646,-136.5404 27.115295,-134.75386 C 28.386643,-134.80637 30.695652,-135.52848 31.279225,-136.60684 L 35.766388,-140.46695 L 38.036715,-146.17703 L 39.038263,-150.76826 C 39.957106,-153.1936 40.058847,-160.30815 40.509666,-162.74232 L 40.147433,-158.84738 L 37.100829,-152.41021 C 36.433919,-151.57291 35.545527,-150.98303 33.904839,-151.23317 L 31.640392,-153.084 L 29.541568,-154.26554 L 23.66334,-156.05357 L 23.66334,-156.05357 L 23.66334,-156.05352 L 23.663365,-156.05352 L 23.663365,-156.05352 z"
           id="path6275"
           sodipodi:nodetypes="cccccccccccccccccccccccccccccccc" />
        <path
           sodipodi:nodetypes="csccccc"
           id="path6277"
           d="M 17.016706,-170.55189 C 16.695969,-171.63123 16.014384,-171.41219 15.426989,-171.45277 C 13.38085,-171.59413 11.330603,-171.63288 9.2609018,-171.05895 L 11.264638,-171.98514 C 13.010771,-172.3928 14.704194,-172.32137 16.374937,-172.04307 C 17.050306,-171.75004 17.455623,-171.39911 17.702053,-171.01413 L 17.016706,-170.55188 L 17.016706,-170.55189 z"
           style="fill:#313131;fill-opacity:1;stroke:none" />
        <path
           style="fill:#313131;fill-opacity:1;stroke:none"
           d="M 9.0970514,-169.75935 L 12.195593,-170.04516 L 14.716803,-170.92949 L 16.645417,-170.15205 L 17.104251,-169.22116 L 16.199151,-169.77607 L 15.616342,-168.2 L 14.26647,-167.68265 L 13.10344,-168.09769 L 12.425719,-169.23159 L 10.876398,-169.08867 L 9.0970514,-169.75935 L 9.0970514,-169.75935 z"
           id="path6279"
           sodipodi:nodetypes="cccccccccccc" />
        <path
           style="fill:#313131;fill-opacity:1;stroke:none"
           d="M 17.489206,-168.97937 L 16.644132,-167.62853 L 17.035984,-167.35452 L 17.544125,-168.19956 L 17.489223,-168.97937 L 17.489206,-168.97937 z"
           id="path6281" />
      </g>
      <g
         transform="matrix(0.672,0,0,0.672,4.9067121,467.10991)"
         id="g6299">
        <path
           sodipodi:nodetypes="ccccccccscccscccccccccccccccccccc"
           id="path6301"
           d="M 9.876,-806.07628 C 7.4455,-804.29391 7.6527,-802.15193 7.8056,-800.39915 C 4.2529,-797.12622 5.3428,-794.06379 6.3252,-792.02728 C 2.4656,-789.26003 6.1698,-787.65434 6.2962,-785.34759 C 2.7471,-782.6198 7.5765,-779.40831 8.9235,-777.97025 C 6.4423,-776.27141 9.1627,-773.11595 10.9423,-773.24994 C 11.3743,-773.28694 11.3236,-771.23527 15.2321,-769.00462 C 14.5234,-764.91566 18.2467,-763.0607 18.7501,-763.43822 C 24.9102,-762.03369 33.55789,-761.93498 40.2384,-761.1513 C 44.68702,-760.62944 50.34246,-758.07971 52.52551,-759.21896 C 54.61114,-756.72969 59.19358,-757.75202 59.19358,-757.75202 C 59.19358,-756.7818 64.71487,-755.5516 67.22663,-756.34715 C 69.89663,-756.07547 72.39179,-756.11072 74.7525,-756.66514 C 81.2497,-758.19103 82.6229,-755.18061 87.9244,-755.30892 L 99.704,-756.87728 C 102.7636,-759.44729 100.6939,-760.03783 101.0993,-762.87415 C 104.4063,-766.8696 104.0822,-766.19549 104.2423,-769.91009 C 106.3963,-772.39377 103.74522,-772.39019 104.02522,-775.12624 C 107.00062,-778.31505 102.78245,-779.43681 103.19265,-781.012 C 104.7717,-783.61183 101.20612,-786.17181 101.20612,-786.17181 C 101.20612,-786.17181 102.87702,-790.8026 97.67617,-790.78532 C 97.27438,-793.91101 96.43596,-796.12282 92.7866,-795.06322 C 93.2202,-797.24169 88.6829,-800.89278 87.2647,-798.90384 C 84.7417,-801.10827 82.1684,-802.32441 79.8725,-801.34915 C 77.5018,-803.86226 74.3704,-805.23086 71.7827,-804.48822 C 68.853,-805.52657 65.9473,-806.50482 63.4702,-803.92415 C 61.5492,-805.76828 58.0775,-804.84797 56.4639,-803.00384 C 51.9262,-805.49524 50.4901,-803.51438 47.8694,-802.81087 C 45.313,-805.85316 42.9329,-801.18416 40.21,-802.89997 C 38.8179,-806.40868 40.146,-808.61783 40.146,-808.61783 L 12.9866,-811.88616 C 9.6445,-811.32433 9.7081,-809.19064 9.8757,-806.07628 L 9.876,-806.07628 L 9.876,-806.07628 z"
           style="opacity:0.98000004;fill:#ffffff;fill-opacity:1;fill-rule:evenodd;stroke:#000000;stroke-width:2;stroke-linecap:butt;stroke-linejoin:round;stroke-miterlimit:4;stroke-dasharray:none;stroke-opacity:1;display:inline" />
        <path
           sodipodi:nodetypes="cc"
           id="path6303"
           d="M 24.53797,-793.04422 C 24.69111,-806.06037 21.51518,-812.49276 29.63244,-825.50891"
           style="fill:#fcef3c;stroke:#000000;stroke-width:2;stroke-linecap:butt;stroke-linejoin:miter;stroke-miterlimit:4;stroke-dasharray:none;stroke-opacity:1" />
        <path
           sodipodi:nodetypes="cc"
           id="path6305"
           d="M 44.26522,-832.54672 C 44.16882,-834.28725 47.94704,-835.57121 50.29621,-837.31174"
           style="fill:#fcef3c;stroke:#000000;stroke-width:2;stroke-linecap:butt;stroke-linejoin:miter;stroke-miterlimit:4;stroke-dasharray:none;stroke-opacity:1" />
        <path
           sodipodi:nodetypes="cccsccccccccc"
           id="path6307"
           d="M 18.8635,-765.76633 C 16.0355,-765.74733 7.3673,-760.94922 6.3046,-765.02641 C 0.8252,-769.09841 -5.0332,-768.92645 -9.4481,-759.466 C -10.92806,-758.87172 -11.64267,-757.68259 -11.48995,-755.83292 C -11.41525,-754.9277 -12.30759,-754.16664 -12.71262,-753.26499 C -13.55007,-750.18753 -18.4452,-749.7384 -21.07612,-749.27733 C -21.938,-752.95831 -22.51522,-752.11104 -21.00982,-755.73113 C -20.28028,-756.88005 -19.46049,-757.87339 -18.87902,-758.37677 C -12.12415,-763.92729 -11.50711,-771.93863 -6.84444,-774.75715 C -2.00204,-776.8609 -0.20094,-779.38389 5.45826,-777.66322 C 11.19276,-773.55133 18.69586,-777.92419 20.33166,-775.61193 C 20.86536,-776.73865 24.46556,-777.46011 26.08446,-774.29997 C 29.31026,-773.39524 30.76586,-773.63744 30.14116,-770.73032"
           style="fill:#ffffff;fill-opacity:1;fill-rule:evenodd;stroke:#000000;stroke-width:2;stroke-linecap:butt;stroke-linejoin:round;stroke-miterlimit:4;stroke-dasharray:none;stroke-opacity:1;display:inline" />
        <path
           sodipodi:nodetypes="cscsccscccccccc"
           id="path6309"
           d="M 82.5938,-759.3128 C 79.6661,-756.41667 75.7674,-756.05739 71.7812,-756.0003 C 63.3702,-755.88186 67.2001,-754.45849 62.0051,-753.67156 C 58.9141,-755.95286 56.682,-754.2579 55.815,-752.45468 C 55.2629,-751.3063 52.8913,-753.3022 53.125,-751.3753 C 52.5366,-750.99415 52.045,-750.62116 51.75,-750.3753 C 48.3761,-748.53806 47.6696,-746.73577 48.9375,-745.1878 C 50.4387,-743.35516 54.8734,-741.83928 57.9688,-741.90655 C 61.0898,-742.55775 59.6914,-744.09312 59.8438,-745.1253 C 59.9588,-745.825 60.0957,-746.30841 60.25,-746.6878 C 60.6993,-746.605 61.0164,-746.36603 61.4062,-746.03155 C 64.1402,-744.4393 63.9418,-746.96925 66.0449,-747.3028 C 69.4233,-748.12094 75.1301,-747.86663 78.8607,-748.45404 C 89.4259,-749.14386 88.3387,-749.2722 91.2812,-753.3753 C 97.406,-753.6666 97.3212,-755.85108 100.25,-757.5628"
           style="opacity:0.98999999;fill:#ffffff;fill-opacity:1;fill-rule:evenodd;stroke:#000000;stroke-width:2;stroke-linecap:butt;stroke-linejoin:round;stroke-miterlimit:4;stroke-dasharray:none;stroke-opacity:1;display:inline" />
        <path
           sodipodi:nodetypes="cccccccscccc"
           id="path6311"
           d="M 37.7375,-760.30286 C 35.3518,-759.41625 24.5709,-759.17009 25.9572,-762.8841 C 19.565,-761.90891 13.7475,-765.32019 13.6278,-753.42881 C 11.9493,-752.61244 11.4124,-747.60755 12.6005,-745.4657 C 11.6672,-740.77589 9.7163,-740.22785 6.4099,-738.98328 C 4.0883,-742.27231 3.1869,-744.39074 4.6266,-746.43231 C 9.815,-752.24569 4.5266,-759.89805 7.6026,-763.71697 C 9.1275,-765.16318 10.1981,-768.09784 11.7168,-769.25176 C 13.6318,-770.7068 16.08,-770.22672 19.0446,-770.38667 C 22.263,-773.33017 27.3909,-773.29925 29.4861,-771.84726 C 29.5907,-772.96443 32.4133,-774.6828 34.7551,-772.50851 C 37.7619,-772.73632 38.9184,-773.38923 39.2849,-770.7383"
           style="fill:#ffffff;fill-opacity:1;fill-rule:evenodd;stroke:#000000;stroke-width:2;stroke-linecap:butt;stroke-linejoin:round;stroke-miterlimit:4;stroke-dasharray:none;stroke-opacity:1;display:inline" />
        <path
           sodipodi:nodetypes="ccccccccc"
           id="path6313"
           d="M 80.0777,-791.64224 C 77.2149,-791.81415 75.6626,-792.96886 70.4819,-791.40234 C 64.9893,-793.46255 64.7545,-791.47224 62.3256,-789.2433 C 58.219,-789.84243 54.8386,-786.16475 57.0479,-783.24595 C 54.0102,-779.74386 54.8913,-778.91285 58.0075,-776.76882 C 54.3085,-772.09275 57.4543,-771.21937 59.2069,-769.572 C 57.9487,-764.35907 60.8473,-763.9958 63.2851,-763.09487 C 65.6041,-757.7523 67.923,-759.70528 70.242,-759.73635 C 72.561,-756.79467 74.88,-757.18802 77.199,-756.61773"
           style="fill:none;stroke:#000000;stroke-width:2;stroke-linecap:butt;stroke-linejoin:miter;stroke-miterlimit:4;stroke-dasharray:none;stroke-opacity:1" />
        <path
           sodipodi:nodetypes="csssccccccccccccccc"
           id="path6315"
           d="M 25.7812,-796.8753 C 28.3272,-794.62057 29.4644,-796.18037 31.5,-795.15655 C 42.3074,-789.72078 45.6943,-799.86096 42.9062,-813.28155 C 42.5966,-814.77196 44.146,-817.12496 43.7188,-818.65655 C 43.2229,-820.43453 42.5439,-822.19732 41.6875,-823.9378 C 41.083,-825.27864 40.6064,-826.29518 40.1562,-827.09405 C 42.9111,-829.18826 46.1847,-829.05155 46.2188,-832.90655 C 47.0557,-835.9649 46.2188,-837.58759 44.6562,-837.65655 C 43.4427,-837.71015 41.7954,-836.8331 40.1875,-834.9378 C 39.0565,-833.19814 37.4394,-832.62077 35.8705,-831.6031 C 34.5455,-832.18926 33.865,-832.21739 33.0756,-832.44563 C 32.4564,-834.7417 29.7459,-835.09939 27.5489,-833.13435 C 25.6344,-833.75402 24.6381,-833.20285 21.4375,-831.2503 C 18.4772,-833.55186 16.2102,-831.2851 16.625,-828.59405 C 12.4757,-826.33536 9.3347,-826.18343 5.5312,-827.34405 C -0.0688,-828.30025 -2.4158,-825.11524 2.2188,-821.90655 C 4.7224,-818.97499 7.6061,-819.45882 11.0625,-819.6253 C 12.3427,-818.30023 10.3582,-815.00052 11.875,-815.6878 C 13.0493,-813.33784 12.0661,-811.41535 13.2188,-809.46905"
           style="fill:#ffffff;fill-opacity:1;fill-rule:evenodd;stroke:#000000;stroke-width:2;stroke-linecap:butt;stroke-linejoin:round;stroke-miterlimit:4;stroke-dasharray:none;stroke-opacity:1;display:inline" />
        <path
           sodipodi:nodetypes="ccc"
           id="path6317"
           d="M 19.5828,-813.21385 L 22.3451,-813.33941 C 23.4333,-813.92882 24.5215,-813.45128 25.6097,-810.70267"
           style="fill:none;stroke:#000000;stroke-width:2;stroke-linecap:butt;stroke-linejoin:miter;stroke-opacity:1" />
        <path
           sodipodi:nodetypes="cc"
           id="path6319"
           d="M 32.3548,-797.20645 C 38.2364,-794.03309 39.3398,-794.61928 41.3045,-795.76116"
           style="fill:none;stroke:#000000;stroke-width:2;stroke-linecap:butt;stroke-linejoin:miter;stroke-opacity:1" />
        <path
           sodipodi:nodetypes="cc"
           id="path6321"
           d="M 21.5918,-812.96273 C 23.2443,-811.30079 24.0867,-811.66417 25.1074,-811.58158"
           style="fill:none;stroke:#000000;stroke-width:2;stroke-linecap:butt;stroke-linejoin:miter;stroke-miterlimit:4;stroke-dasharray:none;stroke-opacity:1" />
        <path
           sodipodi:nodetypes="cc"
           id="path6323"
           d="M 33.4958,-800.21972 C 34.9127,-800.25392 35.7082,-799.41604 37.1135,-798.08414"
           style="fill:none;stroke:#000000;stroke-width:2;stroke-linecap:butt;stroke-linejoin:miter;stroke-miterlimit:4;stroke-dasharray:none;stroke-opacity:1" />
      </g>
      <path
         sodipodi:nodetypes="ccccccccccccccccccccc"
         id="path6325"
         d="M 26.537301,-41.711841 C 23.78116,-44.459198 19.972391,-54.489316 19.533062,-56.062575 C 19.851431,-59.074486 20.06626,-60.885647 22.669101,-63.151846 C 24.20662,-63.959275 24.86833,-63.615432 25.680182,-63.467875 L 26.111001,-62.14898 C 23.844782,-58.817386 24.442022,-59.948866 23.711961,-56.679983 C 25.777101,-50.455784 25.115912,-56.546423 30.582111,-60.184556 L 34.164081,-61.251773 C 35.539271,-60.912735 35.750211,-60.139398 35.66422,-59.255281 L 31.722459,-55.99047 L 28.729203,-52.209187 L 31.860645,-56.07574 L 36.41917,-59.402409 L 38.546361,-59.792276 L 41.56564,-58.36257 C 39.358422,-57.298054 37.151419,-56.234399 34.49049,-53.355034 C 37.824099,-57.560262 40.428491,-57.365691 41.79538,-57.102959 L 44.097191,-56.616317 L 44.91598,-54.634723 C 40.4959,-54.535281 39.69076,-53.635278 38.783132,-52.750516 C 38.349071,-50.353801 41.1511,-44.628623 38.086251,-43.719522"
         style="fill:#f7c5b4;stroke:#000000;stroke-width:1.00800002;stroke-linecap:butt;stroke-linejoin:round;stroke-opacity:1" />
      <path
         id="rect2462"
         d="M 17.511085,-10.815477 L 23.923585,-10.815477 L 23.923585,-18.156102 L 17.511085,-18.156102 L 17.511085,-10.815477 z M 18.66421,-12.137352 L 18.66421,-16.834227 L 22.77046,-16.834227 L 22.77046,-12.137352 L 18.66421,-12.137352 z"
         style="opacity:1;fill:#895a16;fill-opacity:1;fill-rule:nonzero;stroke:#000000;stroke-width:1;stroke-linecap:round;stroke-linejoin:round;stroke-miterlimit:4;stroke-dasharray:none;stroke-dashoffset:0;stroke-opacity:1" />
    </g>
  </g>
  <g
     id="layer2"
     inkscape:label="Reflet final"
     inkscape:groupmode="layer"
     sodipodi:insensitive="true"
     transform="translate(300,330)">
    <use
       xlink:href="#shield"
       id="use22"
       style="fill:url(#Gradient1)"
       x="0"
       y="0"
       width="600"
       height="660" />
  </g>
  <g
     id="layer1"
     inkscape:label="Contour final"
     inkscape:groupmode="layer"
     transform="translate(300,330)"
     sodipodi:insensitive="true">
    <use
       xlink:href="#shield"
       style="fill:none;stroke:#000000;stroke-width:3"
       id="use25"
       x="0"
       y="0"
       width="600"
       height="660" />
  </g>
</svg>
