<?xml version="1.0" encoding="UTF-8" standalone="no"?><svg height="660" width="600" xmlns="http://www.w3.org/2000/svg" xmlns:xlink="http://www.w3.org/1999/xlink"><clipPath id="a"><path d="m299.99999 658.39715s-298.4999907-112.41848-298.4999907-398.1195v-258.7776499h597.0000007v258.7776499c0 285.70102-298.50001 398.1195-298.50001 398.1195z"/></clipPath><radialGradient id="b" cx="221.44487" cy="226.33101" gradientTransform="matrix(1.353218 0 0 1.348928 -77.62935 -85.74693)" gradientUnits="userSpaceOnUse" r="300"><stop offset="0" stop-color="#fff" stop-opacity=".313726"/><stop offset=".19" stop-color="#fff" stop-opacity=".25098"/><stop offset=".60000002" stop-color="#6b6b6b" stop-opacity=".12549"/><stop offset="1" stop-opacity=".12549"/></radialGradient><path d="m300 658.49999s298.50001-112.40585 298.50001-398.07477v-258.92522h-597.00001v258.92522c0 285.66892 298.5 398.07477 298.5 398.07477z" fill-rule="evenodd"/><path d="m1.5 73.103516v187.173824c0 110.55342 44.69887 350.71809 99.5 412.90529v-600.079114zm199 0v686.817394c54.7985 37.18959 99.5 54.03906 99.5 54.03906v-740.856454zm199 0v686.817394c32.02048-21.73104 67.47911-50.40163 99.5-86.73828v-600.079114z" style="fill:#fff;fill-rule:evenodd;stroke:#313131;stroke-width:3;stroke-linecap:round;stroke-linejoin:round;clip-path:url(#a)"/><path d="m1.5 1.5h597v180h-597z" fill="#fff" stroke="#313131" stroke-width="3"/><path id="c" d="m45.758427 61.575539c-1.098315-1.777844-8.213483 6.246479-15.758427-5.525732 14.039326 10.426815 20.151685-19.104616 32.949438-3.02714 5.061798 6.342579-5.252809 22.295126-17.191011 8.552872zm30.728933-30.920072c-1.766854-1.105146 6.207865-8.264572-5.491573-15.856447 10.362359 14.126653-18.986517 20.277032-3.008427 33.154389 6.30337 5.093283 22.157303-5.285482 8.5-17.297942zm22.754213 30.920072c1.098317-1.777844 8.213487 6.246479 15.758427-5.525732-14.03933 10.426815-20.151685-19.104616-32.949438-3.02714-5.061798 6.342579 5.252809 22.295126 17.191011 8.552872zm-26.741573-4.012162c-6.207865 33.394638-19.101124 57.900053-32.47191 74.717503 5.730337-1.922 11.938202-6.72698 17.907303-10.57097-3.58146 8.64897-7.401685 16.33695-11.22191 24.02492 1.910112-.961 9.550562-8.64897 19.101124-20.18093 1.432584 15.85645 3.820224 33.63489 6.685393 44.4461 2.865169-10.81121 5.252809-28.58965 6.685393-44.4461 9.550562 11.53196 17.191012 19.21993 19.101124 20.18093-3.820225-7.68797-7.64045-15.37595-11.22191-24.02492 5.969101 3.84399 12.176966 8.64897 17.907303 10.57097-13.370786-16.81745-26.264045-41.322865-32.47191-74.717503z" stroke-linecap="round" stroke-linejoin="round" stroke-width="3"/><use height="100%" transform="translate(113.5)" width="100%" xlink:href="#c"/><use height="100%" transform="translate(227.5)" width="100%" xlink:href="#c"/><use height="100%" transform="translate(341)" width="100%" xlink:href="#c"/><use height="100%" transform="translate(455)" width="100%" xlink:href="#c"/><path d="m300.00001 658.5s298.5-112.32031 298.5-397.77183v-259.22817h-597.00001v259.22817c0 285.45152 298.50001 397.77183 298.50001 397.77183z" fill="url(#b)" fill-rule="evenodd"/><path d="m299.99999 658.39715s-298.4999907-112.41848-298.4999907-398.1195v-258.7776499h597.0000007v258.7776499c0 285.70102-298.50001 398.1195-298.50001 398.1195z" fill="none" stroke="#313131" stroke-width="2.999999"/></svg>