<?xml version="1.0" encoding="UTF-8" standalone="no"?><svg height="660" viewBox="0 0 600 660" width="600" xmlns="http://www.w3.org/2000/svg" xmlns:xlink="http://www.w3.org/1999/xlink"><radialGradient id="a" cx="-80" cy="-80" gradientUnits="userSpaceOnUse" r="405"><stop offset="0" stop-color="#fff" stop-opacity=".31"/><stop offset=".19" stop-color="#fff" stop-opacity=".25"/><stop offset=".6" stop-color="#6b6b6b" stop-opacity=".125"/><stop offset="1" stop-opacity=".125"/></radialGradient><g transform="translate(300 300)"><path d="m-298.5-298.5h597v258.5c0 286.31-298.5 398.5-298.5 398.5s-298.5-112.19-298.5-398.5z"/><g><g id="b" fill="#fff" stroke="#313131" stroke-linecap="round" stroke-linejoin="round" stroke-width="1.877599" transform="matrix(1.1172592 0 0 1.0155477 -782.71683 -6.332538)"><path d="m655.58732 135.47486h89.99409l-44.99704-42.199999z" fill="#e20909" stroke="#313131" stroke-linecap="round" stroke-linejoin="round" stroke-width="1.877599"/><path d="m655.58732 127.27486v16.2l6.20142 8.1h77.59125l6.20142-8.1v-16.2h-16.929v8.1h-19.7505v-8.1h-16.929v8.1h-19.45659v-8.1z" fill="#fff" stroke="#313131" stroke-linecap="round" stroke-linejoin="round" stroke-width="1.877599"/><path d="m657.63399 250.87414h85.8677l-4.1382-99.30257h-77.59129z" fill="#fff" stroke="#313131" stroke-linecap="round" stroke-linejoin="round" stroke-width="1.877599"/><path d="m657.63577 250.86734-2.068 3.2h36.784c2.23567-1.6053 5.10496-2.56 8.228-2.56s5.99233.9547 8.228 2.56h36.762l-2.068-3.2z" fill="#fff" stroke="#313131" stroke-linecap="round" stroke-linejoin="round" stroke-width="1.877599"/><path d="m655.56777 254.06734-14.476 51.56h46.552v-42.88c0-3.49313 1.83356-6.61604 4.708-8.68zm53.24 0c2.87443 2.06396 4.708 5.18686 4.708 8.68v42.88h46.53l-14.476-51.56z" fill="#fff" stroke="#313131" stroke-linecap="round" stroke-linejoin="round" stroke-width="1.877599"/><path d="m684.543 151.57471h8.2764v11.15446h-8.2764zm23.78399-.003h8.2764v11.15447h-8.2764zm22.7601 0h8.2764v11.15447h-8.2764zm-69.30419.003h8.2764v11.15446h-8.2764z" fill="#fff" stroke="#313131" stroke-linecap="round" stroke-linejoin="round" stroke-width="1.408199"/><path d="m661.77224 154.62604h8.2764m-8.2764 4.5h8.2764m14.4837-4.5h8.2764m-8.2764 4.5h8.2764m38.27835-4.5h8.2764m-8.2764 4.5h8.2764m-31.0365-4.5h8.2764m-8.2764 4.5h8.2764" fill="#fff" stroke="#313131" stroke-linecap="butt" stroke-linejoin="round" stroke-width="1.408199"/><path d="m655.58735 143.47486h89.99406" fill="#fff" stroke="#313131" stroke-linecap="round" stroke-linejoin="round" stroke-width="1.877599"/><path d="m256.61133 467.625v1.34961h8.33594v10.34961h-9.22266v1.34961h30.51172v10.34961h-30.80664v1.35156h11.79297v10.34961h-12.15625v1.34961h25.8125v10.34961h-26.03907v1.34961h14.65821v10.35156h-15.77344v1.34961h4.39453v10.34961h-4.71094v1.34961h16.08985v11.13672h1.70703v-11.13672h27.88281v11.13672h1.70703v-11.13672h27.88086v11.13672h1.70703v-11.13672h16.30274v-1.34961h-4.92383v-10.34961h4.39453v-1.34961h-15.77344v-10.35156h14.66016v-1.34961h-26.04102v-10.34961h25.74414v-1.34961h-12.08789v-10.34961h11.49805v-1.35156h-30.51172v-10.34961h29.625v-1.34961h-9.61133v-10.34961h9.55078v-1.34961zm10.04297 1.34961h32.43359v10.34961h-32.43359zm34.14062 0h31.15625v10.34961h-31.15625zm-12.85156 11.69922h23.99609v10.34961h-23.99609zm-19.01367 11.70117h30.1582v10.34961h-30.1582zm31.86523 0h30.15625v10.34961h-30.15625zm-18.20898 11.69922h34.70898v10.34961h-34.70898zm-11.38086 11.69922h27.88281v10.35156h-27.88281zm29.58984 0h27.88086v10.35156h-27.88086zm-40.96875 11.70117h23.32813v10.34961h-23.32813zm25.03516 0h30.1582v10.34961h-30.1582zm31.86523 0h23.32813v10.34961h-23.32813zm-60.88476 26.66992v7.7207h-7.78125v1.34961h19.16211v9.44922h-22.70118v1.35156h9.04493v9.44922h-12.58594v1.34961h26.24219v9.45117h-29.56055v1.34961h15.9043v10.27539h1.70703v-10.27539h23.35351v-1.34961h-9.69726v-9.45117h9.31054v-1.34961h-22.96679v-9.44922h23.29297v-1.35156h-9.63672v-9.44922h8.60742v-1.34961h-19.98828v-7.7207zm86.49023.45899v7.26171h-20.50195v1.34961h9.12109v9.44922h-9.41797v1.35156h23.07422v9.44922h-22.60156v1.34961h8.94531v9.45117h-8.95703v1.34961h22.61328v10.27539h1.70703v-10.27539h15.58789v-1.34961h-29.24414v-9.45117h26.1211v-1.34961h-12.46485v-9.44922h9.17774v-1.35156h-22.83399v-9.44922h18.89258v-1.34961h-7.51172v-7.26171z" fill="#313131" stroke="none" transform="matrix(.90909091 0 0 1 427.8415 -300)"/><path d="m675.07359 176.84565h10.57966v17.94894h-10.57966zm40 0h10.57966v17.94894h-10.57966z" fill="#fff" stroke="#313131" stroke-linecap="round" stroke-linejoin="miter" stroke-width="1.877599"/><path d="m700.584 66.53147c8.97177-1.80867 17.0478 3.82946 27.0422 3.6353 8.2172-.15964 8.0444-1.76128 24.5703-.07645-.1777 3.46425 3.5517 12.32173 3.5589 21.90064-5.6508-2.15249-9.78049-6.273385-19.4368-3.55885-5.19766 1.461142-9.4557.63249-15.0567-1.09503-9.6724-2.98329-13.89164-1.19751-20.6779-1.51527z" fill="#e20909" stroke="#313131" stroke-linecap="round" stroke-linejoin="round" stroke-width="1.877599"/><path d="m1000.5844 393.27486v-30.97599" fill="#fff" stroke="#313131" stroke-linecap="round" stroke-linejoin="round" stroke-width="2.816399" transform="translate(-300 -300)"/><path d="m700.53559 243.22734c-11.1359 0-20.17402 9.8724-20.174 19.56v42.84h7.282v-42.86c0-6.21001 5.7976-11.26001 12.936-11.26 7.1384 0 12.936 5.05001 12.936 11.26v42.86h7.194v-42.84c0-9.68761-9.03816-19.56-20.174-19.56z" fill="#fff" stroke="#313131" stroke-linecap="round" stroke-linejoin="round" stroke-width="1.877599"/><path d="m706.6605 244.06377-2.4138 7.77474m10.88389-.78608-4.97777 4.41989m9.90614 3.23133-6.39657 1.42352m6.51423 7.65379-7.27412-.0281m7.20057 9.54097h-7.24155m7.44267 10.27458h-7.64378m7.84489 9.74962h-7.84489m-17.9406-53.05261 2.41384 7.77474m-11.38878-1.88937 4.97781 4.41989m-9.44985 4.07728 6.39658 1.42352m-7.29694 7.70948 7.27418-.0281m-7.2006 9.54097h7.24152m-7.44266 10.27458h7.64382m-7.84498 9.74962h7.84498" fill="#fff" stroke="#313131" stroke-linecap="butt" stroke-linejoin="round" stroke-width="1.408199"/></g><g transform="translate(-980.91855 116.32113)"><path d="m682.41855-414.8211h596.99995v196.99998h-596.99995z" fill="#2b5df2" stroke="#313131" stroke-width="3"/><g id="c" stroke="#000" stroke-width="1.21894" transform="matrix(2.0513539 0 0 2.0505716 717.98241 -408.78644)"><path d="m58.4045 30.002563c10.623589.254887 17.913809 18.078823-4.381231 26.779783 7.368673-14.435091-6.304863-9.001593-8.107633 1.487765h-5.281032c2.918357-21.305635 10.964057-28.430837 17.769896-28.267548zm-28.670445 32.879624c-2.689943 6.351212-6.01068 8.985609-9.238913 12.10643 3.618431.01653 7.22029-.678341 10.95801-3.813952.06366 9.674934 1.472102 12.982213 4.833195 16.232778 3.322964-3.148966 4.844408-6.547148 4.833199-16.232778 3.737717 3.135614 7.339689 3.830473 10.95812 3.813952-3.227999-3.120593-6.549187-5.756246-9.239024-12.10643zm6.552292-60.4961189c-10.503711 11.1508859-14.159534 23.8009959-6.200019 40.0840649 2.303855 4.713079 3.408414 10.026686 3.100009 15.799979h6.20002c-.308405-5.773293.796154-11.0869 3.100009-15.799979 7.959518-16.283067 4.303695-28.933179-6.200019-40.0840649zm-22.118147 27.6164959c-10.6235893.254887-17.9138081 18.078824 4.38123 26.779783-7.368672-14.435091 6.304863-9.001593 8.107633 1.487765h5.281032c-2.918357-21.305636-10.964056-28.430837-17.769895-28.267548z" fill="#fcef3c" fill-rule="evenodd" stroke="#000" stroke-width="1.21894"/><path d="m21.701165 58.195878h29.170365v4.760697h-29.170365z" fill="#fcef3c" stroke="#000" stroke-width="1.21894"/></g><use height="100%" transform="translate(188.5 -.00001)" width="100%" xlink:href="#c"/><use height="100%" transform="translate(377 -.00001)" width="100%" xlink:href="#c"/></g><use height="100%" transform="translate(-162.5 -145)" width="100%" xlink:href="#b"/><use height="100%" transform="translate(162.5 -145)" width="100%" xlink:href="#b"/></g><path d="m-298.5-298.5h597v258.5c0 286.31-298.5 398.5-298.5 398.5s-298.5-112.19-298.5-398.5z" fill="url(#a)"/><path d="m-298.5-298.49997h597v258.459692c0 286.265348-298.5 398.437858-298.5 398.437858s-298.5-112.17251-298.5-398.437858z" fill="none" stroke="#313131" stroke-width="3"/></g></svg>