<?xml version="1.0" encoding="UTF-8" standalone="no"?>
<!-- Created with Inkscape (http://www.inkscape.org/) -->

<svg
   xmlns:dc="http://purl.org/dc/elements/1.1/"
   xmlns:cc="http://creativecommons.org/ns#"
   xmlns:rdf="http://www.w3.org/1999/02/22-rdf-syntax-ns#"
   xmlns:svg="http://www.w3.org/2000/svg"
   xmlns="http://www.w3.org/2000/svg"
   xmlns:xlink="http://www.w3.org/1999/xlink"
   xmlns:sodipodi="http://sodipodi.sourceforge.net/DTD/sodipodi-0.dtd"
   xmlns:inkscape="http://www.inkscape.org/namespaces/inkscape"
   width="597.00037"
   height="656.33099"
   id="svg2"
   version="1.1"
   inkscape:version="0.47 r22583"
   sodipodi:docname="VILLEURBANE.svg">
  <defs
     id="defs4">
    <linearGradient
       id="linearGradient2893">
      <stop
         offset="0"
         style="stop-color: white; stop-opacity: 0.313726;"
         id="stop2895" />
      <stop
         offset="0.19"
         style="stop-color: white; stop-opacity: 0.25098;"
         id="stop2897" />
      <stop
         offset="0.6"
         style="stop-color: rgb(107, 107, 107); stop-opacity: 0.12549;"
         id="stop2901" />
      <stop
         offset="1"
         style="stop-color: black; stop-opacity: 0.12549;"
         id="stop2899" />
    </linearGradient>
    <radialGradient
       inkscape:collect="always"
       xlink:href="#linearGradient2893"
       fy="226.33099"
       fx="221.44501"
       r="300"
       cy="226.33099"
       cx="221.44501"
       gradientTransform="matrix(1.35322,0,0,1.34893,-77.6293,-85.7469)"
       gradientUnits="userSpaceOnUse"
       id="radialGradient3163" />
    <g
       id="s">
      <g
         id="c">
        <path
           d="M 0,0 0,1 0.5,1 0,0 z"
           transform="matrix(0.951057,0.309017,-0.309017,0.951057,0,-1)"
           id="t" />
        <use
           xlink:href="#t"
           height="540"
           width="810"
           y="0"
           x="0"
           transform="scale(-1,1)"
           id="use2144" />
      </g>
      <g
         id="a">
        <use
           xlink:href="#c"
           height="540"
           width="810"
           y="0"
           x="0"
           transform="matrix(0.309017,0.951057,-0.951057,0.309017,0,0)"
           id="use2147" />
        <use
           xlink:href="#c"
           height="540"
           width="810"
           y="0"
           x="0"
           transform="matrix(-0.809017,0.587785,-0.587785,-0.809017,0,0)"
           id="use2149" />
      </g>
      <use
         xlink:href="#a"
         height="540"
         width="810"
         y="0"
         x="0"
         transform="scale(-1,1)"
         id="use2151" />
    </g>
    <inkscape:perspective
       id="perspective3210"
       inkscape:persp3d-origin="95 : 91.666667 : 1"
       inkscape:vp_z="190 : 137.5 : 1"
       inkscape:vp_y="0 : 1000 : 0"
       inkscape:vp_x="0 : 137.5 : 1"
       sodipodi:type="inkscape:persp3d" />
    <inkscape:perspective
       id="perspective3248"
       inkscape:persp3d-origin="0.5 : 0.33333333 : 1"
       inkscape:vp_z="1 : 0.5 : 1"
       inkscape:vp_y="0 : 1000 : 0"
       inkscape:vp_x="0 : 0.5 : 1"
       sodipodi:type="inkscape:persp3d" />
    <inkscape:perspective
       id="perspective2966"
       inkscape:persp3d-origin="0.5 : 0.33333333 : 1"
       inkscape:vp_z="1 : 0.5 : 1"
       inkscape:vp_y="0 : 1000 : 0"
       inkscape:vp_x="0 : 0.5 : 1"
       sodipodi:type="inkscape:persp3d" />
    <inkscape:perspective
       id="perspective3534"
       inkscape:persp3d-origin="300 : 220 : 1"
       inkscape:vp_z="600 : 330 : 1"
       inkscape:vp_y="0 : 1000 : 0"
       inkscape:vp_x="0 : 330 : 1"
       sodipodi:type="inkscape:persp3d" />
    <linearGradient
       id="linearGradient2893-8">
      <stop
         offset="0"
         style="stop-color: rgb(255, 255, 255); stop-opacity: 0.313726;"
         id="stop2895-8" />
      <stop
         offset="0.19"
         style="stop-color: rgb(255, 255, 255); stop-opacity: 0.25098;"
         id="stop2897-2" />
      <stop
         offset="0.6"
         style="stop-color: rgb(107, 107, 107); stop-opacity: 0.12549;"
         id="stop2901-4" />
      <stop
         offset="1"
         style="stop-color: rgb(0, 0, 0); stop-opacity: 0.12549;"
         id="stop2899-5" />
    </linearGradient>
    <radialGradient
       xlink:href="#linearGradient2893-8"
       fy="226.331"
       fx="221.445"
       r="300"
       cy="226.331"
       cx="221.445"
       gradientTransform="matrix(1.35322,0,0,1.34893,-77.6293,-85.7469)"
       gradientUnits="userSpaceOnUse"
       id="radialGradient3163-5" />
    <clipPath
       id="clipPath2656">
      <path
         d="M 85.7016 237.577 C 85.7016 237.577 -184.344 135.963 -184.344 -122.277 C -184.344 -380.518 -184.344 -356.183 -184.344 -356.183 L 355.747 -356.183 L 355.747 -122.277 C 355.747 135.963 85.7016 237.577 85.7016 237.577 Z"
         style="opacity: 1; fill: none; fill-opacity: 1; fill-rule: evenodd; stroke: #000000; stroke-dasharray: none; stroke-linecap: butt; stroke-linejoin: miter; stroke-miterlimit: 4; stroke-opacity: 1; stroke-width: 3;"
         id="path2658" />
    </clipPath>
    <inkscape:perspective
       id="perspective3868"
       inkscape:persp3d-origin="0.5 : 0.33333333 : 1"
       inkscape:vp_z="1 : 0.5 : 1"
       inkscape:vp_y="0 : 1000 : 0"
       inkscape:vp_x="0 : 0.5 : 1"
       sodipodi:type="inkscape:persp3d" />
  </defs>
  <sodipodi:namedview
     id="base"
     pagecolor="#ffffff"
     bordercolor="#666666"
     borderopacity="1.0"
     inkscape:pageopacity="0.0"
     inkscape:pageshadow="2"
     inkscape:zoom="1.5954861"
     inkscape:cx="302.46649"
     inkscape:cy="161.73161"
     inkscape:document-units="px"
     inkscape:current-layer="layer6"
     showgrid="false"
     inkscape:window-width="1440"
     inkscape:window-height="850"
     inkscape:window-x="-8"
     inkscape:window-y="-8"
     inkscape:window-maximized="1" />
  <metadata
     id="metadata7">
    <rdf:RDF>
      <cc:Work
         rdf:about="">
        <dc:format>image/svg+xml</dc:format>
        <dc:type
           rdf:resource="http://purl.org/dc/dcmitype/StillImage" />
        <dc:title></dc:title>
      </cc:Work>
    </rdf:RDF>
  </metadata>
  <g
     inkscape:label="Calque 1"
     inkscape:groupmode="layer"
     id="layer1"
     transform="translate(619.10918,125.87412)">
    <desc
       id="desc4">Flag of Canton of Valais (Wallis)</desc>
    <g
       inkscape:groupmode="layer"
       inkscape:label="Fond écu"
       transform="translate(-620.03981,-130.51584)"
       style="display:inline"
       id="layer3">
      <path
         d="m 299.431,660.965 c 0,0 298.5,-112.32 298.5,-397.772 0,-285.4511 0,-258.55128 0,-258.55128 l -597.000375,0 0,258.55128 c 0,285.452 298.500375,397.772 298.500375,397.772 z"
         style="fill:#e20909;fill-opacity:1;fill-rule:evenodd;stroke:none"
         id="path2855" />
    </g>
    <g
       inkscape:groupmode="layer"
       inkscape:label="Meubles"
       transform="translate(-620.03981,-130.51584)"
       style="display:inline"
       id="layer6">
      <g
         transform="matrix(-0.851412,-0.530195,-0.530651,0.893475,1372.61,-15.2783)"
         id="g4363" />
      <g
         transform="matrix(-0.851412,-0.530195,-0.530651,0.893475,1685.5,-15.2783)"
         id="g5703" />
      <g
         transform="translate(0.5,12)"
         style="stroke:#dd0000;stroke-opacity:1"
         id="g6962">
        <g
           transform="translate(-3.53554,-4.5962)"
           style="stroke:#dd0000;stroke-opacity:1"
           id="g6964">
          <g
             transform="translate(-2.14691e-6,53.7678)"
             style="stroke:#dd0000;stroke-opacity:1"
             id="g6968">
            <g
               style="stroke:#dd0000;stroke-opacity:1"
               id="g6970" />
            <g
               transform="matrix(-1,0,0,1,270.243,0)"
               style="stroke:#dd0000;stroke-opacity:1"
               id="g6994" />
          </g>
        </g>
        <g
           transform="translate(2.82844,-4.5962)"
           style="stroke:#dd0000;stroke-opacity:1"
           id="g7020">
          <g
             transform="translate(330.926,53.7678)"
             style="stroke:#dd0000;stroke-opacity:1"
             id="g7024">
            <g
               style="stroke:#dd0000;stroke-opacity:1"
               id="g7026" />
            <g
               transform="matrix(-1,0,0,1,270.243,0)"
               style="stroke:#dd0000;stroke-opacity:1"
               id="g7052" />
          </g>
        </g>
        <g
           transform="translate(-165.817,-4.5962)"
           style="stroke:#dd0000;stroke-opacity:1"
           id="g7076">
          <g
             transform="translate(330.926,53.7678)"
             style="stroke:#dd0000;stroke-opacity:1"
             id="g7080">
            <g
               style="stroke:#dd0000;stroke-opacity:1"
               id="g7082" />
            <g
               transform="matrix(-1,0,0,1,270.243,0)"
               style="stroke:#dd0000;stroke-opacity:1"
               id="g7108" />
          </g>
        </g>
      </g>
      <path
         sodipodi:nodetypes="cccc"
         d="m 354.488,532.735 50.221,0 m -210.722,0 52.256,0"
         style="fill:none;stroke:#000000;stroke-width:2.995;stroke-linecap:butt;stroke-linejoin:miter;stroke-opacity:1;display:inline;stroke-miterlimit:4;stroke-dasharray:none"
         id="path12135" />
      <path
         sodipodi:nodetypes="ccccc"
         d="m 355.167,545.672 51.742,0 m -213.285,0 51.543,0"
         style="fill:none;stroke:#000000;stroke-width:2.995;stroke-linecap:butt;stroke-linejoin:miter;stroke-opacity:1;display:inline;stroke-miterlimit:4;stroke-dasharray:none"
         id="path12137" />
      <path
         sodipodi:nodetypes="cccc"
         d="m 355.167,558.609 48.184,0 m -207.328,0 48.524,0"
         style="fill:none;stroke:#000000;stroke-width:2.995;stroke-linecap:butt;stroke-linejoin:miter;stroke-opacity:1;display:inline;stroke-miterlimit:4;stroke-dasharray:none"
         id="path12139" />
      <path
         sodipodi:nodetypes="cccc"
         d="m 354.828,571.546 49.202,0 m -208.007,0 48.863,0"
         style="fill:none;stroke:#000000;stroke-width:2.995;stroke-linecap:butt;stroke-linejoin:miter;stroke-opacity:1;display:inline;stroke-miterlimit:4;stroke-dasharray:none"
         id="path12109" />
      <path
         id="rect3910"
         style="fill:#ffffff;stroke:#000000;stroke-width:2.995;stroke-linecap:round;stroke-linejoin:round;stroke-miterlimit:4;stroke-opacity:1;stroke-dashoffset:0;stroke-dasharray:none"
         d="m 375.3054,426.50088 14.61182,0 0,34.44214 -14.61182,0 0,-34.44214 z m -30.43564,0 14.61181,0 0,34.44214 -14.61181,0 0,-34.44214 z m -36.52279,0 14.61183,0 0,34.44214 -14.61183,0 0,-34.44214 z m -36.52278,0 14.61183,0 0,34.44214 -14.61183,0 0,-34.44214 z m -36.5228,-3e-5 14.61182,0 0,34.44217 -14.61182,0 0,-34.44217 z m 220.22109,-5.21856 10.43702,0 0,25.04881 -10.43702,0 0,-25.04881 z m -22.96154,1.0437 10.43702,0 0,25.04884 -10.43702,0 0,-25.04884 z m -249.44467,-43.8354 9.39333,0 0,41.74807 -9.39333,0 0,-41.74807 z m -24.00514,1.04364 8.34963,0 0,40.70436 -8.34963,0 0,-40.70436 z m -24.00514,1.0437 8.34962,0 0,40.70436 -8.34962,0 0,-40.70436 z m 276.58097,17.74295 36.52953,-39.66067 40.70436,39.66067 -77.23389,0 z M 96.916187,353.52575 235.75838,352.30008 211.95688,325.89761 116.89579,324.7048 96.916187,353.52575 z m 18.776413,-0.50096 96.64732,-0.62677 0,185.48009 -96.02055,-20.57525 -0.62677,-164.27807 z m 301.21288,46.33978 64.70948,0 0,117.93829 -64.70948,16.4602 0,-134.39849 z m -204.56559,6.2622 203.5218,0 1.37168,134.60695 -204.89348,-1.37168 0,-133.23527 z"
         sodipodi:nodetypes="cccccccccccccccccccccccccccccccccccccccccccccccccccccccccccccccccccccccccc" />
      <g
         transform="translate(-0.348289,-0.496312)"
         style="fill:#2b5df2;display:inline"
         id="g6483">
        <path
           sodipodi:nodetypes="ccccssscc"
           d="m 148.5,506 c -24.262,0 -29.798,9.821 -42.844,17.5 86.268,95.455 194.782,136.469 194.782,136.469 0,0 108.091,-40.057 194.375,-135.594 C 481.81,516.703 473.641,506 449.5,506 c -37.625,0 -31.25,26 -75.25,26 -36,0 -37.625,-26 -75.25,-26 -37.625,0 -35.473,25.768 -75.25,26 -37.777,0.232 -37.625,-26 -75.25,-26 z"
           style="fill:#2b5df2;fill-opacity:1;fill-rule:evenodd;stroke:#000000;stroke-width:3;stroke-linecap:butt;stroke-linejoin:miter;stroke-miterlimit:4;stroke-opacity:1;stroke-dasharray:none;display:inline"
           id="path2138" />
        <path
           sodipodi:nodetypes="cszszzs"
           d="m 122.188,539.828 c 6.41,-3.644 14.223,-6.328 26.312,-6.328 37.625,0 37.473,26.232 75.25,26 39.777,-0.232 37.625,-26 75.25,-26 37.625,0 39.25,26 75.25,26 44,0 37.625,-26 75.25,-26 13.622,0 22.157,3.408 29.344,7.756"
           style="fill:#2b5df2;fill-rule:evenodd;stroke:#000000;stroke-width:3;stroke-linecap:butt;stroke-linejoin:miter;stroke-miterlimit:4;stroke-opacity:1;stroke-dasharray:none"
           id="path2127" />
        <path
           sodipodi:nodetypes="cszszzs"
           d="m 144.007,561.132 c 1.43,-0.087 2.925,-0.132 4.493,-0.132 37.625,0 37.473,26.232 75.25,26 39.777,-0.232 37.625,-26 75.25,-26 37.625,0 39.25,26 75.25,26 44,0 37.625,-26 75.25,-26 2.886,0 5.543,0.153 8.008,0.435"
           style="fill:#2b5df2;fill-rule:evenodd;stroke:#000000;stroke-width:3;stroke-linecap:butt;stroke-linejoin:miter;stroke-miterlimit:4;stroke-opacity:1;stroke-dasharray:none"
           id="path2129" />
        <path
           sodipodi:nodetypes="czszs"
           d="m 212.388,613.658 c 3.383,0.563 7.135,0.868 11.362,0.842 39.777,-0.232 37.625,-26 75.25,-26 37.625,0 39.25,26 75.25,26 5.638,0 10.449,-0.427 14.631,-1.171"
           style="fill:#2b5df2;fill-rule:evenodd;stroke:#000000;stroke-width:3;stroke-linecap:butt;stroke-linejoin:miter;stroke-miterlimit:4;stroke-opacity:1;stroke-dasharray:none"
           id="path2131" />
        <path
           sodipodi:nodetypes="css"
           d="M 250.6,636.199 C 265.865,628.536 272.757,616 299,616 c 26.488,0 35.134,12.886 50.493,20.515"
           style="fill:#2b5df2;fill-rule:evenodd;stroke:#000000;stroke-width:3;stroke-linecap:butt;stroke-linejoin:miter;stroke-miterlimit:4;stroke-opacity:1;stroke-dasharray:none"
           id="path2125" />
      </g>
      <g
         style="fill:#fcef3c;fill-opacity:1"
         transform="matrix(-1.10537,0,0,1.10537,67.343977,78.394866)"
         id="g2978">
        <path
           d="M 12.9233,188.465 C -13.0822,173.362 0.898364,134.903 0.440364,110.983 -3.05107,116.47 -7.46026,121.268 -12.1642,125.725 c -1.4082,2.502 -33.7252,29.081 -25.8754,27.83 14.6603,-4.984 15.1252,8.345 19.6399,9.472 19.50521,-4.338 10.54209,16.415 26.77819,27.017 0.85841,1.172 9.90781,1.232 4.54481,-1.579 z"
           style="fill:#fcef3c;fill-opacity:1;stroke:#000000;stroke-width:1.57077003"
           id="path2325-1" />
        <path
           d="m -123.791,11.0439 c 11.357,-0.5389 22.55,1.9318 33.5854,4.2851 11.4316,7.8337 27.9456,6.4434 36.8291,18.2622 13.0707,13.6639 21.0881,32.9656 18.2983,52.0212 -1.2195,10.0332 -4.0438,19.8276 -7.0939,29.4016 -3.2205,11.344 -32.9305,27.555 -27.2468,28.549 24.1477,-2.26 47.8295,-24.271 24.8819,10.806 -2.3396,4.073 -5.7202,9.777 -0.2043,3.632 C -29.7584,143.504 -12.955,130.545 -0.333856,113.84 10.0005,97.5017 17.6111,79.0853 18.5794,59.5948 19.449,39.8685 9.22915,23.7292 -1.93887,8.56396 -20.2703,-12.0189 -68.0608,-44.8083 -97.458,-36.1886 c -7.473,2.1086 -16.242,8.4009 -12.892,17.2518 2.354,11.65092 -15.936,7.2153 -22.995,5.601 -2.049,10.40186 14.026,12.01947 21.635,12.494556 6.508,0.00423 20.6752,4.721194 19.9369,8.592714 -9.7069,-0.25624 -20.0429,-3.55866 -29.4049,-1.00703 -1.217,1.19325 -1.797,2.84259 -2.613,4.29946 z"
           style="fill:#fcef3c;fill-opacity:1;stroke:#000000;stroke-width:1.57077003"
           id="path2333-1" />
        <path
           d="m -34.9079,207.738 c -31.489,1.036 -23.0092,-35.272 -9.3805,-47.926 6.8672,-6.376 17.4762,-40.041 8.5243,-31.795 -43.9623,37.546 -65.1959,-17.182 -98.8989,-21.503 -13.735,5.66 8.017,1.995 9.79,9.788 9.231,8.2 -6.39,22.613 8.384,25.788 3.913,19.952 44.509,14.579 45.7633,15.865 -8.1123,7.142 -18.9343,8.1 -29.0766,9.89 -12.7317,4.646 10.9866,3.498 14.486,9.239 6.9804,4.181 7.234,19.109 17.8326,11.689 8.0398,6.99 10.4357,20.014 21.7517,23.398 3.4885,4.463 21.7014,-2.841 10.8241,-4.433 z"
           style="fill:#fcef3c;fill-opacity:1;stroke:#000000;stroke-width:1.57077003"
           id="path2323-5" />
        <path
           d="M 38.4183,87.5011 C 32.6806,82.8829 27.6209,77.2947 24.4055,70.6179 c -1.6731,-2.6249 -3.8819,-4.9196 -4.743,-8.0052 -0.5718,-1.462 -1.1833,-4.2623 -1.1801,-1.1759 -0.9114,9.2574 -2.4907,18.5085 -5.7143,27.2651 -0.6559,3.1651 -2.6426,6.1472 -3.66437,8.9483 3.05167,-0.893 6.26917,-3.9734 8.58367,-0.173 2.0515,1.9109 4.2463,4.1528 5.0777,6.5248 2.0618,-1.879 2.082,-5.324 2.4784,-7.996 -0.32,-3.0099 1.0092,-5.6918 4.0714,-6.4882 2.9333,-2.3896 6.5323,0.4494 9.8009,0.5045 2.982,0.4072 0.0014,-1.9195 -0.6975,-2.5212 z"
           style="fill:#fcef3c;fill-opacity:1;stroke:#000000;stroke-width:1.57077003"
           id="path2327-2" />
        <path
           d="m -51.8399,124.812 c 1.6693,6.094 6.4567,-0.952 8.5603,-3.211 7.0144,-5.126 13.237,-33.5828 8.7401,-49.8044 -6.9027,29.3064 -8.0545,31.1374 -32.9425,43.6114 17.5107,1.286 6.9036,2.427 15.6421,9.404 z"
           style="fill:#fcef3c;fill-opacity:1;stroke:#000000;stroke-width:1.57077003"
           id="polygon2329-7" />
        <path
           d="m -59.4786,27.2254 c -7.2827,-6.0287 -18.1273,-5.8935 -26.8152,-10.0426 8.9643,9.9604 16.329,13.9789 11.0931,28.6209 11.039,1.23 5.1839,-14.8768 9.0066,-16.7745 7.0835,8.247 7.793,18.8001 4.3625,28.7321 15.2752,-3.7231 11.1968,-23.2148 2.353,-30.5359 z"
           style="fill:#fcef3c;fill-opacity:1;stroke:#000000;stroke-width:1.57077003"
           id="path2331-6" />
        <path
           d="m -92.7881,-37.476 c 8.2719,-0.741 16.3999,-2.597 24.5574,-4.0756 4.2048,0.0296 8.166,-4.6441 10.4103,-5.4444 1.6216,3.5209 -8.9694,8.5116 -1.2835,8.8714 9.5884,0.8918 19.6851,-2.3239 26.4565,-9.2898 9.0089,4.1614 -14.8877,11.4452 -7.0937,14.7866 12.6198,4.5197 25.3338,8.2125 36.17043,-2.0307 4.88628,9.2836 -15.81503,12.6804 -21.00633,14.1476 14.2712,12.42928 29.8035,38.0635 50.9344,24.09764 -6.6368,15.28046 -29.2467,7.38706 -38.575,-0.96887 -3.588,-3.465794 -4.5162,1.61851 -1.5613,3.67605 3.6656,5.13478 -4.4665,1.05421 -4.9096,-1.7497 -1.6408,-8.73032 -11.3739,2.66959 -8.7543,-2.86134 6.1774,-10.76301 -13.0253,-21.60058 -8.7354,-13.01878 6.3585,7.23796 -13.7272,19.73629 -17.1327,14.20715 C -26.1053,-27.4146 -73.2495,-34.5535 -92.7881,-37.476 z"
           style="fill:#fcef3c;fill-opacity:1;stroke:#000000;stroke-width:1.57077003"
           id="path2339-1" />
        <path
           d="m -47.7693,12.3982 c 13.4501,9.2825 24.9973,22.7885 28.3271,39.1421 4.9425,20.1182 -2.5426,39.0001 -6.6704,58.3017"
           style="fill:#fcef3c;fill-opacity:1;stroke:#000000;stroke-width:1.57077003"
           id="path2349-4" />
        <path
           d="m 18.168,66.8185 c 6.4181,8.8271 3.5199,20.1757 3.608,30.418"
           style="fill:#fcef3c;fill-opacity:1;stroke:#000000;stroke-width:1.57077003"
           id="path2367-2" />
        <path
           d="m -122.579,135.386 c 15.262,11.002 37.8315,11.062 56.1952,12.373"
           style="fill:#fcef3c;fill-opacity:1;stroke:#000000;stroke-width:1.57077003"
           id="path2369-3" />
        <path
           d="m -80.3019,180.238 c 5.2861,-8.861 13.1563,-15.71 20.1062,-23.199"
           style="fill:#fcef3c;fill-opacity:1;stroke:#000000;stroke-width:1.57077003"
           id="path2371-2" />
        <path
           d="m -75.1486,183.334 c 6.7346,-16.995 30.7397,-31.019 36.6061,-47.43"
           style="fill:#fcef3c;fill-opacity:1;stroke:#000000;stroke-width:1.57077003"
           id="path2373-2" />
        <path
           d="m -18.9838,160.197 c 0.4436,-12.324 5.4567,-25.146 12.89013,-35.057"
           style="fill:#fcef3c;fill-opacity:1;stroke:#000000;stroke-width:1.57077003"
           id="path2375-1" />
        <path
           d="m -63.489,-14.0897 c 4.6504,8.88243 3.2295,18.67413 -7.6136,25.085 4.8913,-1.2174 14.0361,-7.35451 15.1241,-14.28783 0.0329,-5.35093 -2.6033,-8.04227 -7.5105,-10.79717 z"
           style="fill:#fcef3c;fill-opacity:1;fill-rule:evenodd;stroke:#000000;stroke-width:1.09693003px;stroke-linecap:butt;stroke-linejoin:miter;stroke-opacity:1"
           id="path6368" />
        <g
           transform="translate(-394.01,-243.482)"
           id="g8308"
           style="fill:#fcef3c;fill-opacity:1">
          <ellipse
             ry="2.6719999"
             rx="2.97"
             cy="478.45001"
             cx="471.716"
             transform="matrix(1.73628,0,0,1.73628,-510.482,-601.884)"
             style="fill:#fcef3c;fill-opacity:1;stroke:#000000;stroke-width:0.90467399"
             id="ellipse2343-6"
             sodipodi:cx="471.716"
             sodipodi:cy="478.45001"
             sodipodi:rx="2.97"
             sodipodi:ry="2.6719999"
             d="m 474.686,478.45001 c 0,1.47571 -1.32971,2.672 -2.97,2.672 -1.64028,0 -2.97,-1.19629 -2.97,-2.672 0,-1.4757 1.32972,-2.672 2.97,-2.672 1.64029,0 2.97,1.1963 2.97,2.672 z" />
          <circle
             r="1.039"
             cy="477.70801"
             cx="470.677"
             transform="matrix(1.73628,0,0,1.73628,-510.482,-601.884)"
             style="fill:#fcef3c;fill-opacity:1;stroke:#000000;stroke-width:0.90467399"
             id="circle2345-8"
             sodipodi:cx="470.677"
             sodipodi:cy="477.70801"
             sodipodi:rx="1.039"
             sodipodi:ry="1.039"
             d="m 471.716,477.70801 c 0,0.57382 -0.46517,1.039 -1.039,1.039 -0.57382,0 -1.039,-0.46518 -1.039,-1.039 0,-0.57383 0.46518,-1.039 1.039,-1.039 0.57383,0 1.039,0.46517 1.039,1.039 z" />
          <path
             d="m 293.716,226.987 c 11.406,-2.941 28.796,-10.682 35.65,9.687 -9.381,-18.326 -20.979,-9.995 -35.65,-9.687 z"
             style="fill:#fcef3c;fill-opacity:1;stroke:#000000;stroke-width:1.57077003"
             id="polygon2341-5" />
        </g>
      </g>
      <g
         transform="translate(-434.15108,-188.15421)"
         id="layer2-7"
         style="fill:#fcef3c;fill-opacity:1;display:inline" />
      <g
         transform="matrix(0.53398494,0,0,0.53398494,305.14771,10.309111)"
         style="fill:#fcef3c;fill-opacity:1;display:inline"
         id="g2932">
        <g
           id="g30755"
           transform="translate(-1.9298246,-23.566782)"
           style="fill:#fcef3c;fill-opacity:1;stroke:#000000;stroke-opacity:1;display:inline">
          <path
             sodipodi:nodetypes="cccccccccccccccccccccccccccccccccccccccccccccccccccccccccccccccccccccccccccccccccccccccccccccccccccccccccccccccccccccccccccccccccccccccccccccccccccccccccccccccccccccccccccccccccccccccccccccccccccccccccccccccccccccccccc"
             id="path1948"
             d="m 372.39554,267.2166 c -5.55835,-6.74073 -43.39333,-34.23787 -51.01498,-38.3995 -15.80628,12.81251 9.80673,8.3986 -9.08218,9.32085 2.58161,-3.31789 -18.77078,0.69555 -18.20448,-4.63767 -18.93356,7.91081 -22.22485,8.81535 -46.36679,8.39276 0.68231,-5.16207 -12.60825,-1.99202 -9.88603,-7.15408 -13.51266,3.66084 -20.50271,16.16518 -45.76098,14.71924 -12.18687,9.53555 -29.29953,36.38998 -55.74358,37.26938 -2.34021,-0.58131 -1.21467,-2.89549 -0.55308,-4.9777 3.3399,-1.756 5.53352,-5.80456 7.87154,-9.56432 -2.28349,-3.10575 -4.6814,-6.09708 -9.01125,-7.15647 -1.63681,-5.28124 -4.9338,-10.56248 -9.17323,-15.84372 -2.83057,-1.75513 -4.87897,-0.86482 -7.70954,-0.58663 -0.15343,6.07268 -0.47787,12.14535 0.87706,18.21803 -3.71109,1.82448 -6.76223,3.08187 -7.90509,6.96092 2.60419,3.66982 5.3063,7.2662 9.95541,9.40234 0.54432,2.55854 1.55572,5.30392 -0.39109,6.86602 -4.24026,2.18937 -8.48053,2.53401 -12.72079,0.55308 -0.28509,-5.95071 3.9005,-13.4793 -4.42463,-16.59235 -10.179362,-1.40931 -19.619168,-0.59995 -28.76006,1.10616 -2.006379,0.045 -3.432733,1.25012 -4.939162,2.29505 -1.258411,1.4473 -1.445485,2.89459 -1.144698,4.34189 4.647859,0.97441 9.277577,1.9851 12.396812,6.01676 1.691093,4.30646 0.410493,6.55009 0.06134,10.34648 l 4.763994,2.16321 6.56021,-0.27487 c 6.006876,3.31847 3.17817,6.63693 0.553078,9.9554 -5.534029,-1.29052 -9.242499,-2.58103 -12.720796,-3.87155 0.766278,5.12293 -0.385517,7.94418 -2.212313,9.95541 -6.268218,2.19392 -12.536437,2.61761 -18.804655,2.21231 1.271845,6.67544 8.660979,10.80201 16.039264,14.93311 4.659942,1.73568 7.928772,1.38467 10.508485,0 6.138904,-0.30268 10.782368,0.46279 13.273875,2.76539 0.515989,-3.50283 0.307051,-7.00566 2.765386,-10.50848 3.01304,-1.66474 5.21172,-0.88638 7.19002,0.55308 0.30867,5.78617 -4.11057,8.87068 -7.19002,12.72079 0.16228,4.25683 0.70977,8.22474 4.97771,9.40232 -1.74106,6.54131 -2.48426,12.75 -1.10616,18.25159 10.43537,-1.72388 18.03525,-7.54347 23.78236,-16.03927 4.28486,-3.12982 9.08876,-5.97129 8.84925,-11.61464 -4.14367,-1.89468 -8.61146,-3.73043 -7.19001,-6.63694 6.79819,-7.10986 14.08904,-9.34777 21.92758,-7.61465 1.92809,6.93908 -3.27728,9.12252 -5.53078,13.27387 3.90378,-0.48232 7.21763,-1.40711 9.04479,-3.4469 5.98442,-6.98703 12.37069,-13.3043 19.91081,-17.6985 2.22424,0.66803 3.11519,2.22492 2.21232,4.9777 l -10.67048,10.0503 c 6.46537,1.97468 11.2664,-2.02589 16.72079,-5.10614 7.37513,-11.70651 13.6735,-18.66541 17.92759,-17.34096 3.48313,7.54097 12.48109,12.11242 22.6762,16.03926 l -6.2794,-13.59787 c 4.99521,-10.83187 21.31526,-12.22641 32.07852,-18.25157 4.83835,10.78971 14.3728,19.44481 24.88852,27.6539 18.84505,10.26716 50.891,22.00108 53.0955,30.41929 -31.08096,0.62964 -59.38884,-11.68177 -89.04558,-17.69849 -24.13092,-2.79829 -32.13134,5.03248 -38.16238,9.40233 -10.62809,14.39996 -10.03875,26.93035 -14.93312,40.3747 -4.60899,2.80447 -9.21796,2.4556 -13.82695,1.65923 -11.70783,-7.01287 -11.24125,-15.62167 -10.08384,-24.69297 -7.69415,2.475 -12.60455,11.92521 -12.16772,24.88851 0.69805,8.73385 5.94442,13.96899 13.40231,17.50296 10.81727,4.89572 21.12212,6.33273 29.86622,-2.76539 6.60995,5.155 11.42019,11.59551 14.38003,19.35773 -1.81636,22.919 -27.50099,34.20438 -34.29084,37.05624 -2.30312,-3.87155 -0.61153,-7.74309 0,-11.61464 -0.1439,-4.62922 -1.6464,-8.57913 -3.87155,-12.16772 l -10.50848,-0.55308 c -5.20456,-9.20399 -13.98152,-4.83283 -21.57005,-4.9777 2.64109,3.62713 6.57698,6.15501 7.35201,11.64819 -0.93968,5.43952 -4.30789,6.8315 -6.63694,9.95541 7.66735,7.43352 11.61362,11.51808 14.0896,14.27938 1.30345,4.95526 -1.34357,4.37588 -3.02803,4.84926 -3.40108,2.53672 -8.84755,-5.15356 -13.27388,-7.74309 -3.70955,-0.28089 -7.41911,1.31713 -11.12866,4.16197 -13.6718,0.89191 -16.35533,9.71981 -21.11186,17.05054 6.42911,0.20072 12.90419,-0.96344 17.86049,1.20105 4.70216,4.28928 9.25116,8.53259 8.84925,11.29065 4.71709,0.48717 8.26759,-1.65045 10.89957,-5.85477 5.91031,-0.59151 7.53427,0.76532 7.74309,2.76539 -7.38088,3.66374 -13.06119,7.43375 -12.16772,11.61463 l 4.97771,7.19002 c -1.91278,5.34643 -1.77961,10.69285 -1.10616,16.03928 1.83785,4.92596 3.08518,4.53731 4.42463,4.97769 5.98774,-8.82667 7.99017,-10.34695 11.06156,-13.82695 10.35483,-2.54913 12.02667,-10.10769 8.84924,-20.46389 2.68416,-5.93304 7.45319,-5.09031 12.16773,-4.42462 0.45018,5.72633 -0.34581,11.45264 -2.50276,17.17897 2.58544,3.35395 3.94984,3.50312 7.57535,4.25688 -0.90633,6.49058 -1.85495,12.37264 0.81573,18.35222 11.41273,-1.54802 11.05641,-10.94207 15.48618,-17.14542 3.39318,-3.59563 3.70368,-9.41946 3.44691,-13.53652 l -7.12291,-11.31845 c 4.12283,-8.80301 12.90355,-10.44003 23.78235,-8.84924 -2.62199,4.60898 -0.75645,9.21796 -0.55307,13.82695 5.98974,5.26392 11.67681,12.04122 17.14542,19.91081 1.26744,-3.79667 3.41598,-6.93253 2.76539,-12.16773 -4.90242,-5.8744 -9.5271,-11.65623 -8.29618,-15.48618 0.37329,-8.84011 5.06853,-9.03634 8.29618,-12.16771 -1.57538,5.71514 -1.00445,11.43028 0,17.14542 0.25054,4.61319 2.79958,7.94943 7.74309,9.95541 10.3216,-2.76224 15.7647,0.57365 22.12313,2.76538 -0.53513,-4.63346 -4.18623,-8.57447 -9.40233,-12.16772 -8.76165,-3.0814 -6.72774,-8.18696 -7.7431,-12.7208 -0.69371,-6.41201 0.95493,-7.35849 1.65923,-10.50848 4.1317,4.03215 4.27248,11.25702 6.08387,17.14542 10.606,5.81266 16.02088,6.4342 22.12312,7.7431 1.82359,-1.48155 1.85665,-3.55993 0.55308,-6.08386 -4.21143,-3.11401 -8.90833,-5.01439 -12.16772,-10.50848 -4.11188,-6.19818 -1.95685,-8.97806 -0.55307,-12.16772 8.83744,-3.12628 18.17612,-5.77816 18.96664,-11.4191 5.55363,-6.83396 7.63046,-15.31763 8.29616,-24.33544 -3.0115,-9.41916 -7.48598,-16.04538 -16.20125,-14.57558 1.66186,5.8995 4.54877,11.79901 3.31847,17.69851 1.54493,8.55759 -3.27166,10.11751 -6.63694,13.27387 0.46378,-3.52659 0.49886,-6.94601 -1.10615,-9.95541 -7.84527,-12.16549 -17.18618,-23.99862 -16.03927,-38.16238 3.10738,-7.74402 9.33211,-8.2142 15.48619,-8.84925 l 34.81037,-0.97772 c 10.91887,-6.43488 20.46429,-7.37595 30.4193,-9.95541 -10.93928,19.8358 -24.49381,39.34469 -27.62035,60.15708 0.61425,11.43062 2.31101,21.56223 5.53077,29.86622 5.82767,9.78461 3.24194,13.9603 3.31847,19.91081 -5.14136,2.43393 -13.41171,-0.76432 -21.01697,-2.76539 -1.78759,7.64412 5.9641,11.3603 12.7208,15.48619 11.21462,-0.2275 14.02463,-2.13591 17.6985,-3.87155 6.8256,-5.98953 8.19229,-14.70851 8.84925,-23.78236 17.14543,2.42957 33.50867,1.53078 50.65409,0.32399 -0.63763,16.40798 -15.26647,32.81597 -24.8885,49.22395 -3.39662,0.83545 -6.11629,0.76831 -6.40785,-2.5363 l 1.65922,-3.87155 c 0.72069,-2.97992 -0.33396,-5.24971 -2.2123,-7.19001 -11.33448,-0.9079 -22.47976,-2.47796 -34.81037,0.10065 -2.41551,2.30912 -4.57626,4.61824 -4.42463,6.92738 6.88048,3.37246 11.69309,6.74492 15.45264,10.11738 0.74657,3.12041 1.54883,6.15727 3.31846,7.7431 l 11.61465,1.65924 c 1.27715,3.13411 1.90779,6.26822 1.10615,9.40233 -4.96523,-0.0375 -9.36354,-1.77559 -13.82696,-3.31847 -2.56209,3.03774 -6.15132,5.91748 -2.2123,9.9554 -5.17016,3.45776 -6.68399,6.45847 -7.7431,9.40233 -1.54315,6.82539 -1.04325,12.42495 0,17.6985 0.49379,3.8683 2.99851,4.72021 5.53079,5.53078 6.18802,-7.16192 11.68084,-13.28101 12.72079,-12.7208 4.2974,-4.86607 7.16443,-3.29547 10.50849,-3.87154 1.75761,-5.41026 1.99043,-13.26016 6.08385,-14.93312 2.17067,0.26765 4.75236,-0.28673 4.42463,4.97771 -4.49098,3.68719 -5.07665,7.37438 -6.63693,11.06157 6.03836,4.66538 10.2637,9.12931 11.61463,13.27387 7.62028,5.34671 14.4078,8.19511 20.46389,8.84924 -1.7813,-6.80053 -2.35906,-13.19989 -5.53078,-20.46389 4.35185,-2.38272 3.4122,-5.42687 3.87155,-8.29616 -0.81835,-2.60416 -1.69702,-5.22554 -6.08387,-8.84926 -2.52422,0.82239 -2.80477,-2.28165 -3.31847,-4.9777 5.39315,-3.90993 8.20973,-1.63612 11.06157,0.55308 1.43934,2.50774 1.77796,4.64857 1.65924,6.63694 -1.79856,2.58103 -0.71985,5.16206 0.55307,7.74309 3.8226,0.69992 8.14877,-0.11089 10.50848,4.97771 -1.0761,7.31686 -0.25783,12.17104 3.87155,12.72079 3.47334,-1.70347 5.80201,-5.12394 7.19002,-9.95541 2.35621,-9.41582 2.98399,-19.40777 2.21231,-29.86621 -3.26846,-3.04977 -6.8384,-5.49658 -12.16772,-4.42463 -2.68567,-3.12272 -1.29381,-5.66293 3.31847,-7.74309 7.23408,-1.26533 10.0331,-5.06499 13.82696,-8.29617 3.50282,2.95077 8.57,13.45582 12.07283,11.58684 6.63369,0.2742 7.9859,6.06305 9.40232,6.63694 l -0.45818,-13.24607 c -6.50677,-4.81371 -11.69934,-10.53092 -9.95541,-21.01698 l 12.16772,12.7208 c 8.39393,0.66975 8.49364,7.08166 10.50848,12.16771 3.83808,-1.36755 5.3662,-5.50705 6.63694,-9.9554 -6.09356,-8.47776 -11.8768,-17.04419 -14.38004,-26.54775 -2.14412,-8.73027 2.30741,-7.93348 4.42463,-10.50849 1.563,10.40274 5.94411,17.42374 12.7208,21.57005 7.52098,2.21011 14.46588,2.98001 19.91081,0 8.64004,-8.86322 16.70115,-18.0521 17.14542,-31.52545 -12.87455,8.98133 -27.84768,31.88964 -35.39699,5.53079 -1.17397,-6.91969 0.89926,-12.9116 3.31846,-18.80467 0.71594,-8.37421 -0.32869,-17.10054 -2.21232,-25.99466 4.89604,0.0607 8.85016,2.94705 12.7208,6.08385 1.74275,3.96121 2.72633,8.68159 3.99999,13.11189 1.97981,-5.9268 4.19535,-11.75257 2.63695,-19.19574 -6.08975,-12.27924 -15.40716,-18.31833 -29.31314,-15.48619 -17.72587,3.88808 -32.1321,10.24732 -50.10102,15.45264 -8.48247,-5.99071 -6.24556,-17.14556 -2.4414,-29.27959 17.38682,-1.67476 28.49682,-9.99555 37.05624,-21.01697 3.8438,-12.39368 5.16884,-25.9257 6.92737,-41.4473 -4.05354,-13.83814 -6.79301,-27.67628 -15.77663,-41.51441 -8.62473,-18.73626 -7.69471,-30.43216 -6.63694,-42.03394 6.31011,-26.93145 19.13712,-45.94952 32.63162,-64.15707 5.22455,-11.34424 10.76227,-22.39939 9.40232,-39.82162 -6.86853,-15.1261 -23.45954,-39.10385 -16.3968,-42.62056 1.31618,-6.20149 5.40026,-4.11139 9.20679,-3.83799 7.24711,0.093 11.23323,5.40358 16.03926,9.40232 1.0433,-6.2944 -5.80337,-14.76823 -10.73757,-23.553264 -4.06498,-5.985494 -10.31062,-8.855768 -18.02249,-9.631421 -11.94649,2.055609 -14.24941,11.343883 -18.25158,19.357735 -5.59129,-3.390054 -12.33995,-5.126695 -21.57004,-3.318469 -4.84034,-0.259049 -7.67748,-5.19226 -11.06156,-8.84925 -0.40633,8.39462 1.15408,16.461449 3.87155,24.335439 1.33958,5.31916 2.90784,10.51128 8.84924,13.27388 l 6.63694,2.2123 c -2.38824,4.06153 -7.36702,6.39604 -5.53078,13.27388 4.29325,5.83169 7.63358,11.93564 8.29617,18.80466 -0.33016,5.7537 -2.60212,9.5656 -4.9777,13.27387 5.52284,0.17444 10.90573,0.17393 14.38003,-2.21232 4.34972,-1.71915 5.90835,-5.67117 7.74309,-9.40232 -0.54644,-9.03361 -2.34196,-18.06722 0,-27.10083 4.89088,-0.97592 7.62948,1.27656 9.40232,4.97771 7.81514,15.87796 3.63703,26.11204 3.31847,38.16238 -9.96706,24.70416 -24.6775,49.40831 -37.05622,74.11247 -3.50926,10.4481 -0.94239,19.88352 1.65923,29.31315 9.70803,18.47893 11.73107,32.56645 14.38003,47.01163 5.25558,13.49675 1.49444,26.24211 1.10615,39.26855 0.0735,4.68779 -1.95608,7.87343 -5.53078,9.9554 -4.54238,3.46872 -9.93279,5.80674 -16.03926,7.19002 -1.10324,-6.8213 -1.1243,-13.6426 -7.19001,-20.46389 -18.00893,-22.4792 -41.87606,-45.36712 -38.71548,-66.36937 -0.0358,-10.09025 5.948,-24.19161 8.74393,-33.33794 z"
             style="fill:#fcef3c;fill-opacity:1;fill-rule:evenodd;stroke:#000000;stroke-width:3;stroke-linecap:butt;stroke-linejoin:miter;stroke-miterlimit:4;stroke-opacity:1;stroke-dasharray:none" />
          <path
             sodipodi:nodetypes="cccccccccccccccccccccccccccccccccccccccccccccccccccccc"
             id="path1932"
             d="m 373.20806,266.0879 c -4.72365,-12.7678 -9.04425,-25.84376 -5.52263,-40.67287 l 10.16821,4.69302 c -7.62917,-11.4582 -10.39202,-26.76567 -7.59262,-40.30958 3.11972,1.69022 9.38854,7.44385 15.41433,10.5871 -7.14634,-15.64342 -3.37085,-31.28682 -3.91085,-46.93024 l -2.34651,-10.16821 8.05079,-0.22909 C 374.79652,128.1624 377.38729,104.67624 363.22149,93.781282 l 7.59261,-9.939124 c 1.65754,-3.128682 -0.47898,-6.257365 -1.56433,-9.386047 -3.82956,-9.027189 -11.40955,-11.10661 -17.98993,-14.632147 l -8.60387,3.68176 -10.16822,10.168218 c -18.36099,-4.256114 -26.06411,-3.944569 -34.41551,-3.910853 l -10.16821,5.475193 -5.47519,7.039535 -1.56435,7.039535 -24.24728,11.732558 c -0.9086,2.47556 -2.54524,5.1938 0.78216,6.25736 2.70832,1.21794 5.31432,2.5723 6.48646,5.83849 -1.48894,3.2683 -2.38137,6.53661 -1.79343,9.80492 0.38989,3.52382 0.74042,7.05748 3.16224,10.07332 27.73144,-6.9893 18.51641,-9.92366 29.10229,-10.26886 6.04973,0.25008 8.25131,0.76724 10.95039,3.91086 l 1.59789,6.22381 c -4.50866,-0.69105 -9.01733,-0.21688 -13.52599,-2.8996 -8.38276,-0.72083 -14.77659,3.181 -21.1186,7.03954 -26.49995,16.58571 -80.4395,-0.37657 -32.03545,-23.9372 -34.1545,-2.31143 -53.09144,44.00408 -10.28853,48.62878 19.31423,1.43217 23.00494,-4.85862 39.60027,-10.64605 4.85834,1.22351 3.5917,9.41613 5.8524,9.72969 1.17019,3.03029 4.07758,4.51892 6.71553,6.08146 8.87683,-0.34976 15.95313,0.4773 17.53175,3.77665 1.52338,2.4564 0.61279,3.69581 -0.78217,4.69303 -2.72281,4.48527 -6.61596,7.80019 -11.55091,10.07331 -5.70429,0.99081 -11.40857,0.22331 -17.11286,-0.18162 -10.1059,-5.90447 -14.52713,-11.80893 -18.86699,-17.71339 -0.28276,6.84557 -0.18461,15.24602 2.39395,19.23027 -9.00464,-0.1648 -17.3179,2.09018 -24.8478,7.08699 -14.76755,8.90658 -29.32356,22.8669 -42.00813,35.24512 -9.75328,4.59799 -19.20483,10.55382 -30.3623,8.83296 -19.92061,-9.97473 -9.45669,-20.69283 -6.25736,-27.37596 -7.3182,0.40165 -10.31933,6.92044 -13.24946,15.36687 -0.47174,7.14843 -0.32892,13.31873 3.58686,19.73591 8.1445,7.28947 13.5361,6.88455 18.7721,7.86915 12.64842,-0.57373 24.29616,-2.64848 35.47421,-5.42775 -7.97617,4.56749 -10.56292,7.00623 -11.27438,10.12077 28.10997,4.36697 39.11869,-5.71545 58.6628,-8.60387 -4.07139,5.86459 -10.49326,12.06495 -9.84423,17.25519 32.89477,1.79278 58.32405,-13.4951 68.78356,-16.14904 -4.29885,4.65967 -8.27923,9.2397 -3.91085,11.73256 14.24797,0.30026 32.22846,-12.30661 36.07474,-15.91995 11.9123,5.54166 24.37612,14.47895 39.89069,19.55427 z"
             style="fill:#fcef3c;fill-opacity:1;fill-rule:evenodd;stroke:#000000;stroke-width:3;stroke-linecap:butt;stroke-linejoin:miter;stroke-miterlimit:4;stroke-opacity:1;stroke-dasharray:none" />
          <path
             sodipodi:nodetypes="ccccc"
             id="path1934"
             d="m 310.63213,141.58068 c -6.86981,-0.23513 -14.12842,-0.27891 -24.05175,5.08409 1.76277,1.61802 3.63349,4.17299 5.86629,3.91087 l 6.4529,0 c 7.31788,-2.14656 10.66123,-5.28677 11.73256,-8.99496 z"
             style="fill:#e20909;fill-opacity:1;fill-rule:evenodd;stroke:#000000;stroke-width:3;stroke-linecap:butt;stroke-linejoin:miter;stroke-miterlimit:4;stroke-opacity:1;stroke-dasharray:none" />
          <path
             sodipodi:nodetypes="cscscccc"
             id="path1936"
             d="m 303.07185,139.27393 c 0,0 4.10406,-5.97003 3.68093,-6.03262 -9.82073,-1.45274 -13.33047,-2.90808 -13.33047,-2.90808 -12.58828,0.99047 -15.0521,4.90558 -26.89958,9.48724 -11.32237,4.37858 -17.80302,4.10154 -24.5294,4.63368 -18.57456,-1.49868 -35.37684,-10.67531 -7.53293,-29.96194 -43.70317,12.67712 -31.78995,51.64499 6.96412,47.09553 25.40013,-8.05794 34.15613,-17.59538 61.64733,-22.31381 z"
             style="fill:#fcef3c;fill-opacity:1;fill-rule:evenodd;stroke:#000000;stroke-width:3;stroke-linecap:butt;stroke-linejoin:miter;stroke-miterlimit:4;stroke-opacity:1;stroke-dasharray:none" />
          <path
             sodipodi:nodetypes="ccccccccccccccccccccccccccccccccccccccccccccc"
             id="path1938"
             d="m 232.02399,190.66187 c -24.24843,-17.26088 -40.79511,-38.14613 -47.32132,-63.74689 1.30363,-3.91825 3.91085,-7.0321 7.82171,-9.38605 l 0.39108,-5.47519 c -3.20321,-2.01127 -5.90877,-4.52018 -7.03953,-8.60388 -1.33291,-6.242719 -5.32762,-11.154534 -8.60388,-16.425582 -4.31567,-4.024063 -8.43929,-3.856254 -11.73256,-4.301938 0.94505,6.387726 -0.0752,12.775453 -1.17325,19.16318 -1.17949,5.33652 -3.12248,9.65505 -5.86629,12.90581 l 6.64845,9.38605 0.97772,4.30193 -9.77713,-0.39108 c -2.04759,-1.32946 -1.70098,-3.25747 -1.75989,-5.08411 l 1.95543,-7.43062 c -0.015,-3.18637 -2.27686,-5.24929 -4.30194,-7.43062 l -6.25736,-0.39108 c -6.15373,-9.149317 -15.8916,-6.94887 -25.02946,-6.64845 -0.72649,1.35929 -2.02151,2.15006 -0.78217,5.47519 l 8.60388,8.60388 0.39108,13.2969 c 2.69421,2.57822 5.94054,4.69631 11.73256,4.69302 3.56124,6.35413 1.48582,7.82318 -2.7376,7.43062 -3.98365,-0.72392 -4.23898,-4.43051 -5.86628,-7.03953 -4.18101,-1.65011 -6.22087,-1.58729 -7.8217,-1.17325 l -6.25737,7.03953 c -5.46466,0.66498 -9.13581,1.81194 -12.51473,5.0841 0.61033,4.01159 3.90299,4.67027 6.45291,6.25737 2.86506,-0.0565 5.27516,1.25193 7.62616,2.7376 0.96937,2.25291 2.70711,4.31719 4.69303,6.06182 4.59933,-1.44214 8.95153,-2.39002 12.51473,-1.75989 3.35883,1.06766 3.80795,2.58296 0.39108,4.69303 -7.02943,-0.25568 -9.01548,2.01035 -10.95039,4.30193 1.04289,4.17158 1.0429,7.56098 0,10.16822 -3.65013,7.09537 -7.30025,10.30979 -10.95038,14.47016 5.69675,0.31275 11.24791,0.33432 16.42558,-0.39109 2.62263,-1.27283 5.30986,-2.41644 7.43062,-4.69302 3.31905,0 5.5066,0 7.8217,0 1.69471,-2.31365 3.38941,-5.12188 5.08411,-8.99496 3.09135,-0.38206 5.85959,-1.81421 10.95039,4.30193 -0.31891,6.41178 -1.63943,12.48971 -3.51976,18.38101 4.83443,1.41851 8.70354,-1.50692 12.51472,-4.69302 1.55137,7.13864 0.37256,11.7773 -0.39108,17.98993 5.73591,-3.51978 9.64676,-4.69303 11.73256,-3.51978 l 4.30193,18.38101 c 15.48938,-8.87544 28.71271,-27.64592 44.19264,-37.54419 z"
             style="fill:#fcef3c;fill-opacity:1;fill-rule:evenodd;stroke:#000000;stroke-width:3;stroke-linecap:butt;stroke-linejoin:miter;stroke-miterlimit:4;stroke-opacity:1;stroke-dasharray:none" />
          <path
             sodipodi:nodetypes="ccccc"
             id="path1940"
             d="m 163.76386,105.40529 c 4.30194,-1.44232 17.97751,-1.20882 22.27945,-0.0439 l -3.47172,-7.534194 c -2.9386,-6.444718 -8.63958,-12.738329 -15.05264,-13.624183 0.38339,6.434686 -2.09477,15.278531 -3.75509,21.202297 z"
             style="fill:#fcef3c;fill-opacity:1;fill-rule:evenodd;stroke:#000000;stroke-width:3;stroke-linecap:butt;stroke-linejoin:miter;stroke-miterlimit:4;stroke-opacity:1;stroke-dasharray:none" />
          <path
             sodipodi:nodetypes="ccccc"
             id="path1942"
             d="m 145.56598,107.53636 c -2.84915,3.54865 -13.51615,6.19688 -16.87219,7.21106 -1.35728,-3.72107 -9.34681,-8.98642 -8.27659,-13.0533 2.96179,-0.67402 10.84756,-0.90549 14.83308,-0.0439 2.50844,0.81783 8.78796,2.12623 10.3157,5.88616 z"
             style="fill:#fcef3c;fill-opacity:1;fill-rule:evenodd;stroke:#000000;stroke-width:3;stroke-linecap:butt;stroke-linejoin:miter;stroke-miterlimit:4;stroke-opacity:1;stroke-dasharray:none" />
          <path
             sodipodi:nodetypes="cccc"
             id="path1944"
             d="m 118.02263,139.78101 c -1.21606,2.04221 -1.76761,8.81191 -0.39108,10.3356 -2.54206,0.0734 -8.55582,-3.06132 -11.09788,-6.01377 1.38159,-2.59125 8.05087,-4.3012 11.48896,-4.32183 z"
             style="fill:#fcef3c;fill-opacity:1;fill-rule:evenodd;stroke:#000000;stroke-width:3;stroke-linecap:butt;stroke-linejoin:miter;stroke-miterlimit:4;stroke-opacity:1;stroke-dasharray:none" />
          <path
             sodipodi:nodetypes="ccccc"
             id="path1946"
             d="m 127.17336,178.19106 c 2.04216,2.28869 6.69321,7.35135 10.29582,8.59974 -2.39054,1.6278 -3.6904,3.05591 -6.58465,3.1726 -2.30058,0.90071 -9.86388,0.88647 -12.68211,-0.28338 3.75224,-2.00215 7.26038,-8.46598 8.97094,-11.48896 z"
             style="fill:#fcef3c;fill-opacity:1;fill-rule:evenodd;stroke:#000000;stroke-width:3;stroke-linecap:butt;stroke-linejoin:miter;stroke-miterlimit:4;stroke-opacity:1;stroke-dasharray:none" />
          <path
             sodipodi:nodetypes="cccc"
             id="path1952"
             d="m 118.06698,248.96503 c -1.35232,3.77936 -1.22541,12.76631 1.10615,16.54567 3.14859,1.61049 11.51391,-0.91756 13.99218,-1.31805 -2.54146,-10.14042 -9.99169,-16.61136 -15.09833,-15.22762 z"
             style="fill:#fcef3c;fill-opacity:1;fill-rule:evenodd;stroke:#000000;stroke-width:3;stroke-linecap:butt;stroke-linejoin:miter;stroke-miterlimit:4;stroke-opacity:1;stroke-dasharray:none" />
          <path
             sodipodi:nodetypes="cccc"
             id="path1954"
             d="m 66.683364,280.16726 c -1.661651,-3.67205 16.465476,-7.48947 20.705741,-5.40749 0.09237,2.7194 -4.13089,13.00178 -6.931448,14.27471 -2.848024,-3.44883 -14.022163,-9.35187 -13.774293,-8.86722 z"
             style="fill:#fcef3c;fill-opacity:1;fill-rule:evenodd;stroke:#000000;stroke-width:3;stroke-linecap:butt;stroke-linejoin:miter;stroke-miterlimit:4;stroke-opacity:1;stroke-dasharray:none" />
          <path
             sodipodi:nodetypes="cccc"
             id="path1956"
             d="m 59.146178,319.62973 c 4.579313,7.9015 17.410058,14.66453 23.477121,14.41599 0.02422,-2.3045 -2.193342,-14.32979 -5.748668,-16.63429 l -17.728453,2.2183 z"
             style="fill:#fcef3c;fill-opacity:1;fill-rule:evenodd;stroke:#000000;stroke-width:3;stroke-linecap:butt;stroke-linejoin:miter;stroke-miterlimit:4;stroke-opacity:1;stroke-dasharray:none" />
          <path
             sodipodi:nodetypes="cccc"
             id="path1958"
             d="m 105.89325,349.16075 c 0.11371,4.52758 0.27293,12.54962 -0.9589,16.40441 7.21548,1.27031 18.93257,-8.12534 22.57088,-14.32138 -3.96372,1.14356 -17.64825,-0.30657 -21.61198,-2.08303 z"
             style="fill:#fcef3c;fill-opacity:1;fill-rule:evenodd;stroke:#000000;stroke-width:3;stroke-linecap:butt;stroke-linejoin:miter;stroke-miterlimit:4;stroke-opacity:1;stroke-dasharray:none" />
          <path
             sodipodi:nodetypes="cccc"
             id="path1960"
             d="m 139.90757,427.20342 c -0.82824,3.6316 3.63156,7.52486 6.36638,10.44385 l 12.44189,-5.17762 c -2.23742,-2.63137 -8.63045,-6.66883 -18.80827,-5.26623 z"
             style="fill:#fcef3c;fill-opacity:1;fill-rule:evenodd;stroke:#000000;stroke-width:3;stroke-linecap:butt;stroke-linejoin:miter;stroke-miterlimit:4;stroke-opacity:1;stroke-dasharray:none" />
          <path
             sodipodi:nodetypes="cccc"
             id="path1962"
             d="m 122.91539,466.60725 c -5.2091,0.3198 -13.63396,8.69805 -17.36931,13.4391 5.44638,-0.0718 13.50892,-2.30104 16.7456,0.57341 1.12168,-3.42981 2.3986,-9.85855 0.62371,-14.01251 z"
             style="fill:#fcef3c;fill-opacity:1;fill-rule:evenodd;stroke:#000000;stroke-width:3;stroke-linecap:butt;stroke-linejoin:miter;stroke-miterlimit:4;stroke-opacity:1;stroke-dasharray:none" />
          <path
             sodipodi:nodetypes="cccc"
             id="path1964"
             d="m 142.58198,509.68269 c -2.06117,4.88552 -0.72781,13.93711 2.84801,19.34339 2.92407,-3.03436 9.26737,-6.5814 10.76468,-11.75591 -2.39667,0.48807 -11.21602,-5.13966 -13.61269,-7.58748 z"
             style="fill:#fcef3c;fill-opacity:1;fill-rule:evenodd;stroke:#000000;stroke-width:3;stroke-linecap:butt;stroke-linejoin:miter;stroke-miterlimit:4;stroke-opacity:1;stroke-dasharray:none" />
          <path
             sodipodi:nodetypes="cccc"
             id="path1966"
             d="m 183.5744,514.22226 c 1.50082,0.98803 10.72224,1.71964 15.16897,-0.23823 -0.78722,5.73634 -8.16069,15.81733 -14.96306,17.33099 -0.79375,-4.42463 -3.43127,-12.66814 -0.20591,-17.09276 z"
             style="fill:#fcef3c;fill-opacity:1;fill-rule:evenodd;stroke:#000000;stroke-width:3;stroke-linecap:butt;stroke-linejoin:miter;stroke-miterlimit:4;stroke-opacity:1;stroke-dasharray:none" />
          <path
             sodipodi:nodetypes="cccc"
             id="path1968"
             d="m 339.99854,508.36465 c -6.65251,-1.1373 -19.4042,0.80257 -20.61713,7.2463 6.59919,4.90827 13.39267,8.08068 15.99259,10.38518 4.53917,-2.55812 3.67687,-14.35507 4.62454,-17.63148 z"
             style="fill:#fcef3c;fill-opacity:1;fill-rule:evenodd;stroke:#000000;stroke-width:3;stroke-linecap:butt;stroke-linejoin:miter;stroke-miterlimit:4;stroke-opacity:1;stroke-dasharray:none" />
          <path
             sodipodi:nodetypes="cccc"
             id="path1970"
             d="m 333.26464,552.7725 c -4.90087,4.94101 -12.94154,20.68212 -0.27054,29.92013 3.55441,-4.38028 10.69654,-7.05349 11.66493,-11.68527 -0.36405,-2.02795 -8.10612,-16.20692 -11.39439,-18.23486 z"
             style="fill:#fcef3c;fill-opacity:1;fill-rule:evenodd;stroke:#000000;stroke-width:3;stroke-linecap:butt;stroke-linejoin:miter;stroke-miterlimit:4;stroke-opacity:1;stroke-dasharray:none" />
          <path
             sodipodi:nodetypes="cccc"
             id="path1972"
             d="m 372.04476,581.95998 c 2.4217,-3.33557 9.84574,-11.97363 13.74196,-10.88562 1.93581,4.70118 5.30332,14.85572 5.05433,18.82863 -5.15725,-1.39232 -15.09208,-3.64462 -18.79629,-7.94301 z"
             style="fill:#fcef3c;fill-opacity:1;fill-rule:evenodd;stroke:#000000;stroke-width:3;stroke-linecap:butt;stroke-linejoin:miter;stroke-miterlimit:4;stroke-opacity:1;stroke-dasharray:none" />
          <path
             sodipodi:nodetypes="ccccc"
             id="path1974"
             d="m 404.05265,565.42029 6.07355,-1.94655 c 0.98603,0.004 5.00547,-0.84919 6.81247,-1.39825 0.29209,5.29534 -6.71693,13.30318 -8.63498,17.12508 -1.47488,0.53146 -2.77616,-10.27908 -4.25104,-13.78028 z"
             style="fill:#fcef3c;fill-opacity:1;fill-rule:evenodd;stroke:#000000;stroke-width:3;stroke-linecap:butt;stroke-linejoin:miter;stroke-miterlimit:4;stroke-opacity:1;stroke-dasharray:none" />
          <path
             sodipodi:nodetypes="ccccccccc"
             id="path1976"
             d="m 287.13765,98.816298 c 1.91242,-3.778149 17.56135,-2.769883 17.42196,-2.212312 4.61045,1.511161 4.95908,4.727054 5.80732,7.743094 l 0.55308,3.59501 -1.93577,-2.21231 c -1.6594,1.56663 -3.92914,1.60743 -6.08386,1.93577 l -2.48885,0.27654 c -3.05322,-2.21903 -4.55659,-5.32369 -5.80733,-8.572713 -3.27458,0.01207 -5.1513,-0.325316 -7.46655,-0.553079 z"
             style="fill:#fcef3c;fill-opacity:1;fill-rule:evenodd;stroke:#000000;stroke-width:3;stroke-linecap:butt;stroke-linejoin:miter;stroke-miterlimit:4;stroke-opacity:1;stroke-dasharray:none" />
        </g>
        <path
           sodipodi:nodetypes="cccccc"
           id="path9897"
           d="m 279.13509,364.99872 c 0.17336,14.17632 18.55567,10.45092 32.92449,7.37318 -1.06385,7.27429 2.71198,9.1535 13.71854,5.03534 l 12.43814,-22.83887 c -8.37472,2.18463 -17.281,4.183 -29.98302,6.24401 -10.79168,2.73797 -18.26316,3.06204 -29.09815,4.18634 z"
           style="fill:#fcef3c;fill-opacity:1;fill-rule:evenodd;stroke:#000000;stroke-width:3.03699994;stroke-linecap:butt;stroke-linejoin:miter;stroke-miterlimit:4;stroke-opacity:1;stroke-dasharray:none;display:inline" />
      </g>
      <rect
         style="fill:#000000;fill-opacity:1;fill-rule:nonzero;stroke:#000000;stroke-width:2.995;stroke-linecap:round;stroke-linejoin:round;stroke-miterlimit:4;stroke-opacity:1;stroke-dasharray:none;stroke-dashoffset:0"
         id="rect4706"
         width="8.0253696"
         height="40.12685"
         x="133.22115"
         y="375.44305"
         transform="translate(0.93063,4.64172)" />
      <rect
         style="fill:#000000;fill-opacity:1;fill-rule:nonzero;stroke:#000000;stroke-width:2.995;stroke-linecap:round;stroke-linejoin:round;stroke-miterlimit:4;stroke-opacity:1;stroke-dasharray:none;stroke-dashoffset:0"
         id="rect4708"
         width="6.4202957"
         height="35.311626"
         x="159.70486"
         y="377.4494"
         transform="translate(0.93063,4.64172)" />
      <rect
         style="fill:#000000;fill-opacity:1;fill-rule:nonzero;stroke:#000000;stroke-width:3.05439425;stroke-linecap:round;stroke-linejoin:round;stroke-miterlimit:4;stroke-opacity:1;stroke-dasharray:none;stroke-dashoffset:0"
         id="rect4710"
         width="5.9596329"
         height="37.935074"
         x="185.54384"
         y="380.51575" />
      <rect
         style="fill:#000000;fill-opacity:1;fill-rule:nonzero;stroke:#000000;stroke-width:3.04866934;stroke-linecap:round;stroke-linejoin:round;stroke-miterlimit:4;stroke-opacity:1;stroke-dasharray:none;stroke-dashoffset:0"
         id="rect4712"
         width="11.583117"
         height="30.492468"
         x="236.90334"
         y="428.26382" />
      <rect
         style="fill:#000000;fill-opacity:1;fill-rule:nonzero;stroke:#000000;stroke-width:2.995;stroke-linecap:round;stroke-linejoin:round;stroke-miterlimit:4;stroke-opacity:1;stroke-dasharray:none;stroke-dashoffset:0"
         id="rect4714"
         width="13.643128"
         height="30.496405"
         x="272.06003"
         y="423.59528"
         transform="translate(0.93063,4.64172)" />
      <rect
         style="fill:#000000;fill-opacity:1;fill-rule:nonzero;stroke:#000000;stroke-width:2.995;stroke-linecap:round;stroke-linejoin:round;stroke-miterlimit:4;stroke-opacity:1;stroke-dasharray:none;stroke-dashoffset:0"
         id="rect4716"
         width="11.235518"
         height="30.496405"
         x="308.97675"
         y="423.59528"
         transform="translate(0.93063,4.64172)" />
      <rect
         style="fill:#000000;fill-opacity:1;fill-rule:nonzero;stroke:#000000;stroke-width:2.995;stroke-linecap:round;stroke-linejoin:round;stroke-miterlimit:4;stroke-opacity:1;stroke-dasharray:none;stroke-dashoffset:0"
         id="rect4718"
         width="12.439323"
         height="32.904015"
         x="344.28836"
         y="423.59528"
         transform="translate(0.93063,4.64172)" />
      <rect
         style="fill:#000000;fill-opacity:1;fill-rule:nonzero;stroke:#000000;stroke-width:2.995;stroke-linecap:round;stroke-linejoin:round;stroke-miterlimit:4;stroke-opacity:1;stroke-dasharray:none;stroke-dashoffset:0"
         id="rect4720"
         width="10.834249"
         height="33.305286"
         x="376.38983"
         y="422.39145"
         transform="translate(0.93063,4.64172)" />
      <rect
         style="fill:#000000;fill-opacity:1;fill-rule:nonzero;stroke:#000000;stroke-width:2.995;stroke-linecap:round;stroke-linejoin:round;stroke-miterlimit:4;stroke-opacity:1;stroke-dasharray:none;stroke-dashoffset:0"
         id="rect4722"
         width="8.8279066"
         height="21.267231"
         x="434.17252"
         y="419.98386"
         transform="translate(0.93063,4.64172)" />
      <rect
         style="fill:#000000;fill-opacity:1;fill-rule:nonzero;stroke:#000000;stroke-width:2.81197548;stroke-linecap:round;stroke-linejoin:round;stroke-miterlimit:4;stroke-opacity:1;stroke-dasharray:none;stroke-dashoffset:0"
         id="rect4724"
         width="7.0045886"
         height="21.70233"
         x="457.43292"
         y="422.12643" />
    </g>
    <g
       sodipodi:insensitive="true"
       inkscape:groupmode="layer"
       inkscape:label="Reflet final"
       transform="translate(-620.03981,-130.51584)"
       style="display:inline"
       id="layer2">
      <path
         sodipodi:nodetypes="cccccc"
         inkscape:export-xdpi="144"
         inkscape:export-ydpi="144"
         d="m 300,658.5 c 0,0 298.5,-112.32 298.5,-397.772 0,-285.4513 0,-258.55151 0,-258.55151 l -597,0 0,258.55151 C 1.5,546.18 300,658.5 300,658.5 z"
         style="fill:url(#radialGradient3163);fill-opacity:1;fill-rule:evenodd;stroke:none"
         id="path2875" />
    </g>
    <g
       sodipodi:insensitive="true"
       inkscape:groupmode="layer"
       inkscape:label="Contour final"
       transform="translate(-620.03981,-130.51584)"
       style="display:inline"
       id="layer1-4">
      <path
         sodipodi:nodetypes="cccccc"
         inkscape:export-xdpi="144"
         inkscape:export-ydpi="144"
         d="m 300.7,659.859 c 0,0 -298.49959,-112.32 -298.49959,-397.772 0,-285.4516 0,-258.55179 0,-258.55179 l 596.99959,0 0,258.55179 c 0,285.452 -298.5,397.772 -298.5,397.772 z"
         style="fill:none;stroke:#000000;stroke-width:3;stroke-linecap:butt;stroke-linejoin:miter;stroke-miterlimit:4;stroke-opacity:1;stroke-dasharray:none"
         id="path1411" />
    </g>
  </g>
</svg>
